G04 #@! TF.GenerationSoftware,KiCad,Pcbnew,(5.1.5)-3*
G04 #@! TF.CreationDate,2019-12-31T00:04:08+10:30*
G04 #@! TF.ProjectId,ATM90E36_Breakout,41544d39-3045-4333-965f-427265616b6f,rev?*
G04 #@! TF.SameCoordinates,Original*
G04 #@! TF.FileFunction,Paste,Top*
G04 #@! TF.FilePolarity,Positive*
%FSLAX46Y46*%
G04 Gerber Fmt 4.6, Leading zero omitted, Abs format (unit mm)*
G04 Created by KiCad (PCBNEW (5.1.5)-3) date 2019-12-31 00:04:08*
%MOMM*%
%LPD*%
G04 APERTURE LIST*
%ADD10C,0.100000*%
%ADD11R,1.270000X2.286000*%
%ADD12R,1.270000X2.794000*%
%ADD13R,1.270000X3.302000*%
%ADD14R,1.000000X1.100000*%
%ADD15R,0.330200X1.498600*%
%ADD16R,1.498600X0.330200*%
%ADD17R,1.100000X1.000000*%
%ADD18R,1.300000X1.500000*%
%ADD19R,1.270000X2.540000*%
%ADD20R,0.800000X0.800000*%
%ADD21R,1.000000X0.700000*%
%ADD22R,1.000000X0.500000*%
G04 APERTURE END LIST*
D10*
G36*
X155957100Y-105078600D02*
G01*
X156207100Y-104828600D01*
X156757100Y-104828600D01*
X156757100Y-105528600D01*
X155957100Y-105528600D01*
X155957100Y-105078600D01*
G37*
G36*
X154482100Y-105553600D02*
G01*
X155332100Y-105553600D01*
X155332100Y-104803600D01*
X154482100Y-104803600D01*
X154482100Y-105553600D01*
G37*
G36*
X155932100Y-104403600D02*
G01*
X156782100Y-104403600D01*
X156782100Y-103653600D01*
X155932100Y-103653600D01*
X155932100Y-104403600D01*
G37*
G36*
X154482100Y-104403600D02*
G01*
X155332100Y-104403600D01*
X155332100Y-103653600D01*
X154482100Y-103653600D01*
X154482100Y-104403600D01*
G37*
D11*
X128073100Y-90190600D03*
X131121100Y-90190600D03*
X135820100Y-90190600D03*
D12*
X128200100Y-82570600D03*
D11*
X134804100Y-82316600D03*
D13*
X136836100Y-82824600D03*
D11*
X128073100Y-102690600D03*
X131121100Y-102690600D03*
X135820100Y-102690600D03*
D12*
X128200100Y-95070600D03*
D11*
X134804100Y-94816600D03*
D13*
X136836100Y-95324600D03*
D11*
X128073100Y-115190600D03*
X131121100Y-115190600D03*
X135820100Y-115190600D03*
D12*
X128200100Y-107570600D03*
D11*
X134804100Y-107316600D03*
D13*
X136836100Y-107824600D03*
D11*
X128073100Y-127690600D03*
X131121100Y-127690600D03*
X135820100Y-127690600D03*
D12*
X128200100Y-120070600D03*
D11*
X134804100Y-119816600D03*
D13*
X136836100Y-120324600D03*
D14*
X142805100Y-97198600D03*
X142805100Y-95498600D03*
X142805100Y-102913600D03*
X142805100Y-101213600D03*
X142805100Y-84498600D03*
X142805100Y-82798600D03*
X142805100Y-90213600D03*
X142805100Y-88513600D03*
X142805100Y-108628600D03*
X142805100Y-106928600D03*
X142805100Y-113835600D03*
X142805100Y-112135600D03*
X140861100Y-95713600D03*
X139161100Y-95713600D03*
X139161100Y-109683600D03*
X140861100Y-109683600D03*
X139161100Y-112223600D03*
X140861100Y-112223600D03*
X140861100Y-114763600D03*
X139161100Y-114763600D03*
X139161100Y-98253600D03*
X140861100Y-98253600D03*
X140861100Y-83013600D03*
X139161100Y-83013600D03*
X139161100Y-100793600D03*
X140861100Y-100793600D03*
X140861100Y-103333600D03*
X139161100Y-103333600D03*
X139161100Y-85553600D03*
X140861100Y-85553600D03*
X139161100Y-88093600D03*
X140861100Y-88093600D03*
X140861100Y-90633600D03*
X139161100Y-90633600D03*
X140861100Y-107143600D03*
X139161100Y-107143600D03*
D15*
X151466100Y-93083600D03*
X151966100Y-93083600D03*
X152466100Y-93083600D03*
X152966100Y-93083600D03*
X153466100Y-93083600D03*
X153966100Y-93083600D03*
X154466100Y-93083600D03*
X154966100Y-93083600D03*
X155466100Y-93083600D03*
X155966100Y-93083600D03*
X156466100Y-93083600D03*
X156966100Y-93083600D03*
D16*
X158516100Y-94633600D03*
X158516100Y-95133600D03*
X158516100Y-95633600D03*
X158516100Y-96133600D03*
X158516100Y-96633600D03*
X158516100Y-97133600D03*
X158516100Y-97633600D03*
X158516100Y-98133600D03*
X158516100Y-98633600D03*
X158516100Y-99133600D03*
X158516100Y-99633600D03*
X158516100Y-100133600D03*
D15*
X156966100Y-101683600D03*
X156466100Y-101683600D03*
X155966100Y-101683600D03*
X155466100Y-101683600D03*
X154966100Y-101683600D03*
X154466100Y-101683600D03*
X153966100Y-101683600D03*
X153466100Y-101683600D03*
X152966100Y-101683600D03*
X152466100Y-101683600D03*
X151966100Y-101683600D03*
X151466100Y-101683600D03*
D16*
X149916100Y-100133600D03*
X149916100Y-99633600D03*
X149916100Y-99133600D03*
X149916100Y-98633600D03*
X149916100Y-98133600D03*
X149916100Y-97633600D03*
X149916100Y-97133600D03*
X149916100Y-96633600D03*
X149916100Y-96133600D03*
X149916100Y-95633600D03*
X149916100Y-95133600D03*
X149916100Y-94633600D03*
D14*
X152115100Y-109302600D03*
X153815100Y-109302600D03*
X155925100Y-109302600D03*
X157625100Y-109302600D03*
X159735100Y-109302600D03*
X161435100Y-109302600D03*
D17*
X153815100Y-111461600D03*
X152115100Y-111461600D03*
X157625100Y-111461600D03*
X155925100Y-111461600D03*
X161435100Y-111461600D03*
X159735100Y-111461600D03*
X149370100Y-104349600D03*
X147670100Y-104349600D03*
D14*
X147377100Y-92831600D03*
X147377100Y-94531600D03*
D17*
X151021100Y-90633600D03*
X149321100Y-90633600D03*
X154196100Y-89363600D03*
X152496100Y-89363600D03*
D18*
X153561100Y-86823600D03*
X151861100Y-86823600D03*
D14*
X155671100Y-86823600D03*
X157371100Y-86823600D03*
D17*
X155671100Y-89363600D03*
X157371100Y-89363600D03*
D18*
X149116100Y-106635600D03*
X147416100Y-106635600D03*
D14*
X149624100Y-117557600D03*
X147924100Y-117557600D03*
X153688100Y-117430600D03*
X151988100Y-117430600D03*
X157625100Y-117430600D03*
X155925100Y-117430600D03*
D17*
X147924100Y-115398600D03*
X149624100Y-115398600D03*
X151988100Y-115271600D03*
X153688100Y-115271600D03*
X155925100Y-115271600D03*
X157625100Y-115271600D03*
D14*
X140861100Y-119843600D03*
X139161100Y-119843600D03*
X139161100Y-122383600D03*
X140861100Y-122383600D03*
X139161100Y-124923600D03*
X140861100Y-124923600D03*
X140861100Y-127463600D03*
X139161100Y-127463600D03*
X142805100Y-121328600D03*
X142805100Y-119628600D03*
X142805100Y-126281600D03*
X142805100Y-124581600D03*
D17*
X149282100Y-121328600D03*
X149282100Y-119628600D03*
X153346100Y-121328600D03*
X153346100Y-119628600D03*
X157410100Y-121328600D03*
X157410100Y-119628600D03*
D19*
X164141100Y-127463600D03*
X166046100Y-127463600D03*
X167951100Y-127463600D03*
D20*
X161982100Y-103472600D03*
X161982100Y-104972600D03*
X163125100Y-103472600D03*
X163125100Y-104972600D03*
X164268100Y-103472600D03*
X164268100Y-104972600D03*
X165411100Y-103472600D03*
X165411100Y-104972600D03*
D21*
X164991100Y-89968600D03*
D22*
X164991100Y-90868600D03*
X164991100Y-91668600D03*
D21*
X164991100Y-92568600D03*
X163291100Y-92568600D03*
D22*
X163291100Y-91668600D03*
X163291100Y-90868600D03*
D21*
X163291100Y-89968600D03*
X162275100Y-101204600D03*
D22*
X162275100Y-100304600D03*
X162275100Y-99504600D03*
D21*
X162275100Y-98604600D03*
X163975100Y-98604600D03*
D22*
X163975100Y-99504600D03*
X163975100Y-100304600D03*
D21*
X163975100Y-101204600D03*
M02*
