G04 #@! TF.GenerationSoftware,KiCad,Pcbnew,(5.1.5)-3*
G04 #@! TF.CreationDate,2020-01-08T22:52:15+11:00*
G04 #@! TF.ProjectId,ATM90E36_Breakout,41544d39-3045-4333-965f-427265616b6f,rev?*
G04 #@! TF.SameCoordinates,Original*
G04 #@! TF.FileFunction,Legend,Bot*
G04 #@! TF.FilePolarity,Positive*
%FSLAX46Y46*%
G04 Gerber Fmt 4.6, Leading zero omitted, Abs format (unit mm)*
G04 Created by KiCad (PCBNEW (5.1.5)-3) date 2020-01-08 22:52:15*
%MOMM*%
%LPD*%
G04 APERTURE LIST*
%ADD10C,0.200000*%
%ADD11C,0.152400*%
G04 APERTURE END LIST*
D10*
X154276190Y-92533333D02*
X153895238Y-92533333D01*
X154352380Y-92761904D02*
X154085714Y-91961904D01*
X153819047Y-92761904D01*
X153666666Y-91961904D02*
X153209523Y-91961904D01*
X153438095Y-92761904D02*
X153438095Y-91961904D01*
X152942857Y-92761904D02*
X152942857Y-91961904D01*
X152676190Y-92533333D01*
X152409523Y-91961904D01*
X152409523Y-92761904D01*
X151990476Y-92761904D02*
X151838095Y-92761904D01*
X151761904Y-92723809D01*
X151723809Y-92685714D01*
X151647619Y-92571428D01*
X151609523Y-92419047D01*
X151609523Y-92114285D01*
X151647619Y-92038095D01*
X151685714Y-92000000D01*
X151761904Y-91961904D01*
X151914285Y-91961904D01*
X151990476Y-92000000D01*
X152028571Y-92038095D01*
X152066666Y-92114285D01*
X152066666Y-92304761D01*
X152028571Y-92380952D01*
X151990476Y-92419047D01*
X151914285Y-92457142D01*
X151761904Y-92457142D01*
X151685714Y-92419047D01*
X151647619Y-92380952D01*
X151609523Y-92304761D01*
X151114285Y-91961904D02*
X151038095Y-91961904D01*
X150961904Y-92000000D01*
X150923809Y-92038095D01*
X150885714Y-92114285D01*
X150847619Y-92266666D01*
X150847619Y-92457142D01*
X150885714Y-92609523D01*
X150923809Y-92685714D01*
X150961904Y-92723809D01*
X151038095Y-92761904D01*
X151114285Y-92761904D01*
X151190476Y-92723809D01*
X151228571Y-92685714D01*
X151266666Y-92609523D01*
X151304761Y-92457142D01*
X151304761Y-92266666D01*
X151266666Y-92114285D01*
X151228571Y-92038095D01*
X151190476Y-92000000D01*
X151114285Y-91961904D01*
X150504761Y-92342857D02*
X150238095Y-92342857D01*
X150123809Y-92761904D02*
X150504761Y-92761904D01*
X150504761Y-91961904D01*
X150123809Y-91961904D01*
X149857142Y-91961904D02*
X149361904Y-91961904D01*
X149628571Y-92266666D01*
X149514285Y-92266666D01*
X149438095Y-92304761D01*
X149400000Y-92342857D01*
X149361904Y-92419047D01*
X149361904Y-92609523D01*
X149400000Y-92685714D01*
X149438095Y-92723809D01*
X149514285Y-92761904D01*
X149742857Y-92761904D01*
X149819047Y-92723809D01*
X149857142Y-92685714D01*
X149095238Y-92761904D02*
X148676190Y-92228571D01*
X149095238Y-92228571D02*
X148676190Y-92761904D01*
X147495238Y-92342857D02*
X147380952Y-92380952D01*
X147342857Y-92419047D01*
X147304761Y-92495238D01*
X147304761Y-92609523D01*
X147342857Y-92685714D01*
X147380952Y-92723809D01*
X147457142Y-92761904D01*
X147761904Y-92761904D01*
X147761904Y-91961904D01*
X147495238Y-91961904D01*
X147419047Y-92000000D01*
X147380952Y-92038095D01*
X147342857Y-92114285D01*
X147342857Y-92190476D01*
X147380952Y-92266666D01*
X147419047Y-92304761D01*
X147495238Y-92342857D01*
X147761904Y-92342857D01*
X146961904Y-92761904D02*
X146961904Y-92228571D01*
X146961904Y-92380952D02*
X146923809Y-92304761D01*
X146885714Y-92266666D01*
X146809523Y-92228571D01*
X146733333Y-92228571D01*
X146161904Y-92723809D02*
X146238095Y-92761904D01*
X146390476Y-92761904D01*
X146466666Y-92723809D01*
X146504761Y-92647619D01*
X146504761Y-92342857D01*
X146466666Y-92266666D01*
X146390476Y-92228571D01*
X146238095Y-92228571D01*
X146161904Y-92266666D01*
X146123809Y-92342857D01*
X146123809Y-92419047D01*
X146504761Y-92495238D01*
X145438095Y-92761904D02*
X145438095Y-92342857D01*
X145476190Y-92266666D01*
X145552380Y-92228571D01*
X145704761Y-92228571D01*
X145780952Y-92266666D01*
X145438095Y-92723809D02*
X145514285Y-92761904D01*
X145704761Y-92761904D01*
X145780952Y-92723809D01*
X145819047Y-92647619D01*
X145819047Y-92571428D01*
X145780952Y-92495238D01*
X145704761Y-92457142D01*
X145514285Y-92457142D01*
X145438095Y-92419047D01*
X145057142Y-92761904D02*
X145057142Y-91961904D01*
X144980952Y-92457142D02*
X144752380Y-92761904D01*
X144752380Y-92228571D02*
X145057142Y-92533333D01*
X144295238Y-92761904D02*
X144371428Y-92723809D01*
X144409523Y-92685714D01*
X144447619Y-92609523D01*
X144447619Y-92380952D01*
X144409523Y-92304761D01*
X144371428Y-92266666D01*
X144295238Y-92228571D01*
X144180952Y-92228571D01*
X144104761Y-92266666D01*
X144066666Y-92304761D01*
X144028571Y-92380952D01*
X144028571Y-92609523D01*
X144066666Y-92685714D01*
X144104761Y-92723809D01*
X144180952Y-92761904D01*
X144295238Y-92761904D01*
X143342857Y-92228571D02*
X143342857Y-92761904D01*
X143685714Y-92228571D02*
X143685714Y-92647619D01*
X143647619Y-92723809D01*
X143571428Y-92761904D01*
X143457142Y-92761904D01*
X143380952Y-92723809D01*
X143342857Y-92685714D01*
X143076190Y-92228571D02*
X142771428Y-92228571D01*
X142961904Y-91961904D02*
X142961904Y-92647619D01*
X142923809Y-92723809D01*
X142847619Y-92761904D01*
X142771428Y-92761904D01*
X141971428Y-92228571D02*
X141780952Y-92761904D01*
X141590476Y-92228571D01*
X141133333Y-91961904D02*
X141057142Y-91961904D01*
X140980952Y-92000000D01*
X140942857Y-92038095D01*
X140904761Y-92114285D01*
X140866666Y-92266666D01*
X140866666Y-92457142D01*
X140904761Y-92609523D01*
X140942857Y-92685714D01*
X140980952Y-92723809D01*
X141057142Y-92761904D01*
X141133333Y-92761904D01*
X141209523Y-92723809D01*
X141247619Y-92685714D01*
X141285714Y-92609523D01*
X141323809Y-92457142D01*
X141323809Y-92266666D01*
X141285714Y-92114285D01*
X141247619Y-92038095D01*
X141209523Y-92000000D01*
X141133333Y-91961904D01*
X140523809Y-92685714D02*
X140485714Y-92723809D01*
X140523809Y-92761904D01*
X140561904Y-92723809D01*
X140523809Y-92685714D01*
X140523809Y-92761904D01*
X140180952Y-92038095D02*
X140142857Y-92000000D01*
X140066666Y-91961904D01*
X139876190Y-91961904D01*
X139800000Y-92000000D01*
X139761904Y-92038095D01*
X139723809Y-92114285D01*
X139723809Y-92190476D01*
X139761904Y-92304761D01*
X140219047Y-92761904D01*
X139723809Y-92761904D01*
X154104761Y-93361904D02*
X153647619Y-93361904D01*
X153876190Y-94161904D02*
X153876190Y-93361904D01*
X153380952Y-94161904D02*
X153380952Y-93628571D01*
X153380952Y-93361904D02*
X153419047Y-93400000D01*
X153380952Y-93438095D01*
X153342857Y-93400000D01*
X153380952Y-93361904D01*
X153380952Y-93438095D01*
X153038095Y-94123809D02*
X152961904Y-94161904D01*
X152809523Y-94161904D01*
X152733333Y-94123809D01*
X152695238Y-94047619D01*
X152695238Y-94009523D01*
X152733333Y-93933333D01*
X152809523Y-93895238D01*
X152923809Y-93895238D01*
X153000000Y-93857142D01*
X153038095Y-93780952D01*
X153038095Y-93742857D01*
X153000000Y-93666666D01*
X152923809Y-93628571D01*
X152809523Y-93628571D01*
X152733333Y-93666666D01*
X152352380Y-94161904D02*
X152352380Y-93361904D01*
X152009523Y-94161904D02*
X152009523Y-93742857D01*
X152047619Y-93666666D01*
X152123809Y-93628571D01*
X152238095Y-93628571D01*
X152314285Y-93666666D01*
X152352380Y-93704761D01*
X151285714Y-94161904D02*
X151285714Y-93742857D01*
X151323809Y-93666666D01*
X151400000Y-93628571D01*
X151552380Y-93628571D01*
X151628571Y-93666666D01*
X151285714Y-94123809D02*
X151361904Y-94161904D01*
X151552380Y-94161904D01*
X151628571Y-94123809D01*
X151666666Y-94047619D01*
X151666666Y-93971428D01*
X151628571Y-93895238D01*
X151552380Y-93857142D01*
X151361904Y-93857142D01*
X151285714Y-93819047D01*
X150904761Y-94161904D02*
X150904761Y-93628571D01*
X150904761Y-93704761D02*
X150866666Y-93666666D01*
X150790476Y-93628571D01*
X150676190Y-93628571D01*
X150600000Y-93666666D01*
X150561904Y-93742857D01*
X150561904Y-94161904D01*
X150561904Y-93742857D02*
X150523809Y-93666666D01*
X150447619Y-93628571D01*
X150333333Y-93628571D01*
X150257142Y-93666666D01*
X150219047Y-93742857D01*
X150219047Y-94161904D01*
X149000000Y-94466666D02*
X149038095Y-94428571D01*
X149114285Y-94314285D01*
X149152380Y-94238095D01*
X149190476Y-94123809D01*
X149228571Y-93933333D01*
X149228571Y-93780952D01*
X149190476Y-93590476D01*
X149152380Y-93476190D01*
X149114285Y-93400000D01*
X149038095Y-93285714D01*
X149000000Y-93247619D01*
X148771428Y-93628571D02*
X148619047Y-94161904D01*
X148466666Y-93780952D01*
X148314285Y-94161904D01*
X148161904Y-93628571D01*
X147857142Y-94161904D02*
X147857142Y-93361904D01*
X147514285Y-94161904D02*
X147514285Y-93742857D01*
X147552380Y-93666666D01*
X147628571Y-93628571D01*
X147742857Y-93628571D01*
X147819047Y-93666666D01*
X147857142Y-93704761D01*
X146790476Y-94161904D02*
X146790476Y-93742857D01*
X146828571Y-93666666D01*
X146904761Y-93628571D01*
X147057142Y-93628571D01*
X147133333Y-93666666D01*
X146790476Y-94123809D02*
X146866666Y-94161904D01*
X147057142Y-94161904D01*
X147133333Y-94123809D01*
X147171428Y-94047619D01*
X147171428Y-93971428D01*
X147133333Y-93895238D01*
X147057142Y-93857142D01*
X146866666Y-93857142D01*
X146790476Y-93819047D01*
X146523809Y-93628571D02*
X146219047Y-93628571D01*
X146409523Y-93361904D02*
X146409523Y-94047619D01*
X146371428Y-94123809D01*
X146295238Y-94161904D01*
X146219047Y-94161904D01*
X145952380Y-93628571D02*
X145952380Y-94161904D01*
X145952380Y-93704761D02*
X145914285Y-93666666D01*
X145838095Y-93628571D01*
X145723809Y-93628571D01*
X145647619Y-93666666D01*
X145609523Y-93742857D01*
X145609523Y-94161904D01*
X145228571Y-94161904D02*
X145228571Y-93628571D01*
X145228571Y-93361904D02*
X145266666Y-93400000D01*
X145228571Y-93438095D01*
X145190476Y-93400000D01*
X145228571Y-93361904D01*
X145228571Y-93438095D01*
X144504761Y-94123809D02*
X144580952Y-94161904D01*
X144733333Y-94161904D01*
X144809523Y-94123809D01*
X144847619Y-94085714D01*
X144885714Y-94009523D01*
X144885714Y-93780952D01*
X144847619Y-93704761D01*
X144809523Y-93666666D01*
X144733333Y-93628571D01*
X144580952Y-93628571D01*
X144504761Y-93666666D01*
X144161904Y-94161904D02*
X144161904Y-93361904D01*
X144085714Y-93857142D02*
X143857142Y-94161904D01*
X143857142Y-93628571D02*
X144161904Y-93933333D01*
X143590476Y-94466666D02*
X143552380Y-94428571D01*
X143476190Y-94314285D01*
X143438095Y-94238095D01*
X143400000Y-94123809D01*
X143361904Y-93933333D01*
X143361904Y-93780952D01*
X143400000Y-93590476D01*
X143438095Y-93476190D01*
X143476190Y-93400000D01*
X143552380Y-93285714D01*
X143590476Y-93247619D01*
X142371428Y-94161904D02*
X142371428Y-93361904D01*
X142180952Y-93361904D01*
X142066666Y-93400000D01*
X141990476Y-93476190D01*
X141952380Y-93552380D01*
X141914285Y-93704761D01*
X141914285Y-93819047D01*
X141952380Y-93971428D01*
X141990476Y-94047619D01*
X142066666Y-94123809D01*
X142180952Y-94161904D01*
X142371428Y-94161904D01*
X141571428Y-94161904D02*
X141571428Y-93361904D01*
X141228571Y-94161904D02*
X141228571Y-93742857D01*
X141266666Y-93666666D01*
X141342857Y-93628571D01*
X141457142Y-93628571D01*
X141533333Y-93666666D01*
X141571428Y-93704761D01*
X140504761Y-94161904D02*
X140504761Y-93742857D01*
X140542857Y-93666666D01*
X140619047Y-93628571D01*
X140771428Y-93628571D01*
X140847619Y-93666666D01*
X140504761Y-94123809D02*
X140580952Y-94161904D01*
X140771428Y-94161904D01*
X140847619Y-94123809D01*
X140885714Y-94047619D01*
X140885714Y-93971428D01*
X140847619Y-93895238D01*
X140771428Y-93857142D01*
X140580952Y-93857142D01*
X140504761Y-93819047D01*
X140123809Y-94161904D02*
X140123809Y-93628571D01*
X140123809Y-93780952D02*
X140085714Y-93704761D01*
X140047619Y-93666666D01*
X139971428Y-93628571D01*
X139895238Y-93628571D01*
X150885714Y-94838095D02*
X150847619Y-94800000D01*
X150771428Y-94761904D01*
X150580952Y-94761904D01*
X150504761Y-94800000D01*
X150466666Y-94838095D01*
X150428571Y-94914285D01*
X150428571Y-94990476D01*
X150466666Y-95104761D01*
X150923809Y-95561904D01*
X150428571Y-95561904D01*
X149933333Y-94761904D02*
X149857142Y-94761904D01*
X149780952Y-94800000D01*
X149742857Y-94838095D01*
X149704761Y-94914285D01*
X149666666Y-95066666D01*
X149666666Y-95257142D01*
X149704761Y-95409523D01*
X149742857Y-95485714D01*
X149780952Y-95523809D01*
X149857142Y-95561904D01*
X149933333Y-95561904D01*
X150009523Y-95523809D01*
X150047619Y-95485714D01*
X150085714Y-95409523D01*
X150123809Y-95257142D01*
X150123809Y-95066666D01*
X150085714Y-94914285D01*
X150047619Y-94838095D01*
X150009523Y-94800000D01*
X149933333Y-94761904D01*
X148904761Y-95561904D02*
X149361904Y-95561904D01*
X149133333Y-95561904D02*
X149133333Y-94761904D01*
X149209523Y-94876190D01*
X149285714Y-94952380D01*
X149361904Y-94990476D01*
X148523809Y-95561904D02*
X148371428Y-95561904D01*
X148295238Y-95523809D01*
X148257142Y-95485714D01*
X148180952Y-95371428D01*
X148142857Y-95219047D01*
X148142857Y-94914285D01*
X148180952Y-94838095D01*
X148219047Y-94800000D01*
X148295238Y-94761904D01*
X148447619Y-94761904D01*
X148523809Y-94800000D01*
X148561904Y-94838095D01*
X148600000Y-94914285D01*
X148600000Y-95104761D01*
X148561904Y-95180952D01*
X148523809Y-95219047D01*
X148447619Y-95257142D01*
X148295238Y-95257142D01*
X148219047Y-95219047D01*
X148180952Y-95180952D01*
X148142857Y-95104761D01*
X147800000Y-95257142D02*
X147190476Y-95257142D01*
X146390476Y-95561904D02*
X146847619Y-95561904D01*
X146619047Y-95561904D02*
X146619047Y-94761904D01*
X146695238Y-94876190D01*
X146771428Y-94952380D01*
X146847619Y-94990476D01*
X146085714Y-94838095D02*
X146047619Y-94800000D01*
X145971428Y-94761904D01*
X145780952Y-94761904D01*
X145704761Y-94800000D01*
X145666666Y-94838095D01*
X145628571Y-94914285D01*
X145628571Y-94990476D01*
X145666666Y-95104761D01*
X146123809Y-95561904D01*
X145628571Y-95561904D01*
X145285714Y-95257142D02*
X144676190Y-95257142D01*
X144333333Y-94838095D02*
X144295238Y-94800000D01*
X144219047Y-94761904D01*
X144028571Y-94761904D01*
X143952380Y-94800000D01*
X143914285Y-94838095D01*
X143876190Y-94914285D01*
X143876190Y-94990476D01*
X143914285Y-95104761D01*
X144371428Y-95561904D01*
X143876190Y-95561904D01*
X143190476Y-94761904D02*
X143342857Y-94761904D01*
X143419047Y-94800000D01*
X143457142Y-94838095D01*
X143533333Y-94952380D01*
X143571428Y-95104761D01*
X143571428Y-95409523D01*
X143533333Y-95485714D01*
X143495238Y-95523809D01*
X143419047Y-95561904D01*
X143266666Y-95561904D01*
X143190476Y-95523809D01*
X143152380Y-95485714D01*
X143114285Y-95409523D01*
X143114285Y-95219047D01*
X143152380Y-95142857D01*
X143190476Y-95104761D01*
X143266666Y-95066666D01*
X143419047Y-95066666D01*
X143495238Y-95104761D01*
X143533333Y-95142857D01*
X143571428Y-95219047D01*
X150085714Y-96161904D02*
X149933333Y-96161904D01*
X149857142Y-96200000D01*
X149780952Y-96276190D01*
X149742857Y-96428571D01*
X149742857Y-96695238D01*
X149780952Y-96847619D01*
X149857142Y-96923809D01*
X149933333Y-96961904D01*
X150085714Y-96961904D01*
X150161904Y-96923809D01*
X150238095Y-96847619D01*
X150276190Y-96695238D01*
X150276190Y-96428571D01*
X150238095Y-96276190D01*
X150161904Y-96200000D01*
X150085714Y-96161904D01*
X149438095Y-96923809D02*
X149323809Y-96961904D01*
X149133333Y-96961904D01*
X149057142Y-96923809D01*
X149019047Y-96885714D01*
X148980952Y-96809523D01*
X148980952Y-96733333D01*
X149019047Y-96657142D01*
X149057142Y-96619047D01*
X149133333Y-96580952D01*
X149285714Y-96542857D01*
X149361904Y-96504761D01*
X149400000Y-96466666D01*
X149438095Y-96390476D01*
X149438095Y-96314285D01*
X149400000Y-96238095D01*
X149361904Y-96200000D01*
X149285714Y-96161904D01*
X149095238Y-96161904D01*
X148980952Y-96200000D01*
X148638095Y-96961904D02*
X148638095Y-96161904D01*
X148638095Y-96542857D02*
X148180952Y-96542857D01*
X148180952Y-96961904D02*
X148180952Y-96161904D01*
X147876190Y-96161904D02*
X147685714Y-96961904D01*
X147533333Y-96390476D01*
X147380952Y-96961904D01*
X147190476Y-96161904D01*
X146390476Y-96161904D02*
X145933333Y-96161904D01*
X146161904Y-96961904D02*
X146161904Y-96161904D01*
X145704761Y-96733333D02*
X145323809Y-96733333D01*
X145780952Y-96961904D02*
X145514285Y-96161904D01*
X145247619Y-96961904D01*
X144980952Y-96961904D02*
X144980952Y-96161904D01*
X144676190Y-96161904D01*
X144600000Y-96200000D01*
X144561904Y-96238095D01*
X144523809Y-96314285D01*
X144523809Y-96428571D01*
X144561904Y-96504761D01*
X144600000Y-96542857D01*
X144676190Y-96580952D01*
X144980952Y-96580952D01*
X143723809Y-96961904D02*
X143990476Y-96580952D01*
X144180952Y-96961904D02*
X144180952Y-96161904D01*
X143876190Y-96161904D01*
X143800000Y-96200000D01*
X143761904Y-96238095D01*
X143723809Y-96314285D01*
X143723809Y-96428571D01*
X143761904Y-96504761D01*
X143800000Y-96542857D01*
X143876190Y-96580952D01*
X144180952Y-96580952D01*
X168595814Y-85096504D02*
X168100576Y-85096504D01*
X168367242Y-85401266D01*
X168252957Y-85401266D01*
X168176766Y-85439361D01*
X168138671Y-85477457D01*
X168100576Y-85553647D01*
X168100576Y-85744123D01*
X168138671Y-85820314D01*
X168176766Y-85858409D01*
X168252957Y-85896504D01*
X168481528Y-85896504D01*
X168557719Y-85858409D01*
X168595814Y-85820314D01*
X167872004Y-85096504D02*
X167605338Y-85896504D01*
X167338671Y-85096504D01*
X167148195Y-85096504D02*
X166652957Y-85096504D01*
X166919623Y-85401266D01*
X166805338Y-85401266D01*
X166729147Y-85439361D01*
X166691052Y-85477457D01*
X166652957Y-85553647D01*
X166652957Y-85744123D01*
X166691052Y-85820314D01*
X166729147Y-85858409D01*
X166805338Y-85896504D01*
X167033909Y-85896504D01*
X167110100Y-85858409D01*
X167148195Y-85820314D01*
X168519623Y-88563504D02*
X168519623Y-87763504D01*
X168252957Y-88334933D01*
X167986290Y-87763504D01*
X167986290Y-88563504D01*
X167452957Y-87763504D02*
X167300576Y-87763504D01*
X167224385Y-87801600D01*
X167148195Y-87877790D01*
X167110100Y-88030171D01*
X167110100Y-88296838D01*
X167148195Y-88449219D01*
X167224385Y-88525409D01*
X167300576Y-88563504D01*
X167452957Y-88563504D01*
X167529147Y-88525409D01*
X167605338Y-88449219D01*
X167643433Y-88296838D01*
X167643433Y-88030171D01*
X167605338Y-87877790D01*
X167529147Y-87801600D01*
X167452957Y-87763504D01*
X166805338Y-88525409D02*
X166691052Y-88563504D01*
X166500576Y-88563504D01*
X166424385Y-88525409D01*
X166386290Y-88487314D01*
X166348195Y-88411123D01*
X166348195Y-88334933D01*
X166386290Y-88258742D01*
X166424385Y-88220647D01*
X166500576Y-88182552D01*
X166652957Y-88144457D01*
X166729147Y-88106361D01*
X166767242Y-88068266D01*
X166805338Y-87992076D01*
X166805338Y-87915885D01*
X166767242Y-87839695D01*
X166729147Y-87801600D01*
X166652957Y-87763504D01*
X166462480Y-87763504D01*
X166348195Y-87801600D01*
X166005338Y-88563504D02*
X166005338Y-87763504D01*
X168519623Y-90976504D02*
X168519623Y-90176504D01*
X168252957Y-90747933D01*
X167986290Y-90176504D01*
X167986290Y-90976504D01*
X167605338Y-90976504D02*
X167605338Y-90176504D01*
X167262480Y-90938409D02*
X167148195Y-90976504D01*
X166957719Y-90976504D01*
X166881528Y-90938409D01*
X166843433Y-90900314D01*
X166805338Y-90824123D01*
X166805338Y-90747933D01*
X166843433Y-90671742D01*
X166881528Y-90633647D01*
X166957719Y-90595552D01*
X167110100Y-90557457D01*
X167186290Y-90519361D01*
X167224385Y-90481266D01*
X167262480Y-90405076D01*
X167262480Y-90328885D01*
X167224385Y-90252695D01*
X167186290Y-90214600D01*
X167110100Y-90176504D01*
X166919623Y-90176504D01*
X166805338Y-90214600D01*
X166310100Y-90176504D02*
X166157719Y-90176504D01*
X166081528Y-90214600D01*
X166005338Y-90290790D01*
X165967242Y-90443171D01*
X165967242Y-90709838D01*
X166005338Y-90862219D01*
X166081528Y-90938409D01*
X166157719Y-90976504D01*
X166310100Y-90976504D01*
X166386290Y-90938409D01*
X166462480Y-90862219D01*
X166500576Y-90709838D01*
X166500576Y-90443171D01*
X166462480Y-90290790D01*
X166386290Y-90214600D01*
X166310100Y-90176504D01*
X168430719Y-93351409D02*
X168316433Y-93389504D01*
X168125957Y-93389504D01*
X168049766Y-93351409D01*
X168011671Y-93313314D01*
X167973576Y-93237123D01*
X167973576Y-93160933D01*
X168011671Y-93084742D01*
X168049766Y-93046647D01*
X168125957Y-93008552D01*
X168278338Y-92970457D01*
X168354528Y-92932361D01*
X168392623Y-92894266D01*
X168430719Y-92818076D01*
X168430719Y-92741885D01*
X168392623Y-92665695D01*
X168354528Y-92627600D01*
X168278338Y-92589504D01*
X168087861Y-92589504D01*
X167973576Y-92627600D01*
X167173576Y-93313314D02*
X167211671Y-93351409D01*
X167325957Y-93389504D01*
X167402147Y-93389504D01*
X167516433Y-93351409D01*
X167592623Y-93275219D01*
X167630719Y-93199028D01*
X167668814Y-93046647D01*
X167668814Y-92932361D01*
X167630719Y-92779980D01*
X167592623Y-92703790D01*
X167516433Y-92627600D01*
X167402147Y-92589504D01*
X167325957Y-92589504D01*
X167211671Y-92627600D01*
X167173576Y-92665695D01*
X166449766Y-93389504D02*
X166830719Y-93389504D01*
X166830719Y-92589504D01*
X166183100Y-93389504D02*
X166183100Y-92589504D01*
X165725957Y-93389504D02*
X166068814Y-92932361D01*
X165725957Y-92589504D02*
X166183100Y-93046647D01*
X167935480Y-96107314D02*
X167973576Y-96145409D01*
X168087861Y-96183504D01*
X168164052Y-96183504D01*
X168278338Y-96145409D01*
X168354528Y-96069219D01*
X168392623Y-95993028D01*
X168430719Y-95840647D01*
X168430719Y-95726361D01*
X168392623Y-95573980D01*
X168354528Y-95497790D01*
X168278338Y-95421600D01*
X168164052Y-95383504D01*
X168087861Y-95383504D01*
X167973576Y-95421600D01*
X167935480Y-95459695D01*
X167630719Y-96145409D02*
X167516433Y-96183504D01*
X167325957Y-96183504D01*
X167249766Y-96145409D01*
X167211671Y-96107314D01*
X167173576Y-96031123D01*
X167173576Y-95954933D01*
X167211671Y-95878742D01*
X167249766Y-95840647D01*
X167325957Y-95802552D01*
X167478338Y-95764457D01*
X167554528Y-95726361D01*
X167592623Y-95688266D01*
X167630719Y-95612076D01*
X167630719Y-95535885D01*
X167592623Y-95459695D01*
X167554528Y-95421600D01*
X167478338Y-95383504D01*
X167287861Y-95383504D01*
X167173576Y-95421600D01*
X168227576Y-97834600D02*
X168303766Y-97796504D01*
X168418052Y-97796504D01*
X168532338Y-97834600D01*
X168608528Y-97910790D01*
X168646623Y-97986980D01*
X168684719Y-98139361D01*
X168684719Y-98253647D01*
X168646623Y-98406028D01*
X168608528Y-98482219D01*
X168532338Y-98558409D01*
X168418052Y-98596504D01*
X168341861Y-98596504D01*
X168227576Y-98558409D01*
X168189480Y-98520314D01*
X168189480Y-98253647D01*
X168341861Y-98253647D01*
X167846623Y-98596504D02*
X167846623Y-97796504D01*
X167389480Y-98596504D01*
X167389480Y-97796504D01*
X167008528Y-98596504D02*
X167008528Y-97796504D01*
X166818052Y-97796504D01*
X166703766Y-97834600D01*
X166627576Y-97910790D01*
X166589480Y-97986980D01*
X166551385Y-98139361D01*
X166551385Y-98253647D01*
X166589480Y-98406028D01*
X166627576Y-98482219D01*
X166703766Y-98558409D01*
X166818052Y-98596504D01*
X167008528Y-98596504D01*
X168773623Y-101136504D02*
X168773623Y-100336504D01*
X168583147Y-100336504D01*
X168468861Y-100374600D01*
X168392671Y-100450790D01*
X168354576Y-100526980D01*
X168316480Y-100679361D01*
X168316480Y-100793647D01*
X168354576Y-100946028D01*
X168392671Y-101022219D01*
X168468861Y-101098409D01*
X168583147Y-101136504D01*
X168773623Y-101136504D01*
X167973623Y-101136504D02*
X167973623Y-100336504D01*
X167706957Y-100907933D01*
X167440290Y-100336504D01*
X167440290Y-101136504D01*
X167097433Y-100907933D02*
X166716480Y-100907933D01*
X167173623Y-101136504D02*
X166906957Y-100336504D01*
X166640290Y-101136504D01*
X168773623Y-103676504D02*
X168773623Y-102876504D01*
X168468861Y-102876504D01*
X168392671Y-102914600D01*
X168354576Y-102952695D01*
X168316480Y-103028885D01*
X168316480Y-103143171D01*
X168354576Y-103219361D01*
X168392671Y-103257457D01*
X168468861Y-103295552D01*
X168773623Y-103295552D01*
X167973623Y-103676504D02*
X167973623Y-102876504D01*
X167706957Y-103447933D01*
X167440290Y-102876504D01*
X167440290Y-103676504D01*
X166640290Y-103676504D02*
X167097433Y-103676504D01*
X166868861Y-103676504D02*
X166868861Y-102876504D01*
X166945052Y-102990790D01*
X167021242Y-103066980D01*
X167097433Y-103105076D01*
X168900623Y-106216504D02*
X168900623Y-105416504D01*
X168595861Y-105416504D01*
X168519671Y-105454600D01*
X168481576Y-105492695D01*
X168443480Y-105568885D01*
X168443480Y-105683171D01*
X168481576Y-105759361D01*
X168519671Y-105797457D01*
X168595861Y-105835552D01*
X168900623Y-105835552D01*
X168100623Y-106216504D02*
X168100623Y-105416504D01*
X167833957Y-105987933D01*
X167567290Y-105416504D01*
X167567290Y-106216504D01*
X167033957Y-105416504D02*
X166957766Y-105416504D01*
X166881576Y-105454600D01*
X166843480Y-105492695D01*
X166805385Y-105568885D01*
X166767290Y-105721266D01*
X166767290Y-105911742D01*
X166805385Y-106064123D01*
X166843480Y-106140314D01*
X166881576Y-106178409D01*
X166957766Y-106216504D01*
X167033957Y-106216504D01*
X167110147Y-106178409D01*
X167148242Y-106140314D01*
X167186338Y-106064123D01*
X167224433Y-105911742D01*
X167224433Y-105721266D01*
X167186338Y-105568885D01*
X167148242Y-105492695D01*
X167110147Y-105454600D01*
X167033957Y-105416504D01*
X168773623Y-108756504D02*
X168773623Y-107956504D01*
X167935528Y-108756504D02*
X168202195Y-108375552D01*
X168392671Y-108756504D02*
X168392671Y-107956504D01*
X168087909Y-107956504D01*
X168011719Y-107994600D01*
X167973623Y-108032695D01*
X167935528Y-108108885D01*
X167935528Y-108223171D01*
X167973623Y-108299361D01*
X168011719Y-108337457D01*
X168087909Y-108375552D01*
X168392671Y-108375552D01*
X167059338Y-108832695D02*
X167135528Y-108794600D01*
X167211719Y-108718409D01*
X167326004Y-108604123D01*
X167402195Y-108566028D01*
X167478385Y-108566028D01*
X167440290Y-108756504D02*
X167516480Y-108718409D01*
X167592671Y-108642219D01*
X167630766Y-108489838D01*
X167630766Y-108223171D01*
X167592671Y-108070790D01*
X167516480Y-107994600D01*
X167440290Y-107956504D01*
X167287909Y-107956504D01*
X167211719Y-107994600D01*
X167135528Y-108070790D01*
X167097433Y-108223171D01*
X167097433Y-108489838D01*
X167135528Y-108642219D01*
X167211719Y-108718409D01*
X167287909Y-108756504D01*
X167440290Y-108756504D01*
X166335528Y-108756504D02*
X166792671Y-108756504D01*
X166564100Y-108756504D02*
X166564100Y-107956504D01*
X166640290Y-108070790D01*
X166716480Y-108146980D01*
X166792671Y-108185076D01*
X168900623Y-111296504D02*
X168900623Y-110496504D01*
X168062528Y-111296504D02*
X168329195Y-110915552D01*
X168519671Y-111296504D02*
X168519671Y-110496504D01*
X168214909Y-110496504D01*
X168138719Y-110534600D01*
X168100623Y-110572695D01*
X168062528Y-110648885D01*
X168062528Y-110763171D01*
X168100623Y-110839361D01*
X168138719Y-110877457D01*
X168214909Y-110915552D01*
X168519671Y-110915552D01*
X167186338Y-111372695D02*
X167262528Y-111334600D01*
X167338719Y-111258409D01*
X167453004Y-111144123D01*
X167529195Y-111106028D01*
X167605385Y-111106028D01*
X167567290Y-111296504D02*
X167643480Y-111258409D01*
X167719671Y-111182219D01*
X167757766Y-111029838D01*
X167757766Y-110763171D01*
X167719671Y-110610790D01*
X167643480Y-110534600D01*
X167567290Y-110496504D01*
X167414909Y-110496504D01*
X167338719Y-110534600D01*
X167262528Y-110610790D01*
X167224433Y-110763171D01*
X167224433Y-111029838D01*
X167262528Y-111182219D01*
X167338719Y-111258409D01*
X167414909Y-111296504D01*
X167567290Y-111296504D01*
X166729195Y-110496504D02*
X166653004Y-110496504D01*
X166576814Y-110534600D01*
X166538719Y-110572695D01*
X166500623Y-110648885D01*
X166462528Y-110801266D01*
X166462528Y-110991742D01*
X166500623Y-111144123D01*
X166538719Y-111220314D01*
X166576814Y-111258409D01*
X166653004Y-111296504D01*
X166729195Y-111296504D01*
X166805385Y-111258409D01*
X166843480Y-111220314D01*
X166881576Y-111144123D01*
X166919671Y-110991742D01*
X166919671Y-110801266D01*
X166881576Y-110648885D01*
X166843480Y-110572695D01*
X166805385Y-110534600D01*
X166729195Y-110496504D01*
X168976814Y-113036504D02*
X168786338Y-113836504D01*
X168633957Y-113265076D01*
X168481576Y-113836504D01*
X168291100Y-113036504D01*
X168024433Y-113607933D02*
X167643480Y-113607933D01*
X168100623Y-113836504D02*
X167833957Y-113036504D01*
X167567290Y-113836504D01*
X166843480Y-113836504D02*
X167110147Y-113455552D01*
X167300623Y-113836504D02*
X167300623Y-113036504D01*
X166995861Y-113036504D01*
X166919671Y-113074600D01*
X166881576Y-113112695D01*
X166843480Y-113188885D01*
X166843480Y-113303171D01*
X166881576Y-113379361D01*
X166919671Y-113417457D01*
X166995861Y-113455552D01*
X167300623Y-113455552D01*
X166500623Y-113836504D02*
X166500623Y-113036504D01*
X166043480Y-113836504D01*
X166043480Y-113036504D01*
X167935480Y-116173314D02*
X167973576Y-116211409D01*
X168087861Y-116249504D01*
X168164052Y-116249504D01*
X168278338Y-116211409D01*
X168354528Y-116135219D01*
X168392623Y-116059028D01*
X168430719Y-115906647D01*
X168430719Y-115792361D01*
X168392623Y-115639980D01*
X168354528Y-115563790D01*
X168278338Y-115487600D01*
X168164052Y-115449504D01*
X168087861Y-115449504D01*
X167973576Y-115487600D01*
X167935480Y-115525695D01*
X167325957Y-115830457D02*
X167592623Y-115830457D01*
X167592623Y-116249504D02*
X167592623Y-115449504D01*
X167211671Y-115449504D01*
X166564052Y-115716171D02*
X166564052Y-116249504D01*
X166754528Y-115411409D02*
X166945004Y-115982838D01*
X166449766Y-115982838D01*
X167935480Y-118840314D02*
X167973576Y-118878409D01*
X168087861Y-118916504D01*
X168164052Y-118916504D01*
X168278338Y-118878409D01*
X168354528Y-118802219D01*
X168392623Y-118726028D01*
X168430719Y-118573647D01*
X168430719Y-118459361D01*
X168392623Y-118306980D01*
X168354528Y-118230790D01*
X168278338Y-118154600D01*
X168164052Y-118116504D01*
X168087861Y-118116504D01*
X167973576Y-118154600D01*
X167935480Y-118192695D01*
X167325957Y-118497457D02*
X167592623Y-118497457D01*
X167592623Y-118916504D02*
X167592623Y-118116504D01*
X167211671Y-118116504D01*
X166983100Y-118116504D02*
X166487861Y-118116504D01*
X166754528Y-118421266D01*
X166640242Y-118421266D01*
X166564052Y-118459361D01*
X166525957Y-118497457D01*
X166487861Y-118573647D01*
X166487861Y-118764123D01*
X166525957Y-118840314D01*
X166564052Y-118878409D01*
X166640242Y-118916504D01*
X166868814Y-118916504D01*
X166945004Y-118878409D01*
X166983100Y-118840314D01*
X167935480Y-121253314D02*
X167973576Y-121291409D01*
X168087861Y-121329504D01*
X168164052Y-121329504D01*
X168278338Y-121291409D01*
X168354528Y-121215219D01*
X168392623Y-121139028D01*
X168430719Y-120986647D01*
X168430719Y-120872361D01*
X168392623Y-120719980D01*
X168354528Y-120643790D01*
X168278338Y-120567600D01*
X168164052Y-120529504D01*
X168087861Y-120529504D01*
X167973576Y-120567600D01*
X167935480Y-120605695D01*
X167325957Y-120910457D02*
X167592623Y-120910457D01*
X167592623Y-121329504D02*
X167592623Y-120529504D01*
X167211671Y-120529504D01*
X166945004Y-120605695D02*
X166906909Y-120567600D01*
X166830719Y-120529504D01*
X166640242Y-120529504D01*
X166564052Y-120567600D01*
X166525957Y-120605695D01*
X166487861Y-120681885D01*
X166487861Y-120758076D01*
X166525957Y-120872361D01*
X166983100Y-121329504D01*
X166487861Y-121329504D01*
X168062480Y-123793314D02*
X168100576Y-123831409D01*
X168214861Y-123869504D01*
X168291052Y-123869504D01*
X168405338Y-123831409D01*
X168481528Y-123755219D01*
X168519623Y-123679028D01*
X168557719Y-123526647D01*
X168557719Y-123412361D01*
X168519623Y-123259980D01*
X168481528Y-123183790D01*
X168405338Y-123107600D01*
X168291052Y-123069504D01*
X168214861Y-123069504D01*
X168100576Y-123107600D01*
X168062480Y-123145695D01*
X167452957Y-123450457D02*
X167719623Y-123450457D01*
X167719623Y-123869504D02*
X167719623Y-123069504D01*
X167338671Y-123069504D01*
X166614861Y-123869504D02*
X167072004Y-123869504D01*
X166843433Y-123869504D02*
X166843433Y-123069504D01*
X166919623Y-123183790D01*
X166995814Y-123259980D01*
X167072004Y-123298076D01*
D11*
X164395100Y-98634600D02*
X164395100Y-102952600D01*
X166173100Y-98380600D02*
G75*
G02X166427100Y-98634600I0J-254000D01*
G01*
X166427100Y-102952600D02*
G75*
G02X166173100Y-103206600I-254000J0D01*
G01*
X164395100Y-102952600D02*
G75*
G03X164649100Y-103206600I254000J0D01*
G01*
X164649100Y-98380600D02*
G75*
G03X164395100Y-98634600I0J-254000D01*
G01*
X164649100Y-98380600D02*
X166173100Y-98380600D01*
X164649100Y-103206600D02*
X166173100Y-103206600D01*
X166427100Y-102952600D02*
X166427100Y-98634600D01*
X166427100Y-114382600D02*
X166427100Y-110064600D01*
X164649100Y-114636600D02*
X166173100Y-114636600D01*
X164649100Y-109810600D02*
X166173100Y-109810600D01*
X164649100Y-109810600D02*
G75*
G03X164395100Y-110064600I0J-254000D01*
G01*
X164395100Y-114382600D02*
G75*
G03X164649100Y-114636600I254000J0D01*
G01*
X166427100Y-114382600D02*
G75*
G02X166173100Y-114636600I-254000J0D01*
G01*
X166173100Y-109810600D02*
G75*
G02X166427100Y-110064600I0J-254000D01*
G01*
X164395100Y-110064600D02*
X164395100Y-114382600D01*
X166427100Y-108667600D02*
X166427100Y-104349600D01*
X164649100Y-108921600D02*
X166173100Y-108921600D01*
X164649100Y-104095600D02*
X166173100Y-104095600D01*
X164649100Y-104095600D02*
G75*
G03X164395100Y-104349600I0J-254000D01*
G01*
X164395100Y-108667600D02*
G75*
G03X164649100Y-108921600I254000J0D01*
G01*
X166427100Y-108667600D02*
G75*
G02X166173100Y-108921600I-254000J0D01*
G01*
X166173100Y-104095600D02*
G75*
G02X166427100Y-104349600I0J-254000D01*
G01*
X164395100Y-104349600D02*
X164395100Y-108667600D01*
D10*
X153780433Y-121545504D02*
X153780433Y-122193123D01*
X153742338Y-122269314D01*
X153704242Y-122307409D01*
X153628052Y-122345504D01*
X153475671Y-122345504D01*
X153399480Y-122307409D01*
X153361385Y-122269314D01*
X153323290Y-122193123D01*
X153323290Y-121545504D01*
X152980433Y-122116933D02*
X152599480Y-122116933D01*
X153056623Y-122345504D02*
X152789957Y-121545504D01*
X152523290Y-122345504D01*
X152256623Y-121545504D02*
X152256623Y-122193123D01*
X152218528Y-122269314D01*
X152180433Y-122307409D01*
X152104242Y-122345504D01*
X151951861Y-122345504D01*
X151875671Y-122307409D01*
X151837576Y-122269314D01*
X151799480Y-122193123D01*
X151799480Y-121545504D01*
X151151861Y-121926457D02*
X151037576Y-121964552D01*
X150999480Y-122002647D01*
X150961385Y-122078838D01*
X150961385Y-122193123D01*
X150999480Y-122269314D01*
X151037576Y-122307409D01*
X151113766Y-122345504D01*
X151418528Y-122345504D01*
X151418528Y-121545504D01*
X151151861Y-121545504D01*
X151075671Y-121583600D01*
X151037576Y-121621695D01*
X150999480Y-121697885D01*
X150999480Y-121774076D01*
X151037576Y-121850266D01*
X151075671Y-121888361D01*
X151151861Y-121926457D01*
X151418528Y-121926457D01*
X150199480Y-122345504D02*
X150656623Y-122345504D01*
X150428052Y-122345504D02*
X150428052Y-121545504D01*
X150504242Y-121659790D01*
X150580433Y-121735980D01*
X150656623Y-121774076D01*
X160765714Y-121661904D02*
X160765714Y-122309523D01*
X160727619Y-122385714D01*
X160689523Y-122423809D01*
X160613333Y-122461904D01*
X160460952Y-122461904D01*
X160384761Y-122423809D01*
X160346666Y-122385714D01*
X160308571Y-122309523D01*
X160308571Y-121661904D01*
X159470476Y-122385714D02*
X159508571Y-122423809D01*
X159622857Y-122461904D01*
X159699047Y-122461904D01*
X159813333Y-122423809D01*
X159889523Y-122347619D01*
X159927619Y-122271428D01*
X159965714Y-122119047D01*
X159965714Y-122004761D01*
X159927619Y-121852380D01*
X159889523Y-121776190D01*
X159813333Y-121700000D01*
X159699047Y-121661904D01*
X159622857Y-121661904D01*
X159508571Y-121700000D01*
X159470476Y-121738095D01*
X159127619Y-121661904D02*
X159127619Y-122309523D01*
X159089523Y-122385714D01*
X159051428Y-122423809D01*
X158975238Y-122461904D01*
X158822857Y-122461904D01*
X158746666Y-122423809D01*
X158708571Y-122385714D01*
X158670476Y-122309523D01*
X158670476Y-121661904D01*
X158289523Y-122461904D02*
X158289523Y-121661904D01*
X157832380Y-122461904D01*
X157832380Y-121661904D01*
X157032380Y-122461904D02*
X157489523Y-122461904D01*
X157260952Y-122461904D02*
X157260952Y-121661904D01*
X157337142Y-121776190D01*
X157413333Y-121852380D01*
X157489523Y-121890476D01*
X171911904Y-98867619D02*
X172483333Y-98867619D01*
X172597619Y-98829523D01*
X172673809Y-98753333D01*
X172711904Y-98639047D01*
X172711904Y-98562857D01*
X172711904Y-99248571D02*
X171911904Y-99248571D01*
X171911904Y-99553333D01*
X171950000Y-99629523D01*
X171988095Y-99667619D01*
X172064285Y-99705714D01*
X172178571Y-99705714D01*
X172254761Y-99667619D01*
X172292857Y-99629523D01*
X172330952Y-99553333D01*
X172330952Y-99248571D01*
X171988095Y-100010476D02*
X171950000Y-100048571D01*
X171911904Y-100124761D01*
X171911904Y-100315238D01*
X171950000Y-100391428D01*
X171988095Y-100429523D01*
X172064285Y-100467619D01*
X172140476Y-100467619D01*
X172254761Y-100429523D01*
X172711904Y-99972380D01*
X172711904Y-100467619D01*
X171911904Y-86117619D02*
X172483333Y-86117619D01*
X172597619Y-86079523D01*
X172673809Y-86003333D01*
X172711904Y-85889047D01*
X172711904Y-85812857D01*
X172711904Y-86498571D02*
X171911904Y-86498571D01*
X171911904Y-86803333D01*
X171950000Y-86879523D01*
X171988095Y-86917619D01*
X172064285Y-86955714D01*
X172178571Y-86955714D01*
X172254761Y-86917619D01*
X172292857Y-86879523D01*
X172330952Y-86803333D01*
X172330952Y-86498571D01*
X172711904Y-87717619D02*
X172711904Y-87260476D01*
X172711904Y-87489047D02*
X171911904Y-87489047D01*
X172026190Y-87412857D01*
X172102380Y-87336666D01*
X172140476Y-87260476D01*
X163461904Y-100070476D02*
X162661904Y-100070476D01*
X162661904Y-100260952D01*
X162700000Y-100375238D01*
X162776190Y-100451428D01*
X162852380Y-100489523D01*
X163004761Y-100527619D01*
X163119047Y-100527619D01*
X163271428Y-100489523D01*
X163347619Y-100451428D01*
X163423809Y-100375238D01*
X163461904Y-100260952D01*
X163461904Y-100070476D01*
X163461904Y-100870476D02*
X162661904Y-100870476D01*
X163233333Y-101137142D01*
X162661904Y-101403809D01*
X163461904Y-101403809D01*
X163233333Y-101746666D02*
X163233333Y-102127619D01*
X163461904Y-101670476D02*
X162661904Y-101937142D01*
X163461904Y-102203809D01*
X163461904Y-102889523D02*
X163461904Y-102432380D01*
X163461904Y-102660952D02*
X162661904Y-102660952D01*
X162776190Y-102584761D01*
X162852380Y-102508571D01*
X162890476Y-102432380D01*
X163461904Y-111570476D02*
X162661904Y-111570476D01*
X162661904Y-111875238D01*
X162700000Y-111951428D01*
X162738095Y-111989523D01*
X162814285Y-112027619D01*
X162928571Y-112027619D01*
X163004761Y-111989523D01*
X163042857Y-111951428D01*
X163080952Y-111875238D01*
X163080952Y-111570476D01*
X163461904Y-112370476D02*
X162661904Y-112370476D01*
X163233333Y-112637142D01*
X162661904Y-112903809D01*
X163461904Y-112903809D01*
X162661904Y-113437142D02*
X162661904Y-113513333D01*
X162700000Y-113589523D01*
X162738095Y-113627619D01*
X162814285Y-113665714D01*
X162966666Y-113703809D01*
X163157142Y-113703809D01*
X163309523Y-113665714D01*
X163385714Y-113627619D01*
X163423809Y-113589523D01*
X163461904Y-113513333D01*
X163461904Y-113437142D01*
X163423809Y-113360952D01*
X163385714Y-113322857D01*
X163309523Y-113284761D01*
X163157142Y-113246666D01*
X162966666Y-113246666D01*
X162814285Y-113284761D01*
X162738095Y-113322857D01*
X162700000Y-113360952D01*
X162661904Y-113437142D01*
X163461904Y-106320476D02*
X162661904Y-106320476D01*
X162661904Y-106625238D01*
X162700000Y-106701428D01*
X162738095Y-106739523D01*
X162814285Y-106777619D01*
X162928571Y-106777619D01*
X163004761Y-106739523D01*
X163042857Y-106701428D01*
X163080952Y-106625238D01*
X163080952Y-106320476D01*
X163461904Y-107120476D02*
X162661904Y-107120476D01*
X163233333Y-107387142D01*
X162661904Y-107653809D01*
X163461904Y-107653809D01*
X163461904Y-108453809D02*
X163461904Y-107996666D01*
X163461904Y-108225238D02*
X162661904Y-108225238D01*
X162776190Y-108149047D01*
X162852380Y-108072857D01*
X162890476Y-107996666D01*
X172161904Y-118367619D02*
X172733333Y-118367619D01*
X172847619Y-118329523D01*
X172923809Y-118253333D01*
X172961904Y-118139047D01*
X172961904Y-118062857D01*
X172961904Y-118748571D02*
X172161904Y-118748571D01*
X172161904Y-119053333D01*
X172200000Y-119129523D01*
X172238095Y-119167619D01*
X172314285Y-119205714D01*
X172428571Y-119205714D01*
X172504761Y-119167619D01*
X172542857Y-119129523D01*
X172580952Y-119053333D01*
X172580952Y-118748571D01*
X172161904Y-119472380D02*
X172161904Y-119967619D01*
X172466666Y-119700952D01*
X172466666Y-119815238D01*
X172504761Y-119891428D01*
X172542857Y-119929523D01*
X172619047Y-119967619D01*
X172809523Y-119967619D01*
X172885714Y-119929523D01*
X172923809Y-119891428D01*
X172961904Y-119815238D01*
X172961904Y-119586666D01*
X172923809Y-119510476D01*
X172885714Y-119472380D01*
M02*
