M48
INCH,TZ
T1C0.0130
T2C0.0140
T3C0.0394
T4C0.0400
T5C0.0500
T6C0.1260
%
G90
G05
T1
X61622Y-39533
X61872Y-38833
X62922Y-38583
X63172Y-39383
X63372Y-38133
X63522Y-40183
X63622Y-37633
X64572Y-41833
T2
X64312Y-43593
T3
X61934Y-49683
X63311Y-49683
X59184Y-49683
X60561Y-49683
T4
X67022Y-34683
X67022Y-36683
X67022Y-38683
X67122Y-33683
X67122Y-35683
X67122Y-37683
X67022Y-40683
X67022Y-42683
X67022Y-44683
X67122Y-39683
X67122Y-41683
X67122Y-43683
X67072Y-46683
X67072Y-48683
X67172Y-45683
X67172Y-47683
T5
X53572Y-38879
X53572Y-48722
X53572Y-33958
X53572Y-43801
T6
X57776Y-50100
X67176Y-32393
X67176Y-50100
X57776Y-32393
T0
M30
