G04 #@! TF.GenerationSoftware,KiCad,Pcbnew,(5.1.5)-3*
G04 #@! TF.CreationDate,2019-12-31T00:04:08+10:30*
G04 #@! TF.ProjectId,ATM90E36_Breakout,41544d39-3045-4333-965f-427265616b6f,rev?*
G04 #@! TF.SameCoordinates,Original*
G04 #@! TF.FileFunction,Copper,L1,Top*
G04 #@! TF.FilePolarity,Positive*
%FSLAX46Y46*%
G04 Gerber Fmt 4.6, Leading zero omitted, Abs format (unit mm)*
G04 Created by KiCad (PCBNEW (5.1.5)-3) date 2019-12-31 00:04:08*
%MOMM*%
%LPD*%
G04 APERTURE LIST*
%ADD10R,1.270000X2.286000*%
%ADD11R,1.270000X2.794000*%
%ADD12R,1.270000X3.302000*%
%ADD13R,1.000000X1.100000*%
%ADD14R,0.330200X1.498600*%
%ADD15R,1.498600X0.330200*%
%ADD16R,1.100000X1.000000*%
%ADD17R,1.300000X1.500000*%
%ADD18R,0.950000X0.850000*%
%ADD19C,1.850000*%
%ADD20R,1.850000X1.850000*%
%ADD21C,1.879600*%
%ADD22R,1.270000X2.540000*%
%ADD23R,0.800000X0.800000*%
%ADD24R,1.879600X1.879600*%
%ADD25R,1.000000X0.700000*%
%ADD26R,1.000000X0.500000*%
%ADD27C,0.660400*%
%ADD28C,0.635000*%
%ADD29C,0.304800*%
%ADD30C,0.152400*%
G04 APERTURE END LIST*
D10*
X128073100Y-90190600D03*
X131121100Y-90190600D03*
X135820100Y-90190600D03*
D11*
X128200100Y-82570600D03*
D10*
X134804100Y-82316600D03*
D12*
X136836100Y-82824600D03*
D10*
X128073100Y-102690600D03*
X131121100Y-102690600D03*
X135820100Y-102690600D03*
D11*
X128200100Y-95070600D03*
D10*
X134804100Y-94816600D03*
D12*
X136836100Y-95324600D03*
D10*
X128073100Y-115190600D03*
X131121100Y-115190600D03*
X135820100Y-115190600D03*
D11*
X128200100Y-107570600D03*
D10*
X134804100Y-107316600D03*
D12*
X136836100Y-107824600D03*
D10*
X128073100Y-127690600D03*
X131121100Y-127690600D03*
X135820100Y-127690600D03*
D11*
X128200100Y-120070600D03*
D10*
X134804100Y-119816600D03*
D12*
X136836100Y-120324600D03*
D13*
X142805100Y-97198600D03*
X142805100Y-95498600D03*
X142805100Y-102913600D03*
X142805100Y-101213600D03*
X142805100Y-84498600D03*
X142805100Y-82798600D03*
X142805100Y-90213600D03*
X142805100Y-88513600D03*
X142805100Y-108628600D03*
X142805100Y-106928600D03*
X142805100Y-113835600D03*
X142805100Y-112135600D03*
X140861100Y-95713600D03*
X139161100Y-95713600D03*
X139161100Y-109683600D03*
X140861100Y-109683600D03*
X139161100Y-112223600D03*
X140861100Y-112223600D03*
X140861100Y-114763600D03*
X139161100Y-114763600D03*
X139161100Y-98253600D03*
X140861100Y-98253600D03*
X140861100Y-83013600D03*
X139161100Y-83013600D03*
X139161100Y-100793600D03*
X140861100Y-100793600D03*
X140861100Y-103333600D03*
X139161100Y-103333600D03*
X139161100Y-85553600D03*
X140861100Y-85553600D03*
X139161100Y-88093600D03*
X140861100Y-88093600D03*
X140861100Y-90633600D03*
X139161100Y-90633600D03*
X140861100Y-107143600D03*
X139161100Y-107143600D03*
D14*
X151466100Y-93083600D03*
X151966100Y-93083600D03*
X152466100Y-93083600D03*
X152966100Y-93083600D03*
X153466100Y-93083600D03*
X153966100Y-93083600D03*
X154466100Y-93083600D03*
X154966100Y-93083600D03*
X155466100Y-93083600D03*
X155966100Y-93083600D03*
X156466100Y-93083600D03*
X156966100Y-93083600D03*
D15*
X158516100Y-94633600D03*
X158516100Y-95133600D03*
X158516100Y-95633600D03*
X158516100Y-96133600D03*
X158516100Y-96633600D03*
X158516100Y-97133600D03*
X158516100Y-97633600D03*
X158516100Y-98133600D03*
X158516100Y-98633600D03*
X158516100Y-99133600D03*
X158516100Y-99633600D03*
X158516100Y-100133600D03*
D14*
X156966100Y-101683600D03*
X156466100Y-101683600D03*
X155966100Y-101683600D03*
X155466100Y-101683600D03*
X154966100Y-101683600D03*
X154466100Y-101683600D03*
X153966100Y-101683600D03*
X153466100Y-101683600D03*
X152966100Y-101683600D03*
X152466100Y-101683600D03*
X151966100Y-101683600D03*
X151466100Y-101683600D03*
D15*
X149916100Y-100133600D03*
X149916100Y-99633600D03*
X149916100Y-99133600D03*
X149916100Y-98633600D03*
X149916100Y-98133600D03*
X149916100Y-97633600D03*
X149916100Y-97133600D03*
X149916100Y-96633600D03*
X149916100Y-96133600D03*
X149916100Y-95633600D03*
X149916100Y-95133600D03*
X149916100Y-94633600D03*
D13*
X152115100Y-109302600D03*
X153815100Y-109302600D03*
X155925100Y-109302600D03*
X157625100Y-109302600D03*
X159735100Y-109302600D03*
X161435100Y-109302600D03*
D16*
X153815100Y-111461600D03*
X152115100Y-111461600D03*
X157625100Y-111461600D03*
X155925100Y-111461600D03*
X161435100Y-111461600D03*
X159735100Y-111461600D03*
X149370100Y-104349600D03*
X147670100Y-104349600D03*
D13*
X147377100Y-92831600D03*
X147377100Y-94531600D03*
D16*
X151021100Y-90633600D03*
X149321100Y-90633600D03*
X154196100Y-89363600D03*
X152496100Y-89363600D03*
D17*
X153561100Y-86823600D03*
X151861100Y-86823600D03*
D13*
X155671100Y-86823600D03*
X157371100Y-86823600D03*
D16*
X155671100Y-89363600D03*
X157371100Y-89363600D03*
D17*
X149116100Y-106635600D03*
X147416100Y-106635600D03*
D13*
X149624100Y-117557600D03*
X147924100Y-117557600D03*
X153688100Y-117430600D03*
X151988100Y-117430600D03*
X157625100Y-117430600D03*
X155925100Y-117430600D03*
D16*
X147924100Y-115398600D03*
X149624100Y-115398600D03*
X151988100Y-115271600D03*
X153688100Y-115271600D03*
X155925100Y-115271600D03*
X157625100Y-115271600D03*
D13*
X140861100Y-119843600D03*
X139161100Y-119843600D03*
X139161100Y-122383600D03*
X140861100Y-122383600D03*
X139161100Y-124923600D03*
X140861100Y-124923600D03*
X140861100Y-127463600D03*
X139161100Y-127463600D03*
X142805100Y-121328600D03*
X142805100Y-119628600D03*
X142805100Y-126281600D03*
X142805100Y-124581600D03*
D18*
X154907100Y-104028600D03*
X156357100Y-104028600D03*
X156357100Y-105178600D03*
X154907100Y-105178600D03*
D16*
X149282100Y-121328600D03*
X149282100Y-119628600D03*
X153346100Y-121328600D03*
X153346100Y-119628600D03*
X157410100Y-121328600D03*
X157410100Y-119628600D03*
D19*
X153826100Y-126193600D03*
D20*
X150326100Y-126193600D03*
D19*
X160811100Y-126193600D03*
D20*
X157311100Y-126193600D03*
D21*
X170237100Y-113493600D03*
X170491100Y-110953600D03*
X170237100Y-108413600D03*
X170491100Y-105873600D03*
X170237100Y-103333600D03*
X170491100Y-100793600D03*
X170237100Y-98253600D03*
X170491100Y-95713600D03*
X170237100Y-93173600D03*
X170491100Y-90633600D03*
X170237100Y-88093600D03*
X170491100Y-85553600D03*
D22*
X164141100Y-127463600D03*
X166046100Y-127463600D03*
X167951100Y-127463600D03*
D23*
X161982100Y-103472600D03*
X161982100Y-104972600D03*
X163125100Y-103472600D03*
X163125100Y-104972600D03*
X164268100Y-103472600D03*
X164268100Y-104972600D03*
X165411100Y-103472600D03*
X165411100Y-104972600D03*
D21*
X170364100Y-123653600D03*
X170618100Y-121113600D03*
X170364100Y-118573600D03*
D24*
X170618100Y-116033600D03*
D25*
X164991100Y-89968600D03*
D26*
X164991100Y-90868600D03*
X164991100Y-91668600D03*
D25*
X164991100Y-92568600D03*
X163291100Y-92568600D03*
D26*
X163291100Y-91668600D03*
X163291100Y-90868600D03*
D25*
X163291100Y-89968600D03*
X162275100Y-101204600D03*
D26*
X162275100Y-100304600D03*
X162275100Y-99504600D03*
D25*
X162275100Y-98604600D03*
X163975100Y-98604600D03*
D26*
X163975100Y-99504600D03*
X163975100Y-100304600D03*
D25*
X163975100Y-101204600D03*
D27*
X163353700Y-110725000D03*
D28*
X161347100Y-102063600D03*
X164014100Y-106254600D03*
X160458100Y-100031600D03*
X160966100Y-96856600D03*
X157156100Y-98634600D03*
X159823100Y-97999600D03*
X156521100Y-100412600D03*
X161601100Y-95586600D03*
D29*
X141255700Y-88474600D02*
X142779700Y-88474600D01*
X140874700Y-88093600D02*
X141255700Y-88474600D01*
X142779700Y-88474600D02*
X142805100Y-88513600D01*
X140874700Y-88093600D02*
X140861100Y-88093600D01*
X147351700Y-94342000D02*
X147351700Y-94494400D01*
X144837100Y-91827400D02*
X147351700Y-94342000D01*
X144837100Y-83293000D02*
X144837100Y-91827400D01*
X143465500Y-81921400D02*
X144837100Y-83293000D01*
X140417500Y-81921400D02*
X143465500Y-81921400D01*
X140036500Y-82302400D02*
X140417500Y-81921400D01*
X140036500Y-84740800D02*
X140036500Y-82302400D01*
X140798500Y-85502800D02*
X140036500Y-84740800D01*
X147351700Y-94494400D02*
X147377100Y-94531600D01*
X140798500Y-85502800D02*
X140861100Y-85553600D01*
X141941500Y-84512200D02*
X142779700Y-84512200D01*
X140950900Y-85502800D02*
X141941500Y-84512200D01*
X142779700Y-84512200D02*
X142805100Y-84498600D01*
X140950900Y-85502800D02*
X140861100Y-85553600D01*
X140874700Y-85655200D02*
X140874700Y-88017400D01*
X140874700Y-88017400D02*
X140861100Y-88093600D01*
X140874700Y-85655200D02*
X140861100Y-85553600D01*
X142398700Y-100819000D02*
X140874700Y-100819000D01*
X142779700Y-101200000D02*
X142398700Y-100819000D01*
X140874700Y-100819000D02*
X140861100Y-100793600D01*
X142779700Y-101200000D02*
X142805100Y-101213600D01*
X140874700Y-100666600D02*
X140874700Y-98304400D01*
X140874700Y-98304400D02*
X140861100Y-98253600D01*
X140874700Y-100666600D02*
X140861100Y-100793600D01*
X141865300Y-97237600D02*
X142779700Y-97237600D01*
X140950900Y-98152000D02*
X141331900Y-97771000D01*
X141331900Y-97771000D02*
X141865300Y-97237600D01*
X142779700Y-97237600D02*
X142805100Y-97198600D01*
X140950900Y-98152000D02*
X140861100Y-98253600D01*
X142474900Y-124898200D02*
X140874700Y-124898200D01*
X142779700Y-124593400D02*
X142474900Y-124898200D01*
X140874700Y-124898200D02*
X140861100Y-124923600D01*
X142779700Y-124593400D02*
X142805100Y-124581600D01*
X140874700Y-124745800D02*
X140874700Y-122383600D01*
X140874700Y-122383600D02*
X140861100Y-122383600D01*
X140874700Y-124745800D02*
X140861100Y-124923600D01*
X141865300Y-121393000D02*
X142779700Y-121393000D01*
X140950900Y-122307400D02*
X141865300Y-121393000D01*
X142779700Y-121393000D02*
X142805100Y-121328600D01*
X140950900Y-122307400D02*
X140861100Y-122383600D01*
X142779700Y-112172800D02*
X140874700Y-112172800D01*
X140874700Y-112172800D02*
X140861100Y-112223600D01*
X142779700Y-112172800D02*
X142805100Y-112135600D01*
X140874700Y-112020400D02*
X140874700Y-109734400D01*
X140874700Y-109734400D02*
X140861100Y-109683600D01*
X140874700Y-112020400D02*
X140861100Y-112223600D01*
X141865300Y-108667600D02*
X142779700Y-108667600D01*
X140950900Y-109582000D02*
X141331900Y-109201000D01*
X141331900Y-109201000D02*
X141865300Y-108667600D01*
X142779700Y-108667600D02*
X142805100Y-108628600D01*
X140950900Y-109582000D02*
X140861100Y-109683600D01*
X140036500Y-120631000D02*
X141255700Y-121850200D01*
X140036500Y-113087200D02*
X140036500Y-120631000D01*
X140798500Y-112325200D02*
X140036500Y-113087200D01*
X141255700Y-121850200D02*
X140861100Y-122383600D01*
X140798500Y-112325200D02*
X140861100Y-112223600D01*
X140874700Y-101809600D02*
X140874700Y-100971400D01*
X140036500Y-102647800D02*
X140874700Y-101809600D01*
X140036500Y-107905600D02*
X140036500Y-102647800D01*
X141331900Y-109201000D02*
X140036500Y-107905600D01*
X140874700Y-100971400D02*
X140861100Y-100793600D01*
X141179500Y-88779400D02*
X141179500Y-88550800D01*
X140036500Y-89922400D02*
X141179500Y-88779400D01*
X140036500Y-96475600D02*
X140036500Y-89922400D01*
X141331900Y-97771000D02*
X140036500Y-96475600D01*
X141179500Y-88550800D02*
X140861100Y-88093600D01*
X147961300Y-115449400D02*
X147961300Y-117506800D01*
X147961300Y-117506800D02*
X147924100Y-117557600D01*
X147961300Y-115449400D02*
X147924100Y-115398600D01*
X151999900Y-115297000D02*
X151999900Y-117430600D01*
X151999900Y-117430600D02*
X151988100Y-117430600D01*
X151999900Y-115297000D02*
X151988100Y-115271600D01*
X148037500Y-119869000D02*
X148037500Y-117659200D01*
X148647100Y-120478600D02*
X148037500Y-119869000D01*
X149942500Y-120478600D02*
X148647100Y-120478600D01*
X151923700Y-118497400D02*
X151314100Y-119107000D01*
X151314100Y-119107000D02*
X149942500Y-120478600D01*
X151923700Y-117506800D02*
X151923700Y-118497400D01*
X148037500Y-117659200D02*
X147924100Y-117557600D01*
X151923700Y-117506800D02*
X151988100Y-117430600D01*
X152076100Y-114839800D02*
X153752500Y-113163400D01*
X152076100Y-115144600D02*
X152076100Y-114839800D01*
X152076100Y-115144600D02*
X151988100Y-115271600D01*
X157867300Y-105238600D02*
X156419500Y-105238600D01*
X161372500Y-108743800D02*
X157867300Y-105238600D01*
X161372500Y-109277200D02*
X161372500Y-108743800D01*
X156419500Y-105238600D02*
X156357100Y-105178600D01*
X161372500Y-109277200D02*
X161435100Y-109302600D01*
X161448700Y-109429600D02*
X161448700Y-110725000D01*
X161448700Y-110725000D02*
X161448700Y-111410800D01*
X161448700Y-111410800D02*
X161435100Y-111461600D01*
X161448700Y-109429600D02*
X161435100Y-109302600D01*
X161448700Y-110725000D02*
X163353700Y-110725000D01*
X155962300Y-115297000D02*
X155962300Y-117430600D01*
X155962300Y-117430600D02*
X155925100Y-117430600D01*
X155962300Y-115297000D02*
X155925100Y-115271600D01*
X157638700Y-109353400D02*
X157638700Y-111410800D01*
X157638700Y-111410800D02*
X157625100Y-111461600D01*
X157638700Y-109353400D02*
X157625100Y-109302600D01*
X155962300Y-113163400D02*
X155962300Y-115144600D01*
X157562500Y-111563200D02*
X155962300Y-113163400D01*
X155962300Y-115144600D02*
X155925100Y-115271600D01*
X157562500Y-111563200D02*
X157625100Y-111461600D01*
X160762900Y-123145600D02*
X160762900Y-126193600D01*
X158095900Y-120478600D02*
X160762900Y-123145600D01*
X156724300Y-120478600D02*
X158095900Y-120478600D01*
X156038500Y-119792800D02*
X156724300Y-120478600D01*
X156038500Y-117506800D02*
X156038500Y-119792800D01*
X160762900Y-126193600D02*
X160811100Y-126193600D01*
X156038500Y-117506800D02*
X155925100Y-117430600D01*
X161372500Y-117202000D02*
X161372500Y-111563200D01*
X158095900Y-120478600D02*
X161372500Y-117202000D01*
X161372500Y-111563200D02*
X161435100Y-111461600D01*
X152685700Y-120478600D02*
X151314100Y-119107000D01*
X155352700Y-120478600D02*
X152685700Y-120478600D01*
X156038500Y-119792800D02*
X155352700Y-120478600D01*
X163125100Y-104933800D02*
X161982100Y-104933800D01*
X161982100Y-104933800D02*
X161982100Y-104972600D01*
X163125100Y-104933800D02*
X163125100Y-104972600D01*
X163201300Y-104933800D02*
X164268100Y-104933800D01*
X164268100Y-104933800D02*
X164268100Y-104972600D01*
X163201300Y-104933800D02*
X163125100Y-104972600D01*
X164344300Y-104933800D02*
X165411100Y-104933800D01*
X165411100Y-104933800D02*
X165411100Y-104972600D01*
X164344300Y-104933800D02*
X164268100Y-104972600D01*
X167925700Y-105086200D02*
X165487300Y-105086200D01*
X169983100Y-107143600D02*
X167925700Y-105086200D01*
X171049900Y-107143600D02*
X169983100Y-107143600D01*
X171735700Y-106457800D02*
X171049900Y-107143600D01*
X171735700Y-99752200D02*
X171735700Y-106457800D01*
X170237100Y-98253600D02*
X171735700Y-99752200D01*
X165487300Y-105086200D02*
X165411100Y-104972600D01*
X154895500Y-103028800D02*
X154895500Y-104019400D01*
X154438300Y-102571600D02*
X154895500Y-103028800D01*
X154438300Y-101733400D02*
X154438300Y-102571600D01*
X154895500Y-104019400D02*
X154907100Y-104028600D01*
X154438300Y-101733400D02*
X154466100Y-101683600D01*
X149332900Y-106457800D02*
X149332900Y-104400400D01*
X149180500Y-106610200D02*
X149332900Y-106457800D01*
X149332900Y-104400400D02*
X149370100Y-104349600D01*
X149180500Y-106610200D02*
X149116100Y-106635600D01*
X149866300Y-103867000D02*
X149866300Y-100590400D01*
X149866300Y-100590400D02*
X149866300Y-100209400D01*
X149485300Y-104248000D02*
X149866300Y-103867000D01*
X149866300Y-100209400D02*
X149916100Y-100133600D01*
X149485300Y-104248000D02*
X149370100Y-104349600D01*
X154438300Y-100742800D02*
X154438300Y-101581000D01*
X154285900Y-100590400D02*
X154438300Y-100742800D01*
X149866300Y-100590400D02*
X154285900Y-100590400D01*
X154438300Y-101581000D02*
X154466100Y-101683600D01*
X157333900Y-88322200D02*
X157333900Y-89312800D01*
X156495700Y-87484000D02*
X157333900Y-88322200D01*
X156495700Y-86112400D02*
X156495700Y-87484000D01*
X156114700Y-85731400D02*
X156495700Y-86112400D01*
X152761900Y-85731400D02*
X156114700Y-85731400D01*
X151923700Y-86569600D02*
X152761900Y-85731400D01*
X151923700Y-86798200D02*
X151923700Y-86569600D01*
X157333900Y-89312800D02*
X157371100Y-89363600D01*
X151923700Y-86798200D02*
X151861100Y-86823600D01*
X151237900Y-90608200D02*
X151085500Y-90608200D01*
X152457100Y-89389000D02*
X151542700Y-90303400D01*
X151542700Y-90303400D02*
X151237900Y-90608200D01*
X151085500Y-90608200D02*
X151021100Y-90633600D01*
X152457100Y-89389000D02*
X152496100Y-89363600D01*
X153447700Y-92208400D02*
X153447700Y-93046600D01*
X151542700Y-90303400D02*
X152546000Y-91306700D01*
X152546000Y-91306700D02*
X153447700Y-92208400D01*
X153447700Y-93046600D02*
X153466100Y-93083600D01*
X156114700Y-96628000D02*
X157410100Y-96628000D01*
X157410100Y-96628000D02*
X158476900Y-96628000D01*
X153447700Y-93961000D02*
X156114700Y-96628000D01*
X153447700Y-93199000D02*
X153447700Y-93961000D01*
X158476900Y-96628000D02*
X158516100Y-96633600D01*
X153447700Y-93199000D02*
X153466100Y-93083600D01*
X151923700Y-88703200D02*
X151923700Y-86950600D01*
X152457100Y-89236600D02*
X151923700Y-88703200D01*
X151923700Y-86950600D02*
X151861100Y-86823600D01*
X152457100Y-89236600D02*
X152496100Y-89363600D01*
X154362100Y-98380600D02*
X154362100Y-100514200D01*
X156114700Y-96628000D02*
X154362100Y-98380600D01*
X154362100Y-100514200D02*
X154285900Y-100590400D01*
X167011300Y-98152000D02*
X170135500Y-98152000D01*
X162972700Y-94113400D02*
X167011300Y-98152000D01*
X157638700Y-94113400D02*
X162972700Y-94113400D01*
X157410100Y-94342000D02*
X157638700Y-94113400D01*
X157410100Y-96628000D02*
X157410100Y-94342000D01*
X170135500Y-98152000D02*
X170237100Y-98253600D01*
X148037500Y-107905600D02*
X148037500Y-115297000D01*
X149180500Y-106762600D02*
X148037500Y-107905600D01*
X148037500Y-115297000D02*
X147924100Y-115398600D01*
X149180500Y-106762600D02*
X149116100Y-106635600D01*
X140798500Y-126041200D02*
X140798500Y-125050600D01*
X140036500Y-126803200D02*
X140798500Y-126041200D01*
X140036500Y-128174800D02*
X140036500Y-126803200D01*
X140188900Y-128327200D02*
X140036500Y-128174800D01*
X142246300Y-128327200D02*
X140188900Y-128327200D01*
X148418500Y-122155000D02*
X142246300Y-128327200D01*
X148418500Y-120707200D02*
X148418500Y-122155000D01*
X148647100Y-120478600D02*
X148418500Y-120707200D01*
X140798500Y-125050600D02*
X140861100Y-124923600D01*
X147377100Y-94531600D02*
X148227100Y-94531600D01*
X148227100Y-94531600D02*
X148829100Y-95133600D01*
X149916100Y-95133600D02*
X148829100Y-95133600D01*
X151966100Y-93083600D02*
X151966100Y-91886600D01*
X151966100Y-91886600D02*
X152546000Y-91306700D01*
X153727100Y-113112600D02*
X153727100Y-111461600D01*
X153727100Y-111461600D02*
X153815100Y-111461600D01*
X153727100Y-113112600D02*
X153752500Y-113163400D01*
X153854100Y-111334600D02*
X153854100Y-109302600D01*
X153854100Y-109302600D02*
X153815100Y-109302600D01*
X153854100Y-111334600D02*
X153815100Y-111461600D01*
X165030100Y-91675000D02*
X165030100Y-92513200D01*
X165030100Y-92513200D02*
X164991100Y-92568600D01*
X165030100Y-91675000D02*
X164991100Y-91668600D01*
X165030100Y-91522600D02*
X165030100Y-90913000D01*
X165030100Y-90913000D02*
X164991100Y-90868600D01*
X165030100Y-91522600D02*
X164991100Y-91668600D01*
X165030100Y-90760600D02*
X165030100Y-89998600D01*
X165030100Y-89998600D02*
X164991100Y-89968600D01*
X165030100Y-90760600D02*
X164991100Y-90868600D01*
X171049900Y-91903600D02*
X165106300Y-91903600D01*
X171735700Y-91217800D02*
X171049900Y-91903600D01*
X171735700Y-86798200D02*
X171735700Y-91217800D01*
X170491100Y-85553600D02*
X171735700Y-86798200D01*
X165106300Y-91903600D02*
X164991100Y-91668600D01*
X151390300Y-93122800D02*
X149942500Y-94570600D01*
X149942500Y-94570600D02*
X149916100Y-94633600D01*
X151390300Y-93122800D02*
X151466100Y-93083600D01*
X147427900Y-92513200D02*
X147427900Y-92818000D01*
X149256700Y-90684400D02*
X147427900Y-92513200D01*
X147427900Y-92818000D02*
X147377100Y-92831600D01*
X149256700Y-90684400D02*
X149321100Y-90633600D01*
X157333900Y-86264800D02*
X157333900Y-86798200D01*
X156343300Y-85274200D02*
X157333900Y-86264800D01*
X151542700Y-85274200D02*
X156343300Y-85274200D01*
X149409100Y-87407800D02*
X151542700Y-85274200D01*
X149409100Y-90532000D02*
X149409100Y-87407800D01*
X157333900Y-86798200D02*
X157371100Y-86823600D01*
X149409100Y-90532000D02*
X149321100Y-90633600D01*
X149332900Y-94570600D02*
X149790100Y-94570600D01*
X147580300Y-92818000D02*
X149332900Y-94570600D01*
X149790100Y-94570600D02*
X149916100Y-94633600D01*
X147580300Y-92818000D02*
X147377100Y-92831600D01*
X158019700Y-85579000D02*
X170364100Y-85579000D01*
X157333900Y-86264800D02*
X158019700Y-85579000D01*
X170364100Y-85579000D02*
X170491100Y-85553600D01*
X149916100Y-97133600D02*
X144687100Y-97133600D01*
X144687100Y-97133600D02*
X144329100Y-97491600D01*
X144329100Y-97491600D02*
X144329100Y-101389600D01*
X144329100Y-101389600D02*
X142805100Y-102913600D01*
X142322500Y-103333600D02*
X140861100Y-103333600D01*
X142703500Y-102952600D02*
X142322500Y-103333600D01*
X142703500Y-102952600D02*
X142805100Y-102913600D01*
X149916100Y-96633600D02*
X145122100Y-96633600D01*
X145122100Y-96633600D02*
X143948100Y-95459600D01*
X143948100Y-95459600D02*
X142844100Y-95459600D01*
X142844100Y-95459600D02*
X142805100Y-95498600D01*
X142551100Y-95713600D02*
X140861100Y-95713600D01*
X142703500Y-95561200D02*
X142551100Y-95713600D01*
X142703500Y-95561200D02*
X142805100Y-95498600D01*
X149916100Y-96133600D02*
X145511100Y-96133600D01*
X145511100Y-96133600D02*
X142805100Y-93427600D01*
X142805100Y-93427600D02*
X142805100Y-90213600D01*
X142703500Y-90608200D02*
X140874700Y-90608200D01*
X140874700Y-90608200D02*
X140861100Y-90633600D01*
X142703500Y-90608200D02*
X142805100Y-90213600D01*
X142805100Y-82798600D02*
X142844100Y-82798600D01*
X142844100Y-82798600D02*
X144329100Y-84283600D01*
X144329100Y-84283600D02*
X144329100Y-94189600D01*
X144329100Y-94189600D02*
X145773100Y-95633600D01*
X149916100Y-95633600D02*
X145773100Y-95633600D01*
X142627300Y-82988200D02*
X140874700Y-82988200D01*
X142703500Y-82912000D02*
X142627300Y-82988200D01*
X140874700Y-82988200D02*
X140861100Y-83013600D01*
X142703500Y-82912000D02*
X142805100Y-82798600D01*
X149624100Y-115398600D02*
X149624100Y-109214600D01*
X149624100Y-109214600D02*
X151466100Y-107372600D01*
X151466100Y-101683600D02*
X151466100Y-107372600D01*
X149332900Y-117811600D02*
X149332900Y-119564200D01*
X149561500Y-117583000D02*
X149332900Y-117811600D01*
X149332900Y-119564200D02*
X149282100Y-119628600D01*
X149561500Y-117583000D02*
X149624100Y-117557600D01*
X149637700Y-115525600D02*
X149637700Y-117430600D01*
X149637700Y-117430600D02*
X149624100Y-117557600D01*
X149637700Y-115525600D02*
X149624100Y-115398600D01*
X152466100Y-101683600D02*
X152466100Y-107406600D01*
X152466100Y-107406600D02*
X152838100Y-107778600D01*
X152838100Y-107778600D02*
X154870100Y-107778600D01*
X154870100Y-107778600D02*
X154870100Y-112731600D01*
X153688100Y-115271600D02*
X153688100Y-113913600D01*
X153688100Y-113913600D02*
X154870100Y-112731600D01*
X153371500Y-117735400D02*
X153371500Y-119564200D01*
X153676300Y-117430600D02*
X153371500Y-117735400D01*
X153371500Y-119564200D02*
X153346100Y-119628600D01*
X153676300Y-117430600D02*
X153688100Y-117430600D01*
X153676300Y-115373200D02*
X153676300Y-117354400D01*
X153676300Y-117354400D02*
X153688100Y-117430600D01*
X153676300Y-115373200D02*
X153688100Y-115271600D01*
X153466100Y-101683600D02*
X153466100Y-106247600D01*
X153466100Y-106247600D02*
X153854100Y-106635600D01*
X153854100Y-106635600D02*
X157664100Y-106635600D01*
X157664100Y-106635600D02*
X158553100Y-107524600D01*
X158553100Y-107524600D02*
X158553100Y-113366600D01*
X157625100Y-115271600D02*
X157625100Y-114294600D01*
X157625100Y-114294600D02*
X158553100Y-113366600D01*
X157410100Y-117583000D02*
X157410100Y-119628600D01*
X157562500Y-117430600D02*
X157410100Y-117583000D01*
X157562500Y-117430600D02*
X157625100Y-117430600D01*
X157562500Y-115373200D02*
X157562500Y-117354400D01*
X157562500Y-117354400D02*
X157625100Y-117430600D01*
X157562500Y-115373200D02*
X157625100Y-115271600D01*
X142805100Y-126281600D02*
X143225100Y-126281600D01*
X143225100Y-126281600D02*
X144075100Y-125431600D01*
X144075100Y-125431600D02*
X144075100Y-115271600D01*
X144075100Y-115271600D02*
X145091100Y-114255600D01*
X145091100Y-114255600D02*
X145091100Y-105365600D01*
X145091100Y-105365600D02*
X146361100Y-104095600D01*
X146361100Y-104095600D02*
X146361100Y-102825600D01*
X146361100Y-102825600D02*
X147377100Y-101809600D01*
X149916100Y-99133600D02*
X147513100Y-99133600D01*
X147513100Y-99133600D02*
X147377100Y-99269600D01*
X147377100Y-99269600D02*
X147377100Y-101809600D01*
X141636700Y-127412800D02*
X140874700Y-127412800D01*
X142703500Y-126346000D02*
X141636700Y-127412800D01*
X140874700Y-127412800D02*
X140861100Y-127463600D01*
X142703500Y-126346000D02*
X142805100Y-126281600D01*
X142805100Y-119628600D02*
X142805100Y-115779600D01*
X142805100Y-115779600D02*
X144583100Y-114001600D01*
X144583100Y-114001600D02*
X144583100Y-105111600D01*
X144583100Y-105111600D02*
X145853100Y-103841600D01*
X145853100Y-103841600D02*
X145853100Y-102571600D01*
X145853100Y-102571600D02*
X146869100Y-101555600D01*
X149916100Y-98633600D02*
X146997100Y-98633600D01*
X146997100Y-98633600D02*
X146869100Y-98761600D01*
X146869100Y-98761600D02*
X146869100Y-101555600D01*
X142627300Y-119792800D02*
X140874700Y-119792800D01*
X142703500Y-119716600D02*
X142627300Y-119792800D01*
X140874700Y-119792800D02*
X140861100Y-119843600D01*
X142703500Y-119716600D02*
X142805100Y-119628600D01*
X149916100Y-98133600D02*
X146227100Y-98133600D01*
X146227100Y-98133600D02*
X146107100Y-98253600D01*
X146107100Y-98253600D02*
X146107100Y-101555600D01*
X146107100Y-101555600D02*
X145091100Y-102571600D01*
X145091100Y-102571600D02*
X145091100Y-103841600D01*
X145091100Y-103841600D02*
X144075100Y-104857600D01*
X144075100Y-104857600D02*
X144075100Y-112565600D01*
X144075100Y-112565600D02*
X142805100Y-113835600D01*
X141865300Y-114763600D02*
X140861100Y-114763600D01*
X142703500Y-113925400D02*
X141865300Y-114763600D01*
X142703500Y-113925400D02*
X142805100Y-113835600D01*
X142805100Y-106928600D02*
X142805100Y-105111600D01*
X142805100Y-105111600D02*
X144329100Y-103587600D01*
X144329100Y-103587600D02*
X144329100Y-102317600D01*
X144329100Y-102317600D02*
X145345100Y-101301600D01*
X145345100Y-101301600D02*
X145345100Y-97745600D01*
X149916100Y-97633600D02*
X145457100Y-97633600D01*
X145457100Y-97633600D02*
X145345100Y-97745600D01*
X142551100Y-107143600D02*
X140861100Y-107143600D01*
X142703500Y-106991200D02*
X142551100Y-107143600D01*
X142703500Y-106991200D02*
X142805100Y-106928600D01*
D30*
X147656500Y-106381600D02*
X147656500Y-104400400D01*
X147427900Y-106610200D02*
X147656500Y-106381600D01*
X147656500Y-104400400D02*
X147670100Y-104349600D01*
X147427900Y-106610200D02*
X147416100Y-106635600D01*
X149104300Y-99676000D02*
X149866300Y-99676000D01*
X147808900Y-100971400D02*
X149104300Y-99676000D01*
X147808900Y-104248000D02*
X147808900Y-100971400D01*
X147732700Y-104324200D02*
X147808900Y-104248000D01*
X149866300Y-99676000D02*
X149916100Y-99633600D01*
X147732700Y-104324200D02*
X147670100Y-104349600D01*
D29*
X152076100Y-109302600D02*
X152076100Y-111461600D01*
X152076100Y-111461600D02*
X152115100Y-111461600D01*
X152076100Y-109302600D02*
X152115100Y-109302600D01*
X151949100Y-109302600D02*
X151949100Y-101809600D01*
X151949100Y-101809600D02*
X151966100Y-101683600D01*
X151949100Y-109302600D02*
X152115100Y-109302600D01*
X152966100Y-101683600D02*
X152966100Y-106763600D01*
X152966100Y-106763600D02*
X153346100Y-107143600D01*
X153346100Y-107143600D02*
X155378100Y-107143600D01*
X155378100Y-107143600D02*
X155886100Y-107651600D01*
X155886100Y-107651600D02*
X155886100Y-109263600D01*
X155886100Y-109263600D02*
X155925100Y-109302600D01*
X155962300Y-109429600D02*
X155962300Y-111410800D01*
X155962300Y-111410800D02*
X155925100Y-111461600D01*
X155962300Y-109429600D02*
X155925100Y-109302600D01*
X154362100Y-93046600D02*
X154235100Y-93046600D01*
X154235100Y-93046600D02*
X153981100Y-93046600D01*
X153981100Y-93046600D02*
X153966100Y-93083600D01*
X154362100Y-93046600D02*
X154466100Y-93083600D01*
X153600100Y-88855600D02*
X154108100Y-89363600D01*
X153600100Y-86823600D02*
X153600100Y-88855600D01*
X154108100Y-89363600D02*
X154196100Y-89363600D01*
X153600100Y-86823600D02*
X153561100Y-86823600D01*
X154235100Y-89490600D02*
X154235100Y-93046600D01*
X154235100Y-89490600D02*
X154196100Y-89363600D01*
X153966100Y-101683600D02*
X153966100Y-105985600D01*
X153966100Y-105985600D02*
X154108100Y-106127600D01*
X154108100Y-106127600D02*
X158045100Y-106127600D01*
X159735100Y-109302600D02*
X159735100Y-107817600D01*
X159735100Y-107817600D02*
X158045100Y-106127600D01*
X159772300Y-109429600D02*
X159772300Y-111410800D01*
X159772300Y-111410800D02*
X159735100Y-111461600D01*
X159772300Y-109429600D02*
X159735100Y-109302600D01*
D30*
X155657500Y-86874400D02*
X155657500Y-89312800D01*
X155657500Y-89312800D02*
X155671100Y-89363600D01*
X155657500Y-86874400D02*
X155671100Y-86823600D01*
X154971700Y-90074800D02*
X154971700Y-93046600D01*
X155657500Y-89389000D02*
X154971700Y-90074800D01*
X154971700Y-93046600D02*
X154966100Y-93083600D01*
X155657500Y-89389000D02*
X155671100Y-89363600D01*
D29*
X139198300Y-88093600D02*
X139198300Y-88703200D01*
X139198300Y-88703200D02*
X139198300Y-90608200D01*
X139198300Y-90608200D02*
X139161100Y-90633600D01*
X139198300Y-88093600D02*
X139161100Y-88093600D01*
X129520900Y-88703200D02*
X139198300Y-88703200D01*
X128073100Y-90151000D02*
X129520900Y-88703200D01*
X128073100Y-90151000D02*
X128073100Y-90190600D01*
X139198300Y-83064400D02*
X139198300Y-84817000D01*
X139198300Y-84817000D02*
X139198300Y-85502800D01*
X139198300Y-85502800D02*
X139161100Y-85553600D01*
X139198300Y-83064400D02*
X139161100Y-83013600D01*
X136074100Y-84817000D02*
X139198300Y-84817000D01*
X134854900Y-83597800D02*
X136074100Y-84817000D01*
X134854900Y-82378600D02*
X134854900Y-83597800D01*
X134854900Y-82378600D02*
X134804100Y-82316600D01*
X139198300Y-95713600D02*
X139198300Y-97313800D01*
X139198300Y-97313800D02*
X139198300Y-98228200D01*
X139198300Y-98228200D02*
X139161100Y-98253600D01*
X139198300Y-95713600D02*
X139161100Y-95713600D01*
X136074100Y-97313800D02*
X139198300Y-97313800D01*
X134854900Y-96094600D02*
X136074100Y-97313800D01*
X134854900Y-94875400D02*
X134854900Y-96094600D01*
X134854900Y-94875400D02*
X134804100Y-94816600D01*
X139198300Y-100819000D02*
X139198300Y-103333600D01*
X139198300Y-103333600D02*
X139161100Y-103333600D01*
X139198300Y-100819000D02*
X139161100Y-100793600D01*
X129520900Y-101200000D02*
X139122100Y-101200000D01*
X128073100Y-102647800D02*
X129520900Y-101200000D01*
X139122100Y-101200000D02*
X139161100Y-100793600D01*
X128073100Y-102647800D02*
X128073100Y-102690600D01*
X139198300Y-107143600D02*
X139198300Y-109658200D01*
X139198300Y-109658200D02*
X139161100Y-109683600D01*
X139198300Y-107143600D02*
X139161100Y-107143600D01*
X138817300Y-107067400D02*
X139045900Y-107067400D01*
X137598100Y-105848200D02*
X138817300Y-107067400D01*
X136074100Y-105848200D02*
X137598100Y-105848200D01*
X134854900Y-107067400D02*
X136074100Y-105848200D01*
X134854900Y-107296000D02*
X134854900Y-107067400D01*
X139045900Y-107067400D02*
X139161100Y-107143600D01*
X134854900Y-107296000D02*
X134804100Y-107316600D01*
X139198300Y-112249000D02*
X139198300Y-113696800D01*
X139198300Y-113696800D02*
X139198300Y-114763600D01*
X139198300Y-114763600D02*
X139161100Y-114763600D01*
X139198300Y-112249000D02*
X139161100Y-112223600D01*
X129520900Y-113696800D02*
X139198300Y-113696800D01*
X128073100Y-115144600D02*
X129520900Y-113696800D01*
X128073100Y-115144600D02*
X128073100Y-115190600D01*
X139198300Y-124974400D02*
X139198300Y-126193600D01*
X139198300Y-126193600D02*
X139198300Y-127412800D01*
X139198300Y-127412800D02*
X139161100Y-127463600D01*
X139198300Y-124974400D02*
X139161100Y-124923600D01*
X129520900Y-126193600D02*
X139198300Y-126193600D01*
X128073100Y-127641400D02*
X129520900Y-126193600D01*
X128073100Y-127641400D02*
X128073100Y-127690600D01*
X139198300Y-119869000D02*
X139198300Y-122383600D01*
X139198300Y-122383600D02*
X139161100Y-122383600D01*
X139198300Y-119869000D02*
X139161100Y-119843600D01*
X137598100Y-118345000D02*
X139045900Y-119792800D01*
X136074100Y-118345000D02*
X137598100Y-118345000D01*
X134854900Y-119564200D02*
X136074100Y-118345000D01*
X134854900Y-119792800D02*
X134854900Y-119564200D01*
X139045900Y-119792800D02*
X139161100Y-119843600D01*
X134854900Y-119792800D02*
X134804100Y-119816600D01*
D30*
X162998100Y-94697600D02*
X158553100Y-94697600D01*
X169094100Y-100793600D02*
X162998100Y-94697600D01*
X170491100Y-100793600D02*
X169094100Y-100793600D01*
X158553100Y-94697600D02*
X158516100Y-94633600D01*
X154966100Y-101683600D02*
X154966100Y-102540600D01*
X154966100Y-102540600D02*
X155632100Y-103206600D01*
X155632100Y-103206600D02*
X155632100Y-104730600D01*
X155632100Y-104730600D02*
X155355100Y-104730600D01*
X155355100Y-104730600D02*
X154907100Y-105178600D01*
X156343300Y-103333600D02*
X156343300Y-104019400D01*
X155505100Y-102495400D02*
X156343300Y-103333600D01*
X155505100Y-101733400D02*
X155505100Y-102495400D01*
X156343300Y-104019400D02*
X156357100Y-104028600D01*
X155505100Y-101733400D02*
X155466100Y-101683600D01*
X156038500Y-102495400D02*
X156038500Y-101733400D01*
X156876700Y-103333600D02*
X156038500Y-102495400D01*
X156952900Y-103333600D02*
X156876700Y-103333600D01*
X164115700Y-110496400D02*
X156952900Y-103333600D01*
X164115700Y-127412800D02*
X164115700Y-110496400D01*
X156038500Y-101733400D02*
X155966100Y-101683600D01*
X164115700Y-127412800D02*
X164141100Y-127463600D01*
X156495700Y-102495400D02*
X156495700Y-101733400D01*
X157029100Y-103028800D02*
X156495700Y-102495400D01*
X157105300Y-103028800D02*
X157029100Y-103028800D01*
X165944500Y-111868000D02*
X157105300Y-103028800D01*
X165944500Y-127336600D02*
X165944500Y-111868000D01*
X166020700Y-127412800D02*
X165944500Y-127336600D01*
X156495700Y-101733400D02*
X156466100Y-101683600D01*
X166020700Y-127412800D02*
X166046100Y-127463600D01*
X167951100Y-112731600D02*
X157029100Y-101809600D01*
X167951100Y-127463600D02*
X167951100Y-112731600D01*
X157029100Y-101809600D02*
X156966100Y-101683600D01*
X158553100Y-101174600D02*
X161347100Y-101174600D01*
X161347100Y-101174600D02*
X162236100Y-101174600D01*
X158553100Y-100158600D02*
X158553100Y-101174600D01*
X162236100Y-101174600D02*
X162275100Y-101204600D01*
X158553100Y-100158600D02*
X158516100Y-100133600D01*
X161347100Y-102063600D02*
X161347100Y-101174600D01*
X169983100Y-112223600D02*
X164014100Y-106254600D01*
X171888100Y-112223600D02*
X169983100Y-112223600D01*
X171888100Y-122129600D02*
X171888100Y-112223600D01*
X170364100Y-123653600D02*
X171888100Y-122129600D01*
X159569100Y-100285600D02*
X160458100Y-100285600D01*
X160458100Y-100285600D02*
X162236100Y-100285600D01*
X159569100Y-99904600D02*
X159569100Y-100285600D01*
X159315100Y-99650600D02*
X159569100Y-99904600D01*
X158553100Y-99650600D02*
X159315100Y-99650600D01*
X162236100Y-100285600D02*
X162275100Y-100304600D01*
X158553100Y-99650600D02*
X158516100Y-99633600D01*
X160458100Y-100031600D02*
X160458100Y-100285600D01*
X159569100Y-99396600D02*
X162236100Y-99396600D01*
X159315100Y-99142600D02*
X159569100Y-99396600D01*
X158553100Y-99142600D02*
X159315100Y-99142600D01*
X162236100Y-99396600D02*
X162275100Y-99504600D01*
X158553100Y-99142600D02*
X158516100Y-99133600D01*
X157537100Y-99142600D02*
X158426100Y-99142600D01*
X157537100Y-101809600D02*
X157537100Y-99142600D01*
X168967100Y-113239600D02*
X157537100Y-101809600D01*
X168967100Y-117176600D02*
X168967100Y-113239600D01*
X170364100Y-118573600D02*
X168967100Y-117176600D01*
X158426100Y-99142600D02*
X158516100Y-99133600D01*
X158553100Y-98634600D02*
X160966100Y-98634600D01*
X160966100Y-98634600D02*
X162236100Y-98634600D01*
X162236100Y-98634600D02*
X162275100Y-98604600D01*
X158553100Y-98634600D02*
X158516100Y-98633600D01*
X160966100Y-96856600D02*
X160966100Y-98634600D01*
X157156100Y-98126600D02*
X158426100Y-98126600D01*
X157156100Y-98634600D02*
X157156100Y-98126600D01*
X158426100Y-98126600D02*
X158516100Y-98133600D01*
X159823100Y-97618600D02*
X158553100Y-97618600D01*
X159823100Y-97999600D02*
X159823100Y-97618600D01*
X158553100Y-97618600D02*
X158516100Y-97633600D01*
X156521100Y-97237600D02*
X158426100Y-97237600D01*
X156521100Y-100412600D02*
X156521100Y-97237600D01*
X158426100Y-97237600D02*
X158516100Y-97133600D01*
X164014100Y-96221600D02*
X158553100Y-96221600D01*
X164014100Y-97364600D02*
X164014100Y-96221600D01*
X168967100Y-102317600D02*
X164014100Y-97364600D01*
X168967100Y-104349600D02*
X168967100Y-102317600D01*
X170491100Y-105873600D02*
X168967100Y-104349600D01*
X158553100Y-96221600D02*
X158516100Y-96133600D01*
X161601100Y-95586600D02*
X158553100Y-95586600D01*
X158553100Y-95586600D02*
X158516100Y-95633600D01*
X157486300Y-92589400D02*
X163277500Y-92589400D01*
X157029100Y-93046600D02*
X157486300Y-92589400D01*
X163277500Y-92589400D02*
X163291100Y-92568600D01*
X157029100Y-93046600D02*
X156966100Y-93083600D01*
X166477900Y-95713600D02*
X163353700Y-92589400D01*
X170491100Y-95713600D02*
X166477900Y-95713600D01*
X163353700Y-92589400D02*
X163291100Y-92568600D01*
X157105300Y-91675000D02*
X163277500Y-91675000D01*
X156495700Y-92284600D02*
X157105300Y-91675000D01*
X156495700Y-93046600D02*
X156495700Y-92284600D01*
X163277500Y-91675000D02*
X163291100Y-91668600D01*
X156495700Y-93046600D02*
X156466100Y-93083600D01*
X164420500Y-93199000D02*
X170211700Y-93199000D01*
X164039500Y-92818000D02*
X164420500Y-93199000D01*
X164039500Y-92132200D02*
X164039500Y-92818000D01*
X163582300Y-91675000D02*
X164039500Y-92132200D01*
X163353700Y-91675000D02*
X163582300Y-91675000D01*
X170211700Y-93199000D02*
X170237100Y-93173600D01*
X163353700Y-91675000D02*
X163291100Y-91668600D01*
X157333900Y-90913000D02*
X163277500Y-90913000D01*
X156038500Y-92208400D02*
X157333900Y-90913000D01*
X156038500Y-93046600D02*
X156038500Y-92208400D01*
X163277500Y-90913000D02*
X163291100Y-90868600D01*
X156038500Y-93046600D02*
X155966100Y-93083600D01*
X166858900Y-90608200D02*
X170440300Y-90608200D01*
X165639700Y-89389000D02*
X166858900Y-90608200D01*
X164344300Y-89389000D02*
X165639700Y-89389000D01*
X164039500Y-89693800D02*
X164344300Y-89389000D01*
X164039500Y-90455800D02*
X164039500Y-89693800D01*
X163658500Y-90836800D02*
X164039500Y-90455800D01*
X163353700Y-90836800D02*
X163658500Y-90836800D01*
X170440300Y-90608200D02*
X170491100Y-90633600D01*
X163353700Y-90836800D02*
X163291100Y-90868600D01*
X165182500Y-88093600D02*
X163353700Y-89922400D01*
X170237100Y-88093600D02*
X165182500Y-88093600D01*
X163353700Y-89922400D02*
X163291100Y-89968600D01*
X155505100Y-92284600D02*
X155505100Y-93046600D01*
X157638700Y-90151000D02*
X155505100Y-92284600D01*
X163125100Y-90151000D02*
X157638700Y-90151000D01*
X163277500Y-89998600D02*
X163125100Y-90151000D01*
X155505100Y-93046600D02*
X155466100Y-93083600D01*
X163277500Y-89998600D02*
X163291100Y-89968600D01*
X163887100Y-101555600D02*
X161982100Y-103460600D01*
X163887100Y-101301600D02*
X163887100Y-101555600D01*
X161982100Y-103460600D02*
X161982100Y-103472600D01*
X163887100Y-101301600D02*
X163975100Y-101204600D01*
X162490100Y-104222600D02*
X163125100Y-103587600D01*
X161347100Y-104222600D02*
X162490100Y-104222600D01*
X161347100Y-102952600D02*
X161347100Y-104222600D01*
X162490100Y-101809600D02*
X161347100Y-102952600D01*
X163125100Y-101809600D02*
X162490100Y-101809600D01*
X163125100Y-100793600D02*
X163125100Y-101809600D01*
X163506100Y-100412600D02*
X163125100Y-100793600D01*
X163887100Y-100412600D02*
X163506100Y-100412600D01*
X163125100Y-103587600D02*
X163125100Y-103472600D01*
X163887100Y-100412600D02*
X163975100Y-100304600D01*
X164776100Y-102952600D02*
X164268100Y-103460600D01*
X164776100Y-100031600D02*
X164776100Y-102952600D01*
X164268100Y-99523600D02*
X164776100Y-100031600D01*
X164014100Y-99523600D02*
X164268100Y-99523600D01*
X164268100Y-103460600D02*
X164268100Y-103472600D01*
X164014100Y-99523600D02*
X163975100Y-99504600D01*
X165157100Y-103206600D02*
X165411100Y-103460600D01*
X165157100Y-99523600D02*
X165157100Y-103206600D01*
X164268100Y-98634600D02*
X165157100Y-99523600D01*
X164014100Y-98634600D02*
X164268100Y-98634600D01*
X165411100Y-103460600D02*
X165411100Y-103472600D01*
X164014100Y-98634600D02*
X163975100Y-98604600D01*
D29*
X149332900Y-125203000D02*
X149332900Y-121393000D01*
X150323500Y-126193600D02*
X149332900Y-125203000D01*
X149332900Y-121393000D02*
X149282100Y-121328600D01*
X150323500Y-126193600D02*
X150326100Y-126193600D01*
X153371500Y-125812600D02*
X153371500Y-121393000D01*
X153752500Y-126193600D02*
X153371500Y-125812600D01*
X153371500Y-121393000D02*
X153346100Y-121328600D01*
X153752500Y-126193600D02*
X153826100Y-126193600D01*
X157410100Y-126117400D02*
X157410100Y-121328600D01*
X157333900Y-126193600D02*
X157410100Y-126117400D01*
X157333900Y-126193600D02*
X157311100Y-126193600D01*
M02*
