G04 #@! TF.GenerationSoftware,KiCad,Pcbnew,7.0.7*
G04 #@! TF.CreationDate,2025-03-22T12:59:07+10:30*
G04 #@! TF.ProjectId,ATM90E36_Breakout,41544d39-3045-4333-965f-427265616b6f,rev?*
G04 #@! TF.SameCoordinates,Original*
G04 #@! TF.FileFunction,Legend,Bot*
G04 #@! TF.FilePolarity,Positive*
%FSLAX46Y46*%
G04 Gerber Fmt 4.6, Leading zero omitted, Abs format (unit mm)*
G04 Created by KiCad (PCBNEW 7.0.7) date 2025-03-22 12:59:07*
%MOMM*%
%LPD*%
G01*
G04 APERTURE LIST*
%ADD10C,0.300000*%
%ADD11C,0.200000*%
%ADD12C,0.152400*%
G04 APERTURE END LIST*
D10*
X151337489Y-120728828D02*
X151337489Y-121943114D01*
X151337489Y-121943114D02*
X151266060Y-122085971D01*
X151266060Y-122085971D02*
X151194632Y-122157400D01*
X151194632Y-122157400D02*
X151051774Y-122228828D01*
X151051774Y-122228828D02*
X150766060Y-122228828D01*
X150766060Y-122228828D02*
X150623203Y-122157400D01*
X150623203Y-122157400D02*
X150551774Y-122085971D01*
X150551774Y-122085971D02*
X150480346Y-121943114D01*
X150480346Y-121943114D02*
X150480346Y-120728828D01*
X149837488Y-121800257D02*
X149123203Y-121800257D01*
X149980345Y-122228828D02*
X149480345Y-120728828D01*
X149480345Y-120728828D02*
X148980345Y-122228828D01*
X154893489Y-120728828D02*
X154893489Y-121943114D01*
X154893489Y-121943114D02*
X154822060Y-122085971D01*
X154822060Y-122085971D02*
X154750632Y-122157400D01*
X154750632Y-122157400D02*
X154607774Y-122228828D01*
X154607774Y-122228828D02*
X154322060Y-122228828D01*
X154322060Y-122228828D02*
X154179203Y-122157400D01*
X154179203Y-122157400D02*
X154107774Y-122085971D01*
X154107774Y-122085971D02*
X154036346Y-121943114D01*
X154036346Y-121943114D02*
X154036346Y-120728828D01*
X152822060Y-121443114D02*
X152607774Y-121514542D01*
X152607774Y-121514542D02*
X152536345Y-121585971D01*
X152536345Y-121585971D02*
X152464917Y-121728828D01*
X152464917Y-121728828D02*
X152464917Y-121943114D01*
X152464917Y-121943114D02*
X152536345Y-122085971D01*
X152536345Y-122085971D02*
X152607774Y-122157400D01*
X152607774Y-122157400D02*
X152750631Y-122228828D01*
X152750631Y-122228828D02*
X153322060Y-122228828D01*
X153322060Y-122228828D02*
X153322060Y-120728828D01*
X153322060Y-120728828D02*
X152822060Y-120728828D01*
X152822060Y-120728828D02*
X152679203Y-120800257D01*
X152679203Y-120800257D02*
X152607774Y-120871685D01*
X152607774Y-120871685D02*
X152536345Y-121014542D01*
X152536345Y-121014542D02*
X152536345Y-121157400D01*
X152536345Y-121157400D02*
X152607774Y-121300257D01*
X152607774Y-121300257D02*
X152679203Y-121371685D01*
X152679203Y-121371685D02*
X152822060Y-121443114D01*
X152822060Y-121443114D02*
X153322060Y-121443114D01*
X158449489Y-120728828D02*
X158449489Y-121943114D01*
X158449489Y-121943114D02*
X158378060Y-122085971D01*
X158378060Y-122085971D02*
X158306632Y-122157400D01*
X158306632Y-122157400D02*
X158163774Y-122228828D01*
X158163774Y-122228828D02*
X157878060Y-122228828D01*
X157878060Y-122228828D02*
X157735203Y-122157400D01*
X157735203Y-122157400D02*
X157663774Y-122085971D01*
X157663774Y-122085971D02*
X157592346Y-121943114D01*
X157592346Y-121943114D02*
X157592346Y-120728828D01*
X156020917Y-122085971D02*
X156092345Y-122157400D01*
X156092345Y-122157400D02*
X156306631Y-122228828D01*
X156306631Y-122228828D02*
X156449488Y-122228828D01*
X156449488Y-122228828D02*
X156663774Y-122157400D01*
X156663774Y-122157400D02*
X156806631Y-122014542D01*
X156806631Y-122014542D02*
X156878060Y-121871685D01*
X156878060Y-121871685D02*
X156949488Y-121585971D01*
X156949488Y-121585971D02*
X156949488Y-121371685D01*
X156949488Y-121371685D02*
X156878060Y-121085971D01*
X156878060Y-121085971D02*
X156806631Y-120943114D01*
X156806631Y-120943114D02*
X156663774Y-120800257D01*
X156663774Y-120800257D02*
X156449488Y-120728828D01*
X156449488Y-120728828D02*
X156306631Y-120728828D01*
X156306631Y-120728828D02*
X156092345Y-120800257D01*
X156092345Y-120800257D02*
X156020917Y-120871685D01*
X162005489Y-120728828D02*
X162005489Y-121943114D01*
X162005489Y-121943114D02*
X161934060Y-122085971D01*
X161934060Y-122085971D02*
X161862632Y-122157400D01*
X161862632Y-122157400D02*
X161719774Y-122228828D01*
X161719774Y-122228828D02*
X161434060Y-122228828D01*
X161434060Y-122228828D02*
X161291203Y-122157400D01*
X161291203Y-122157400D02*
X161219774Y-122085971D01*
X161219774Y-122085971D02*
X161148346Y-121943114D01*
X161148346Y-121943114D02*
X161148346Y-120728828D01*
X160434060Y-122228828D02*
X160434060Y-120728828D01*
X160434060Y-120728828D02*
X159576917Y-122228828D01*
X159576917Y-122228828D02*
X159576917Y-120728828D01*
D11*
X154276192Y-92699123D02*
X153895239Y-92699123D01*
X154352382Y-92927695D02*
X154085715Y-92127695D01*
X154085715Y-92127695D02*
X153819049Y-92927695D01*
X153666668Y-92127695D02*
X153209525Y-92127695D01*
X153438097Y-92927695D02*
X153438097Y-92127695D01*
X152942858Y-92927695D02*
X152942858Y-92127695D01*
X152942858Y-92127695D02*
X152676192Y-92699123D01*
X152676192Y-92699123D02*
X152409525Y-92127695D01*
X152409525Y-92127695D02*
X152409525Y-92927695D01*
X151990477Y-92927695D02*
X151838096Y-92927695D01*
X151838096Y-92927695D02*
X151761906Y-92889600D01*
X151761906Y-92889600D02*
X151723810Y-92851504D01*
X151723810Y-92851504D02*
X151647620Y-92737219D01*
X151647620Y-92737219D02*
X151609525Y-92584838D01*
X151609525Y-92584838D02*
X151609525Y-92280076D01*
X151609525Y-92280076D02*
X151647620Y-92203885D01*
X151647620Y-92203885D02*
X151685715Y-92165790D01*
X151685715Y-92165790D02*
X151761906Y-92127695D01*
X151761906Y-92127695D02*
X151914287Y-92127695D01*
X151914287Y-92127695D02*
X151990477Y-92165790D01*
X151990477Y-92165790D02*
X152028572Y-92203885D01*
X152028572Y-92203885D02*
X152066668Y-92280076D01*
X152066668Y-92280076D02*
X152066668Y-92470552D01*
X152066668Y-92470552D02*
X152028572Y-92546742D01*
X152028572Y-92546742D02*
X151990477Y-92584838D01*
X151990477Y-92584838D02*
X151914287Y-92622933D01*
X151914287Y-92622933D02*
X151761906Y-92622933D01*
X151761906Y-92622933D02*
X151685715Y-92584838D01*
X151685715Y-92584838D02*
X151647620Y-92546742D01*
X151647620Y-92546742D02*
X151609525Y-92470552D01*
X151114286Y-92127695D02*
X151038096Y-92127695D01*
X151038096Y-92127695D02*
X150961905Y-92165790D01*
X150961905Y-92165790D02*
X150923810Y-92203885D01*
X150923810Y-92203885D02*
X150885715Y-92280076D01*
X150885715Y-92280076D02*
X150847620Y-92432457D01*
X150847620Y-92432457D02*
X150847620Y-92622933D01*
X150847620Y-92622933D02*
X150885715Y-92775314D01*
X150885715Y-92775314D02*
X150923810Y-92851504D01*
X150923810Y-92851504D02*
X150961905Y-92889600D01*
X150961905Y-92889600D02*
X151038096Y-92927695D01*
X151038096Y-92927695D02*
X151114286Y-92927695D01*
X151114286Y-92927695D02*
X151190477Y-92889600D01*
X151190477Y-92889600D02*
X151228572Y-92851504D01*
X151228572Y-92851504D02*
X151266667Y-92775314D01*
X151266667Y-92775314D02*
X151304763Y-92622933D01*
X151304763Y-92622933D02*
X151304763Y-92432457D01*
X151304763Y-92432457D02*
X151266667Y-92280076D01*
X151266667Y-92280076D02*
X151228572Y-92203885D01*
X151228572Y-92203885D02*
X151190477Y-92165790D01*
X151190477Y-92165790D02*
X151114286Y-92127695D01*
X150504762Y-92508647D02*
X150238096Y-92508647D01*
X150123810Y-92927695D02*
X150504762Y-92927695D01*
X150504762Y-92927695D02*
X150504762Y-92127695D01*
X150504762Y-92127695D02*
X150123810Y-92127695D01*
X149857143Y-92127695D02*
X149361905Y-92127695D01*
X149361905Y-92127695D02*
X149628571Y-92432457D01*
X149628571Y-92432457D02*
X149514286Y-92432457D01*
X149514286Y-92432457D02*
X149438095Y-92470552D01*
X149438095Y-92470552D02*
X149400000Y-92508647D01*
X149400000Y-92508647D02*
X149361905Y-92584838D01*
X149361905Y-92584838D02*
X149361905Y-92775314D01*
X149361905Y-92775314D02*
X149400000Y-92851504D01*
X149400000Y-92851504D02*
X149438095Y-92889600D01*
X149438095Y-92889600D02*
X149514286Y-92927695D01*
X149514286Y-92927695D02*
X149742857Y-92927695D01*
X149742857Y-92927695D02*
X149819048Y-92889600D01*
X149819048Y-92889600D02*
X149857143Y-92851504D01*
X149095238Y-92927695D02*
X148676190Y-92394361D01*
X149095238Y-92394361D02*
X148676190Y-92927695D01*
X147495238Y-92508647D02*
X147380952Y-92546742D01*
X147380952Y-92546742D02*
X147342857Y-92584838D01*
X147342857Y-92584838D02*
X147304761Y-92661028D01*
X147304761Y-92661028D02*
X147304761Y-92775314D01*
X147304761Y-92775314D02*
X147342857Y-92851504D01*
X147342857Y-92851504D02*
X147380952Y-92889600D01*
X147380952Y-92889600D02*
X147457142Y-92927695D01*
X147457142Y-92927695D02*
X147761904Y-92927695D01*
X147761904Y-92927695D02*
X147761904Y-92127695D01*
X147761904Y-92127695D02*
X147495238Y-92127695D01*
X147495238Y-92127695D02*
X147419047Y-92165790D01*
X147419047Y-92165790D02*
X147380952Y-92203885D01*
X147380952Y-92203885D02*
X147342857Y-92280076D01*
X147342857Y-92280076D02*
X147342857Y-92356266D01*
X147342857Y-92356266D02*
X147380952Y-92432457D01*
X147380952Y-92432457D02*
X147419047Y-92470552D01*
X147419047Y-92470552D02*
X147495238Y-92508647D01*
X147495238Y-92508647D02*
X147761904Y-92508647D01*
X146961904Y-92927695D02*
X146961904Y-92394361D01*
X146961904Y-92546742D02*
X146923809Y-92470552D01*
X146923809Y-92470552D02*
X146885714Y-92432457D01*
X146885714Y-92432457D02*
X146809523Y-92394361D01*
X146809523Y-92394361D02*
X146733333Y-92394361D01*
X146161904Y-92889600D02*
X146238095Y-92927695D01*
X146238095Y-92927695D02*
X146390476Y-92927695D01*
X146390476Y-92927695D02*
X146466666Y-92889600D01*
X146466666Y-92889600D02*
X146504762Y-92813409D01*
X146504762Y-92813409D02*
X146504762Y-92508647D01*
X146504762Y-92508647D02*
X146466666Y-92432457D01*
X146466666Y-92432457D02*
X146390476Y-92394361D01*
X146390476Y-92394361D02*
X146238095Y-92394361D01*
X146238095Y-92394361D02*
X146161904Y-92432457D01*
X146161904Y-92432457D02*
X146123809Y-92508647D01*
X146123809Y-92508647D02*
X146123809Y-92584838D01*
X146123809Y-92584838D02*
X146504762Y-92661028D01*
X145438095Y-92927695D02*
X145438095Y-92508647D01*
X145438095Y-92508647D02*
X145476190Y-92432457D01*
X145476190Y-92432457D02*
X145552381Y-92394361D01*
X145552381Y-92394361D02*
X145704762Y-92394361D01*
X145704762Y-92394361D02*
X145780952Y-92432457D01*
X145438095Y-92889600D02*
X145514286Y-92927695D01*
X145514286Y-92927695D02*
X145704762Y-92927695D01*
X145704762Y-92927695D02*
X145780952Y-92889600D01*
X145780952Y-92889600D02*
X145819048Y-92813409D01*
X145819048Y-92813409D02*
X145819048Y-92737219D01*
X145819048Y-92737219D02*
X145780952Y-92661028D01*
X145780952Y-92661028D02*
X145704762Y-92622933D01*
X145704762Y-92622933D02*
X145514286Y-92622933D01*
X145514286Y-92622933D02*
X145438095Y-92584838D01*
X145057142Y-92927695D02*
X145057142Y-92127695D01*
X144980952Y-92622933D02*
X144752380Y-92927695D01*
X144752380Y-92394361D02*
X145057142Y-92699123D01*
X144295238Y-92927695D02*
X144371428Y-92889600D01*
X144371428Y-92889600D02*
X144409523Y-92851504D01*
X144409523Y-92851504D02*
X144447619Y-92775314D01*
X144447619Y-92775314D02*
X144447619Y-92546742D01*
X144447619Y-92546742D02*
X144409523Y-92470552D01*
X144409523Y-92470552D02*
X144371428Y-92432457D01*
X144371428Y-92432457D02*
X144295238Y-92394361D01*
X144295238Y-92394361D02*
X144180952Y-92394361D01*
X144180952Y-92394361D02*
X144104761Y-92432457D01*
X144104761Y-92432457D02*
X144066666Y-92470552D01*
X144066666Y-92470552D02*
X144028571Y-92546742D01*
X144028571Y-92546742D02*
X144028571Y-92775314D01*
X144028571Y-92775314D02*
X144066666Y-92851504D01*
X144066666Y-92851504D02*
X144104761Y-92889600D01*
X144104761Y-92889600D02*
X144180952Y-92927695D01*
X144180952Y-92927695D02*
X144295238Y-92927695D01*
X143342856Y-92394361D02*
X143342856Y-92927695D01*
X143685713Y-92394361D02*
X143685713Y-92813409D01*
X143685713Y-92813409D02*
X143647618Y-92889600D01*
X143647618Y-92889600D02*
X143571428Y-92927695D01*
X143571428Y-92927695D02*
X143457142Y-92927695D01*
X143457142Y-92927695D02*
X143380951Y-92889600D01*
X143380951Y-92889600D02*
X143342856Y-92851504D01*
X143076189Y-92394361D02*
X142771427Y-92394361D01*
X142961903Y-92127695D02*
X142961903Y-92813409D01*
X142961903Y-92813409D02*
X142923808Y-92889600D01*
X142923808Y-92889600D02*
X142847618Y-92927695D01*
X142847618Y-92927695D02*
X142771427Y-92927695D01*
X141971427Y-92394361D02*
X141780951Y-92927695D01*
X141780951Y-92927695D02*
X141590474Y-92394361D01*
X141133331Y-92127695D02*
X141057141Y-92127695D01*
X141057141Y-92127695D02*
X140980950Y-92165790D01*
X140980950Y-92165790D02*
X140942855Y-92203885D01*
X140942855Y-92203885D02*
X140904760Y-92280076D01*
X140904760Y-92280076D02*
X140866665Y-92432457D01*
X140866665Y-92432457D02*
X140866665Y-92622933D01*
X140866665Y-92622933D02*
X140904760Y-92775314D01*
X140904760Y-92775314D02*
X140942855Y-92851504D01*
X140942855Y-92851504D02*
X140980950Y-92889600D01*
X140980950Y-92889600D02*
X141057141Y-92927695D01*
X141057141Y-92927695D02*
X141133331Y-92927695D01*
X141133331Y-92927695D02*
X141209522Y-92889600D01*
X141209522Y-92889600D02*
X141247617Y-92851504D01*
X141247617Y-92851504D02*
X141285712Y-92775314D01*
X141285712Y-92775314D02*
X141323808Y-92622933D01*
X141323808Y-92622933D02*
X141323808Y-92432457D01*
X141323808Y-92432457D02*
X141285712Y-92280076D01*
X141285712Y-92280076D02*
X141247617Y-92203885D01*
X141247617Y-92203885D02*
X141209522Y-92165790D01*
X141209522Y-92165790D02*
X141133331Y-92127695D01*
X140523807Y-92851504D02*
X140485712Y-92889600D01*
X140485712Y-92889600D02*
X140523807Y-92927695D01*
X140523807Y-92927695D02*
X140561903Y-92889600D01*
X140561903Y-92889600D02*
X140523807Y-92851504D01*
X140523807Y-92851504D02*
X140523807Y-92927695D01*
X140219046Y-92127695D02*
X139723808Y-92127695D01*
X139723808Y-92127695D02*
X139990474Y-92432457D01*
X139990474Y-92432457D02*
X139876189Y-92432457D01*
X139876189Y-92432457D02*
X139799998Y-92470552D01*
X139799998Y-92470552D02*
X139761903Y-92508647D01*
X139761903Y-92508647D02*
X139723808Y-92584838D01*
X139723808Y-92584838D02*
X139723808Y-92775314D01*
X139723808Y-92775314D02*
X139761903Y-92851504D01*
X139761903Y-92851504D02*
X139799998Y-92889600D01*
X139799998Y-92889600D02*
X139876189Y-92927695D01*
X139876189Y-92927695D02*
X140104760Y-92927695D01*
X140104760Y-92927695D02*
X140180951Y-92889600D01*
X140180951Y-92889600D02*
X140219046Y-92851504D01*
X154104762Y-93415695D02*
X153647619Y-93415695D01*
X153876191Y-94215695D02*
X153876191Y-93415695D01*
X153380952Y-94215695D02*
X153380952Y-93682361D01*
X153380952Y-93415695D02*
X153419048Y-93453790D01*
X153419048Y-93453790D02*
X153380952Y-93491885D01*
X153380952Y-93491885D02*
X153342857Y-93453790D01*
X153342857Y-93453790D02*
X153380952Y-93415695D01*
X153380952Y-93415695D02*
X153380952Y-93491885D01*
X153038096Y-94177600D02*
X152961905Y-94215695D01*
X152961905Y-94215695D02*
X152809524Y-94215695D01*
X152809524Y-94215695D02*
X152733334Y-94177600D01*
X152733334Y-94177600D02*
X152695238Y-94101409D01*
X152695238Y-94101409D02*
X152695238Y-94063314D01*
X152695238Y-94063314D02*
X152733334Y-93987123D01*
X152733334Y-93987123D02*
X152809524Y-93949028D01*
X152809524Y-93949028D02*
X152923810Y-93949028D01*
X152923810Y-93949028D02*
X153000000Y-93910933D01*
X153000000Y-93910933D02*
X153038096Y-93834742D01*
X153038096Y-93834742D02*
X153038096Y-93796647D01*
X153038096Y-93796647D02*
X153000000Y-93720457D01*
X153000000Y-93720457D02*
X152923810Y-93682361D01*
X152923810Y-93682361D02*
X152809524Y-93682361D01*
X152809524Y-93682361D02*
X152733334Y-93720457D01*
X152352381Y-94215695D02*
X152352381Y-93415695D01*
X152009524Y-94215695D02*
X152009524Y-93796647D01*
X152009524Y-93796647D02*
X152047619Y-93720457D01*
X152047619Y-93720457D02*
X152123810Y-93682361D01*
X152123810Y-93682361D02*
X152238096Y-93682361D01*
X152238096Y-93682361D02*
X152314286Y-93720457D01*
X152314286Y-93720457D02*
X152352381Y-93758552D01*
X151285714Y-94215695D02*
X151285714Y-93796647D01*
X151285714Y-93796647D02*
X151323809Y-93720457D01*
X151323809Y-93720457D02*
X151400000Y-93682361D01*
X151400000Y-93682361D02*
X151552381Y-93682361D01*
X151552381Y-93682361D02*
X151628571Y-93720457D01*
X151285714Y-94177600D02*
X151361905Y-94215695D01*
X151361905Y-94215695D02*
X151552381Y-94215695D01*
X151552381Y-94215695D02*
X151628571Y-94177600D01*
X151628571Y-94177600D02*
X151666667Y-94101409D01*
X151666667Y-94101409D02*
X151666667Y-94025219D01*
X151666667Y-94025219D02*
X151628571Y-93949028D01*
X151628571Y-93949028D02*
X151552381Y-93910933D01*
X151552381Y-93910933D02*
X151361905Y-93910933D01*
X151361905Y-93910933D02*
X151285714Y-93872838D01*
X150904761Y-94215695D02*
X150904761Y-93682361D01*
X150904761Y-93758552D02*
X150866666Y-93720457D01*
X150866666Y-93720457D02*
X150790476Y-93682361D01*
X150790476Y-93682361D02*
X150676190Y-93682361D01*
X150676190Y-93682361D02*
X150599999Y-93720457D01*
X150599999Y-93720457D02*
X150561904Y-93796647D01*
X150561904Y-93796647D02*
X150561904Y-94215695D01*
X150561904Y-93796647D02*
X150523809Y-93720457D01*
X150523809Y-93720457D02*
X150447618Y-93682361D01*
X150447618Y-93682361D02*
X150333333Y-93682361D01*
X150333333Y-93682361D02*
X150257142Y-93720457D01*
X150257142Y-93720457D02*
X150219047Y-93796647D01*
X150219047Y-93796647D02*
X150219047Y-94215695D01*
X148999999Y-94520457D02*
X149038094Y-94482361D01*
X149038094Y-94482361D02*
X149114285Y-94368076D01*
X149114285Y-94368076D02*
X149152380Y-94291885D01*
X149152380Y-94291885D02*
X149190475Y-94177600D01*
X149190475Y-94177600D02*
X149228570Y-93987123D01*
X149228570Y-93987123D02*
X149228570Y-93834742D01*
X149228570Y-93834742D02*
X149190475Y-93644266D01*
X149190475Y-93644266D02*
X149152380Y-93529980D01*
X149152380Y-93529980D02*
X149114285Y-93453790D01*
X149114285Y-93453790D02*
X149038094Y-93339504D01*
X149038094Y-93339504D02*
X148999999Y-93301409D01*
X148771428Y-93682361D02*
X148619047Y-94215695D01*
X148619047Y-94215695D02*
X148466666Y-93834742D01*
X148466666Y-93834742D02*
X148314285Y-94215695D01*
X148314285Y-94215695D02*
X148161904Y-93682361D01*
X147857142Y-94215695D02*
X147857142Y-93415695D01*
X147514285Y-94215695D02*
X147514285Y-93796647D01*
X147514285Y-93796647D02*
X147552380Y-93720457D01*
X147552380Y-93720457D02*
X147628571Y-93682361D01*
X147628571Y-93682361D02*
X147742857Y-93682361D01*
X147742857Y-93682361D02*
X147819047Y-93720457D01*
X147819047Y-93720457D02*
X147857142Y-93758552D01*
X146790475Y-94215695D02*
X146790475Y-93796647D01*
X146790475Y-93796647D02*
X146828570Y-93720457D01*
X146828570Y-93720457D02*
X146904761Y-93682361D01*
X146904761Y-93682361D02*
X147057142Y-93682361D01*
X147057142Y-93682361D02*
X147133332Y-93720457D01*
X146790475Y-94177600D02*
X146866666Y-94215695D01*
X146866666Y-94215695D02*
X147057142Y-94215695D01*
X147057142Y-94215695D02*
X147133332Y-94177600D01*
X147133332Y-94177600D02*
X147171428Y-94101409D01*
X147171428Y-94101409D02*
X147171428Y-94025219D01*
X147171428Y-94025219D02*
X147133332Y-93949028D01*
X147133332Y-93949028D02*
X147057142Y-93910933D01*
X147057142Y-93910933D02*
X146866666Y-93910933D01*
X146866666Y-93910933D02*
X146790475Y-93872838D01*
X146523808Y-93682361D02*
X146219046Y-93682361D01*
X146409522Y-93415695D02*
X146409522Y-94101409D01*
X146409522Y-94101409D02*
X146371427Y-94177600D01*
X146371427Y-94177600D02*
X146295237Y-94215695D01*
X146295237Y-94215695D02*
X146219046Y-94215695D01*
X145952379Y-93682361D02*
X145952379Y-94215695D01*
X145952379Y-93758552D02*
X145914284Y-93720457D01*
X145914284Y-93720457D02*
X145838094Y-93682361D01*
X145838094Y-93682361D02*
X145723808Y-93682361D01*
X145723808Y-93682361D02*
X145647617Y-93720457D01*
X145647617Y-93720457D02*
X145609522Y-93796647D01*
X145609522Y-93796647D02*
X145609522Y-94215695D01*
X145228569Y-94215695D02*
X145228569Y-93682361D01*
X145228569Y-93415695D02*
X145266665Y-93453790D01*
X145266665Y-93453790D02*
X145228569Y-93491885D01*
X145228569Y-93491885D02*
X145190474Y-93453790D01*
X145190474Y-93453790D02*
X145228569Y-93415695D01*
X145228569Y-93415695D02*
X145228569Y-93491885D01*
X144504760Y-94177600D02*
X144580951Y-94215695D01*
X144580951Y-94215695D02*
X144733332Y-94215695D01*
X144733332Y-94215695D02*
X144809522Y-94177600D01*
X144809522Y-94177600D02*
X144847617Y-94139504D01*
X144847617Y-94139504D02*
X144885713Y-94063314D01*
X144885713Y-94063314D02*
X144885713Y-93834742D01*
X144885713Y-93834742D02*
X144847617Y-93758552D01*
X144847617Y-93758552D02*
X144809522Y-93720457D01*
X144809522Y-93720457D02*
X144733332Y-93682361D01*
X144733332Y-93682361D02*
X144580951Y-93682361D01*
X144580951Y-93682361D02*
X144504760Y-93720457D01*
X144161903Y-94215695D02*
X144161903Y-93415695D01*
X144085713Y-93910933D02*
X143857141Y-94215695D01*
X143857141Y-93682361D02*
X144161903Y-93987123D01*
X143590475Y-94520457D02*
X143552380Y-94482361D01*
X143552380Y-94482361D02*
X143476189Y-94368076D01*
X143476189Y-94368076D02*
X143438094Y-94291885D01*
X143438094Y-94291885D02*
X143399999Y-94177600D01*
X143399999Y-94177600D02*
X143361903Y-93987123D01*
X143361903Y-93987123D02*
X143361903Y-93834742D01*
X143361903Y-93834742D02*
X143399999Y-93644266D01*
X143399999Y-93644266D02*
X143438094Y-93529980D01*
X143438094Y-93529980D02*
X143476189Y-93453790D01*
X143476189Y-93453790D02*
X143552380Y-93339504D01*
X143552380Y-93339504D02*
X143590475Y-93301409D01*
X142371427Y-94215695D02*
X142371427Y-93415695D01*
X142371427Y-93415695D02*
X142180951Y-93415695D01*
X142180951Y-93415695D02*
X142066665Y-93453790D01*
X142066665Y-93453790D02*
X141990475Y-93529980D01*
X141990475Y-93529980D02*
X141952380Y-93606171D01*
X141952380Y-93606171D02*
X141914284Y-93758552D01*
X141914284Y-93758552D02*
X141914284Y-93872838D01*
X141914284Y-93872838D02*
X141952380Y-94025219D01*
X141952380Y-94025219D02*
X141990475Y-94101409D01*
X141990475Y-94101409D02*
X142066665Y-94177600D01*
X142066665Y-94177600D02*
X142180951Y-94215695D01*
X142180951Y-94215695D02*
X142371427Y-94215695D01*
X141571427Y-94215695D02*
X141571427Y-93415695D01*
X141228570Y-94215695D02*
X141228570Y-93796647D01*
X141228570Y-93796647D02*
X141266665Y-93720457D01*
X141266665Y-93720457D02*
X141342856Y-93682361D01*
X141342856Y-93682361D02*
X141457142Y-93682361D01*
X141457142Y-93682361D02*
X141533332Y-93720457D01*
X141533332Y-93720457D02*
X141571427Y-93758552D01*
X140504760Y-94215695D02*
X140504760Y-93796647D01*
X140504760Y-93796647D02*
X140542855Y-93720457D01*
X140542855Y-93720457D02*
X140619046Y-93682361D01*
X140619046Y-93682361D02*
X140771427Y-93682361D01*
X140771427Y-93682361D02*
X140847617Y-93720457D01*
X140504760Y-94177600D02*
X140580951Y-94215695D01*
X140580951Y-94215695D02*
X140771427Y-94215695D01*
X140771427Y-94215695D02*
X140847617Y-94177600D01*
X140847617Y-94177600D02*
X140885713Y-94101409D01*
X140885713Y-94101409D02*
X140885713Y-94025219D01*
X140885713Y-94025219D02*
X140847617Y-93949028D01*
X140847617Y-93949028D02*
X140771427Y-93910933D01*
X140771427Y-93910933D02*
X140580951Y-93910933D01*
X140580951Y-93910933D02*
X140504760Y-93872838D01*
X140123807Y-94215695D02*
X140123807Y-93682361D01*
X140123807Y-93834742D02*
X140085712Y-93758552D01*
X140085712Y-93758552D02*
X140047617Y-93720457D01*
X140047617Y-93720457D02*
X139971426Y-93682361D01*
X139971426Y-93682361D02*
X139895236Y-93682361D01*
X150885715Y-94779885D02*
X150847619Y-94741790D01*
X150847619Y-94741790D02*
X150771429Y-94703695D01*
X150771429Y-94703695D02*
X150580953Y-94703695D01*
X150580953Y-94703695D02*
X150504762Y-94741790D01*
X150504762Y-94741790D02*
X150466667Y-94779885D01*
X150466667Y-94779885D02*
X150428572Y-94856076D01*
X150428572Y-94856076D02*
X150428572Y-94932266D01*
X150428572Y-94932266D02*
X150466667Y-95046552D01*
X150466667Y-95046552D02*
X150923810Y-95503695D01*
X150923810Y-95503695D02*
X150428572Y-95503695D01*
X149933333Y-94703695D02*
X149857143Y-94703695D01*
X149857143Y-94703695D02*
X149780952Y-94741790D01*
X149780952Y-94741790D02*
X149742857Y-94779885D01*
X149742857Y-94779885D02*
X149704762Y-94856076D01*
X149704762Y-94856076D02*
X149666667Y-95008457D01*
X149666667Y-95008457D02*
X149666667Y-95198933D01*
X149666667Y-95198933D02*
X149704762Y-95351314D01*
X149704762Y-95351314D02*
X149742857Y-95427504D01*
X149742857Y-95427504D02*
X149780952Y-95465600D01*
X149780952Y-95465600D02*
X149857143Y-95503695D01*
X149857143Y-95503695D02*
X149933333Y-95503695D01*
X149933333Y-95503695D02*
X150009524Y-95465600D01*
X150009524Y-95465600D02*
X150047619Y-95427504D01*
X150047619Y-95427504D02*
X150085714Y-95351314D01*
X150085714Y-95351314D02*
X150123810Y-95198933D01*
X150123810Y-95198933D02*
X150123810Y-95008457D01*
X150123810Y-95008457D02*
X150085714Y-94856076D01*
X150085714Y-94856076D02*
X150047619Y-94779885D01*
X150047619Y-94779885D02*
X150009524Y-94741790D01*
X150009524Y-94741790D02*
X149933333Y-94703695D01*
X149361905Y-94779885D02*
X149323809Y-94741790D01*
X149323809Y-94741790D02*
X149247619Y-94703695D01*
X149247619Y-94703695D02*
X149057143Y-94703695D01*
X149057143Y-94703695D02*
X148980952Y-94741790D01*
X148980952Y-94741790D02*
X148942857Y-94779885D01*
X148942857Y-94779885D02*
X148904762Y-94856076D01*
X148904762Y-94856076D02*
X148904762Y-94932266D01*
X148904762Y-94932266D02*
X148942857Y-95046552D01*
X148942857Y-95046552D02*
X149400000Y-95503695D01*
X149400000Y-95503695D02*
X148904762Y-95503695D01*
X148180952Y-94703695D02*
X148561904Y-94703695D01*
X148561904Y-94703695D02*
X148600000Y-95084647D01*
X148600000Y-95084647D02*
X148561904Y-95046552D01*
X148561904Y-95046552D02*
X148485714Y-95008457D01*
X148485714Y-95008457D02*
X148295238Y-95008457D01*
X148295238Y-95008457D02*
X148219047Y-95046552D01*
X148219047Y-95046552D02*
X148180952Y-95084647D01*
X148180952Y-95084647D02*
X148142857Y-95160838D01*
X148142857Y-95160838D02*
X148142857Y-95351314D01*
X148142857Y-95351314D02*
X148180952Y-95427504D01*
X148180952Y-95427504D02*
X148219047Y-95465600D01*
X148219047Y-95465600D02*
X148295238Y-95503695D01*
X148295238Y-95503695D02*
X148485714Y-95503695D01*
X148485714Y-95503695D02*
X148561904Y-95465600D01*
X148561904Y-95465600D02*
X148600000Y-95427504D01*
X147799999Y-95198933D02*
X147190476Y-95198933D01*
X146657142Y-94703695D02*
X146580952Y-94703695D01*
X146580952Y-94703695D02*
X146504761Y-94741790D01*
X146504761Y-94741790D02*
X146466666Y-94779885D01*
X146466666Y-94779885D02*
X146428571Y-94856076D01*
X146428571Y-94856076D02*
X146390476Y-95008457D01*
X146390476Y-95008457D02*
X146390476Y-95198933D01*
X146390476Y-95198933D02*
X146428571Y-95351314D01*
X146428571Y-95351314D02*
X146466666Y-95427504D01*
X146466666Y-95427504D02*
X146504761Y-95465600D01*
X146504761Y-95465600D02*
X146580952Y-95503695D01*
X146580952Y-95503695D02*
X146657142Y-95503695D01*
X146657142Y-95503695D02*
X146733333Y-95465600D01*
X146733333Y-95465600D02*
X146771428Y-95427504D01*
X146771428Y-95427504D02*
X146809523Y-95351314D01*
X146809523Y-95351314D02*
X146847619Y-95198933D01*
X146847619Y-95198933D02*
X146847619Y-95008457D01*
X146847619Y-95008457D02*
X146809523Y-94856076D01*
X146809523Y-94856076D02*
X146771428Y-94779885D01*
X146771428Y-94779885D02*
X146733333Y-94741790D01*
X146733333Y-94741790D02*
X146657142Y-94703695D01*
X146123809Y-94703695D02*
X145628571Y-94703695D01*
X145628571Y-94703695D02*
X145895237Y-95008457D01*
X145895237Y-95008457D02*
X145780952Y-95008457D01*
X145780952Y-95008457D02*
X145704761Y-95046552D01*
X145704761Y-95046552D02*
X145666666Y-95084647D01*
X145666666Y-95084647D02*
X145628571Y-95160838D01*
X145628571Y-95160838D02*
X145628571Y-95351314D01*
X145628571Y-95351314D02*
X145666666Y-95427504D01*
X145666666Y-95427504D02*
X145704761Y-95465600D01*
X145704761Y-95465600D02*
X145780952Y-95503695D01*
X145780952Y-95503695D02*
X146009523Y-95503695D01*
X146009523Y-95503695D02*
X146085714Y-95465600D01*
X146085714Y-95465600D02*
X146123809Y-95427504D01*
X145285713Y-95198933D02*
X144676190Y-95198933D01*
X144333333Y-94779885D02*
X144295237Y-94741790D01*
X144295237Y-94741790D02*
X144219047Y-94703695D01*
X144219047Y-94703695D02*
X144028571Y-94703695D01*
X144028571Y-94703695D02*
X143952380Y-94741790D01*
X143952380Y-94741790D02*
X143914285Y-94779885D01*
X143914285Y-94779885D02*
X143876190Y-94856076D01*
X143876190Y-94856076D02*
X143876190Y-94932266D01*
X143876190Y-94932266D02*
X143914285Y-95046552D01*
X143914285Y-95046552D02*
X144371428Y-95503695D01*
X144371428Y-95503695D02*
X143876190Y-95503695D01*
X143571428Y-94779885D02*
X143533332Y-94741790D01*
X143533332Y-94741790D02*
X143457142Y-94703695D01*
X143457142Y-94703695D02*
X143266666Y-94703695D01*
X143266666Y-94703695D02*
X143190475Y-94741790D01*
X143190475Y-94741790D02*
X143152380Y-94779885D01*
X143152380Y-94779885D02*
X143114285Y-94856076D01*
X143114285Y-94856076D02*
X143114285Y-94932266D01*
X143114285Y-94932266D02*
X143152380Y-95046552D01*
X143152380Y-95046552D02*
X143609523Y-95503695D01*
X143609523Y-95503695D02*
X143114285Y-95503695D01*
X150085713Y-95991695D02*
X149933332Y-95991695D01*
X149933332Y-95991695D02*
X149857142Y-96029790D01*
X149857142Y-96029790D02*
X149780951Y-96105980D01*
X149780951Y-96105980D02*
X149742856Y-96258361D01*
X149742856Y-96258361D02*
X149742856Y-96525028D01*
X149742856Y-96525028D02*
X149780951Y-96677409D01*
X149780951Y-96677409D02*
X149857142Y-96753600D01*
X149857142Y-96753600D02*
X149933332Y-96791695D01*
X149933332Y-96791695D02*
X150085713Y-96791695D01*
X150085713Y-96791695D02*
X150161904Y-96753600D01*
X150161904Y-96753600D02*
X150238094Y-96677409D01*
X150238094Y-96677409D02*
X150276190Y-96525028D01*
X150276190Y-96525028D02*
X150276190Y-96258361D01*
X150276190Y-96258361D02*
X150238094Y-96105980D01*
X150238094Y-96105980D02*
X150161904Y-96029790D01*
X150161904Y-96029790D02*
X150085713Y-95991695D01*
X149438095Y-96753600D02*
X149323809Y-96791695D01*
X149323809Y-96791695D02*
X149133333Y-96791695D01*
X149133333Y-96791695D02*
X149057142Y-96753600D01*
X149057142Y-96753600D02*
X149019047Y-96715504D01*
X149019047Y-96715504D02*
X148980952Y-96639314D01*
X148980952Y-96639314D02*
X148980952Y-96563123D01*
X148980952Y-96563123D02*
X149019047Y-96486933D01*
X149019047Y-96486933D02*
X149057142Y-96448838D01*
X149057142Y-96448838D02*
X149133333Y-96410742D01*
X149133333Y-96410742D02*
X149285714Y-96372647D01*
X149285714Y-96372647D02*
X149361904Y-96334552D01*
X149361904Y-96334552D02*
X149399999Y-96296457D01*
X149399999Y-96296457D02*
X149438095Y-96220266D01*
X149438095Y-96220266D02*
X149438095Y-96144076D01*
X149438095Y-96144076D02*
X149399999Y-96067885D01*
X149399999Y-96067885D02*
X149361904Y-96029790D01*
X149361904Y-96029790D02*
X149285714Y-95991695D01*
X149285714Y-95991695D02*
X149095237Y-95991695D01*
X149095237Y-95991695D02*
X148980952Y-96029790D01*
X148638094Y-96791695D02*
X148638094Y-95991695D01*
X148638094Y-96372647D02*
X148180951Y-96372647D01*
X148180951Y-96791695D02*
X148180951Y-95991695D01*
X147876190Y-95991695D02*
X147685714Y-96791695D01*
X147685714Y-96791695D02*
X147533333Y-96220266D01*
X147533333Y-96220266D02*
X147380952Y-96791695D01*
X147380952Y-96791695D02*
X147190476Y-95991695D01*
X146390475Y-95991695D02*
X145933332Y-95991695D01*
X146161904Y-96791695D02*
X146161904Y-95991695D01*
X145704761Y-96563123D02*
X145323808Y-96563123D01*
X145780951Y-96791695D02*
X145514284Y-95991695D01*
X145514284Y-95991695D02*
X145247618Y-96791695D01*
X144980951Y-96791695D02*
X144980951Y-95991695D01*
X144980951Y-95991695D02*
X144676189Y-95991695D01*
X144676189Y-95991695D02*
X144599999Y-96029790D01*
X144599999Y-96029790D02*
X144561904Y-96067885D01*
X144561904Y-96067885D02*
X144523808Y-96144076D01*
X144523808Y-96144076D02*
X144523808Y-96258361D01*
X144523808Y-96258361D02*
X144561904Y-96334552D01*
X144561904Y-96334552D02*
X144599999Y-96372647D01*
X144599999Y-96372647D02*
X144676189Y-96410742D01*
X144676189Y-96410742D02*
X144980951Y-96410742D01*
X143723808Y-96791695D02*
X143990475Y-96410742D01*
X144180951Y-96791695D02*
X144180951Y-95991695D01*
X144180951Y-95991695D02*
X143876189Y-95991695D01*
X143876189Y-95991695D02*
X143799999Y-96029790D01*
X143799999Y-96029790D02*
X143761904Y-96067885D01*
X143761904Y-96067885D02*
X143723808Y-96144076D01*
X143723808Y-96144076D02*
X143723808Y-96258361D01*
X143723808Y-96258361D02*
X143761904Y-96334552D01*
X143761904Y-96334552D02*
X143799999Y-96372647D01*
X143799999Y-96372647D02*
X143876189Y-96410742D01*
X143876189Y-96410742D02*
X144180951Y-96410742D01*
X168975236Y-112966295D02*
X168784760Y-113766295D01*
X168784760Y-113766295D02*
X168632379Y-113194866D01*
X168632379Y-113194866D02*
X168479998Y-113766295D01*
X168479998Y-113766295D02*
X168289522Y-112966295D01*
X168022855Y-113537723D02*
X167641902Y-113537723D01*
X168099045Y-113766295D02*
X167832378Y-112966295D01*
X167832378Y-112966295D02*
X167565712Y-113766295D01*
X166841902Y-113766295D02*
X167108569Y-113385342D01*
X167299045Y-113766295D02*
X167299045Y-112966295D01*
X167299045Y-112966295D02*
X166994283Y-112966295D01*
X166994283Y-112966295D02*
X166918093Y-113004390D01*
X166918093Y-113004390D02*
X166879998Y-113042485D01*
X166879998Y-113042485D02*
X166841902Y-113118676D01*
X166841902Y-113118676D02*
X166841902Y-113232961D01*
X166841902Y-113232961D02*
X166879998Y-113309152D01*
X166879998Y-113309152D02*
X166918093Y-113347247D01*
X166918093Y-113347247D02*
X166994283Y-113385342D01*
X166994283Y-113385342D02*
X167299045Y-113385342D01*
X166499045Y-113766295D02*
X166499045Y-112966295D01*
X166499045Y-112966295D02*
X166041902Y-113766295D01*
X166041902Y-113766295D02*
X166041902Y-112966295D01*
X168429141Y-93281200D02*
X168314855Y-93319295D01*
X168314855Y-93319295D02*
X168124379Y-93319295D01*
X168124379Y-93319295D02*
X168048188Y-93281200D01*
X168048188Y-93281200D02*
X168010093Y-93243104D01*
X168010093Y-93243104D02*
X167971998Y-93166914D01*
X167971998Y-93166914D02*
X167971998Y-93090723D01*
X167971998Y-93090723D02*
X168010093Y-93014533D01*
X168010093Y-93014533D02*
X168048188Y-92976438D01*
X168048188Y-92976438D02*
X168124379Y-92938342D01*
X168124379Y-92938342D02*
X168276760Y-92900247D01*
X168276760Y-92900247D02*
X168352950Y-92862152D01*
X168352950Y-92862152D02*
X168391045Y-92824057D01*
X168391045Y-92824057D02*
X168429141Y-92747866D01*
X168429141Y-92747866D02*
X168429141Y-92671676D01*
X168429141Y-92671676D02*
X168391045Y-92595485D01*
X168391045Y-92595485D02*
X168352950Y-92557390D01*
X168352950Y-92557390D02*
X168276760Y-92519295D01*
X168276760Y-92519295D02*
X168086283Y-92519295D01*
X168086283Y-92519295D02*
X167971998Y-92557390D01*
X167171997Y-93243104D02*
X167210093Y-93281200D01*
X167210093Y-93281200D02*
X167324378Y-93319295D01*
X167324378Y-93319295D02*
X167400569Y-93319295D01*
X167400569Y-93319295D02*
X167514855Y-93281200D01*
X167514855Y-93281200D02*
X167591045Y-93205009D01*
X167591045Y-93205009D02*
X167629140Y-93128819D01*
X167629140Y-93128819D02*
X167667236Y-92976438D01*
X167667236Y-92976438D02*
X167667236Y-92862152D01*
X167667236Y-92862152D02*
X167629140Y-92709771D01*
X167629140Y-92709771D02*
X167591045Y-92633580D01*
X167591045Y-92633580D02*
X167514855Y-92557390D01*
X167514855Y-92557390D02*
X167400569Y-92519295D01*
X167400569Y-92519295D02*
X167324378Y-92519295D01*
X167324378Y-92519295D02*
X167210093Y-92557390D01*
X167210093Y-92557390D02*
X167171997Y-92595485D01*
X166448188Y-93319295D02*
X166829140Y-93319295D01*
X166829140Y-93319295D02*
X166829140Y-92519295D01*
X166181521Y-93319295D02*
X166181521Y-92519295D01*
X165724378Y-93319295D02*
X166067236Y-92862152D01*
X165724378Y-92519295D02*
X166181521Y-92976438D01*
X168772045Y-101066295D02*
X168772045Y-100266295D01*
X168772045Y-100266295D02*
X168581569Y-100266295D01*
X168581569Y-100266295D02*
X168467283Y-100304390D01*
X168467283Y-100304390D02*
X168391093Y-100380580D01*
X168391093Y-100380580D02*
X168352998Y-100456771D01*
X168352998Y-100456771D02*
X168314902Y-100609152D01*
X168314902Y-100609152D02*
X168314902Y-100723438D01*
X168314902Y-100723438D02*
X168352998Y-100875819D01*
X168352998Y-100875819D02*
X168391093Y-100952009D01*
X168391093Y-100952009D02*
X168467283Y-101028200D01*
X168467283Y-101028200D02*
X168581569Y-101066295D01*
X168581569Y-101066295D02*
X168772045Y-101066295D01*
X167972045Y-101066295D02*
X167972045Y-100266295D01*
X167972045Y-100266295D02*
X167705379Y-100837723D01*
X167705379Y-100837723D02*
X167438712Y-100266295D01*
X167438712Y-100266295D02*
X167438712Y-101066295D01*
X167095855Y-100837723D02*
X166714902Y-100837723D01*
X167172045Y-101066295D02*
X166905378Y-100266295D01*
X166905378Y-100266295D02*
X166638712Y-101066295D01*
X168518045Y-90906295D02*
X168518045Y-90106295D01*
X168518045Y-90106295D02*
X168251379Y-90677723D01*
X168251379Y-90677723D02*
X167984712Y-90106295D01*
X167984712Y-90106295D02*
X167984712Y-90906295D01*
X167603759Y-90906295D02*
X167603759Y-90106295D01*
X167260903Y-90868200D02*
X167146617Y-90906295D01*
X167146617Y-90906295D02*
X166956141Y-90906295D01*
X166956141Y-90906295D02*
X166879950Y-90868200D01*
X166879950Y-90868200D02*
X166841855Y-90830104D01*
X166841855Y-90830104D02*
X166803760Y-90753914D01*
X166803760Y-90753914D02*
X166803760Y-90677723D01*
X166803760Y-90677723D02*
X166841855Y-90601533D01*
X166841855Y-90601533D02*
X166879950Y-90563438D01*
X166879950Y-90563438D02*
X166956141Y-90525342D01*
X166956141Y-90525342D02*
X167108522Y-90487247D01*
X167108522Y-90487247D02*
X167184712Y-90449152D01*
X167184712Y-90449152D02*
X167222807Y-90411057D01*
X167222807Y-90411057D02*
X167260903Y-90334866D01*
X167260903Y-90334866D02*
X167260903Y-90258676D01*
X167260903Y-90258676D02*
X167222807Y-90182485D01*
X167222807Y-90182485D02*
X167184712Y-90144390D01*
X167184712Y-90144390D02*
X167108522Y-90106295D01*
X167108522Y-90106295D02*
X166918045Y-90106295D01*
X166918045Y-90106295D02*
X166803760Y-90144390D01*
X166308521Y-90106295D02*
X166156140Y-90106295D01*
X166156140Y-90106295D02*
X166079950Y-90144390D01*
X166079950Y-90144390D02*
X166003759Y-90220580D01*
X166003759Y-90220580D02*
X165965664Y-90372961D01*
X165965664Y-90372961D02*
X165965664Y-90639628D01*
X165965664Y-90639628D02*
X166003759Y-90792009D01*
X166003759Y-90792009D02*
X166079950Y-90868200D01*
X166079950Y-90868200D02*
X166156140Y-90906295D01*
X166156140Y-90906295D02*
X166308521Y-90906295D01*
X166308521Y-90906295D02*
X166384712Y-90868200D01*
X166384712Y-90868200D02*
X166460902Y-90792009D01*
X166460902Y-90792009D02*
X166498998Y-90639628D01*
X166498998Y-90639628D02*
X166498998Y-90372961D01*
X166498998Y-90372961D02*
X166460902Y-90220580D01*
X166460902Y-90220580D02*
X166384712Y-90144390D01*
X166384712Y-90144390D02*
X166308521Y-90106295D01*
X168772045Y-103606295D02*
X168772045Y-102806295D01*
X168772045Y-102806295D02*
X168467283Y-102806295D01*
X168467283Y-102806295D02*
X168391093Y-102844390D01*
X168391093Y-102844390D02*
X168352998Y-102882485D01*
X168352998Y-102882485D02*
X168314902Y-102958676D01*
X168314902Y-102958676D02*
X168314902Y-103072961D01*
X168314902Y-103072961D02*
X168352998Y-103149152D01*
X168352998Y-103149152D02*
X168391093Y-103187247D01*
X168391093Y-103187247D02*
X168467283Y-103225342D01*
X168467283Y-103225342D02*
X168772045Y-103225342D01*
X167972045Y-103606295D02*
X167972045Y-102806295D01*
X167972045Y-102806295D02*
X167705379Y-103377723D01*
X167705379Y-103377723D02*
X167438712Y-102806295D01*
X167438712Y-102806295D02*
X167438712Y-103606295D01*
X166638712Y-103606295D02*
X167095855Y-103606295D01*
X166867283Y-103606295D02*
X166867283Y-102806295D01*
X166867283Y-102806295D02*
X166943474Y-102920580D01*
X166943474Y-102920580D02*
X167019664Y-102996771D01*
X167019664Y-102996771D02*
X167095855Y-103034866D01*
X168225998Y-97764390D02*
X168302188Y-97726295D01*
X168302188Y-97726295D02*
X168416474Y-97726295D01*
X168416474Y-97726295D02*
X168530760Y-97764390D01*
X168530760Y-97764390D02*
X168606950Y-97840580D01*
X168606950Y-97840580D02*
X168645045Y-97916771D01*
X168645045Y-97916771D02*
X168683141Y-98069152D01*
X168683141Y-98069152D02*
X168683141Y-98183438D01*
X168683141Y-98183438D02*
X168645045Y-98335819D01*
X168645045Y-98335819D02*
X168606950Y-98412009D01*
X168606950Y-98412009D02*
X168530760Y-98488200D01*
X168530760Y-98488200D02*
X168416474Y-98526295D01*
X168416474Y-98526295D02*
X168340283Y-98526295D01*
X168340283Y-98526295D02*
X168225998Y-98488200D01*
X168225998Y-98488200D02*
X168187902Y-98450104D01*
X168187902Y-98450104D02*
X168187902Y-98183438D01*
X168187902Y-98183438D02*
X168340283Y-98183438D01*
X167845045Y-98526295D02*
X167845045Y-97726295D01*
X167845045Y-97726295D02*
X167387902Y-98526295D01*
X167387902Y-98526295D02*
X167387902Y-97726295D01*
X167006950Y-98526295D02*
X167006950Y-97726295D01*
X167006950Y-97726295D02*
X166816474Y-97726295D01*
X166816474Y-97726295D02*
X166702188Y-97764390D01*
X166702188Y-97764390D02*
X166625998Y-97840580D01*
X166625998Y-97840580D02*
X166587903Y-97916771D01*
X166587903Y-97916771D02*
X166549807Y-98069152D01*
X166549807Y-98069152D02*
X166549807Y-98183438D01*
X166549807Y-98183438D02*
X166587903Y-98335819D01*
X166587903Y-98335819D02*
X166625998Y-98412009D01*
X166625998Y-98412009D02*
X166702188Y-98488200D01*
X166702188Y-98488200D02*
X166816474Y-98526295D01*
X166816474Y-98526295D02*
X167006950Y-98526295D01*
X168899045Y-106146295D02*
X168899045Y-105346295D01*
X168899045Y-105346295D02*
X168594283Y-105346295D01*
X168594283Y-105346295D02*
X168518093Y-105384390D01*
X168518093Y-105384390D02*
X168479998Y-105422485D01*
X168479998Y-105422485D02*
X168441902Y-105498676D01*
X168441902Y-105498676D02*
X168441902Y-105612961D01*
X168441902Y-105612961D02*
X168479998Y-105689152D01*
X168479998Y-105689152D02*
X168518093Y-105727247D01*
X168518093Y-105727247D02*
X168594283Y-105765342D01*
X168594283Y-105765342D02*
X168899045Y-105765342D01*
X168099045Y-106146295D02*
X168099045Y-105346295D01*
X168099045Y-105346295D02*
X167832379Y-105917723D01*
X167832379Y-105917723D02*
X167565712Y-105346295D01*
X167565712Y-105346295D02*
X167565712Y-106146295D01*
X167032378Y-105346295D02*
X166956188Y-105346295D01*
X166956188Y-105346295D02*
X166879997Y-105384390D01*
X166879997Y-105384390D02*
X166841902Y-105422485D01*
X166841902Y-105422485D02*
X166803807Y-105498676D01*
X166803807Y-105498676D02*
X166765712Y-105651057D01*
X166765712Y-105651057D02*
X166765712Y-105841533D01*
X166765712Y-105841533D02*
X166803807Y-105993914D01*
X166803807Y-105993914D02*
X166841902Y-106070104D01*
X166841902Y-106070104D02*
X166879997Y-106108200D01*
X166879997Y-106108200D02*
X166956188Y-106146295D01*
X166956188Y-106146295D02*
X167032378Y-106146295D01*
X167032378Y-106146295D02*
X167108569Y-106108200D01*
X167108569Y-106108200D02*
X167146664Y-106070104D01*
X167146664Y-106070104D02*
X167184759Y-105993914D01*
X167184759Y-105993914D02*
X167222855Y-105841533D01*
X167222855Y-105841533D02*
X167222855Y-105651057D01*
X167222855Y-105651057D02*
X167184759Y-105498676D01*
X167184759Y-105498676D02*
X167146664Y-105422485D01*
X167146664Y-105422485D02*
X167108569Y-105384390D01*
X167108569Y-105384390D02*
X167032378Y-105346295D01*
X167933902Y-121183104D02*
X167971998Y-121221200D01*
X167971998Y-121221200D02*
X168086283Y-121259295D01*
X168086283Y-121259295D02*
X168162474Y-121259295D01*
X168162474Y-121259295D02*
X168276760Y-121221200D01*
X168276760Y-121221200D02*
X168352950Y-121145009D01*
X168352950Y-121145009D02*
X168391045Y-121068819D01*
X168391045Y-121068819D02*
X168429141Y-120916438D01*
X168429141Y-120916438D02*
X168429141Y-120802152D01*
X168429141Y-120802152D02*
X168391045Y-120649771D01*
X168391045Y-120649771D02*
X168352950Y-120573580D01*
X168352950Y-120573580D02*
X168276760Y-120497390D01*
X168276760Y-120497390D02*
X168162474Y-120459295D01*
X168162474Y-120459295D02*
X168086283Y-120459295D01*
X168086283Y-120459295D02*
X167971998Y-120497390D01*
X167971998Y-120497390D02*
X167933902Y-120535485D01*
X167324379Y-120840247D02*
X167591045Y-120840247D01*
X167591045Y-121259295D02*
X167591045Y-120459295D01*
X167591045Y-120459295D02*
X167210093Y-120459295D01*
X166943427Y-120535485D02*
X166905331Y-120497390D01*
X166905331Y-120497390D02*
X166829141Y-120459295D01*
X166829141Y-120459295D02*
X166638665Y-120459295D01*
X166638665Y-120459295D02*
X166562474Y-120497390D01*
X166562474Y-120497390D02*
X166524379Y-120535485D01*
X166524379Y-120535485D02*
X166486284Y-120611676D01*
X166486284Y-120611676D02*
X166486284Y-120687866D01*
X166486284Y-120687866D02*
X166524379Y-120802152D01*
X166524379Y-120802152D02*
X166981522Y-121259295D01*
X166981522Y-121259295D02*
X166486284Y-121259295D01*
X167933902Y-116103104D02*
X167971998Y-116141200D01*
X167971998Y-116141200D02*
X168086283Y-116179295D01*
X168086283Y-116179295D02*
X168162474Y-116179295D01*
X168162474Y-116179295D02*
X168276760Y-116141200D01*
X168276760Y-116141200D02*
X168352950Y-116065009D01*
X168352950Y-116065009D02*
X168391045Y-115988819D01*
X168391045Y-115988819D02*
X168429141Y-115836438D01*
X168429141Y-115836438D02*
X168429141Y-115722152D01*
X168429141Y-115722152D02*
X168391045Y-115569771D01*
X168391045Y-115569771D02*
X168352950Y-115493580D01*
X168352950Y-115493580D02*
X168276760Y-115417390D01*
X168276760Y-115417390D02*
X168162474Y-115379295D01*
X168162474Y-115379295D02*
X168086283Y-115379295D01*
X168086283Y-115379295D02*
X167971998Y-115417390D01*
X167971998Y-115417390D02*
X167933902Y-115455485D01*
X167324379Y-115760247D02*
X167591045Y-115760247D01*
X167591045Y-116179295D02*
X167591045Y-115379295D01*
X167591045Y-115379295D02*
X167210093Y-115379295D01*
X166562474Y-115645961D02*
X166562474Y-116179295D01*
X166752950Y-115341200D02*
X166943427Y-115912628D01*
X166943427Y-115912628D02*
X166448188Y-115912628D01*
X168899045Y-111226295D02*
X168899045Y-110426295D01*
X168060950Y-111226295D02*
X168327617Y-110845342D01*
X168518093Y-111226295D02*
X168518093Y-110426295D01*
X168518093Y-110426295D02*
X168213331Y-110426295D01*
X168213331Y-110426295D02*
X168137141Y-110464390D01*
X168137141Y-110464390D02*
X168099046Y-110502485D01*
X168099046Y-110502485D02*
X168060950Y-110578676D01*
X168060950Y-110578676D02*
X168060950Y-110692961D01*
X168060950Y-110692961D02*
X168099046Y-110769152D01*
X168099046Y-110769152D02*
X168137141Y-110807247D01*
X168137141Y-110807247D02*
X168213331Y-110845342D01*
X168213331Y-110845342D02*
X168518093Y-110845342D01*
X167184760Y-111302485D02*
X167260950Y-111264390D01*
X167260950Y-111264390D02*
X167337141Y-111188200D01*
X167337141Y-111188200D02*
X167451427Y-111073914D01*
X167451427Y-111073914D02*
X167527617Y-111035819D01*
X167527617Y-111035819D02*
X167603808Y-111035819D01*
X167565712Y-111226295D02*
X167641903Y-111188200D01*
X167641903Y-111188200D02*
X167718093Y-111112009D01*
X167718093Y-111112009D02*
X167756189Y-110959628D01*
X167756189Y-110959628D02*
X167756189Y-110692961D01*
X167756189Y-110692961D02*
X167718093Y-110540580D01*
X167718093Y-110540580D02*
X167641903Y-110464390D01*
X167641903Y-110464390D02*
X167565712Y-110426295D01*
X167565712Y-110426295D02*
X167413331Y-110426295D01*
X167413331Y-110426295D02*
X167337141Y-110464390D01*
X167337141Y-110464390D02*
X167260950Y-110540580D01*
X167260950Y-110540580D02*
X167222855Y-110692961D01*
X167222855Y-110692961D02*
X167222855Y-110959628D01*
X167222855Y-110959628D02*
X167260950Y-111112009D01*
X167260950Y-111112009D02*
X167337141Y-111188200D01*
X167337141Y-111188200D02*
X167413331Y-111226295D01*
X167413331Y-111226295D02*
X167565712Y-111226295D01*
X166727617Y-110426295D02*
X166651427Y-110426295D01*
X166651427Y-110426295D02*
X166575236Y-110464390D01*
X166575236Y-110464390D02*
X166537141Y-110502485D01*
X166537141Y-110502485D02*
X166499046Y-110578676D01*
X166499046Y-110578676D02*
X166460951Y-110731057D01*
X166460951Y-110731057D02*
X166460951Y-110921533D01*
X166460951Y-110921533D02*
X166499046Y-111073914D01*
X166499046Y-111073914D02*
X166537141Y-111150104D01*
X166537141Y-111150104D02*
X166575236Y-111188200D01*
X166575236Y-111188200D02*
X166651427Y-111226295D01*
X166651427Y-111226295D02*
X166727617Y-111226295D01*
X166727617Y-111226295D02*
X166803808Y-111188200D01*
X166803808Y-111188200D02*
X166841903Y-111150104D01*
X166841903Y-111150104D02*
X166879998Y-111073914D01*
X166879998Y-111073914D02*
X166918094Y-110921533D01*
X166918094Y-110921533D02*
X166918094Y-110731057D01*
X166918094Y-110731057D02*
X166879998Y-110578676D01*
X166879998Y-110578676D02*
X166841903Y-110502485D01*
X166841903Y-110502485D02*
X166803808Y-110464390D01*
X166803808Y-110464390D02*
X166727617Y-110426295D01*
X167933902Y-96037104D02*
X167971998Y-96075200D01*
X167971998Y-96075200D02*
X168086283Y-96113295D01*
X168086283Y-96113295D02*
X168162474Y-96113295D01*
X168162474Y-96113295D02*
X168276760Y-96075200D01*
X168276760Y-96075200D02*
X168352950Y-95999009D01*
X168352950Y-95999009D02*
X168391045Y-95922819D01*
X168391045Y-95922819D02*
X168429141Y-95770438D01*
X168429141Y-95770438D02*
X168429141Y-95656152D01*
X168429141Y-95656152D02*
X168391045Y-95503771D01*
X168391045Y-95503771D02*
X168352950Y-95427580D01*
X168352950Y-95427580D02*
X168276760Y-95351390D01*
X168276760Y-95351390D02*
X168162474Y-95313295D01*
X168162474Y-95313295D02*
X168086283Y-95313295D01*
X168086283Y-95313295D02*
X167971998Y-95351390D01*
X167971998Y-95351390D02*
X167933902Y-95389485D01*
X167629141Y-96075200D02*
X167514855Y-96113295D01*
X167514855Y-96113295D02*
X167324379Y-96113295D01*
X167324379Y-96113295D02*
X167248188Y-96075200D01*
X167248188Y-96075200D02*
X167210093Y-96037104D01*
X167210093Y-96037104D02*
X167171998Y-95960914D01*
X167171998Y-95960914D02*
X167171998Y-95884723D01*
X167171998Y-95884723D02*
X167210093Y-95808533D01*
X167210093Y-95808533D02*
X167248188Y-95770438D01*
X167248188Y-95770438D02*
X167324379Y-95732342D01*
X167324379Y-95732342D02*
X167476760Y-95694247D01*
X167476760Y-95694247D02*
X167552950Y-95656152D01*
X167552950Y-95656152D02*
X167591045Y-95618057D01*
X167591045Y-95618057D02*
X167629141Y-95541866D01*
X167629141Y-95541866D02*
X167629141Y-95465676D01*
X167629141Y-95465676D02*
X167591045Y-95389485D01*
X167591045Y-95389485D02*
X167552950Y-95351390D01*
X167552950Y-95351390D02*
X167476760Y-95313295D01*
X167476760Y-95313295D02*
X167286283Y-95313295D01*
X167286283Y-95313295D02*
X167171998Y-95351390D01*
X168772045Y-108686295D02*
X168772045Y-107886295D01*
X167933950Y-108686295D02*
X168200617Y-108305342D01*
X168391093Y-108686295D02*
X168391093Y-107886295D01*
X168391093Y-107886295D02*
X168086331Y-107886295D01*
X168086331Y-107886295D02*
X168010141Y-107924390D01*
X168010141Y-107924390D02*
X167972046Y-107962485D01*
X167972046Y-107962485D02*
X167933950Y-108038676D01*
X167933950Y-108038676D02*
X167933950Y-108152961D01*
X167933950Y-108152961D02*
X167972046Y-108229152D01*
X167972046Y-108229152D02*
X168010141Y-108267247D01*
X168010141Y-108267247D02*
X168086331Y-108305342D01*
X168086331Y-108305342D02*
X168391093Y-108305342D01*
X167057760Y-108762485D02*
X167133950Y-108724390D01*
X167133950Y-108724390D02*
X167210141Y-108648200D01*
X167210141Y-108648200D02*
X167324427Y-108533914D01*
X167324427Y-108533914D02*
X167400617Y-108495819D01*
X167400617Y-108495819D02*
X167476808Y-108495819D01*
X167438712Y-108686295D02*
X167514903Y-108648200D01*
X167514903Y-108648200D02*
X167591093Y-108572009D01*
X167591093Y-108572009D02*
X167629189Y-108419628D01*
X167629189Y-108419628D02*
X167629189Y-108152961D01*
X167629189Y-108152961D02*
X167591093Y-108000580D01*
X167591093Y-108000580D02*
X167514903Y-107924390D01*
X167514903Y-107924390D02*
X167438712Y-107886295D01*
X167438712Y-107886295D02*
X167286331Y-107886295D01*
X167286331Y-107886295D02*
X167210141Y-107924390D01*
X167210141Y-107924390D02*
X167133950Y-108000580D01*
X167133950Y-108000580D02*
X167095855Y-108152961D01*
X167095855Y-108152961D02*
X167095855Y-108419628D01*
X167095855Y-108419628D02*
X167133950Y-108572009D01*
X167133950Y-108572009D02*
X167210141Y-108648200D01*
X167210141Y-108648200D02*
X167286331Y-108686295D01*
X167286331Y-108686295D02*
X167438712Y-108686295D01*
X166333951Y-108686295D02*
X166791094Y-108686295D01*
X166562522Y-108686295D02*
X166562522Y-107886295D01*
X166562522Y-107886295D02*
X166638713Y-108000580D01*
X166638713Y-108000580D02*
X166714903Y-108076771D01*
X166714903Y-108076771D02*
X166791094Y-108114866D01*
X167933902Y-118770104D02*
X167971998Y-118808200D01*
X167971998Y-118808200D02*
X168086283Y-118846295D01*
X168086283Y-118846295D02*
X168162474Y-118846295D01*
X168162474Y-118846295D02*
X168276760Y-118808200D01*
X168276760Y-118808200D02*
X168352950Y-118732009D01*
X168352950Y-118732009D02*
X168391045Y-118655819D01*
X168391045Y-118655819D02*
X168429141Y-118503438D01*
X168429141Y-118503438D02*
X168429141Y-118389152D01*
X168429141Y-118389152D02*
X168391045Y-118236771D01*
X168391045Y-118236771D02*
X168352950Y-118160580D01*
X168352950Y-118160580D02*
X168276760Y-118084390D01*
X168276760Y-118084390D02*
X168162474Y-118046295D01*
X168162474Y-118046295D02*
X168086283Y-118046295D01*
X168086283Y-118046295D02*
X167971998Y-118084390D01*
X167971998Y-118084390D02*
X167933902Y-118122485D01*
X167324379Y-118427247D02*
X167591045Y-118427247D01*
X167591045Y-118846295D02*
X167591045Y-118046295D01*
X167591045Y-118046295D02*
X167210093Y-118046295D01*
X166981522Y-118046295D02*
X166486284Y-118046295D01*
X166486284Y-118046295D02*
X166752950Y-118351057D01*
X166752950Y-118351057D02*
X166638665Y-118351057D01*
X166638665Y-118351057D02*
X166562474Y-118389152D01*
X166562474Y-118389152D02*
X166524379Y-118427247D01*
X166524379Y-118427247D02*
X166486284Y-118503438D01*
X166486284Y-118503438D02*
X166486284Y-118693914D01*
X166486284Y-118693914D02*
X166524379Y-118770104D01*
X166524379Y-118770104D02*
X166562474Y-118808200D01*
X166562474Y-118808200D02*
X166638665Y-118846295D01*
X166638665Y-118846295D02*
X166867236Y-118846295D01*
X166867236Y-118846295D02*
X166943427Y-118808200D01*
X166943427Y-118808200D02*
X166981522Y-118770104D01*
X168594236Y-85026295D02*
X168098998Y-85026295D01*
X168098998Y-85026295D02*
X168365664Y-85331057D01*
X168365664Y-85331057D02*
X168251379Y-85331057D01*
X168251379Y-85331057D02*
X168175188Y-85369152D01*
X168175188Y-85369152D02*
X168137093Y-85407247D01*
X168137093Y-85407247D02*
X168098998Y-85483438D01*
X168098998Y-85483438D02*
X168098998Y-85673914D01*
X168098998Y-85673914D02*
X168137093Y-85750104D01*
X168137093Y-85750104D02*
X168175188Y-85788200D01*
X168175188Y-85788200D02*
X168251379Y-85826295D01*
X168251379Y-85826295D02*
X168479950Y-85826295D01*
X168479950Y-85826295D02*
X168556141Y-85788200D01*
X168556141Y-85788200D02*
X168594236Y-85750104D01*
X167870426Y-85026295D02*
X167603759Y-85826295D01*
X167603759Y-85826295D02*
X167337093Y-85026295D01*
X167146617Y-85026295D02*
X166651379Y-85026295D01*
X166651379Y-85026295D02*
X166918045Y-85331057D01*
X166918045Y-85331057D02*
X166803760Y-85331057D01*
X166803760Y-85331057D02*
X166727569Y-85369152D01*
X166727569Y-85369152D02*
X166689474Y-85407247D01*
X166689474Y-85407247D02*
X166651379Y-85483438D01*
X166651379Y-85483438D02*
X166651379Y-85673914D01*
X166651379Y-85673914D02*
X166689474Y-85750104D01*
X166689474Y-85750104D02*
X166727569Y-85788200D01*
X166727569Y-85788200D02*
X166803760Y-85826295D01*
X166803760Y-85826295D02*
X167032331Y-85826295D01*
X167032331Y-85826295D02*
X167108522Y-85788200D01*
X167108522Y-85788200D02*
X167146617Y-85750104D01*
X168518045Y-88493295D02*
X168518045Y-87693295D01*
X168518045Y-87693295D02*
X168251379Y-88264723D01*
X168251379Y-88264723D02*
X167984712Y-87693295D01*
X167984712Y-87693295D02*
X167984712Y-88493295D01*
X167451378Y-87693295D02*
X167298997Y-87693295D01*
X167298997Y-87693295D02*
X167222807Y-87731390D01*
X167222807Y-87731390D02*
X167146616Y-87807580D01*
X167146616Y-87807580D02*
X167108521Y-87959961D01*
X167108521Y-87959961D02*
X167108521Y-88226628D01*
X167108521Y-88226628D02*
X167146616Y-88379009D01*
X167146616Y-88379009D02*
X167222807Y-88455200D01*
X167222807Y-88455200D02*
X167298997Y-88493295D01*
X167298997Y-88493295D02*
X167451378Y-88493295D01*
X167451378Y-88493295D02*
X167527569Y-88455200D01*
X167527569Y-88455200D02*
X167603759Y-88379009D01*
X167603759Y-88379009D02*
X167641855Y-88226628D01*
X167641855Y-88226628D02*
X167641855Y-87959961D01*
X167641855Y-87959961D02*
X167603759Y-87807580D01*
X167603759Y-87807580D02*
X167527569Y-87731390D01*
X167527569Y-87731390D02*
X167451378Y-87693295D01*
X166803760Y-88455200D02*
X166689474Y-88493295D01*
X166689474Y-88493295D02*
X166498998Y-88493295D01*
X166498998Y-88493295D02*
X166422807Y-88455200D01*
X166422807Y-88455200D02*
X166384712Y-88417104D01*
X166384712Y-88417104D02*
X166346617Y-88340914D01*
X166346617Y-88340914D02*
X166346617Y-88264723D01*
X166346617Y-88264723D02*
X166384712Y-88188533D01*
X166384712Y-88188533D02*
X166422807Y-88150438D01*
X166422807Y-88150438D02*
X166498998Y-88112342D01*
X166498998Y-88112342D02*
X166651379Y-88074247D01*
X166651379Y-88074247D02*
X166727569Y-88036152D01*
X166727569Y-88036152D02*
X166765664Y-87998057D01*
X166765664Y-87998057D02*
X166803760Y-87921866D01*
X166803760Y-87921866D02*
X166803760Y-87845676D01*
X166803760Y-87845676D02*
X166765664Y-87769485D01*
X166765664Y-87769485D02*
X166727569Y-87731390D01*
X166727569Y-87731390D02*
X166651379Y-87693295D01*
X166651379Y-87693295D02*
X166460902Y-87693295D01*
X166460902Y-87693295D02*
X166346617Y-87731390D01*
X166003759Y-88493295D02*
X166003759Y-87693295D01*
X168060902Y-123723104D02*
X168098998Y-123761200D01*
X168098998Y-123761200D02*
X168213283Y-123799295D01*
X168213283Y-123799295D02*
X168289474Y-123799295D01*
X168289474Y-123799295D02*
X168403760Y-123761200D01*
X168403760Y-123761200D02*
X168479950Y-123685009D01*
X168479950Y-123685009D02*
X168518045Y-123608819D01*
X168518045Y-123608819D02*
X168556141Y-123456438D01*
X168556141Y-123456438D02*
X168556141Y-123342152D01*
X168556141Y-123342152D02*
X168518045Y-123189771D01*
X168518045Y-123189771D02*
X168479950Y-123113580D01*
X168479950Y-123113580D02*
X168403760Y-123037390D01*
X168403760Y-123037390D02*
X168289474Y-122999295D01*
X168289474Y-122999295D02*
X168213283Y-122999295D01*
X168213283Y-122999295D02*
X168098998Y-123037390D01*
X168098998Y-123037390D02*
X168060902Y-123075485D01*
X167451379Y-123380247D02*
X167718045Y-123380247D01*
X167718045Y-123799295D02*
X167718045Y-122999295D01*
X167718045Y-122999295D02*
X167337093Y-122999295D01*
X166613284Y-123799295D02*
X167070427Y-123799295D01*
X166841855Y-123799295D02*
X166841855Y-122999295D01*
X166841855Y-122999295D02*
X166918046Y-123113580D01*
X166918046Y-123113580D02*
X166994236Y-123189771D01*
X166994236Y-123189771D02*
X167070427Y-123227866D01*
X171841695Y-98866040D02*
X172413123Y-98866040D01*
X172413123Y-98866040D02*
X172527409Y-98827945D01*
X172527409Y-98827945D02*
X172603600Y-98751754D01*
X172603600Y-98751754D02*
X172641695Y-98637469D01*
X172641695Y-98637469D02*
X172641695Y-98561278D01*
X172641695Y-99246993D02*
X171841695Y-99246993D01*
X171841695Y-99246993D02*
X171841695Y-99551755D01*
X171841695Y-99551755D02*
X171879790Y-99627945D01*
X171879790Y-99627945D02*
X171917885Y-99666040D01*
X171917885Y-99666040D02*
X171994076Y-99704136D01*
X171994076Y-99704136D02*
X172108361Y-99704136D01*
X172108361Y-99704136D02*
X172184552Y-99666040D01*
X172184552Y-99666040D02*
X172222647Y-99627945D01*
X172222647Y-99627945D02*
X172260742Y-99551755D01*
X172260742Y-99551755D02*
X172260742Y-99246993D01*
X171917885Y-100008897D02*
X171879790Y-100046993D01*
X171879790Y-100046993D02*
X171841695Y-100123183D01*
X171841695Y-100123183D02*
X171841695Y-100313659D01*
X171841695Y-100313659D02*
X171879790Y-100389850D01*
X171879790Y-100389850D02*
X171917885Y-100427945D01*
X171917885Y-100427945D02*
X171994076Y-100466040D01*
X171994076Y-100466040D02*
X172070266Y-100466040D01*
X172070266Y-100466040D02*
X172184552Y-100427945D01*
X172184552Y-100427945D02*
X172641695Y-99970802D01*
X172641695Y-99970802D02*
X172641695Y-100466040D01*
X171841695Y-86116040D02*
X172413123Y-86116040D01*
X172413123Y-86116040D02*
X172527409Y-86077945D01*
X172527409Y-86077945D02*
X172603600Y-86001754D01*
X172603600Y-86001754D02*
X172641695Y-85887469D01*
X172641695Y-85887469D02*
X172641695Y-85811278D01*
X172641695Y-86496993D02*
X171841695Y-86496993D01*
X171841695Y-86496993D02*
X171841695Y-86801755D01*
X171841695Y-86801755D02*
X171879790Y-86877945D01*
X171879790Y-86877945D02*
X171917885Y-86916040D01*
X171917885Y-86916040D02*
X171994076Y-86954136D01*
X171994076Y-86954136D02*
X172108361Y-86954136D01*
X172108361Y-86954136D02*
X172184552Y-86916040D01*
X172184552Y-86916040D02*
X172222647Y-86877945D01*
X172222647Y-86877945D02*
X172260742Y-86801755D01*
X172260742Y-86801755D02*
X172260742Y-86496993D01*
X172641695Y-87716040D02*
X172641695Y-87258897D01*
X172641695Y-87487469D02*
X171841695Y-87487469D01*
X171841695Y-87487469D02*
X171955980Y-87411278D01*
X171955980Y-87411278D02*
X172032171Y-87335088D01*
X172032171Y-87335088D02*
X172070266Y-87258897D01*
X172091695Y-118366040D02*
X172663123Y-118366040D01*
X172663123Y-118366040D02*
X172777409Y-118327945D01*
X172777409Y-118327945D02*
X172853600Y-118251754D01*
X172853600Y-118251754D02*
X172891695Y-118137469D01*
X172891695Y-118137469D02*
X172891695Y-118061278D01*
X172891695Y-118746993D02*
X172091695Y-118746993D01*
X172091695Y-118746993D02*
X172091695Y-119051755D01*
X172091695Y-119051755D02*
X172129790Y-119127945D01*
X172129790Y-119127945D02*
X172167885Y-119166040D01*
X172167885Y-119166040D02*
X172244076Y-119204136D01*
X172244076Y-119204136D02*
X172358361Y-119204136D01*
X172358361Y-119204136D02*
X172434552Y-119166040D01*
X172434552Y-119166040D02*
X172472647Y-119127945D01*
X172472647Y-119127945D02*
X172510742Y-119051755D01*
X172510742Y-119051755D02*
X172510742Y-118746993D01*
X172091695Y-119470802D02*
X172091695Y-119966040D01*
X172091695Y-119966040D02*
X172396457Y-119699374D01*
X172396457Y-119699374D02*
X172396457Y-119813659D01*
X172396457Y-119813659D02*
X172434552Y-119889850D01*
X172434552Y-119889850D02*
X172472647Y-119927945D01*
X172472647Y-119927945D02*
X172548838Y-119966040D01*
X172548838Y-119966040D02*
X172739314Y-119966040D01*
X172739314Y-119966040D02*
X172815504Y-119927945D01*
X172815504Y-119927945D02*
X172853600Y-119889850D01*
X172853600Y-119889850D02*
X172891695Y-119813659D01*
X172891695Y-119813659D02*
X172891695Y-119585088D01*
X172891695Y-119585088D02*
X172853600Y-119508897D01*
X172853600Y-119508897D02*
X172815504Y-119470802D01*
X163391695Y-100072054D02*
X162591695Y-100072054D01*
X162591695Y-100072054D02*
X162591695Y-100262530D01*
X162591695Y-100262530D02*
X162629790Y-100376816D01*
X162629790Y-100376816D02*
X162705980Y-100453006D01*
X162705980Y-100453006D02*
X162782171Y-100491101D01*
X162782171Y-100491101D02*
X162934552Y-100529197D01*
X162934552Y-100529197D02*
X163048838Y-100529197D01*
X163048838Y-100529197D02*
X163201219Y-100491101D01*
X163201219Y-100491101D02*
X163277409Y-100453006D01*
X163277409Y-100453006D02*
X163353600Y-100376816D01*
X163353600Y-100376816D02*
X163391695Y-100262530D01*
X163391695Y-100262530D02*
X163391695Y-100072054D01*
X163391695Y-100872054D02*
X162591695Y-100872054D01*
X162591695Y-100872054D02*
X163163123Y-101138720D01*
X163163123Y-101138720D02*
X162591695Y-101405387D01*
X162591695Y-101405387D02*
X163391695Y-101405387D01*
X163163123Y-101748244D02*
X163163123Y-102129197D01*
X163391695Y-101672054D02*
X162591695Y-101938721D01*
X162591695Y-101938721D02*
X163391695Y-102205387D01*
X163391695Y-102891101D02*
X163391695Y-102433958D01*
X163391695Y-102662530D02*
X162591695Y-102662530D01*
X162591695Y-102662530D02*
X162705980Y-102586339D01*
X162705980Y-102586339D02*
X162782171Y-102510149D01*
X162782171Y-102510149D02*
X162820266Y-102433958D01*
X163391695Y-111572054D02*
X162591695Y-111572054D01*
X162591695Y-111572054D02*
X162591695Y-111876816D01*
X162591695Y-111876816D02*
X162629790Y-111953006D01*
X162629790Y-111953006D02*
X162667885Y-111991101D01*
X162667885Y-111991101D02*
X162744076Y-112029197D01*
X162744076Y-112029197D02*
X162858361Y-112029197D01*
X162858361Y-112029197D02*
X162934552Y-111991101D01*
X162934552Y-111991101D02*
X162972647Y-111953006D01*
X162972647Y-111953006D02*
X163010742Y-111876816D01*
X163010742Y-111876816D02*
X163010742Y-111572054D01*
X163391695Y-112372054D02*
X162591695Y-112372054D01*
X162591695Y-112372054D02*
X163163123Y-112638720D01*
X163163123Y-112638720D02*
X162591695Y-112905387D01*
X162591695Y-112905387D02*
X163391695Y-112905387D01*
X162591695Y-113438721D02*
X162591695Y-113514911D01*
X162591695Y-113514911D02*
X162629790Y-113591102D01*
X162629790Y-113591102D02*
X162667885Y-113629197D01*
X162667885Y-113629197D02*
X162744076Y-113667292D01*
X162744076Y-113667292D02*
X162896457Y-113705387D01*
X162896457Y-113705387D02*
X163086933Y-113705387D01*
X163086933Y-113705387D02*
X163239314Y-113667292D01*
X163239314Y-113667292D02*
X163315504Y-113629197D01*
X163315504Y-113629197D02*
X163353600Y-113591102D01*
X163353600Y-113591102D02*
X163391695Y-113514911D01*
X163391695Y-113514911D02*
X163391695Y-113438721D01*
X163391695Y-113438721D02*
X163353600Y-113362530D01*
X163353600Y-113362530D02*
X163315504Y-113324435D01*
X163315504Y-113324435D02*
X163239314Y-113286340D01*
X163239314Y-113286340D02*
X163086933Y-113248244D01*
X163086933Y-113248244D02*
X162896457Y-113248244D01*
X162896457Y-113248244D02*
X162744076Y-113286340D01*
X162744076Y-113286340D02*
X162667885Y-113324435D01*
X162667885Y-113324435D02*
X162629790Y-113362530D01*
X162629790Y-113362530D02*
X162591695Y-113438721D01*
X163391695Y-106322054D02*
X162591695Y-106322054D01*
X162591695Y-106322054D02*
X162591695Y-106626816D01*
X162591695Y-106626816D02*
X162629790Y-106703006D01*
X162629790Y-106703006D02*
X162667885Y-106741101D01*
X162667885Y-106741101D02*
X162744076Y-106779197D01*
X162744076Y-106779197D02*
X162858361Y-106779197D01*
X162858361Y-106779197D02*
X162934552Y-106741101D01*
X162934552Y-106741101D02*
X162972647Y-106703006D01*
X162972647Y-106703006D02*
X163010742Y-106626816D01*
X163010742Y-106626816D02*
X163010742Y-106322054D01*
X163391695Y-107122054D02*
X162591695Y-107122054D01*
X162591695Y-107122054D02*
X163163123Y-107388720D01*
X163163123Y-107388720D02*
X162591695Y-107655387D01*
X162591695Y-107655387D02*
X163391695Y-107655387D01*
X163391695Y-108455387D02*
X163391695Y-107998244D01*
X163391695Y-108226816D02*
X162591695Y-108226816D01*
X162591695Y-108226816D02*
X162705980Y-108150625D01*
X162705980Y-108150625D02*
X162782171Y-108074435D01*
X162782171Y-108074435D02*
X162820266Y-107998244D01*
D12*
X164649100Y-103206600D02*
X166173100Y-103206600D01*
X166427100Y-102952600D02*
X166427100Y-98634600D01*
X164395100Y-98634600D02*
X164395100Y-102952600D01*
X164649100Y-98380600D02*
X166173100Y-98380600D01*
X164395100Y-102952600D02*
G75*
G03*
X164649100Y-103206600I254000J0D01*
G01*
X166173100Y-103206600D02*
G75*
G03*
X166427100Y-102952600I0J254000D01*
G01*
X164649100Y-98380600D02*
G75*
G03*
X164395100Y-98634600I0J-254000D01*
G01*
X166427100Y-98634600D02*
G75*
G03*
X166173100Y-98380600I-254000J0D01*
G01*
X164649100Y-114636600D02*
X166173100Y-114636600D01*
X166427100Y-114382600D02*
X166427100Y-110064600D01*
X164395100Y-110064600D02*
X164395100Y-114382600D01*
X164649100Y-109810600D02*
X166173100Y-109810600D01*
X164395100Y-114382600D02*
G75*
G03*
X164649100Y-114636600I254000J0D01*
G01*
X166173100Y-114636600D02*
G75*
G03*
X166427100Y-114382600I0J254000D01*
G01*
X164649100Y-109810600D02*
G75*
G03*
X164395100Y-110064600I0J-254000D01*
G01*
X166427100Y-110064600D02*
G75*
G03*
X166173100Y-109810600I-254000J0D01*
G01*
X164649100Y-108921600D02*
X166173100Y-108921600D01*
X166427100Y-108667600D02*
X166427100Y-104349600D01*
X164395100Y-104349600D02*
X164395100Y-108667600D01*
X164649100Y-104095600D02*
X166173100Y-104095600D01*
X164395100Y-108667600D02*
G75*
G03*
X164649100Y-108921600I254000J0D01*
G01*
X166173100Y-108921600D02*
G75*
G03*
X166427100Y-108667600I0J254000D01*
G01*
X164649100Y-104095600D02*
G75*
G03*
X164395100Y-104349600I0J-254000D01*
G01*
X166427100Y-104349600D02*
G75*
G03*
X166173100Y-104095600I-254000J0D01*
G01*
M02*
