G04 #@! TF.GenerationSoftware,KiCad,Pcbnew,(5.1.5)-3*
G04 #@! TF.CreationDate,2019-12-31T00:04:08+10:30*
G04 #@! TF.ProjectId,ATM90E36_Breakout,41544d39-3045-4333-965f-427265616b6f,rev?*
G04 #@! TF.SameCoordinates,Original*
G04 #@! TF.FileFunction,Profile,NP*
%FSLAX46Y46*%
G04 Gerber Fmt 4.6, Leading zero omitted, Abs format (unit mm)*
G04 Created by KiCad (PCBNEW (5.1.5)-3) date 2019-12-31 00:04:08*
%MOMM*%
%LPD*%
G04 APERTURE LIST*
%ADD10C,0.050000*%
G04 APERTURE END LIST*
D10*
X125406100Y-88855600D02*
G75*
G02X126676100Y-87585600I1270000J0D01*
G01*
X123501100Y-82543600D02*
X123501100Y-83648600D01*
X123501100Y-88855600D02*
X123501100Y-96094600D01*
X123501100Y-101301600D02*
X123501100Y-108667600D01*
X123501100Y-113874600D02*
X123501100Y-121240600D01*
X123501100Y-126447600D02*
X123501100Y-127463600D01*
X126041100Y-130003600D02*
G75*
G02X123501100Y-127463600I0J2540000D01*
G01*
X126041100Y-130003600D02*
X170961100Y-130003600D01*
X173501100Y-127463600D02*
G75*
G02X170961100Y-130003600I-2540000J0D01*
G01*
X173501100Y-127463600D02*
X173501100Y-82543600D01*
X170961100Y-80003600D02*
G75*
G02X173501100Y-82543600I0J-2540000D01*
G01*
X170961100Y-80003600D02*
X126041100Y-80003600D01*
X123501100Y-82543600D02*
G75*
G02X126041100Y-80003600I2540000J0D01*
G01*
X123501100Y-83648600D02*
X125406100Y-83648600D01*
X126676100Y-84918600D02*
G75*
G02X125406100Y-83648600I0J1270000D01*
G01*
X126676100Y-84918600D02*
X126676100Y-87585600D01*
X125406100Y-88855600D02*
X123501100Y-88855600D01*
X123501100Y-96094600D02*
X125406100Y-96094600D01*
X126676100Y-97364600D02*
G75*
G02X125406100Y-96094600I0J1270000D01*
G01*
X126676100Y-97364600D02*
X126676100Y-100031600D01*
X125406100Y-101301600D02*
G75*
G02X126676100Y-100031600I1270000J0D01*
G01*
X125406100Y-101301600D02*
X123501100Y-101301600D01*
X123501100Y-108667600D02*
X125406100Y-108667600D01*
X126676100Y-109937600D02*
G75*
G02X125406100Y-108667600I0J1270000D01*
G01*
X126676100Y-109937600D02*
X126676100Y-112604600D01*
X125406100Y-113874600D02*
G75*
G02X126676100Y-112604600I1270000J0D01*
G01*
X125406100Y-113874600D02*
X123501100Y-113874600D01*
X123501100Y-121240600D02*
X125406100Y-121240600D01*
X126676100Y-122510600D02*
G75*
G02X125406100Y-121240600I0J1270000D01*
G01*
X126676100Y-122510600D02*
X126676100Y-125177600D01*
X125406100Y-126447600D02*
G75*
G02X126676100Y-125177600I1270000J0D01*
G01*
X125406100Y-126447600D02*
X123501100Y-126447600D01*
M02*
