G04 #@! TF.GenerationSoftware,KiCad,Pcbnew,7.0.7*
G04 #@! TF.CreationDate,2025-03-22T12:59:07+10:30*
G04 #@! TF.ProjectId,ATM90E36_Breakout,41544d39-3045-4333-965f-427265616b6f,rev?*
G04 #@! TF.SameCoordinates,Original*
G04 #@! TF.FileFunction,Soldermask,Bot*
G04 #@! TF.FilePolarity,Negative*
%FSLAX46Y46*%
G04 Gerber Fmt 4.6, Leading zero omitted, Abs format (unit mm)*
G04 Created by KiCad (PCBNEW 7.0.7) date 2025-03-22 12:59:07*
%MOMM*%
%LPD*%
G01*
G04 APERTURE LIST*
G04 APERTURE END LIST*
G36*
X146814198Y-125607566D02*
G01*
X146874453Y-125607566D01*
X146940299Y-125617490D01*
X147009373Y-125622927D01*
X147065047Y-125636293D01*
X147118402Y-125644335D01*
X147188121Y-125665840D01*
X147261287Y-125683406D01*
X147308595Y-125703001D01*
X147354152Y-125717054D01*
X147425669Y-125751495D01*
X147500638Y-125782548D01*
X147539122Y-125806131D01*
X147576422Y-125824094D01*
X147647371Y-125872466D01*
X147721533Y-125917913D01*
X147751227Y-125943274D01*
X147780262Y-125963070D01*
X147848056Y-126025974D01*
X147918533Y-126086167D01*
X147939934Y-126111225D01*
X147961111Y-126130874D01*
X148023025Y-126208511D01*
X148086787Y-126283167D01*
X148100809Y-126306049D01*
X148114930Y-126323756D01*
X148168187Y-126415999D01*
X148222152Y-126504062D01*
X148230077Y-126523197D01*
X148238285Y-126537412D01*
X148280138Y-126644054D01*
X148321294Y-126743413D01*
X148324697Y-126757591D01*
X148328414Y-126767060D01*
X148356257Y-126889046D01*
X148381773Y-126995327D01*
X148382434Y-127003733D01*
X148383314Y-127007586D01*
X148394783Y-127160631D01*
X148402100Y-127253600D01*
X148394782Y-127346575D01*
X148383314Y-127499613D01*
X148382434Y-127503465D01*
X148381773Y-127511873D01*
X148356252Y-127618173D01*
X148328414Y-127740139D01*
X148324698Y-127749605D01*
X148321294Y-127763787D01*
X148280131Y-127863163D01*
X148238285Y-127969787D01*
X148230079Y-127983999D01*
X148222152Y-128003138D01*
X148168177Y-128091216D01*
X148114930Y-128183443D01*
X148100812Y-128201146D01*
X148086787Y-128224033D01*
X148023013Y-128298702D01*
X147961111Y-128376325D01*
X147939938Y-128395969D01*
X147918533Y-128421033D01*
X147848042Y-128481237D01*
X147780262Y-128544129D01*
X147751233Y-128563920D01*
X147721533Y-128589287D01*
X147647357Y-128634742D01*
X147576422Y-128683105D01*
X147539130Y-128701063D01*
X147500638Y-128724652D01*
X147425654Y-128755710D01*
X147354152Y-128790145D01*
X147308604Y-128804194D01*
X147261287Y-128823794D01*
X147188107Y-128841362D01*
X147118402Y-128862864D01*
X147065055Y-128870904D01*
X147009373Y-128884273D01*
X146940295Y-128889709D01*
X146874453Y-128899634D01*
X146814198Y-128899634D01*
X146751100Y-128904600D01*
X146688002Y-128899634D01*
X146627747Y-128899634D01*
X146561903Y-128889709D01*
X146492827Y-128884273D01*
X146437145Y-128870905D01*
X146383797Y-128862864D01*
X146314088Y-128841361D01*
X146240913Y-128823794D01*
X146193598Y-128804195D01*
X146148047Y-128790145D01*
X146076538Y-128755707D01*
X146001562Y-128724652D01*
X145963072Y-128701065D01*
X145925775Y-128683104D01*
X145854826Y-128634731D01*
X145780667Y-128589287D01*
X145750973Y-128563926D01*
X145721939Y-128544131D01*
X145654143Y-128481225D01*
X145583667Y-128421033D01*
X145562264Y-128395974D01*
X145541088Y-128376325D01*
X145479171Y-128298684D01*
X145415413Y-128224033D01*
X145401391Y-128201151D01*
X145387269Y-128183443D01*
X145334005Y-128091188D01*
X145280048Y-128003138D01*
X145272123Y-127984005D01*
X145263914Y-127969787D01*
X145222049Y-127863117D01*
X145180906Y-127763787D01*
X145177502Y-127749612D01*
X145173785Y-127740139D01*
X145145927Y-127618088D01*
X145120427Y-127511873D01*
X145119765Y-127503471D01*
X145118885Y-127499613D01*
X145107396Y-127346310D01*
X145100100Y-127253600D01*
X145107396Y-127160897D01*
X145118885Y-127007586D01*
X145119765Y-127003726D01*
X145120427Y-126995327D01*
X145145922Y-126889130D01*
X145173785Y-126767060D01*
X145177503Y-126757584D01*
X145180906Y-126743413D01*
X145222042Y-126644100D01*
X145263914Y-126537412D01*
X145272124Y-126523190D01*
X145280048Y-126504062D01*
X145333995Y-126416027D01*
X145387269Y-126323756D01*
X145401393Y-126306043D01*
X145415413Y-126283167D01*
X145479159Y-126208529D01*
X145541088Y-126130874D01*
X145562269Y-126111220D01*
X145583667Y-126086167D01*
X145654129Y-126025986D01*
X145721939Y-125963068D01*
X145750979Y-125943268D01*
X145780667Y-125917913D01*
X145854811Y-125872476D01*
X145925775Y-125824095D01*
X145963080Y-125806129D01*
X146001562Y-125782548D01*
X146076523Y-125751498D01*
X146148047Y-125717054D01*
X146193607Y-125703000D01*
X146240913Y-125683406D01*
X146314073Y-125665841D01*
X146383797Y-125644335D01*
X146437154Y-125636292D01*
X146492827Y-125622927D01*
X146561899Y-125617490D01*
X146627747Y-125607566D01*
X146688002Y-125607566D01*
X146751100Y-125602600D01*
X146814198Y-125607566D01*
G37*
G36*
X170689198Y-125607566D02*
G01*
X170749453Y-125607566D01*
X170815299Y-125617490D01*
X170884373Y-125622927D01*
X170940047Y-125636293D01*
X170993402Y-125644335D01*
X171063121Y-125665840D01*
X171136287Y-125683406D01*
X171183595Y-125703001D01*
X171229152Y-125717054D01*
X171300669Y-125751495D01*
X171375638Y-125782548D01*
X171414122Y-125806131D01*
X171451422Y-125824094D01*
X171522371Y-125872466D01*
X171596533Y-125917913D01*
X171626227Y-125943274D01*
X171655262Y-125963070D01*
X171723056Y-126025974D01*
X171793533Y-126086167D01*
X171814934Y-126111225D01*
X171836111Y-126130874D01*
X171898025Y-126208511D01*
X171961787Y-126283167D01*
X171975809Y-126306049D01*
X171989930Y-126323756D01*
X172043187Y-126415999D01*
X172097152Y-126504062D01*
X172105077Y-126523197D01*
X172113285Y-126537412D01*
X172155138Y-126644054D01*
X172196294Y-126743413D01*
X172199697Y-126757591D01*
X172203414Y-126767060D01*
X172231257Y-126889046D01*
X172256773Y-126995327D01*
X172257434Y-127003733D01*
X172258314Y-127007586D01*
X172269783Y-127160631D01*
X172277100Y-127253600D01*
X172269782Y-127346575D01*
X172258314Y-127499613D01*
X172257434Y-127503465D01*
X172256773Y-127511873D01*
X172231252Y-127618173D01*
X172203414Y-127740139D01*
X172199698Y-127749605D01*
X172196294Y-127763787D01*
X172155131Y-127863163D01*
X172113285Y-127969787D01*
X172105079Y-127983999D01*
X172097152Y-128003138D01*
X172043177Y-128091216D01*
X171989930Y-128183443D01*
X171975812Y-128201146D01*
X171961787Y-128224033D01*
X171898013Y-128298702D01*
X171836111Y-128376325D01*
X171814938Y-128395969D01*
X171793533Y-128421033D01*
X171723042Y-128481237D01*
X171655262Y-128544129D01*
X171626233Y-128563920D01*
X171596533Y-128589287D01*
X171522357Y-128634742D01*
X171451422Y-128683105D01*
X171414130Y-128701063D01*
X171375638Y-128724652D01*
X171300654Y-128755710D01*
X171229152Y-128790145D01*
X171183604Y-128804194D01*
X171136287Y-128823794D01*
X171063107Y-128841362D01*
X170993402Y-128862864D01*
X170940055Y-128870904D01*
X170884373Y-128884273D01*
X170815295Y-128889709D01*
X170749453Y-128899634D01*
X170689198Y-128899634D01*
X170626100Y-128904600D01*
X170563002Y-128899634D01*
X170502747Y-128899634D01*
X170436903Y-128889709D01*
X170367827Y-128884273D01*
X170312145Y-128870905D01*
X170258797Y-128862864D01*
X170189088Y-128841361D01*
X170115913Y-128823794D01*
X170068598Y-128804195D01*
X170023047Y-128790145D01*
X169951538Y-128755707D01*
X169876562Y-128724652D01*
X169838072Y-128701065D01*
X169800775Y-128683104D01*
X169729826Y-128634731D01*
X169655667Y-128589287D01*
X169625973Y-128563926D01*
X169596939Y-128544131D01*
X169529143Y-128481225D01*
X169458667Y-128421033D01*
X169437264Y-128395974D01*
X169416088Y-128376325D01*
X169354171Y-128298684D01*
X169290413Y-128224033D01*
X169276391Y-128201151D01*
X169262269Y-128183443D01*
X169209005Y-128091188D01*
X169155048Y-128003138D01*
X169147123Y-127984005D01*
X169138914Y-127969787D01*
X169097049Y-127863117D01*
X169055906Y-127763787D01*
X169052502Y-127749612D01*
X169048785Y-127740139D01*
X169020927Y-127618088D01*
X168995427Y-127511873D01*
X168994765Y-127503471D01*
X168993885Y-127499613D01*
X168982396Y-127346310D01*
X168975100Y-127253600D01*
X168982396Y-127160897D01*
X168993885Y-127007586D01*
X168994765Y-127003726D01*
X168995427Y-126995327D01*
X169020922Y-126889130D01*
X169048785Y-126767060D01*
X169052503Y-126757584D01*
X169055906Y-126743413D01*
X169097042Y-126644100D01*
X169138914Y-126537412D01*
X169147124Y-126523190D01*
X169155048Y-126504062D01*
X169208995Y-126416027D01*
X169262269Y-126323756D01*
X169276393Y-126306043D01*
X169290413Y-126283167D01*
X169354159Y-126208529D01*
X169416088Y-126130874D01*
X169437269Y-126111220D01*
X169458667Y-126086167D01*
X169529129Y-126025986D01*
X169596939Y-125963068D01*
X169625979Y-125943268D01*
X169655667Y-125917913D01*
X169729811Y-125872476D01*
X169800775Y-125824095D01*
X169838080Y-125806129D01*
X169876562Y-125782548D01*
X169951523Y-125751498D01*
X170023047Y-125717054D01*
X170068607Y-125703000D01*
X170115913Y-125683406D01*
X170189073Y-125665841D01*
X170258797Y-125644335D01*
X170312154Y-125636292D01*
X170367827Y-125622927D01*
X170436899Y-125617490D01*
X170502747Y-125607566D01*
X170563002Y-125607566D01*
X170626100Y-125602600D01*
X170689198Y-125607566D01*
G37*
G36*
X151270540Y-125221667D02*
G01*
X151287021Y-125232679D01*
X151298033Y-125249160D01*
X151301900Y-125268600D01*
X151301900Y-127118600D01*
X151298033Y-127138040D01*
X151287021Y-127154521D01*
X151270540Y-127165533D01*
X151251100Y-127169400D01*
X149401100Y-127169400D01*
X149381660Y-127165533D01*
X149365179Y-127154521D01*
X149354167Y-127138040D01*
X149350300Y-127118600D01*
X149350300Y-125268600D01*
X149354167Y-125249160D01*
X149365179Y-125232679D01*
X149381660Y-125221667D01*
X149401100Y-125217800D01*
X151251100Y-125217800D01*
X151270540Y-125221667D01*
G37*
G36*
X153873779Y-125222496D02*
G01*
X153916085Y-125222496D01*
X153963204Y-125231303D01*
X154016469Y-125236550D01*
X154056929Y-125248823D01*
X154092995Y-125255565D01*
X154142942Y-125274915D01*
X154199522Y-125292078D01*
X154231852Y-125309359D01*
X154260814Y-125320579D01*
X154311138Y-125351738D01*
X154368225Y-125382252D01*
X154392208Y-125401934D01*
X154413825Y-125415319D01*
X154461710Y-125458973D01*
X154516095Y-125503605D01*
X154532214Y-125523247D01*
X154546829Y-125536570D01*
X154589262Y-125592760D01*
X154637448Y-125651475D01*
X154646763Y-125668903D01*
X154655284Y-125680186D01*
X154689175Y-125748250D01*
X154727622Y-125820178D01*
X154731723Y-125833698D01*
X154735507Y-125841297D01*
X154757867Y-125919885D01*
X154783150Y-126003231D01*
X154783980Y-126011660D01*
X154784758Y-126014394D01*
X154792843Y-126101647D01*
X154801900Y-126193600D01*
X154792841Y-126285575D01*
X154784758Y-126372805D01*
X154783980Y-126375537D01*
X154783150Y-126383969D01*
X154757863Y-126467329D01*
X154735507Y-126545902D01*
X154731724Y-126553499D01*
X154727622Y-126567022D01*
X154689168Y-126638963D01*
X154655284Y-126707013D01*
X154646765Y-126718293D01*
X154637448Y-126735725D01*
X154589253Y-126794450D01*
X154546829Y-126850629D01*
X154532218Y-126863948D01*
X154516095Y-126883595D01*
X154461699Y-126928235D01*
X154413825Y-126971880D01*
X154392213Y-126985261D01*
X154368225Y-127004948D01*
X154311126Y-127035467D01*
X154260814Y-127066620D01*
X154231859Y-127077837D01*
X154199522Y-127095122D01*
X154142930Y-127112288D01*
X154092995Y-127131634D01*
X154056936Y-127138374D01*
X154016469Y-127150650D01*
X153963201Y-127155896D01*
X153916085Y-127164704D01*
X153873779Y-127164704D01*
X153826100Y-127169400D01*
X153778421Y-127164704D01*
X153736115Y-127164704D01*
X153688998Y-127155896D01*
X153635731Y-127150650D01*
X153595265Y-127138374D01*
X153559204Y-127131634D01*
X153509264Y-127112287D01*
X153452678Y-127095122D01*
X153420342Y-127077838D01*
X153391385Y-127066620D01*
X153341065Y-127035463D01*
X153283975Y-127004948D01*
X153259989Y-126985263D01*
X153238374Y-126971880D01*
X153190490Y-126928227D01*
X153136105Y-126883595D01*
X153119984Y-126863952D01*
X153105370Y-126850629D01*
X153062934Y-126794435D01*
X153014752Y-126735725D01*
X153005436Y-126718297D01*
X152996915Y-126707013D01*
X152963017Y-126638936D01*
X152924578Y-126567022D01*
X152920477Y-126553504D01*
X152916692Y-126545902D01*
X152894320Y-126467276D01*
X152869050Y-126383969D01*
X152868220Y-126375543D01*
X152867441Y-126372805D01*
X152859342Y-126285404D01*
X152850300Y-126193600D01*
X152859339Y-126101819D01*
X152867441Y-126014394D01*
X152868220Y-126011655D01*
X152869050Y-126003231D01*
X152894316Y-125919938D01*
X152916692Y-125841297D01*
X152920478Y-125833692D01*
X152924578Y-125820178D01*
X152963009Y-125748277D01*
X152996915Y-125680186D01*
X153005438Y-125668899D01*
X153014752Y-125651475D01*
X153062924Y-125592776D01*
X153105370Y-125536570D01*
X153119988Y-125523243D01*
X153136105Y-125503605D01*
X153190479Y-125458981D01*
X153238374Y-125415319D01*
X153259994Y-125401932D01*
X153283975Y-125382252D01*
X153341053Y-125351742D01*
X153391385Y-125320579D01*
X153420349Y-125309357D01*
X153452678Y-125292078D01*
X153509252Y-125274916D01*
X153559204Y-125255565D01*
X153595271Y-125248823D01*
X153635731Y-125236550D01*
X153688995Y-125231303D01*
X153736115Y-125222496D01*
X153778421Y-125222496D01*
X153826100Y-125217800D01*
X153873779Y-125222496D01*
G37*
G36*
X158255540Y-125221667D02*
G01*
X158272021Y-125232679D01*
X158283033Y-125249160D01*
X158286900Y-125268600D01*
X158286900Y-127118600D01*
X158283033Y-127138040D01*
X158272021Y-127154521D01*
X158255540Y-127165533D01*
X158236100Y-127169400D01*
X156386100Y-127169400D01*
X156366660Y-127165533D01*
X156350179Y-127154521D01*
X156339167Y-127138040D01*
X156335300Y-127118600D01*
X156335300Y-125268600D01*
X156339167Y-125249160D01*
X156350179Y-125232679D01*
X156366660Y-125221667D01*
X156386100Y-125217800D01*
X158236100Y-125217800D01*
X158255540Y-125221667D01*
G37*
G36*
X160858779Y-125222496D02*
G01*
X160901085Y-125222496D01*
X160948204Y-125231303D01*
X161001469Y-125236550D01*
X161041929Y-125248823D01*
X161077995Y-125255565D01*
X161127942Y-125274915D01*
X161184522Y-125292078D01*
X161216852Y-125309359D01*
X161245814Y-125320579D01*
X161296138Y-125351738D01*
X161353225Y-125382252D01*
X161377208Y-125401934D01*
X161398825Y-125415319D01*
X161446710Y-125458973D01*
X161501095Y-125503605D01*
X161517214Y-125523247D01*
X161531829Y-125536570D01*
X161574262Y-125592760D01*
X161622448Y-125651475D01*
X161631763Y-125668903D01*
X161640284Y-125680186D01*
X161674175Y-125748250D01*
X161712622Y-125820178D01*
X161716723Y-125833698D01*
X161720507Y-125841297D01*
X161742867Y-125919885D01*
X161768150Y-126003231D01*
X161768980Y-126011660D01*
X161769758Y-126014394D01*
X161777842Y-126101639D01*
X161786900Y-126193600D01*
X161777841Y-126285568D01*
X161769758Y-126372805D01*
X161768980Y-126375537D01*
X161768150Y-126383969D01*
X161742863Y-126467329D01*
X161720507Y-126545902D01*
X161716724Y-126553499D01*
X161712622Y-126567022D01*
X161674168Y-126638963D01*
X161640284Y-126707013D01*
X161631765Y-126718293D01*
X161622448Y-126735725D01*
X161574253Y-126794450D01*
X161531829Y-126850629D01*
X161517218Y-126863948D01*
X161501095Y-126883595D01*
X161446699Y-126928235D01*
X161398825Y-126971880D01*
X161377213Y-126985261D01*
X161353225Y-127004948D01*
X161296126Y-127035467D01*
X161245814Y-127066620D01*
X161216859Y-127077837D01*
X161184522Y-127095122D01*
X161127930Y-127112288D01*
X161077995Y-127131634D01*
X161041936Y-127138374D01*
X161001469Y-127150650D01*
X160948201Y-127155896D01*
X160901085Y-127164704D01*
X160858779Y-127164704D01*
X160811100Y-127169400D01*
X160763421Y-127164704D01*
X160721115Y-127164704D01*
X160673998Y-127155896D01*
X160620731Y-127150650D01*
X160580265Y-127138374D01*
X160544204Y-127131634D01*
X160494264Y-127112287D01*
X160437678Y-127095122D01*
X160405342Y-127077838D01*
X160376385Y-127066620D01*
X160326065Y-127035463D01*
X160268975Y-127004948D01*
X160244989Y-126985263D01*
X160223374Y-126971880D01*
X160175490Y-126928227D01*
X160121105Y-126883595D01*
X160104984Y-126863952D01*
X160090370Y-126850629D01*
X160047934Y-126794435D01*
X159999752Y-126735725D01*
X159990436Y-126718297D01*
X159981915Y-126707013D01*
X159948017Y-126638936D01*
X159909578Y-126567022D01*
X159905477Y-126553504D01*
X159901692Y-126545902D01*
X159879320Y-126467276D01*
X159854050Y-126383969D01*
X159853220Y-126375543D01*
X159852441Y-126372805D01*
X159844341Y-126285396D01*
X159835300Y-126193600D01*
X159844340Y-126101811D01*
X159852441Y-126014394D01*
X159853220Y-126011655D01*
X159854050Y-126003231D01*
X159879316Y-125919938D01*
X159901692Y-125841297D01*
X159905478Y-125833692D01*
X159909578Y-125820178D01*
X159948009Y-125748277D01*
X159981915Y-125680186D01*
X159990438Y-125668899D01*
X159999752Y-125651475D01*
X160047924Y-125592776D01*
X160090370Y-125536570D01*
X160104988Y-125523243D01*
X160121105Y-125503605D01*
X160175479Y-125458981D01*
X160223374Y-125415319D01*
X160244994Y-125401932D01*
X160268975Y-125382252D01*
X160326053Y-125351742D01*
X160376385Y-125320579D01*
X160405349Y-125309357D01*
X160437678Y-125292078D01*
X160494252Y-125274916D01*
X160544204Y-125255565D01*
X160580271Y-125248823D01*
X160620731Y-125236550D01*
X160673995Y-125231303D01*
X160721115Y-125222496D01*
X160763421Y-125222496D01*
X160811100Y-125217800D01*
X160858779Y-125222496D01*
G37*
G36*
X127043983Y-122928936D02*
G01*
X127094180Y-122928936D01*
X127137524Y-122938149D01*
X127175659Y-122941905D01*
X127223566Y-122956437D01*
X127278424Y-122968098D01*
X127313530Y-122983728D01*
X127344566Y-122993143D01*
X127393884Y-123019504D01*
X127450500Y-123044711D01*
X127476822Y-123063835D01*
X127500232Y-123076348D01*
X127547988Y-123115540D01*
X127602887Y-123155427D01*
X127620711Y-123175223D01*
X127636675Y-123188324D01*
X127679572Y-123240594D01*
X127728924Y-123295405D01*
X127739292Y-123313363D01*
X127748651Y-123324767D01*
X127783273Y-123389542D01*
X127823104Y-123458530D01*
X127827685Y-123472630D01*
X127831856Y-123480433D01*
X127854852Y-123556242D01*
X127881311Y-123637672D01*
X127882242Y-123646532D01*
X127883094Y-123649340D01*
X127891384Y-123733513D01*
X127901000Y-123825000D01*
X127891383Y-123916494D01*
X127883094Y-124000659D01*
X127882242Y-124003466D01*
X127881311Y-124012328D01*
X127854848Y-124093771D01*
X127831856Y-124169566D01*
X127827686Y-124177366D01*
X127823104Y-124191470D01*
X127783266Y-124260470D01*
X127748651Y-124325232D01*
X127739294Y-124336633D01*
X127728924Y-124354595D01*
X127679563Y-124409415D01*
X127636675Y-124461675D01*
X127620714Y-124474773D01*
X127602887Y-124494573D01*
X127547977Y-124534467D01*
X127500232Y-124573651D01*
X127476827Y-124586161D01*
X127450500Y-124605289D01*
X127393873Y-124630500D01*
X127344566Y-124656856D01*
X127313537Y-124666268D01*
X127278424Y-124681902D01*
X127223555Y-124693564D01*
X127175659Y-124708094D01*
X127137532Y-124711849D01*
X127094180Y-124721064D01*
X127043973Y-124721064D01*
X127000000Y-124725395D01*
X126956027Y-124721064D01*
X126905820Y-124721064D01*
X126862467Y-124711849D01*
X126824340Y-124708094D01*
X126776441Y-124693563D01*
X126721576Y-124681902D01*
X126686464Y-124666269D01*
X126655433Y-124656856D01*
X126606120Y-124630498D01*
X126549500Y-124605289D01*
X126523175Y-124586163D01*
X126499767Y-124573651D01*
X126452013Y-124534460D01*
X126397113Y-124494573D01*
X126379287Y-124474776D01*
X126363324Y-124461675D01*
X126320425Y-124409402D01*
X126271076Y-124354595D01*
X126260708Y-124336637D01*
X126251348Y-124325232D01*
X126216719Y-124260447D01*
X126176896Y-124191470D01*
X126172315Y-124177371D01*
X126168143Y-124169566D01*
X126145136Y-124093725D01*
X126118689Y-124012328D01*
X126117758Y-124003471D01*
X126116905Y-124000659D01*
X126108601Y-123916349D01*
X126099000Y-123825000D01*
X126108598Y-123733672D01*
X126116905Y-123649340D01*
X126117758Y-123646527D01*
X126118689Y-123637672D01*
X126145132Y-123556288D01*
X126168143Y-123480433D01*
X126172315Y-123472626D01*
X126176896Y-123458530D01*
X126216712Y-123389565D01*
X126251348Y-123324767D01*
X126260710Y-123313359D01*
X126271076Y-123295405D01*
X126320416Y-123240607D01*
X126363324Y-123188324D01*
X126379291Y-123175219D01*
X126397113Y-123155427D01*
X126452002Y-123115546D01*
X126499767Y-123076348D01*
X126523180Y-123063833D01*
X126549500Y-123044711D01*
X126606109Y-123019506D01*
X126655433Y-122993143D01*
X126686471Y-122983727D01*
X126721576Y-122968098D01*
X126776430Y-122956438D01*
X126824340Y-122941905D01*
X126862476Y-122938148D01*
X126905820Y-122928936D01*
X126956016Y-122928936D01*
X127000000Y-122924604D01*
X127043983Y-122928936D01*
G37*
G36*
X134043983Y-122928936D02*
G01*
X134094180Y-122928936D01*
X134137524Y-122938149D01*
X134175659Y-122941905D01*
X134223566Y-122956437D01*
X134278424Y-122968098D01*
X134313530Y-122983728D01*
X134344566Y-122993143D01*
X134393884Y-123019504D01*
X134450500Y-123044711D01*
X134476822Y-123063835D01*
X134500232Y-123076348D01*
X134547988Y-123115540D01*
X134602887Y-123155427D01*
X134620711Y-123175223D01*
X134636675Y-123188324D01*
X134679572Y-123240594D01*
X134728924Y-123295405D01*
X134739292Y-123313363D01*
X134748651Y-123324767D01*
X134783273Y-123389542D01*
X134823104Y-123458530D01*
X134827685Y-123472630D01*
X134831856Y-123480433D01*
X134854852Y-123556242D01*
X134881311Y-123637672D01*
X134882242Y-123646532D01*
X134883094Y-123649340D01*
X134891384Y-123733513D01*
X134901000Y-123825000D01*
X134891383Y-123916494D01*
X134883094Y-124000659D01*
X134882242Y-124003466D01*
X134881311Y-124012328D01*
X134854848Y-124093771D01*
X134831856Y-124169566D01*
X134827686Y-124177366D01*
X134823104Y-124191470D01*
X134783266Y-124260470D01*
X134748651Y-124325232D01*
X134739294Y-124336633D01*
X134728924Y-124354595D01*
X134679563Y-124409415D01*
X134636675Y-124461675D01*
X134620714Y-124474773D01*
X134602887Y-124494573D01*
X134547977Y-124534467D01*
X134500232Y-124573651D01*
X134476827Y-124586161D01*
X134450500Y-124605289D01*
X134393873Y-124630500D01*
X134344566Y-124656856D01*
X134313537Y-124666268D01*
X134278424Y-124681902D01*
X134223555Y-124693564D01*
X134175659Y-124708094D01*
X134137533Y-124711849D01*
X134094180Y-124721064D01*
X134043972Y-124721064D01*
X133999999Y-124725395D01*
X133956026Y-124721064D01*
X133905820Y-124721064D01*
X133862467Y-124711849D01*
X133824340Y-124708094D01*
X133776441Y-124693563D01*
X133721576Y-124681902D01*
X133686464Y-124666269D01*
X133655433Y-124656856D01*
X133606120Y-124630498D01*
X133549500Y-124605289D01*
X133523175Y-124586163D01*
X133499767Y-124573651D01*
X133452013Y-124534460D01*
X133397113Y-124494573D01*
X133379287Y-124474776D01*
X133363324Y-124461675D01*
X133320425Y-124409402D01*
X133271076Y-124354595D01*
X133260708Y-124336637D01*
X133251348Y-124325232D01*
X133216719Y-124260447D01*
X133176896Y-124191470D01*
X133172315Y-124177371D01*
X133168143Y-124169566D01*
X133145136Y-124093725D01*
X133118689Y-124012328D01*
X133117758Y-124003471D01*
X133116905Y-124000659D01*
X133108600Y-123916342D01*
X133099000Y-123825000D01*
X133108599Y-123733664D01*
X133116905Y-123649340D01*
X133117758Y-123646527D01*
X133118689Y-123637672D01*
X133145132Y-123556288D01*
X133168143Y-123480433D01*
X133172315Y-123472626D01*
X133176896Y-123458530D01*
X133216712Y-123389565D01*
X133251348Y-123324767D01*
X133260710Y-123313359D01*
X133271076Y-123295405D01*
X133320416Y-123240607D01*
X133363324Y-123188324D01*
X133379291Y-123175219D01*
X133397113Y-123155427D01*
X133452002Y-123115546D01*
X133499767Y-123076348D01*
X133523180Y-123063833D01*
X133549500Y-123044711D01*
X133606109Y-123019506D01*
X133655433Y-122993143D01*
X133686471Y-122983727D01*
X133721576Y-122968098D01*
X133776430Y-122956438D01*
X133824340Y-122941905D01*
X133862476Y-122938148D01*
X133905820Y-122928936D01*
X133956016Y-122928936D01*
X133999999Y-122924604D01*
X134043983Y-122928936D01*
G37*
G36*
X170412419Y-122667759D02*
G01*
X170455450Y-122667759D01*
X170503374Y-122676717D01*
X170557356Y-122682034D01*
X170598361Y-122694472D01*
X170635045Y-122701330D01*
X170685850Y-122721012D01*
X170743186Y-122738405D01*
X170775949Y-122755917D01*
X170805411Y-122767331D01*
X170856598Y-122799024D01*
X170914448Y-122829946D01*
X170938754Y-122849893D01*
X170960747Y-122863511D01*
X171009480Y-122907936D01*
X171064560Y-122953140D01*
X171080881Y-122973028D01*
X171095764Y-122986595D01*
X171138962Y-123043799D01*
X171187754Y-123103252D01*
X171197190Y-123120906D01*
X171205870Y-123132400D01*
X171240409Y-123201763D01*
X171279295Y-123274514D01*
X171283441Y-123288183D01*
X171287307Y-123295946D01*
X171310142Y-123376205D01*
X171335666Y-123460344D01*
X171336504Y-123468856D01*
X171337306Y-123471674D01*
X171345641Y-123561623D01*
X171354700Y-123653600D01*
X171345638Y-123745600D01*
X171337306Y-123835525D01*
X171336504Y-123838341D01*
X171335666Y-123846856D01*
X171310138Y-123931009D01*
X171287307Y-124011253D01*
X171283442Y-124019014D01*
X171279295Y-124032686D01*
X171240402Y-124105449D01*
X171205870Y-124174799D01*
X171197192Y-124186290D01*
X171187754Y-124203948D01*
X171138953Y-124263411D01*
X171095764Y-124320604D01*
X171080885Y-124334167D01*
X171064560Y-124354060D01*
X171009469Y-124399272D01*
X170960747Y-124443688D01*
X170938759Y-124457302D01*
X170914448Y-124477254D01*
X170856586Y-124508181D01*
X170805411Y-124539868D01*
X170775956Y-124551278D01*
X170743186Y-124568795D01*
X170685838Y-124586191D01*
X170635045Y-124605869D01*
X170598368Y-124612725D01*
X170557356Y-124625166D01*
X170503371Y-124630483D01*
X170455450Y-124639441D01*
X170412419Y-124639441D01*
X170364100Y-124644200D01*
X170315781Y-124639441D01*
X170272750Y-124639441D01*
X170224828Y-124630482D01*
X170170844Y-124625166D01*
X170129832Y-124612725D01*
X170093154Y-124605869D01*
X170042356Y-124586189D01*
X169985014Y-124568795D01*
X169952246Y-124551280D01*
X169922788Y-124539868D01*
X169871606Y-124508177D01*
X169813752Y-124477254D01*
X169789443Y-124457304D01*
X169767452Y-124443688D01*
X169718720Y-124399263D01*
X169663640Y-124354060D01*
X169647317Y-124334171D01*
X169632435Y-124320604D01*
X169589234Y-124263396D01*
X169540446Y-124203948D01*
X169531010Y-124186295D01*
X169522329Y-124174799D01*
X169487783Y-124105422D01*
X169448905Y-124032686D01*
X169444759Y-124019019D01*
X169440892Y-124011253D01*
X169418045Y-123930956D01*
X169392534Y-123846856D01*
X169391695Y-123838347D01*
X169390893Y-123835525D01*
X169382544Y-123745428D01*
X169373500Y-123653600D01*
X169382541Y-123561795D01*
X169390893Y-123471674D01*
X169391696Y-123468851D01*
X169392534Y-123460344D01*
X169418040Y-123376258D01*
X169440892Y-123295946D01*
X169444760Y-123288177D01*
X169448905Y-123274514D01*
X169487776Y-123201791D01*
X169522329Y-123132400D01*
X169531012Y-123120901D01*
X169540446Y-123103252D01*
X169589224Y-123043815D01*
X169632435Y-122986595D01*
X169647321Y-122973024D01*
X169663640Y-122953140D01*
X169718709Y-122907945D01*
X169767452Y-122863511D01*
X169789448Y-122849891D01*
X169813752Y-122829946D01*
X169871594Y-122799028D01*
X169922788Y-122767331D01*
X169952252Y-122755916D01*
X169985014Y-122738405D01*
X170042344Y-122721013D01*
X170093154Y-122701330D01*
X170129839Y-122694472D01*
X170170844Y-122682034D01*
X170224825Y-122676717D01*
X170272750Y-122667759D01*
X170315781Y-122667759D01*
X170364100Y-122663000D01*
X170412419Y-122667759D01*
G37*
G36*
X170666419Y-120127759D02*
G01*
X170709450Y-120127759D01*
X170757374Y-120136717D01*
X170811356Y-120142034D01*
X170852361Y-120154472D01*
X170889045Y-120161330D01*
X170939850Y-120181012D01*
X170997186Y-120198405D01*
X171029949Y-120215917D01*
X171059411Y-120227331D01*
X171110598Y-120259024D01*
X171168448Y-120289946D01*
X171192754Y-120309893D01*
X171214747Y-120323511D01*
X171263480Y-120367936D01*
X171318560Y-120413140D01*
X171334881Y-120433028D01*
X171349764Y-120446595D01*
X171392962Y-120503799D01*
X171441754Y-120563252D01*
X171451190Y-120580906D01*
X171459870Y-120592400D01*
X171494409Y-120661763D01*
X171533295Y-120734514D01*
X171537441Y-120748183D01*
X171541307Y-120755946D01*
X171564142Y-120836205D01*
X171589666Y-120920344D01*
X171590504Y-120928856D01*
X171591306Y-120931674D01*
X171599640Y-121021615D01*
X171608700Y-121113600D01*
X171599639Y-121205592D01*
X171591306Y-121295525D01*
X171590504Y-121298341D01*
X171589666Y-121306856D01*
X171564138Y-121391009D01*
X171541307Y-121471253D01*
X171537442Y-121479014D01*
X171533295Y-121492686D01*
X171494402Y-121565449D01*
X171459870Y-121634799D01*
X171451192Y-121646290D01*
X171441754Y-121663948D01*
X171392953Y-121723411D01*
X171349764Y-121780604D01*
X171334885Y-121794167D01*
X171318560Y-121814060D01*
X171263469Y-121859272D01*
X171214747Y-121903688D01*
X171192759Y-121917302D01*
X171168448Y-121937254D01*
X171110586Y-121968181D01*
X171059411Y-121999868D01*
X171029956Y-122011278D01*
X170997186Y-122028795D01*
X170939838Y-122046191D01*
X170889045Y-122065869D01*
X170852368Y-122072725D01*
X170811356Y-122085166D01*
X170757371Y-122090483D01*
X170709450Y-122099441D01*
X170666419Y-122099441D01*
X170618100Y-122104200D01*
X170569781Y-122099441D01*
X170526750Y-122099441D01*
X170478828Y-122090482D01*
X170424844Y-122085166D01*
X170383832Y-122072725D01*
X170347154Y-122065869D01*
X170296356Y-122046189D01*
X170239014Y-122028795D01*
X170206246Y-122011280D01*
X170176788Y-121999868D01*
X170125606Y-121968177D01*
X170067752Y-121937254D01*
X170043443Y-121917304D01*
X170021452Y-121903688D01*
X169972720Y-121859263D01*
X169917640Y-121814060D01*
X169901317Y-121794171D01*
X169886435Y-121780604D01*
X169843234Y-121723396D01*
X169794446Y-121663948D01*
X169785010Y-121646295D01*
X169776329Y-121634799D01*
X169741783Y-121565422D01*
X169702905Y-121492686D01*
X169698759Y-121479019D01*
X169694892Y-121471253D01*
X169672045Y-121390956D01*
X169646534Y-121306856D01*
X169645695Y-121298347D01*
X169644893Y-121295525D01*
X169636543Y-121205420D01*
X169627500Y-121113600D01*
X169636542Y-121021787D01*
X169644893Y-120931674D01*
X169645696Y-120928851D01*
X169646534Y-120920344D01*
X169672040Y-120836258D01*
X169694892Y-120755946D01*
X169698760Y-120748177D01*
X169702905Y-120734514D01*
X169741776Y-120661791D01*
X169776329Y-120592400D01*
X169785012Y-120580901D01*
X169794446Y-120563252D01*
X169843224Y-120503815D01*
X169886435Y-120446595D01*
X169901321Y-120433024D01*
X169917640Y-120413140D01*
X169972709Y-120367945D01*
X170021452Y-120323511D01*
X170043448Y-120309891D01*
X170067752Y-120289946D01*
X170125594Y-120259028D01*
X170176788Y-120227331D01*
X170206252Y-120215916D01*
X170239014Y-120198405D01*
X170296344Y-120181013D01*
X170347154Y-120161330D01*
X170383839Y-120154472D01*
X170424844Y-120142034D01*
X170478825Y-120136717D01*
X170526750Y-120127759D01*
X170569781Y-120127759D01*
X170618100Y-120123000D01*
X170666419Y-120127759D01*
G37*
G36*
X170412419Y-117587759D02*
G01*
X170455450Y-117587759D01*
X170503374Y-117596717D01*
X170557356Y-117602034D01*
X170598361Y-117614472D01*
X170635045Y-117621330D01*
X170685850Y-117641012D01*
X170743186Y-117658405D01*
X170775949Y-117675917D01*
X170805411Y-117687331D01*
X170856598Y-117719024D01*
X170914448Y-117749946D01*
X170938754Y-117769893D01*
X170960747Y-117783511D01*
X171009480Y-117827936D01*
X171064560Y-117873140D01*
X171080881Y-117893028D01*
X171095764Y-117906595D01*
X171138962Y-117963799D01*
X171187754Y-118023252D01*
X171197190Y-118040906D01*
X171205870Y-118052400D01*
X171240409Y-118121763D01*
X171279295Y-118194514D01*
X171283441Y-118208183D01*
X171287307Y-118215946D01*
X171310142Y-118296205D01*
X171335666Y-118380344D01*
X171336504Y-118388856D01*
X171337306Y-118391674D01*
X171345640Y-118481615D01*
X171354700Y-118573600D01*
X171345639Y-118665592D01*
X171337306Y-118755525D01*
X171336504Y-118758341D01*
X171335666Y-118766856D01*
X171310138Y-118851009D01*
X171287307Y-118931253D01*
X171283442Y-118939014D01*
X171279295Y-118952686D01*
X171240402Y-119025449D01*
X171205870Y-119094799D01*
X171197192Y-119106290D01*
X171187754Y-119123948D01*
X171138953Y-119183411D01*
X171095764Y-119240604D01*
X171080885Y-119254167D01*
X171064560Y-119274060D01*
X171009469Y-119319272D01*
X170960747Y-119363688D01*
X170938759Y-119377302D01*
X170914448Y-119397254D01*
X170856586Y-119428181D01*
X170805411Y-119459868D01*
X170775956Y-119471278D01*
X170743186Y-119488795D01*
X170685838Y-119506191D01*
X170635045Y-119525869D01*
X170598368Y-119532725D01*
X170557356Y-119545166D01*
X170503371Y-119550483D01*
X170455450Y-119559441D01*
X170412419Y-119559441D01*
X170364100Y-119564200D01*
X170315781Y-119559441D01*
X170272750Y-119559441D01*
X170224828Y-119550482D01*
X170170844Y-119545166D01*
X170129832Y-119532725D01*
X170093154Y-119525869D01*
X170042356Y-119506189D01*
X169985014Y-119488795D01*
X169952246Y-119471280D01*
X169922788Y-119459868D01*
X169871606Y-119428177D01*
X169813752Y-119397254D01*
X169789443Y-119377304D01*
X169767452Y-119363688D01*
X169718720Y-119319263D01*
X169663640Y-119274060D01*
X169647317Y-119254171D01*
X169632435Y-119240604D01*
X169589234Y-119183396D01*
X169540446Y-119123948D01*
X169531010Y-119106295D01*
X169522329Y-119094799D01*
X169487783Y-119025422D01*
X169448905Y-118952686D01*
X169444759Y-118939019D01*
X169440892Y-118931253D01*
X169418045Y-118850956D01*
X169392534Y-118766856D01*
X169391695Y-118758347D01*
X169390893Y-118755525D01*
X169382543Y-118665420D01*
X169373500Y-118573600D01*
X169382542Y-118481787D01*
X169390893Y-118391674D01*
X169391696Y-118388851D01*
X169392534Y-118380344D01*
X169418040Y-118296258D01*
X169440892Y-118215946D01*
X169444760Y-118208177D01*
X169448905Y-118194514D01*
X169487776Y-118121791D01*
X169522329Y-118052400D01*
X169531012Y-118040901D01*
X169540446Y-118023252D01*
X169589224Y-117963815D01*
X169632435Y-117906595D01*
X169647321Y-117893024D01*
X169663640Y-117873140D01*
X169718709Y-117827945D01*
X169767452Y-117783511D01*
X169789448Y-117769891D01*
X169813752Y-117749946D01*
X169871594Y-117719028D01*
X169922788Y-117687331D01*
X169952252Y-117675916D01*
X169985014Y-117658405D01*
X170042344Y-117641013D01*
X170093154Y-117621330D01*
X170129839Y-117614472D01*
X170170844Y-117602034D01*
X170224825Y-117596717D01*
X170272750Y-117587759D01*
X170315781Y-117587759D01*
X170364100Y-117583000D01*
X170412419Y-117587759D01*
G37*
G36*
X171577340Y-115046867D02*
G01*
X171593821Y-115057879D01*
X171604833Y-115074360D01*
X171608700Y-115093800D01*
X171608700Y-116973400D01*
X171604833Y-116992840D01*
X171593821Y-117009321D01*
X171577340Y-117020333D01*
X171557900Y-117024200D01*
X169678300Y-117024200D01*
X169658860Y-117020333D01*
X169642379Y-117009321D01*
X169631367Y-116992840D01*
X169627500Y-116973400D01*
X169627500Y-115093800D01*
X169631367Y-115074360D01*
X169642379Y-115057879D01*
X169658860Y-115046867D01*
X169678300Y-115043000D01*
X171557900Y-115043000D01*
X171577340Y-115046867D01*
G37*
G36*
X170285419Y-112507759D02*
G01*
X170328450Y-112507759D01*
X170376374Y-112516717D01*
X170430356Y-112522034D01*
X170471361Y-112534472D01*
X170508045Y-112541330D01*
X170558850Y-112561012D01*
X170616186Y-112578405D01*
X170648949Y-112595917D01*
X170678411Y-112607331D01*
X170729598Y-112639024D01*
X170787448Y-112669946D01*
X170811754Y-112689893D01*
X170833747Y-112703511D01*
X170882480Y-112747936D01*
X170937560Y-112793140D01*
X170953881Y-112813028D01*
X170968764Y-112826595D01*
X171011962Y-112883799D01*
X171060754Y-112943252D01*
X171070190Y-112960906D01*
X171078870Y-112972400D01*
X171113409Y-113041763D01*
X171152295Y-113114514D01*
X171156441Y-113128183D01*
X171160307Y-113135946D01*
X171183142Y-113216205D01*
X171208666Y-113300344D01*
X171209504Y-113308856D01*
X171210306Y-113311674D01*
X171218641Y-113401623D01*
X171227700Y-113493600D01*
X171218638Y-113585600D01*
X171210306Y-113675525D01*
X171209504Y-113678341D01*
X171208666Y-113686856D01*
X171183138Y-113771009D01*
X171160307Y-113851253D01*
X171156442Y-113859014D01*
X171152295Y-113872686D01*
X171113402Y-113945449D01*
X171078870Y-114014799D01*
X171070192Y-114026290D01*
X171060754Y-114043948D01*
X171011953Y-114103411D01*
X170968764Y-114160604D01*
X170953885Y-114174167D01*
X170937560Y-114194060D01*
X170882469Y-114239272D01*
X170833747Y-114283688D01*
X170811759Y-114297302D01*
X170787448Y-114317254D01*
X170729586Y-114348181D01*
X170678411Y-114379868D01*
X170648956Y-114391278D01*
X170616186Y-114408795D01*
X170558838Y-114426191D01*
X170508045Y-114445869D01*
X170471368Y-114452725D01*
X170430356Y-114465166D01*
X170376371Y-114470483D01*
X170328450Y-114479441D01*
X170285419Y-114479441D01*
X170237100Y-114484200D01*
X170188781Y-114479441D01*
X170145750Y-114479441D01*
X170097828Y-114470482D01*
X170043844Y-114465166D01*
X170002832Y-114452725D01*
X169966154Y-114445869D01*
X169915356Y-114426189D01*
X169858014Y-114408795D01*
X169825246Y-114391280D01*
X169795788Y-114379868D01*
X169744606Y-114348177D01*
X169686752Y-114317254D01*
X169662443Y-114297304D01*
X169640452Y-114283688D01*
X169591720Y-114239263D01*
X169536640Y-114194060D01*
X169520317Y-114174171D01*
X169505435Y-114160604D01*
X169462234Y-114103396D01*
X169413446Y-114043948D01*
X169404010Y-114026295D01*
X169395329Y-114014799D01*
X169360783Y-113945422D01*
X169321905Y-113872686D01*
X169317759Y-113859019D01*
X169313892Y-113851253D01*
X169291045Y-113770956D01*
X169265534Y-113686856D01*
X169264695Y-113678347D01*
X169263893Y-113675525D01*
X169255543Y-113585420D01*
X169246500Y-113493600D01*
X169255542Y-113401787D01*
X169263893Y-113311674D01*
X169264696Y-113308851D01*
X169265534Y-113300344D01*
X169291040Y-113216258D01*
X169313892Y-113135946D01*
X169317760Y-113128177D01*
X169321905Y-113114514D01*
X169360776Y-113041791D01*
X169395329Y-112972400D01*
X169404012Y-112960901D01*
X169413446Y-112943252D01*
X169462224Y-112883815D01*
X169505435Y-112826595D01*
X169520321Y-112813024D01*
X169536640Y-112793140D01*
X169591709Y-112747945D01*
X169640452Y-112703511D01*
X169662448Y-112689891D01*
X169686752Y-112669946D01*
X169744594Y-112639028D01*
X169795788Y-112607331D01*
X169825252Y-112595916D01*
X169858014Y-112578405D01*
X169915344Y-112561013D01*
X169966154Y-112541330D01*
X170002839Y-112534472D01*
X170043844Y-112522034D01*
X170097825Y-112516717D01*
X170145750Y-112507759D01*
X170188781Y-112507759D01*
X170237100Y-112503000D01*
X170285419Y-112507759D01*
G37*
G36*
X166230640Y-113116467D02*
G01*
X166247121Y-113127479D01*
X166258133Y-113143960D01*
X166262000Y-113163400D01*
X166262000Y-114331800D01*
X166258133Y-114351240D01*
X166247121Y-114367721D01*
X166230640Y-114378733D01*
X166211200Y-114382600D01*
X164611000Y-114382600D01*
X164591560Y-114378733D01*
X164575079Y-114367721D01*
X164564067Y-114351240D01*
X164560200Y-114331800D01*
X164560200Y-113163400D01*
X164564067Y-113143960D01*
X164575079Y-113127479D01*
X164591560Y-113116467D01*
X164611000Y-113112600D01*
X166211200Y-113112600D01*
X166230640Y-113116467D01*
G37*
G36*
X166230640Y-111592467D02*
G01*
X166247121Y-111603479D01*
X166258133Y-111619960D01*
X166262000Y-111639400D01*
X166262000Y-112807800D01*
X166258133Y-112827240D01*
X166247121Y-112843721D01*
X166230640Y-112854733D01*
X166211200Y-112858600D01*
X164611000Y-112858600D01*
X164591560Y-112854733D01*
X164575079Y-112843721D01*
X164564067Y-112827240D01*
X164560200Y-112807800D01*
X164560200Y-111639400D01*
X164564067Y-111619960D01*
X164575079Y-111603479D01*
X164591560Y-111592467D01*
X164611000Y-111588600D01*
X166211200Y-111588600D01*
X166230640Y-111592467D01*
G37*
G36*
X127043983Y-110355936D02*
G01*
X127094180Y-110355936D01*
X127137524Y-110365149D01*
X127175659Y-110368905D01*
X127223566Y-110383437D01*
X127278424Y-110395098D01*
X127313530Y-110410728D01*
X127344566Y-110420143D01*
X127393884Y-110446504D01*
X127450500Y-110471711D01*
X127476822Y-110490835D01*
X127500232Y-110503348D01*
X127547988Y-110542540D01*
X127602887Y-110582427D01*
X127620711Y-110602223D01*
X127636675Y-110615324D01*
X127679572Y-110667594D01*
X127728924Y-110722405D01*
X127739292Y-110740363D01*
X127748651Y-110751767D01*
X127783273Y-110816542D01*
X127823104Y-110885530D01*
X127827685Y-110899630D01*
X127831856Y-110907433D01*
X127854852Y-110983242D01*
X127881311Y-111064672D01*
X127882242Y-111073532D01*
X127883094Y-111076340D01*
X127891385Y-111160520D01*
X127901000Y-111252000D01*
X127891382Y-111343501D01*
X127883094Y-111427659D01*
X127882242Y-111430466D01*
X127881311Y-111439328D01*
X127854848Y-111520771D01*
X127831856Y-111596566D01*
X127827686Y-111604366D01*
X127823104Y-111618470D01*
X127783266Y-111687470D01*
X127748651Y-111752232D01*
X127739294Y-111763633D01*
X127728924Y-111781595D01*
X127679563Y-111836415D01*
X127636675Y-111888675D01*
X127620714Y-111901773D01*
X127602887Y-111921573D01*
X127547977Y-111961467D01*
X127500232Y-112000651D01*
X127476827Y-112013161D01*
X127450500Y-112032289D01*
X127393873Y-112057500D01*
X127344566Y-112083856D01*
X127313537Y-112093268D01*
X127278424Y-112108902D01*
X127223555Y-112120564D01*
X127175659Y-112135094D01*
X127137533Y-112138849D01*
X127094180Y-112148064D01*
X127043972Y-112148064D01*
X126999999Y-112152395D01*
X126956026Y-112148064D01*
X126905820Y-112148064D01*
X126862467Y-112138849D01*
X126824340Y-112135094D01*
X126776441Y-112120563D01*
X126721576Y-112108902D01*
X126686464Y-112093269D01*
X126655433Y-112083856D01*
X126606120Y-112057498D01*
X126549500Y-112032289D01*
X126523175Y-112013163D01*
X126499767Y-112000651D01*
X126452013Y-111961460D01*
X126397113Y-111921573D01*
X126379287Y-111901776D01*
X126363324Y-111888675D01*
X126320425Y-111836402D01*
X126271076Y-111781595D01*
X126260708Y-111763637D01*
X126251348Y-111752232D01*
X126216719Y-111687447D01*
X126176896Y-111618470D01*
X126172315Y-111604371D01*
X126168143Y-111596566D01*
X126145136Y-111520725D01*
X126118689Y-111439328D01*
X126117758Y-111430471D01*
X126116905Y-111427659D01*
X126108601Y-111343349D01*
X126099000Y-111252000D01*
X126108598Y-111160672D01*
X126116905Y-111076340D01*
X126117758Y-111073527D01*
X126118689Y-111064672D01*
X126145132Y-110983288D01*
X126168143Y-110907433D01*
X126172315Y-110899626D01*
X126176896Y-110885530D01*
X126216712Y-110816565D01*
X126251348Y-110751767D01*
X126260710Y-110740359D01*
X126271076Y-110722405D01*
X126320416Y-110667607D01*
X126363324Y-110615324D01*
X126379291Y-110602219D01*
X126397113Y-110582427D01*
X126452002Y-110542546D01*
X126499767Y-110503348D01*
X126523180Y-110490833D01*
X126549500Y-110471711D01*
X126606109Y-110446506D01*
X126655433Y-110420143D01*
X126686471Y-110410727D01*
X126721576Y-110395098D01*
X126776430Y-110383438D01*
X126824340Y-110368905D01*
X126862476Y-110365148D01*
X126905820Y-110355936D01*
X126956016Y-110355936D01*
X126999999Y-110351604D01*
X127043983Y-110355936D01*
G37*
G36*
X134043983Y-110355936D02*
G01*
X134094180Y-110355936D01*
X134137524Y-110365149D01*
X134175659Y-110368905D01*
X134223566Y-110383437D01*
X134278424Y-110395098D01*
X134313530Y-110410728D01*
X134344566Y-110420143D01*
X134393884Y-110446504D01*
X134450500Y-110471711D01*
X134476822Y-110490835D01*
X134500232Y-110503348D01*
X134547988Y-110542540D01*
X134602887Y-110582427D01*
X134620711Y-110602223D01*
X134636675Y-110615324D01*
X134679572Y-110667594D01*
X134728924Y-110722405D01*
X134739292Y-110740363D01*
X134748651Y-110751767D01*
X134783273Y-110816542D01*
X134823104Y-110885530D01*
X134827685Y-110899630D01*
X134831856Y-110907433D01*
X134854852Y-110983242D01*
X134881311Y-111064672D01*
X134882242Y-111073532D01*
X134883094Y-111076340D01*
X134891385Y-111160520D01*
X134901000Y-111252000D01*
X134891382Y-111343501D01*
X134883094Y-111427659D01*
X134882242Y-111430466D01*
X134881311Y-111439328D01*
X134854848Y-111520771D01*
X134831856Y-111596566D01*
X134827686Y-111604366D01*
X134823104Y-111618470D01*
X134783266Y-111687470D01*
X134748651Y-111752232D01*
X134739294Y-111763633D01*
X134728924Y-111781595D01*
X134679563Y-111836415D01*
X134636675Y-111888675D01*
X134620714Y-111901773D01*
X134602887Y-111921573D01*
X134547977Y-111961467D01*
X134500232Y-112000651D01*
X134476827Y-112013161D01*
X134450500Y-112032289D01*
X134393873Y-112057500D01*
X134344566Y-112083856D01*
X134313537Y-112093268D01*
X134278424Y-112108902D01*
X134223555Y-112120564D01*
X134175659Y-112135094D01*
X134137532Y-112138849D01*
X134094180Y-112148064D01*
X134043973Y-112148064D01*
X134000000Y-112152395D01*
X133956027Y-112148064D01*
X133905820Y-112148064D01*
X133862467Y-112138849D01*
X133824340Y-112135094D01*
X133776441Y-112120563D01*
X133721576Y-112108902D01*
X133686464Y-112093269D01*
X133655433Y-112083856D01*
X133606120Y-112057498D01*
X133549500Y-112032289D01*
X133523175Y-112013163D01*
X133499767Y-112000651D01*
X133452013Y-111961460D01*
X133397113Y-111921573D01*
X133379287Y-111901776D01*
X133363324Y-111888675D01*
X133320425Y-111836402D01*
X133271076Y-111781595D01*
X133260708Y-111763637D01*
X133251348Y-111752232D01*
X133216719Y-111687447D01*
X133176896Y-111618470D01*
X133172315Y-111604371D01*
X133168143Y-111596566D01*
X133145136Y-111520725D01*
X133118689Y-111439328D01*
X133117758Y-111430471D01*
X133116905Y-111427659D01*
X133108601Y-111343349D01*
X133099000Y-111252000D01*
X133108598Y-111160672D01*
X133116905Y-111076340D01*
X133117758Y-111073527D01*
X133118689Y-111064672D01*
X133145132Y-110983288D01*
X133168143Y-110907433D01*
X133172315Y-110899626D01*
X133176896Y-110885530D01*
X133216712Y-110816565D01*
X133251348Y-110751767D01*
X133260710Y-110740359D01*
X133271076Y-110722405D01*
X133320416Y-110667607D01*
X133363324Y-110615324D01*
X133379291Y-110602219D01*
X133397113Y-110582427D01*
X133452002Y-110542546D01*
X133499767Y-110503348D01*
X133523180Y-110490833D01*
X133549500Y-110471711D01*
X133606109Y-110446506D01*
X133655433Y-110420143D01*
X133686471Y-110410727D01*
X133721576Y-110395098D01*
X133776430Y-110383438D01*
X133824340Y-110368905D01*
X133862476Y-110365148D01*
X133905820Y-110355936D01*
X133956016Y-110355936D01*
X134000000Y-110351604D01*
X134043983Y-110355936D01*
G37*
G36*
X170539419Y-109967759D02*
G01*
X170582450Y-109967759D01*
X170630374Y-109976717D01*
X170684356Y-109982034D01*
X170725361Y-109994472D01*
X170762045Y-110001330D01*
X170812850Y-110021012D01*
X170870186Y-110038405D01*
X170902949Y-110055917D01*
X170932411Y-110067331D01*
X170983598Y-110099024D01*
X171041448Y-110129946D01*
X171065754Y-110149893D01*
X171087747Y-110163511D01*
X171136480Y-110207936D01*
X171191560Y-110253140D01*
X171207881Y-110273028D01*
X171222764Y-110286595D01*
X171265962Y-110343799D01*
X171314754Y-110403252D01*
X171324190Y-110420906D01*
X171332870Y-110432400D01*
X171367409Y-110501763D01*
X171406295Y-110574514D01*
X171410441Y-110588183D01*
X171414307Y-110595946D01*
X171437142Y-110676205D01*
X171462666Y-110760344D01*
X171463504Y-110768856D01*
X171464306Y-110771674D01*
X171472641Y-110861623D01*
X171481700Y-110953600D01*
X171472638Y-111045600D01*
X171464306Y-111135525D01*
X171463504Y-111138341D01*
X171462666Y-111146856D01*
X171437138Y-111231009D01*
X171414307Y-111311253D01*
X171410442Y-111319014D01*
X171406295Y-111332686D01*
X171367402Y-111405449D01*
X171332870Y-111474799D01*
X171324192Y-111486290D01*
X171314754Y-111503948D01*
X171265953Y-111563411D01*
X171222764Y-111620604D01*
X171207885Y-111634167D01*
X171191560Y-111654060D01*
X171136469Y-111699272D01*
X171087747Y-111743688D01*
X171065759Y-111757302D01*
X171041448Y-111777254D01*
X170983586Y-111808181D01*
X170932411Y-111839868D01*
X170902956Y-111851278D01*
X170870186Y-111868795D01*
X170812838Y-111886191D01*
X170762045Y-111905869D01*
X170725368Y-111912725D01*
X170684356Y-111925166D01*
X170630371Y-111930483D01*
X170582450Y-111939441D01*
X170539419Y-111939441D01*
X170491100Y-111944200D01*
X170442781Y-111939441D01*
X170399750Y-111939441D01*
X170351828Y-111930482D01*
X170297844Y-111925166D01*
X170256832Y-111912725D01*
X170220154Y-111905869D01*
X170169356Y-111886189D01*
X170112014Y-111868795D01*
X170079246Y-111851280D01*
X170049788Y-111839868D01*
X169998606Y-111808177D01*
X169940752Y-111777254D01*
X169916443Y-111757304D01*
X169894452Y-111743688D01*
X169845720Y-111699263D01*
X169790640Y-111654060D01*
X169774317Y-111634171D01*
X169759435Y-111620604D01*
X169716234Y-111563396D01*
X169667446Y-111503948D01*
X169658010Y-111486295D01*
X169649329Y-111474799D01*
X169614783Y-111405422D01*
X169575905Y-111332686D01*
X169571759Y-111319019D01*
X169567892Y-111311253D01*
X169545045Y-111230956D01*
X169519534Y-111146856D01*
X169518695Y-111138347D01*
X169517893Y-111135525D01*
X169509543Y-111045420D01*
X169500500Y-110953600D01*
X169509542Y-110861787D01*
X169517893Y-110771674D01*
X169518696Y-110768851D01*
X169519534Y-110760344D01*
X169545040Y-110676258D01*
X169567892Y-110595946D01*
X169571760Y-110588177D01*
X169575905Y-110574514D01*
X169614776Y-110501791D01*
X169649329Y-110432400D01*
X169658012Y-110420901D01*
X169667446Y-110403252D01*
X169716224Y-110343815D01*
X169759435Y-110286595D01*
X169774321Y-110273024D01*
X169790640Y-110253140D01*
X169845709Y-110207945D01*
X169894452Y-110163511D01*
X169916448Y-110149891D01*
X169940752Y-110129946D01*
X169998594Y-110099028D01*
X170049788Y-110067331D01*
X170079252Y-110055916D01*
X170112014Y-110038405D01*
X170169344Y-110021013D01*
X170220154Y-110001330D01*
X170256839Y-109994472D01*
X170297844Y-109982034D01*
X170351825Y-109976717D01*
X170399750Y-109967759D01*
X170442781Y-109967759D01*
X170491100Y-109963000D01*
X170539419Y-109967759D01*
G37*
G36*
X166230640Y-110068467D02*
G01*
X166247121Y-110079479D01*
X166258133Y-110095960D01*
X166262000Y-110115400D01*
X166262000Y-111283800D01*
X166258133Y-111303240D01*
X166247121Y-111319721D01*
X166230640Y-111330733D01*
X166211200Y-111334600D01*
X164611000Y-111334600D01*
X164591560Y-111330733D01*
X164575079Y-111319721D01*
X164564067Y-111303240D01*
X164560200Y-111283800D01*
X164560200Y-110115400D01*
X164564067Y-110095960D01*
X164575079Y-110079479D01*
X164591560Y-110068467D01*
X164611000Y-110064600D01*
X166211200Y-110064600D01*
X166230640Y-110068467D01*
G37*
G36*
X170285419Y-107427759D02*
G01*
X170328450Y-107427759D01*
X170376374Y-107436717D01*
X170430356Y-107442034D01*
X170471361Y-107454472D01*
X170508045Y-107461330D01*
X170558850Y-107481012D01*
X170616186Y-107498405D01*
X170648949Y-107515917D01*
X170678411Y-107527331D01*
X170729598Y-107559024D01*
X170787448Y-107589946D01*
X170811754Y-107609893D01*
X170833747Y-107623511D01*
X170882480Y-107667936D01*
X170937560Y-107713140D01*
X170953881Y-107733028D01*
X170968764Y-107746595D01*
X171011962Y-107803799D01*
X171060754Y-107863252D01*
X171070190Y-107880906D01*
X171078870Y-107892400D01*
X171113409Y-107961763D01*
X171152295Y-108034514D01*
X171156441Y-108048183D01*
X171160307Y-108055946D01*
X171183142Y-108136205D01*
X171208666Y-108220344D01*
X171209504Y-108228856D01*
X171210306Y-108231674D01*
X171218641Y-108321623D01*
X171227700Y-108413600D01*
X171218638Y-108505600D01*
X171210306Y-108595525D01*
X171209504Y-108598341D01*
X171208666Y-108606856D01*
X171183138Y-108691009D01*
X171160307Y-108771253D01*
X171156442Y-108779014D01*
X171152295Y-108792686D01*
X171113402Y-108865449D01*
X171078870Y-108934799D01*
X171070192Y-108946290D01*
X171060754Y-108963948D01*
X171011953Y-109023411D01*
X170968764Y-109080604D01*
X170953885Y-109094167D01*
X170937560Y-109114060D01*
X170882469Y-109159272D01*
X170833747Y-109203688D01*
X170811759Y-109217302D01*
X170787448Y-109237254D01*
X170729586Y-109268181D01*
X170678411Y-109299868D01*
X170648956Y-109311278D01*
X170616186Y-109328795D01*
X170558838Y-109346191D01*
X170508045Y-109365869D01*
X170471368Y-109372725D01*
X170430356Y-109385166D01*
X170376371Y-109390483D01*
X170328450Y-109399441D01*
X170285419Y-109399441D01*
X170237100Y-109404200D01*
X170188781Y-109399441D01*
X170145750Y-109399441D01*
X170097828Y-109390482D01*
X170043844Y-109385166D01*
X170002832Y-109372725D01*
X169966154Y-109365869D01*
X169915356Y-109346189D01*
X169858014Y-109328795D01*
X169825246Y-109311280D01*
X169795788Y-109299868D01*
X169744606Y-109268177D01*
X169686752Y-109237254D01*
X169662443Y-109217304D01*
X169640452Y-109203688D01*
X169591720Y-109159263D01*
X169536640Y-109114060D01*
X169520317Y-109094171D01*
X169505435Y-109080604D01*
X169462234Y-109023396D01*
X169413446Y-108963948D01*
X169404010Y-108946295D01*
X169395329Y-108934799D01*
X169360783Y-108865422D01*
X169321905Y-108792686D01*
X169317759Y-108779019D01*
X169313892Y-108771253D01*
X169291045Y-108690956D01*
X169265534Y-108606856D01*
X169264695Y-108598347D01*
X169263893Y-108595525D01*
X169255544Y-108505428D01*
X169246500Y-108413600D01*
X169255541Y-108321795D01*
X169263893Y-108231674D01*
X169264696Y-108228851D01*
X169265534Y-108220344D01*
X169291040Y-108136258D01*
X169313892Y-108055946D01*
X169317760Y-108048177D01*
X169321905Y-108034514D01*
X169360776Y-107961791D01*
X169395329Y-107892400D01*
X169404012Y-107880901D01*
X169413446Y-107863252D01*
X169462224Y-107803815D01*
X169505435Y-107746595D01*
X169520321Y-107733024D01*
X169536640Y-107713140D01*
X169591709Y-107667945D01*
X169640452Y-107623511D01*
X169662448Y-107609891D01*
X169686752Y-107589946D01*
X169744594Y-107559028D01*
X169795788Y-107527331D01*
X169825252Y-107515916D01*
X169858014Y-107498405D01*
X169915344Y-107481013D01*
X169966154Y-107461330D01*
X170002839Y-107454472D01*
X170043844Y-107442034D01*
X170097825Y-107436717D01*
X170145750Y-107427759D01*
X170188781Y-107427759D01*
X170237100Y-107423000D01*
X170285419Y-107427759D01*
G37*
G36*
X166230640Y-107401467D02*
G01*
X166247121Y-107412479D01*
X166258133Y-107428960D01*
X166262000Y-107448400D01*
X166262000Y-108616800D01*
X166258133Y-108636240D01*
X166247121Y-108652721D01*
X166230640Y-108663733D01*
X166211200Y-108667600D01*
X164611000Y-108667600D01*
X164591560Y-108663733D01*
X164575079Y-108652721D01*
X164564067Y-108636240D01*
X164560200Y-108616800D01*
X164560200Y-107448400D01*
X164564067Y-107428960D01*
X164575079Y-107412479D01*
X164591560Y-107401467D01*
X164611000Y-107397600D01*
X166211200Y-107397600D01*
X166230640Y-107401467D01*
G37*
G36*
X166230640Y-105877467D02*
G01*
X166247121Y-105888479D01*
X166258133Y-105904960D01*
X166262000Y-105924400D01*
X166262000Y-107092800D01*
X166258133Y-107112240D01*
X166247121Y-107128721D01*
X166230640Y-107139733D01*
X166211200Y-107143600D01*
X164611000Y-107143600D01*
X164591560Y-107139733D01*
X164575079Y-107128721D01*
X164564067Y-107112240D01*
X164560200Y-107092800D01*
X164560200Y-105924400D01*
X164564067Y-105904960D01*
X164575079Y-105888479D01*
X164591560Y-105877467D01*
X164611000Y-105873600D01*
X166211200Y-105873600D01*
X166230640Y-105877467D01*
G37*
G36*
X170539419Y-104887759D02*
G01*
X170582450Y-104887759D01*
X170630374Y-104896717D01*
X170684356Y-104902034D01*
X170725361Y-104914472D01*
X170762045Y-104921330D01*
X170812850Y-104941012D01*
X170870186Y-104958405D01*
X170902949Y-104975917D01*
X170932411Y-104987331D01*
X170983598Y-105019024D01*
X171041448Y-105049946D01*
X171065754Y-105069893D01*
X171087747Y-105083511D01*
X171136480Y-105127936D01*
X171191560Y-105173140D01*
X171207881Y-105193028D01*
X171222764Y-105206595D01*
X171265962Y-105263799D01*
X171314754Y-105323252D01*
X171324190Y-105340906D01*
X171332870Y-105352400D01*
X171367409Y-105421763D01*
X171406295Y-105494514D01*
X171410441Y-105508183D01*
X171414307Y-105515946D01*
X171437142Y-105596205D01*
X171462666Y-105680344D01*
X171463504Y-105688856D01*
X171464306Y-105691674D01*
X171472640Y-105781615D01*
X171481700Y-105873600D01*
X171472639Y-105965592D01*
X171464306Y-106055525D01*
X171463504Y-106058341D01*
X171462666Y-106066856D01*
X171437138Y-106151009D01*
X171414307Y-106231253D01*
X171410442Y-106239014D01*
X171406295Y-106252686D01*
X171367402Y-106325449D01*
X171332870Y-106394799D01*
X171324192Y-106406290D01*
X171314754Y-106423948D01*
X171265953Y-106483411D01*
X171222764Y-106540604D01*
X171207885Y-106554167D01*
X171191560Y-106574060D01*
X171136469Y-106619272D01*
X171087747Y-106663688D01*
X171065759Y-106677302D01*
X171041448Y-106697254D01*
X170983586Y-106728181D01*
X170932411Y-106759868D01*
X170902956Y-106771278D01*
X170870186Y-106788795D01*
X170812838Y-106806191D01*
X170762045Y-106825869D01*
X170725368Y-106832725D01*
X170684356Y-106845166D01*
X170630371Y-106850483D01*
X170582450Y-106859441D01*
X170539419Y-106859441D01*
X170491100Y-106864200D01*
X170442781Y-106859441D01*
X170399750Y-106859441D01*
X170351828Y-106850482D01*
X170297844Y-106845166D01*
X170256832Y-106832725D01*
X170220154Y-106825869D01*
X170169356Y-106806189D01*
X170112014Y-106788795D01*
X170079246Y-106771280D01*
X170049788Y-106759868D01*
X169998606Y-106728177D01*
X169940752Y-106697254D01*
X169916443Y-106677304D01*
X169894452Y-106663688D01*
X169845720Y-106619263D01*
X169790640Y-106574060D01*
X169774317Y-106554171D01*
X169759435Y-106540604D01*
X169716234Y-106483396D01*
X169667446Y-106423948D01*
X169658010Y-106406295D01*
X169649329Y-106394799D01*
X169614783Y-106325422D01*
X169575905Y-106252686D01*
X169571759Y-106239019D01*
X169567892Y-106231253D01*
X169545045Y-106150956D01*
X169519534Y-106066856D01*
X169518695Y-106058347D01*
X169517893Y-106055525D01*
X169509543Y-105965420D01*
X169500500Y-105873600D01*
X169509542Y-105781787D01*
X169517893Y-105691674D01*
X169518696Y-105688851D01*
X169519534Y-105680344D01*
X169545040Y-105596258D01*
X169567892Y-105515946D01*
X169571760Y-105508177D01*
X169575905Y-105494514D01*
X169614776Y-105421791D01*
X169649329Y-105352400D01*
X169658012Y-105340901D01*
X169667446Y-105323252D01*
X169716224Y-105263815D01*
X169759435Y-105206595D01*
X169774321Y-105193024D01*
X169790640Y-105173140D01*
X169845709Y-105127945D01*
X169894452Y-105083511D01*
X169916448Y-105069891D01*
X169940752Y-105049946D01*
X169998594Y-105019028D01*
X170049788Y-104987331D01*
X170079252Y-104975916D01*
X170112014Y-104958405D01*
X170169344Y-104941013D01*
X170220154Y-104921330D01*
X170256839Y-104914472D01*
X170297844Y-104902034D01*
X170351825Y-104896717D01*
X170399750Y-104887759D01*
X170442781Y-104887759D01*
X170491100Y-104883000D01*
X170539419Y-104887759D01*
G37*
G36*
X166230640Y-104353467D02*
G01*
X166247121Y-104364479D01*
X166258133Y-104380960D01*
X166262000Y-104400400D01*
X166262000Y-105568800D01*
X166258133Y-105588240D01*
X166247121Y-105604721D01*
X166230640Y-105615733D01*
X166211200Y-105619600D01*
X164611000Y-105619600D01*
X164591560Y-105615733D01*
X164575079Y-105604721D01*
X164564067Y-105588240D01*
X164560200Y-105568800D01*
X164560200Y-104400400D01*
X164564067Y-104380960D01*
X164575079Y-104364479D01*
X164591560Y-104353467D01*
X164611000Y-104349600D01*
X166211200Y-104349600D01*
X166230640Y-104353467D01*
G37*
G36*
X170285419Y-102347759D02*
G01*
X170328450Y-102347759D01*
X170376374Y-102356717D01*
X170430356Y-102362034D01*
X170471361Y-102374472D01*
X170508045Y-102381330D01*
X170558850Y-102401012D01*
X170616186Y-102418405D01*
X170648949Y-102435917D01*
X170678411Y-102447331D01*
X170729598Y-102479024D01*
X170787448Y-102509946D01*
X170811754Y-102529893D01*
X170833747Y-102543511D01*
X170882480Y-102587936D01*
X170937560Y-102633140D01*
X170953881Y-102653028D01*
X170968764Y-102666595D01*
X171011962Y-102723799D01*
X171060754Y-102783252D01*
X171070190Y-102800906D01*
X171078870Y-102812400D01*
X171113409Y-102881763D01*
X171152295Y-102954514D01*
X171156441Y-102968183D01*
X171160307Y-102975946D01*
X171183142Y-103056205D01*
X171208666Y-103140344D01*
X171209504Y-103148856D01*
X171210306Y-103151674D01*
X171218640Y-103241615D01*
X171227700Y-103333600D01*
X171218639Y-103425592D01*
X171210306Y-103515525D01*
X171209504Y-103518341D01*
X171208666Y-103526856D01*
X171183138Y-103611009D01*
X171160307Y-103691253D01*
X171156442Y-103699014D01*
X171152295Y-103712686D01*
X171113402Y-103785449D01*
X171078870Y-103854799D01*
X171070192Y-103866290D01*
X171060754Y-103883948D01*
X171011953Y-103943411D01*
X170968764Y-104000604D01*
X170953885Y-104014167D01*
X170937560Y-104034060D01*
X170882469Y-104079272D01*
X170833747Y-104123688D01*
X170811759Y-104137302D01*
X170787448Y-104157254D01*
X170729586Y-104188181D01*
X170678411Y-104219868D01*
X170648956Y-104231278D01*
X170616186Y-104248795D01*
X170558838Y-104266191D01*
X170508045Y-104285869D01*
X170471368Y-104292725D01*
X170430356Y-104305166D01*
X170376371Y-104310483D01*
X170328450Y-104319441D01*
X170285419Y-104319441D01*
X170237100Y-104324200D01*
X170188781Y-104319441D01*
X170145750Y-104319441D01*
X170097828Y-104310482D01*
X170043844Y-104305166D01*
X170002832Y-104292725D01*
X169966154Y-104285869D01*
X169915356Y-104266189D01*
X169858014Y-104248795D01*
X169825246Y-104231280D01*
X169795788Y-104219868D01*
X169744606Y-104188177D01*
X169686752Y-104157254D01*
X169662443Y-104137304D01*
X169640452Y-104123688D01*
X169591720Y-104079263D01*
X169536640Y-104034060D01*
X169520317Y-104014171D01*
X169505435Y-104000604D01*
X169462234Y-103943396D01*
X169413446Y-103883948D01*
X169404010Y-103866295D01*
X169395329Y-103854799D01*
X169360783Y-103785422D01*
X169321905Y-103712686D01*
X169317759Y-103699019D01*
X169313892Y-103691253D01*
X169291045Y-103610956D01*
X169265534Y-103526856D01*
X169264695Y-103518347D01*
X169263893Y-103515525D01*
X169255544Y-103425428D01*
X169246500Y-103333600D01*
X169255541Y-103241795D01*
X169263893Y-103151674D01*
X169264696Y-103148851D01*
X169265534Y-103140344D01*
X169291040Y-103056258D01*
X169313892Y-102975946D01*
X169317760Y-102968177D01*
X169321905Y-102954514D01*
X169360776Y-102881791D01*
X169395329Y-102812400D01*
X169404012Y-102800901D01*
X169413446Y-102783252D01*
X169462224Y-102723815D01*
X169505435Y-102666595D01*
X169520321Y-102653024D01*
X169536640Y-102633140D01*
X169591709Y-102587945D01*
X169640452Y-102543511D01*
X169662448Y-102529891D01*
X169686752Y-102509946D01*
X169744594Y-102479028D01*
X169795788Y-102447331D01*
X169825252Y-102435916D01*
X169858014Y-102418405D01*
X169915344Y-102401013D01*
X169966154Y-102381330D01*
X170002839Y-102374472D01*
X170043844Y-102362034D01*
X170097825Y-102356717D01*
X170145750Y-102347759D01*
X170188781Y-102347759D01*
X170237100Y-102343000D01*
X170285419Y-102347759D01*
G37*
G36*
X166230640Y-101686467D02*
G01*
X166247121Y-101697479D01*
X166258133Y-101713960D01*
X166262000Y-101733400D01*
X166262000Y-102901800D01*
X166258133Y-102921240D01*
X166247121Y-102937721D01*
X166230640Y-102948733D01*
X166211200Y-102952600D01*
X164611000Y-102952600D01*
X164591560Y-102948733D01*
X164575079Y-102937721D01*
X164564067Y-102921240D01*
X164560200Y-102901800D01*
X164560200Y-101733400D01*
X164564067Y-101713960D01*
X164575079Y-101697479D01*
X164591560Y-101686467D01*
X164611000Y-101682600D01*
X166211200Y-101682600D01*
X166230640Y-101686467D01*
G37*
G36*
X170539419Y-99807759D02*
G01*
X170582450Y-99807759D01*
X170630374Y-99816717D01*
X170684356Y-99822034D01*
X170725361Y-99834472D01*
X170762045Y-99841330D01*
X170812850Y-99861012D01*
X170870186Y-99878405D01*
X170902949Y-99895917D01*
X170932411Y-99907331D01*
X170983598Y-99939024D01*
X171041448Y-99969946D01*
X171065754Y-99989893D01*
X171087747Y-100003511D01*
X171136480Y-100047936D01*
X171191560Y-100093140D01*
X171207881Y-100113028D01*
X171222764Y-100126595D01*
X171265962Y-100183799D01*
X171314754Y-100243252D01*
X171324190Y-100260906D01*
X171332870Y-100272400D01*
X171367409Y-100341763D01*
X171406295Y-100414514D01*
X171410441Y-100428183D01*
X171414307Y-100435946D01*
X171437142Y-100516205D01*
X171462666Y-100600344D01*
X171463504Y-100608856D01*
X171464306Y-100611674D01*
X171472640Y-100701615D01*
X171481700Y-100793600D01*
X171472639Y-100885592D01*
X171464306Y-100975525D01*
X171463504Y-100978341D01*
X171462666Y-100986856D01*
X171437138Y-101071009D01*
X171414307Y-101151253D01*
X171410442Y-101159014D01*
X171406295Y-101172686D01*
X171367402Y-101245449D01*
X171332870Y-101314799D01*
X171324192Y-101326290D01*
X171314754Y-101343948D01*
X171265953Y-101403411D01*
X171222764Y-101460604D01*
X171207885Y-101474167D01*
X171191560Y-101494060D01*
X171136469Y-101539272D01*
X171087747Y-101583688D01*
X171065759Y-101597302D01*
X171041448Y-101617254D01*
X170983586Y-101648181D01*
X170932411Y-101679868D01*
X170902956Y-101691278D01*
X170870186Y-101708795D01*
X170812838Y-101726191D01*
X170762045Y-101745869D01*
X170725368Y-101752725D01*
X170684356Y-101765166D01*
X170630371Y-101770483D01*
X170582450Y-101779441D01*
X170539419Y-101779441D01*
X170491100Y-101784200D01*
X170442781Y-101779441D01*
X170399750Y-101779441D01*
X170351828Y-101770482D01*
X170297844Y-101765166D01*
X170256832Y-101752725D01*
X170220154Y-101745869D01*
X170169356Y-101726189D01*
X170112014Y-101708795D01*
X170079246Y-101691280D01*
X170049788Y-101679868D01*
X169998606Y-101648177D01*
X169940752Y-101617254D01*
X169916443Y-101597304D01*
X169894452Y-101583688D01*
X169845720Y-101539263D01*
X169790640Y-101494060D01*
X169774317Y-101474171D01*
X169759435Y-101460604D01*
X169716234Y-101403396D01*
X169667446Y-101343948D01*
X169658010Y-101326295D01*
X169649329Y-101314799D01*
X169614783Y-101245422D01*
X169575905Y-101172686D01*
X169571759Y-101159019D01*
X169567892Y-101151253D01*
X169545045Y-101070956D01*
X169519534Y-100986856D01*
X169518695Y-100978347D01*
X169517893Y-100975525D01*
X169509544Y-100885428D01*
X169500500Y-100793600D01*
X169509541Y-100701795D01*
X169517893Y-100611674D01*
X169518696Y-100608851D01*
X169519534Y-100600344D01*
X169545040Y-100516258D01*
X169567892Y-100435946D01*
X169571760Y-100428177D01*
X169575905Y-100414514D01*
X169614776Y-100341791D01*
X169649329Y-100272400D01*
X169658012Y-100260901D01*
X169667446Y-100243252D01*
X169716224Y-100183815D01*
X169759435Y-100126595D01*
X169774321Y-100113024D01*
X169790640Y-100093140D01*
X169845709Y-100047945D01*
X169894452Y-100003511D01*
X169916448Y-99989891D01*
X169940752Y-99969946D01*
X169998594Y-99939028D01*
X170049788Y-99907331D01*
X170079252Y-99895916D01*
X170112014Y-99878405D01*
X170169344Y-99861013D01*
X170220154Y-99841330D01*
X170256839Y-99834472D01*
X170297844Y-99822034D01*
X170351825Y-99816717D01*
X170399750Y-99807759D01*
X170442781Y-99807759D01*
X170491100Y-99803000D01*
X170539419Y-99807759D01*
G37*
G36*
X166230640Y-100162467D02*
G01*
X166247121Y-100173479D01*
X166258133Y-100189960D01*
X166262000Y-100209400D01*
X166262000Y-101377800D01*
X166258133Y-101397240D01*
X166247121Y-101413721D01*
X166230640Y-101424733D01*
X166211200Y-101428600D01*
X164611000Y-101428600D01*
X164591560Y-101424733D01*
X164575079Y-101413721D01*
X164564067Y-101397240D01*
X164560200Y-101377800D01*
X164560200Y-100209400D01*
X164564067Y-100189960D01*
X164575079Y-100173479D01*
X164591560Y-100162467D01*
X164611000Y-100158600D01*
X166211200Y-100158600D01*
X166230640Y-100162467D01*
G37*
G36*
X166230640Y-98638467D02*
G01*
X166247121Y-98649479D01*
X166258133Y-98665960D01*
X166262000Y-98685400D01*
X166262000Y-99853800D01*
X166258133Y-99873240D01*
X166247121Y-99889721D01*
X166230640Y-99900733D01*
X166211200Y-99904600D01*
X164611000Y-99904600D01*
X164591560Y-99900733D01*
X164575079Y-99889721D01*
X164564067Y-99873240D01*
X164560200Y-99853800D01*
X164560200Y-98685400D01*
X164564067Y-98665960D01*
X164575079Y-98649479D01*
X164591560Y-98638467D01*
X164611000Y-98634600D01*
X166211200Y-98634600D01*
X166230640Y-98638467D01*
G37*
G36*
X127043983Y-97782936D02*
G01*
X127094180Y-97782936D01*
X127137524Y-97792149D01*
X127175659Y-97795905D01*
X127223566Y-97810437D01*
X127278424Y-97822098D01*
X127313530Y-97837728D01*
X127344566Y-97847143D01*
X127393884Y-97873504D01*
X127450500Y-97898711D01*
X127476822Y-97917835D01*
X127500232Y-97930348D01*
X127547988Y-97969540D01*
X127602887Y-98009427D01*
X127620711Y-98029223D01*
X127636675Y-98042324D01*
X127679572Y-98094594D01*
X127728924Y-98149405D01*
X127739292Y-98167363D01*
X127748651Y-98178767D01*
X127783273Y-98243542D01*
X127823104Y-98312530D01*
X127827685Y-98326630D01*
X127831856Y-98334433D01*
X127854852Y-98410242D01*
X127881311Y-98491672D01*
X127882242Y-98500532D01*
X127883094Y-98503340D01*
X127891384Y-98587513D01*
X127901000Y-98679000D01*
X127891383Y-98770494D01*
X127883094Y-98854659D01*
X127882242Y-98857466D01*
X127881311Y-98866328D01*
X127854848Y-98947771D01*
X127831856Y-99023566D01*
X127827686Y-99031366D01*
X127823104Y-99045470D01*
X127783266Y-99114470D01*
X127748651Y-99179232D01*
X127739294Y-99190633D01*
X127728924Y-99208595D01*
X127679563Y-99263415D01*
X127636675Y-99315675D01*
X127620714Y-99328773D01*
X127602887Y-99348573D01*
X127547977Y-99388467D01*
X127500232Y-99427651D01*
X127476827Y-99440161D01*
X127450500Y-99459289D01*
X127393873Y-99484500D01*
X127344566Y-99510856D01*
X127313537Y-99520268D01*
X127278424Y-99535902D01*
X127223555Y-99547564D01*
X127175659Y-99562094D01*
X127137532Y-99565849D01*
X127094180Y-99575064D01*
X127043973Y-99575064D01*
X127000000Y-99579395D01*
X126956027Y-99575064D01*
X126905820Y-99575064D01*
X126862467Y-99565849D01*
X126824340Y-99562094D01*
X126776441Y-99547563D01*
X126721576Y-99535902D01*
X126686464Y-99520269D01*
X126655433Y-99510856D01*
X126606120Y-99484498D01*
X126549500Y-99459289D01*
X126523175Y-99440163D01*
X126499767Y-99427651D01*
X126452013Y-99388460D01*
X126397113Y-99348573D01*
X126379287Y-99328776D01*
X126363324Y-99315675D01*
X126320425Y-99263402D01*
X126271076Y-99208595D01*
X126260708Y-99190637D01*
X126251348Y-99179232D01*
X126216719Y-99114447D01*
X126176896Y-99045470D01*
X126172315Y-99031371D01*
X126168143Y-99023566D01*
X126145136Y-98947725D01*
X126118689Y-98866328D01*
X126117758Y-98857471D01*
X126116905Y-98854659D01*
X126108600Y-98770342D01*
X126099000Y-98679000D01*
X126108599Y-98587664D01*
X126116905Y-98503340D01*
X126117758Y-98500527D01*
X126118689Y-98491672D01*
X126145132Y-98410288D01*
X126168143Y-98334433D01*
X126172315Y-98326626D01*
X126176896Y-98312530D01*
X126216712Y-98243565D01*
X126251348Y-98178767D01*
X126260710Y-98167359D01*
X126271076Y-98149405D01*
X126320416Y-98094607D01*
X126363324Y-98042324D01*
X126379291Y-98029219D01*
X126397113Y-98009427D01*
X126452002Y-97969546D01*
X126499767Y-97930348D01*
X126523180Y-97917833D01*
X126549500Y-97898711D01*
X126606109Y-97873506D01*
X126655433Y-97847143D01*
X126686471Y-97837727D01*
X126721576Y-97822098D01*
X126776430Y-97810438D01*
X126824340Y-97795905D01*
X126862476Y-97792148D01*
X126905820Y-97782936D01*
X126956016Y-97782936D01*
X127000000Y-97778604D01*
X127043983Y-97782936D01*
G37*
G36*
X134043983Y-97782936D02*
G01*
X134094180Y-97782936D01*
X134137524Y-97792149D01*
X134175659Y-97795905D01*
X134223566Y-97810437D01*
X134278424Y-97822098D01*
X134313530Y-97837728D01*
X134344566Y-97847143D01*
X134393884Y-97873504D01*
X134450500Y-97898711D01*
X134476822Y-97917835D01*
X134500232Y-97930348D01*
X134547988Y-97969540D01*
X134602887Y-98009427D01*
X134620711Y-98029223D01*
X134636675Y-98042324D01*
X134679572Y-98094594D01*
X134728924Y-98149405D01*
X134739292Y-98167363D01*
X134748651Y-98178767D01*
X134783273Y-98243542D01*
X134823104Y-98312530D01*
X134827685Y-98326630D01*
X134831856Y-98334433D01*
X134854852Y-98410242D01*
X134881311Y-98491672D01*
X134882242Y-98500532D01*
X134883094Y-98503340D01*
X134891385Y-98587520D01*
X134901000Y-98679000D01*
X134891382Y-98770501D01*
X134883094Y-98854659D01*
X134882242Y-98857466D01*
X134881311Y-98866328D01*
X134854848Y-98947771D01*
X134831856Y-99023566D01*
X134827686Y-99031366D01*
X134823104Y-99045470D01*
X134783266Y-99114470D01*
X134748651Y-99179232D01*
X134739294Y-99190633D01*
X134728924Y-99208595D01*
X134679563Y-99263415D01*
X134636675Y-99315675D01*
X134620714Y-99328773D01*
X134602887Y-99348573D01*
X134547977Y-99388467D01*
X134500232Y-99427651D01*
X134476827Y-99440161D01*
X134450500Y-99459289D01*
X134393873Y-99484500D01*
X134344566Y-99510856D01*
X134313537Y-99520268D01*
X134278424Y-99535902D01*
X134223555Y-99547564D01*
X134175659Y-99562094D01*
X134137532Y-99565849D01*
X134094180Y-99575064D01*
X134043973Y-99575064D01*
X134000000Y-99579395D01*
X133956027Y-99575064D01*
X133905820Y-99575064D01*
X133862467Y-99565849D01*
X133824340Y-99562094D01*
X133776441Y-99547563D01*
X133721576Y-99535902D01*
X133686464Y-99520269D01*
X133655433Y-99510856D01*
X133606120Y-99484498D01*
X133549500Y-99459289D01*
X133523175Y-99440163D01*
X133499767Y-99427651D01*
X133452013Y-99388460D01*
X133397113Y-99348573D01*
X133379287Y-99328776D01*
X133363324Y-99315675D01*
X133320425Y-99263402D01*
X133271076Y-99208595D01*
X133260708Y-99190637D01*
X133251348Y-99179232D01*
X133216719Y-99114447D01*
X133176896Y-99045470D01*
X133172315Y-99031371D01*
X133168143Y-99023566D01*
X133145136Y-98947725D01*
X133118689Y-98866328D01*
X133117758Y-98857471D01*
X133116905Y-98854659D01*
X133108601Y-98770349D01*
X133099000Y-98679000D01*
X133108598Y-98587672D01*
X133116905Y-98503340D01*
X133117758Y-98500527D01*
X133118689Y-98491672D01*
X133145132Y-98410288D01*
X133168143Y-98334433D01*
X133172315Y-98326626D01*
X133176896Y-98312530D01*
X133216712Y-98243565D01*
X133251348Y-98178767D01*
X133260710Y-98167359D01*
X133271076Y-98149405D01*
X133320416Y-98094607D01*
X133363324Y-98042324D01*
X133379291Y-98029219D01*
X133397113Y-98009427D01*
X133452002Y-97969546D01*
X133499767Y-97930348D01*
X133523180Y-97917833D01*
X133549500Y-97898711D01*
X133606109Y-97873506D01*
X133655433Y-97847143D01*
X133686471Y-97837727D01*
X133721576Y-97822098D01*
X133776430Y-97810438D01*
X133824340Y-97795905D01*
X133862476Y-97792148D01*
X133905820Y-97782936D01*
X133956016Y-97782936D01*
X134000000Y-97778604D01*
X134043983Y-97782936D01*
G37*
G36*
X170285419Y-97267759D02*
G01*
X170328450Y-97267759D01*
X170376374Y-97276717D01*
X170430356Y-97282034D01*
X170471361Y-97294472D01*
X170508045Y-97301330D01*
X170558850Y-97321012D01*
X170616186Y-97338405D01*
X170648949Y-97355917D01*
X170678411Y-97367331D01*
X170729598Y-97399024D01*
X170787448Y-97429946D01*
X170811754Y-97449893D01*
X170833747Y-97463511D01*
X170882480Y-97507936D01*
X170937560Y-97553140D01*
X170953881Y-97573028D01*
X170968764Y-97586595D01*
X171011962Y-97643799D01*
X171060754Y-97703252D01*
X171070190Y-97720906D01*
X171078870Y-97732400D01*
X171113409Y-97801763D01*
X171152295Y-97874514D01*
X171156441Y-97888183D01*
X171160307Y-97895946D01*
X171183142Y-97976205D01*
X171208666Y-98060344D01*
X171209504Y-98068856D01*
X171210306Y-98071674D01*
X171218641Y-98161623D01*
X171227700Y-98253600D01*
X171218638Y-98345600D01*
X171210306Y-98435525D01*
X171209504Y-98438341D01*
X171208666Y-98446856D01*
X171183138Y-98531009D01*
X171160307Y-98611253D01*
X171156442Y-98619014D01*
X171152295Y-98632686D01*
X171113402Y-98705449D01*
X171078870Y-98774799D01*
X171070192Y-98786290D01*
X171060754Y-98803948D01*
X171011953Y-98863411D01*
X170968764Y-98920604D01*
X170953885Y-98934167D01*
X170937560Y-98954060D01*
X170882469Y-98999272D01*
X170833747Y-99043688D01*
X170811759Y-99057302D01*
X170787448Y-99077254D01*
X170729586Y-99108181D01*
X170678411Y-99139868D01*
X170648956Y-99151278D01*
X170616186Y-99168795D01*
X170558838Y-99186191D01*
X170508045Y-99205869D01*
X170471368Y-99212725D01*
X170430356Y-99225166D01*
X170376371Y-99230483D01*
X170328450Y-99239441D01*
X170285419Y-99239441D01*
X170237100Y-99244200D01*
X170188781Y-99239441D01*
X170145750Y-99239441D01*
X170097828Y-99230482D01*
X170043844Y-99225166D01*
X170002832Y-99212725D01*
X169966154Y-99205869D01*
X169915356Y-99186189D01*
X169858014Y-99168795D01*
X169825246Y-99151280D01*
X169795788Y-99139868D01*
X169744606Y-99108177D01*
X169686752Y-99077254D01*
X169662443Y-99057304D01*
X169640452Y-99043688D01*
X169591720Y-98999263D01*
X169536640Y-98954060D01*
X169520317Y-98934171D01*
X169505435Y-98920604D01*
X169462234Y-98863396D01*
X169413446Y-98803948D01*
X169404010Y-98786295D01*
X169395329Y-98774799D01*
X169360783Y-98705422D01*
X169321905Y-98632686D01*
X169317759Y-98619019D01*
X169313892Y-98611253D01*
X169291045Y-98530956D01*
X169265534Y-98446856D01*
X169264695Y-98438347D01*
X169263893Y-98435525D01*
X169255544Y-98345428D01*
X169246500Y-98253600D01*
X169255541Y-98161795D01*
X169263893Y-98071674D01*
X169264696Y-98068851D01*
X169265534Y-98060344D01*
X169291040Y-97976258D01*
X169313892Y-97895946D01*
X169317760Y-97888177D01*
X169321905Y-97874514D01*
X169360776Y-97801791D01*
X169395329Y-97732400D01*
X169404012Y-97720901D01*
X169413446Y-97703252D01*
X169462224Y-97643815D01*
X169505435Y-97586595D01*
X169520321Y-97573024D01*
X169536640Y-97553140D01*
X169591709Y-97507945D01*
X169640452Y-97463511D01*
X169662448Y-97449891D01*
X169686752Y-97429946D01*
X169744594Y-97399028D01*
X169795788Y-97367331D01*
X169825252Y-97355916D01*
X169858014Y-97338405D01*
X169915344Y-97321013D01*
X169966154Y-97301330D01*
X170002839Y-97294472D01*
X170043844Y-97282034D01*
X170097825Y-97276717D01*
X170145750Y-97267759D01*
X170188781Y-97267759D01*
X170237100Y-97263000D01*
X170285419Y-97267759D01*
G37*
G36*
X170539419Y-94727759D02*
G01*
X170582450Y-94727759D01*
X170630374Y-94736717D01*
X170684356Y-94742034D01*
X170725361Y-94754472D01*
X170762045Y-94761330D01*
X170812850Y-94781012D01*
X170870186Y-94798405D01*
X170902949Y-94815917D01*
X170932411Y-94827331D01*
X170983598Y-94859024D01*
X171041448Y-94889946D01*
X171065754Y-94909893D01*
X171087747Y-94923511D01*
X171136480Y-94967936D01*
X171191560Y-95013140D01*
X171207881Y-95033028D01*
X171222764Y-95046595D01*
X171265962Y-95103799D01*
X171314754Y-95163252D01*
X171324190Y-95180906D01*
X171332870Y-95192400D01*
X171367409Y-95261763D01*
X171406295Y-95334514D01*
X171410441Y-95348183D01*
X171414307Y-95355946D01*
X171437142Y-95436205D01*
X171462666Y-95520344D01*
X171463504Y-95528856D01*
X171464306Y-95531674D01*
X171472641Y-95621623D01*
X171481700Y-95713600D01*
X171472638Y-95805600D01*
X171464306Y-95895525D01*
X171463504Y-95898341D01*
X171462666Y-95906856D01*
X171437138Y-95991009D01*
X171414307Y-96071253D01*
X171410442Y-96079014D01*
X171406295Y-96092686D01*
X171367402Y-96165449D01*
X171332870Y-96234799D01*
X171324192Y-96246290D01*
X171314754Y-96263948D01*
X171265953Y-96323411D01*
X171222764Y-96380604D01*
X171207885Y-96394167D01*
X171191560Y-96414060D01*
X171136469Y-96459272D01*
X171087747Y-96503688D01*
X171065759Y-96517302D01*
X171041448Y-96537254D01*
X170983586Y-96568181D01*
X170932411Y-96599868D01*
X170902956Y-96611278D01*
X170870186Y-96628795D01*
X170812838Y-96646191D01*
X170762045Y-96665869D01*
X170725368Y-96672725D01*
X170684356Y-96685166D01*
X170630371Y-96690483D01*
X170582450Y-96699441D01*
X170539419Y-96699441D01*
X170491100Y-96704200D01*
X170442781Y-96699441D01*
X170399750Y-96699441D01*
X170351828Y-96690482D01*
X170297844Y-96685166D01*
X170256832Y-96672725D01*
X170220154Y-96665869D01*
X170169356Y-96646189D01*
X170112014Y-96628795D01*
X170079246Y-96611280D01*
X170049788Y-96599868D01*
X169998606Y-96568177D01*
X169940752Y-96537254D01*
X169916443Y-96517304D01*
X169894452Y-96503688D01*
X169845720Y-96459263D01*
X169790640Y-96414060D01*
X169774317Y-96394171D01*
X169759435Y-96380604D01*
X169716234Y-96323396D01*
X169667446Y-96263948D01*
X169658010Y-96246295D01*
X169649329Y-96234799D01*
X169614783Y-96165422D01*
X169575905Y-96092686D01*
X169571759Y-96079019D01*
X169567892Y-96071253D01*
X169545045Y-95990956D01*
X169519534Y-95906856D01*
X169518695Y-95898347D01*
X169517893Y-95895525D01*
X169509544Y-95805428D01*
X169500500Y-95713600D01*
X169509541Y-95621795D01*
X169517893Y-95531674D01*
X169518696Y-95528851D01*
X169519534Y-95520344D01*
X169545040Y-95436258D01*
X169567892Y-95355946D01*
X169571760Y-95348177D01*
X169575905Y-95334514D01*
X169614776Y-95261791D01*
X169649329Y-95192400D01*
X169658012Y-95180901D01*
X169667446Y-95163252D01*
X169716224Y-95103815D01*
X169759435Y-95046595D01*
X169774321Y-95033024D01*
X169790640Y-95013140D01*
X169845709Y-94967945D01*
X169894452Y-94923511D01*
X169916448Y-94909891D01*
X169940752Y-94889946D01*
X169998594Y-94859028D01*
X170049788Y-94827331D01*
X170079252Y-94815916D01*
X170112014Y-94798405D01*
X170169344Y-94781013D01*
X170220154Y-94761330D01*
X170256839Y-94754472D01*
X170297844Y-94742034D01*
X170351825Y-94736717D01*
X170399750Y-94727759D01*
X170442781Y-94727759D01*
X170491100Y-94723000D01*
X170539419Y-94727759D01*
G37*
G36*
X170285419Y-92187759D02*
G01*
X170328450Y-92187759D01*
X170376374Y-92196717D01*
X170430356Y-92202034D01*
X170471361Y-92214472D01*
X170508045Y-92221330D01*
X170558850Y-92241012D01*
X170616186Y-92258405D01*
X170648949Y-92275917D01*
X170678411Y-92287331D01*
X170729598Y-92319024D01*
X170787448Y-92349946D01*
X170811754Y-92369893D01*
X170833747Y-92383511D01*
X170882480Y-92427936D01*
X170937560Y-92473140D01*
X170953881Y-92493028D01*
X170968764Y-92506595D01*
X171011962Y-92563799D01*
X171060754Y-92623252D01*
X171070190Y-92640906D01*
X171078870Y-92652400D01*
X171113409Y-92721763D01*
X171152295Y-92794514D01*
X171156441Y-92808183D01*
X171160307Y-92815946D01*
X171183142Y-92896205D01*
X171208666Y-92980344D01*
X171209504Y-92988856D01*
X171210306Y-92991674D01*
X171218640Y-93081615D01*
X171227700Y-93173600D01*
X171218639Y-93265592D01*
X171210306Y-93355525D01*
X171209504Y-93358341D01*
X171208666Y-93366856D01*
X171183138Y-93451009D01*
X171160307Y-93531253D01*
X171156442Y-93539014D01*
X171152295Y-93552686D01*
X171113402Y-93625449D01*
X171078870Y-93694799D01*
X171070192Y-93706290D01*
X171060754Y-93723948D01*
X171011953Y-93783411D01*
X170968764Y-93840604D01*
X170953885Y-93854167D01*
X170937560Y-93874060D01*
X170882469Y-93919272D01*
X170833747Y-93963688D01*
X170811759Y-93977302D01*
X170787448Y-93997254D01*
X170729586Y-94028181D01*
X170678411Y-94059868D01*
X170648956Y-94071278D01*
X170616186Y-94088795D01*
X170558838Y-94106191D01*
X170508045Y-94125869D01*
X170471368Y-94132725D01*
X170430356Y-94145166D01*
X170376371Y-94150483D01*
X170328450Y-94159441D01*
X170285419Y-94159441D01*
X170237100Y-94164200D01*
X170188781Y-94159441D01*
X170145750Y-94159441D01*
X170097828Y-94150482D01*
X170043844Y-94145166D01*
X170002832Y-94132725D01*
X169966154Y-94125869D01*
X169915356Y-94106189D01*
X169858014Y-94088795D01*
X169825246Y-94071280D01*
X169795788Y-94059868D01*
X169744606Y-94028177D01*
X169686752Y-93997254D01*
X169662443Y-93977304D01*
X169640452Y-93963688D01*
X169591720Y-93919263D01*
X169536640Y-93874060D01*
X169520317Y-93854171D01*
X169505435Y-93840604D01*
X169462234Y-93783396D01*
X169413446Y-93723948D01*
X169404010Y-93706295D01*
X169395329Y-93694799D01*
X169360783Y-93625422D01*
X169321905Y-93552686D01*
X169317759Y-93539019D01*
X169313892Y-93531253D01*
X169291045Y-93450956D01*
X169265534Y-93366856D01*
X169264695Y-93358347D01*
X169263893Y-93355525D01*
X169255543Y-93265420D01*
X169246500Y-93173600D01*
X169255542Y-93081787D01*
X169263893Y-92991674D01*
X169264696Y-92988851D01*
X169265534Y-92980344D01*
X169291040Y-92896258D01*
X169313892Y-92815946D01*
X169317760Y-92808177D01*
X169321905Y-92794514D01*
X169360776Y-92721791D01*
X169395329Y-92652400D01*
X169404012Y-92640901D01*
X169413446Y-92623252D01*
X169462224Y-92563815D01*
X169505435Y-92506595D01*
X169520321Y-92493024D01*
X169536640Y-92473140D01*
X169591709Y-92427945D01*
X169640452Y-92383511D01*
X169662448Y-92369891D01*
X169686752Y-92349946D01*
X169744594Y-92319028D01*
X169795788Y-92287331D01*
X169825252Y-92275916D01*
X169858014Y-92258405D01*
X169915344Y-92241013D01*
X169966154Y-92221330D01*
X170002839Y-92214472D01*
X170043844Y-92202034D01*
X170097825Y-92196717D01*
X170145750Y-92187759D01*
X170188781Y-92187759D01*
X170237100Y-92183000D01*
X170285419Y-92187759D01*
G37*
G36*
X170539419Y-89647759D02*
G01*
X170582450Y-89647759D01*
X170630374Y-89656717D01*
X170684356Y-89662034D01*
X170725361Y-89674472D01*
X170762045Y-89681330D01*
X170812850Y-89701012D01*
X170870186Y-89718405D01*
X170902949Y-89735917D01*
X170932411Y-89747331D01*
X170983598Y-89779024D01*
X171041448Y-89809946D01*
X171065754Y-89829893D01*
X171087747Y-89843511D01*
X171136480Y-89887936D01*
X171191560Y-89933140D01*
X171207881Y-89953028D01*
X171222764Y-89966595D01*
X171265962Y-90023799D01*
X171314754Y-90083252D01*
X171324190Y-90100906D01*
X171332870Y-90112400D01*
X171367409Y-90181763D01*
X171406295Y-90254514D01*
X171410441Y-90268183D01*
X171414307Y-90275946D01*
X171437142Y-90356205D01*
X171462666Y-90440344D01*
X171463504Y-90448856D01*
X171464306Y-90451674D01*
X171472640Y-90541615D01*
X171481700Y-90633600D01*
X171472639Y-90725592D01*
X171464306Y-90815525D01*
X171463504Y-90818341D01*
X171462666Y-90826856D01*
X171437138Y-90911009D01*
X171414307Y-90991253D01*
X171410442Y-90999014D01*
X171406295Y-91012686D01*
X171367402Y-91085449D01*
X171332870Y-91154799D01*
X171324192Y-91166290D01*
X171314754Y-91183948D01*
X171265953Y-91243411D01*
X171222764Y-91300604D01*
X171207885Y-91314167D01*
X171191560Y-91334060D01*
X171136469Y-91379272D01*
X171087747Y-91423688D01*
X171065759Y-91437302D01*
X171041448Y-91457254D01*
X170983586Y-91488181D01*
X170932411Y-91519868D01*
X170902956Y-91531278D01*
X170870186Y-91548795D01*
X170812838Y-91566191D01*
X170762045Y-91585869D01*
X170725368Y-91592725D01*
X170684356Y-91605166D01*
X170630371Y-91610483D01*
X170582450Y-91619441D01*
X170539419Y-91619441D01*
X170491100Y-91624200D01*
X170442781Y-91619441D01*
X170399750Y-91619441D01*
X170351828Y-91610482D01*
X170297844Y-91605166D01*
X170256832Y-91592725D01*
X170220154Y-91585869D01*
X170169356Y-91566189D01*
X170112014Y-91548795D01*
X170079246Y-91531280D01*
X170049788Y-91519868D01*
X169998606Y-91488177D01*
X169940752Y-91457254D01*
X169916443Y-91437304D01*
X169894452Y-91423688D01*
X169845720Y-91379263D01*
X169790640Y-91334060D01*
X169774317Y-91314171D01*
X169759435Y-91300604D01*
X169716234Y-91243396D01*
X169667446Y-91183948D01*
X169658010Y-91166295D01*
X169649329Y-91154799D01*
X169614783Y-91085422D01*
X169575905Y-91012686D01*
X169571759Y-90999019D01*
X169567892Y-90991253D01*
X169545045Y-90910956D01*
X169519534Y-90826856D01*
X169518695Y-90818347D01*
X169517893Y-90815525D01*
X169509543Y-90725420D01*
X169500500Y-90633600D01*
X169509542Y-90541787D01*
X169517893Y-90451674D01*
X169518696Y-90448851D01*
X169519534Y-90440344D01*
X169545040Y-90356258D01*
X169567892Y-90275946D01*
X169571760Y-90268177D01*
X169575905Y-90254514D01*
X169614776Y-90181791D01*
X169649329Y-90112400D01*
X169658012Y-90100901D01*
X169667446Y-90083252D01*
X169716224Y-90023815D01*
X169759435Y-89966595D01*
X169774321Y-89953024D01*
X169790640Y-89933140D01*
X169845709Y-89887945D01*
X169894452Y-89843511D01*
X169916448Y-89829891D01*
X169940752Y-89809946D01*
X169998594Y-89779028D01*
X170049788Y-89747331D01*
X170079252Y-89735916D01*
X170112014Y-89718405D01*
X170169344Y-89701013D01*
X170220154Y-89681330D01*
X170256839Y-89674472D01*
X170297844Y-89662034D01*
X170351825Y-89656717D01*
X170399750Y-89647759D01*
X170442781Y-89647759D01*
X170491100Y-89643000D01*
X170539419Y-89647759D01*
G37*
G36*
X170285419Y-87107759D02*
G01*
X170328450Y-87107759D01*
X170376374Y-87116717D01*
X170430356Y-87122034D01*
X170471361Y-87134472D01*
X170508045Y-87141330D01*
X170558850Y-87161012D01*
X170616186Y-87178405D01*
X170648949Y-87195917D01*
X170678411Y-87207331D01*
X170729598Y-87239024D01*
X170787448Y-87269946D01*
X170811754Y-87289893D01*
X170833747Y-87303511D01*
X170882480Y-87347936D01*
X170937560Y-87393140D01*
X170953881Y-87413028D01*
X170968764Y-87426595D01*
X171011962Y-87483799D01*
X171060754Y-87543252D01*
X171070190Y-87560906D01*
X171078870Y-87572400D01*
X171113409Y-87641763D01*
X171152295Y-87714514D01*
X171156441Y-87728183D01*
X171160307Y-87735946D01*
X171183142Y-87816205D01*
X171208666Y-87900344D01*
X171209504Y-87908856D01*
X171210306Y-87911674D01*
X171218640Y-88001615D01*
X171227700Y-88093600D01*
X171218639Y-88185592D01*
X171210306Y-88275525D01*
X171209504Y-88278341D01*
X171208666Y-88286856D01*
X171183138Y-88371009D01*
X171160307Y-88451253D01*
X171156442Y-88459014D01*
X171152295Y-88472686D01*
X171113402Y-88545449D01*
X171078870Y-88614799D01*
X171070192Y-88626290D01*
X171060754Y-88643948D01*
X171011953Y-88703411D01*
X170968764Y-88760604D01*
X170953885Y-88774167D01*
X170937560Y-88794060D01*
X170882469Y-88839272D01*
X170833747Y-88883688D01*
X170811759Y-88897302D01*
X170787448Y-88917254D01*
X170729586Y-88948181D01*
X170678411Y-88979868D01*
X170648956Y-88991278D01*
X170616186Y-89008795D01*
X170558838Y-89026191D01*
X170508045Y-89045869D01*
X170471368Y-89052725D01*
X170430356Y-89065166D01*
X170376371Y-89070483D01*
X170328450Y-89079441D01*
X170285419Y-89079441D01*
X170237100Y-89084200D01*
X170188781Y-89079441D01*
X170145750Y-89079441D01*
X170097828Y-89070482D01*
X170043844Y-89065166D01*
X170002832Y-89052725D01*
X169966154Y-89045869D01*
X169915356Y-89026189D01*
X169858014Y-89008795D01*
X169825246Y-88991280D01*
X169795788Y-88979868D01*
X169744606Y-88948177D01*
X169686752Y-88917254D01*
X169662443Y-88897304D01*
X169640452Y-88883688D01*
X169591720Y-88839263D01*
X169536640Y-88794060D01*
X169520317Y-88774171D01*
X169505435Y-88760604D01*
X169462234Y-88703396D01*
X169413446Y-88643948D01*
X169404010Y-88626295D01*
X169395329Y-88614799D01*
X169360783Y-88545422D01*
X169321905Y-88472686D01*
X169317759Y-88459019D01*
X169313892Y-88451253D01*
X169291045Y-88370956D01*
X169265534Y-88286856D01*
X169264695Y-88278347D01*
X169263893Y-88275525D01*
X169255543Y-88185420D01*
X169246500Y-88093600D01*
X169255542Y-88001787D01*
X169263893Y-87911674D01*
X169264696Y-87908851D01*
X169265534Y-87900344D01*
X169291040Y-87816258D01*
X169313892Y-87735946D01*
X169317760Y-87728177D01*
X169321905Y-87714514D01*
X169360776Y-87641791D01*
X169395329Y-87572400D01*
X169404012Y-87560901D01*
X169413446Y-87543252D01*
X169462224Y-87483815D01*
X169505435Y-87426595D01*
X169520321Y-87413024D01*
X169536640Y-87393140D01*
X169591709Y-87347945D01*
X169640452Y-87303511D01*
X169662448Y-87289891D01*
X169686752Y-87269946D01*
X169744594Y-87239028D01*
X169795788Y-87207331D01*
X169825252Y-87195916D01*
X169858014Y-87178405D01*
X169915344Y-87161013D01*
X169966154Y-87141330D01*
X170002839Y-87134472D01*
X170043844Y-87122034D01*
X170097825Y-87116717D01*
X170145750Y-87107759D01*
X170188781Y-87107759D01*
X170237100Y-87103000D01*
X170285419Y-87107759D01*
G37*
G36*
X127043983Y-85336936D02*
G01*
X127094180Y-85336936D01*
X127137524Y-85346149D01*
X127175659Y-85349905D01*
X127223566Y-85364437D01*
X127278424Y-85376098D01*
X127313530Y-85391728D01*
X127344566Y-85401143D01*
X127393884Y-85427504D01*
X127450500Y-85452711D01*
X127476822Y-85471835D01*
X127500232Y-85484348D01*
X127547988Y-85523540D01*
X127602887Y-85563427D01*
X127620711Y-85583223D01*
X127636675Y-85596324D01*
X127679572Y-85648594D01*
X127728924Y-85703405D01*
X127739292Y-85721363D01*
X127748651Y-85732767D01*
X127783273Y-85797542D01*
X127823104Y-85866530D01*
X127827685Y-85880630D01*
X127831856Y-85888433D01*
X127854852Y-85964242D01*
X127881311Y-86045672D01*
X127882242Y-86054532D01*
X127883094Y-86057340D01*
X127891385Y-86141520D01*
X127901000Y-86233000D01*
X127891382Y-86324501D01*
X127883094Y-86408659D01*
X127882242Y-86411466D01*
X127881311Y-86420328D01*
X127854848Y-86501771D01*
X127831856Y-86577566D01*
X127827686Y-86585366D01*
X127823104Y-86599470D01*
X127783266Y-86668470D01*
X127748651Y-86733232D01*
X127739294Y-86744633D01*
X127728924Y-86762595D01*
X127679563Y-86817415D01*
X127636675Y-86869675D01*
X127620714Y-86882773D01*
X127602887Y-86902573D01*
X127547977Y-86942467D01*
X127500232Y-86981651D01*
X127476827Y-86994161D01*
X127450500Y-87013289D01*
X127393873Y-87038500D01*
X127344566Y-87064856D01*
X127313537Y-87074268D01*
X127278424Y-87089902D01*
X127223555Y-87101564D01*
X127175659Y-87116094D01*
X127137532Y-87119849D01*
X127094180Y-87129064D01*
X127043973Y-87129064D01*
X127000000Y-87133395D01*
X126956027Y-87129064D01*
X126905820Y-87129064D01*
X126862467Y-87119849D01*
X126824340Y-87116094D01*
X126776441Y-87101563D01*
X126721576Y-87089902D01*
X126686464Y-87074269D01*
X126655433Y-87064856D01*
X126606120Y-87038498D01*
X126549500Y-87013289D01*
X126523175Y-86994163D01*
X126499767Y-86981651D01*
X126452013Y-86942460D01*
X126397113Y-86902573D01*
X126379287Y-86882776D01*
X126363324Y-86869675D01*
X126320425Y-86817402D01*
X126271076Y-86762595D01*
X126260708Y-86744637D01*
X126251348Y-86733232D01*
X126216719Y-86668447D01*
X126176896Y-86599470D01*
X126172315Y-86585371D01*
X126168143Y-86577566D01*
X126145136Y-86501725D01*
X126118689Y-86420328D01*
X126117758Y-86411471D01*
X126116905Y-86408659D01*
X126108601Y-86324349D01*
X126099000Y-86233000D01*
X126108598Y-86141672D01*
X126116905Y-86057340D01*
X126117758Y-86054527D01*
X126118689Y-86045672D01*
X126145132Y-85964288D01*
X126168143Y-85888433D01*
X126172315Y-85880626D01*
X126176896Y-85866530D01*
X126216712Y-85797565D01*
X126251348Y-85732767D01*
X126260710Y-85721359D01*
X126271076Y-85703405D01*
X126320416Y-85648607D01*
X126363324Y-85596324D01*
X126379291Y-85583219D01*
X126397113Y-85563427D01*
X126452002Y-85523546D01*
X126499767Y-85484348D01*
X126523180Y-85471833D01*
X126549500Y-85452711D01*
X126606109Y-85427506D01*
X126655433Y-85401143D01*
X126686471Y-85391727D01*
X126721576Y-85376098D01*
X126776430Y-85364438D01*
X126824340Y-85349905D01*
X126862476Y-85346148D01*
X126905820Y-85336936D01*
X126956016Y-85336936D01*
X127000000Y-85332604D01*
X127043983Y-85336936D01*
G37*
G36*
X134043983Y-85336936D02*
G01*
X134094180Y-85336936D01*
X134137524Y-85346149D01*
X134175659Y-85349905D01*
X134223566Y-85364437D01*
X134278424Y-85376098D01*
X134313530Y-85391728D01*
X134344566Y-85401143D01*
X134393884Y-85427504D01*
X134450500Y-85452711D01*
X134476822Y-85471835D01*
X134500232Y-85484348D01*
X134547988Y-85523540D01*
X134602887Y-85563427D01*
X134620711Y-85583223D01*
X134636675Y-85596324D01*
X134679572Y-85648594D01*
X134728924Y-85703405D01*
X134739292Y-85721363D01*
X134748651Y-85732767D01*
X134783273Y-85797542D01*
X134823104Y-85866530D01*
X134827685Y-85880630D01*
X134831856Y-85888433D01*
X134854852Y-85964242D01*
X134881311Y-86045672D01*
X134882242Y-86054532D01*
X134883094Y-86057340D01*
X134891385Y-86141520D01*
X134901000Y-86233000D01*
X134891382Y-86324501D01*
X134883094Y-86408659D01*
X134882242Y-86411466D01*
X134881311Y-86420328D01*
X134854848Y-86501771D01*
X134831856Y-86577566D01*
X134827686Y-86585366D01*
X134823104Y-86599470D01*
X134783266Y-86668470D01*
X134748651Y-86733232D01*
X134739294Y-86744633D01*
X134728924Y-86762595D01*
X134679563Y-86817415D01*
X134636675Y-86869675D01*
X134620714Y-86882773D01*
X134602887Y-86902573D01*
X134547977Y-86942467D01*
X134500232Y-86981651D01*
X134476827Y-86994161D01*
X134450500Y-87013289D01*
X134393873Y-87038500D01*
X134344566Y-87064856D01*
X134313537Y-87074268D01*
X134278424Y-87089902D01*
X134223555Y-87101564D01*
X134175659Y-87116094D01*
X134137532Y-87119849D01*
X134094180Y-87129064D01*
X134043973Y-87129064D01*
X134000000Y-87133395D01*
X133956027Y-87129064D01*
X133905820Y-87129064D01*
X133862467Y-87119849D01*
X133824340Y-87116094D01*
X133776441Y-87101563D01*
X133721576Y-87089902D01*
X133686464Y-87074269D01*
X133655433Y-87064856D01*
X133606120Y-87038498D01*
X133549500Y-87013289D01*
X133523175Y-86994163D01*
X133499767Y-86981651D01*
X133452013Y-86942460D01*
X133397113Y-86902573D01*
X133379287Y-86882776D01*
X133363324Y-86869675D01*
X133320425Y-86817402D01*
X133271076Y-86762595D01*
X133260708Y-86744637D01*
X133251348Y-86733232D01*
X133216719Y-86668447D01*
X133176896Y-86599470D01*
X133172315Y-86585371D01*
X133168143Y-86577566D01*
X133145136Y-86501725D01*
X133118689Y-86420328D01*
X133117758Y-86411471D01*
X133116905Y-86408659D01*
X133108601Y-86324349D01*
X133099000Y-86233000D01*
X133108598Y-86141672D01*
X133116905Y-86057340D01*
X133117758Y-86054527D01*
X133118689Y-86045672D01*
X133145132Y-85964288D01*
X133168143Y-85888433D01*
X133172315Y-85880626D01*
X133176896Y-85866530D01*
X133216712Y-85797565D01*
X133251348Y-85732767D01*
X133260710Y-85721359D01*
X133271076Y-85703405D01*
X133320416Y-85648607D01*
X133363324Y-85596324D01*
X133379291Y-85583219D01*
X133397113Y-85563427D01*
X133452002Y-85523546D01*
X133499767Y-85484348D01*
X133523180Y-85471833D01*
X133549500Y-85452711D01*
X133606109Y-85427506D01*
X133655433Y-85401143D01*
X133686471Y-85391727D01*
X133721576Y-85376098D01*
X133776430Y-85364438D01*
X133824340Y-85349905D01*
X133862476Y-85346148D01*
X133905820Y-85336936D01*
X133956016Y-85336936D01*
X134000000Y-85332604D01*
X134043983Y-85336936D01*
G37*
G36*
X170539419Y-84567759D02*
G01*
X170582450Y-84567759D01*
X170630374Y-84576717D01*
X170684356Y-84582034D01*
X170725361Y-84594472D01*
X170762045Y-84601330D01*
X170812850Y-84621012D01*
X170870186Y-84638405D01*
X170902949Y-84655917D01*
X170932411Y-84667331D01*
X170983598Y-84699024D01*
X171041448Y-84729946D01*
X171065754Y-84749893D01*
X171087747Y-84763511D01*
X171136480Y-84807936D01*
X171191560Y-84853140D01*
X171207881Y-84873028D01*
X171222764Y-84886595D01*
X171265962Y-84943799D01*
X171314754Y-85003252D01*
X171324190Y-85020906D01*
X171332870Y-85032400D01*
X171367409Y-85101763D01*
X171406295Y-85174514D01*
X171410441Y-85188183D01*
X171414307Y-85195946D01*
X171437142Y-85276205D01*
X171462666Y-85360344D01*
X171463504Y-85368856D01*
X171464306Y-85371674D01*
X171472641Y-85461623D01*
X171481700Y-85553600D01*
X171472638Y-85645600D01*
X171464306Y-85735525D01*
X171463504Y-85738341D01*
X171462666Y-85746856D01*
X171437138Y-85831009D01*
X171414307Y-85911253D01*
X171410442Y-85919014D01*
X171406295Y-85932686D01*
X171367402Y-86005449D01*
X171332870Y-86074799D01*
X171324192Y-86086290D01*
X171314754Y-86103948D01*
X171265953Y-86163411D01*
X171222764Y-86220604D01*
X171207885Y-86234167D01*
X171191560Y-86254060D01*
X171136469Y-86299272D01*
X171087747Y-86343688D01*
X171065759Y-86357302D01*
X171041448Y-86377254D01*
X170983586Y-86408181D01*
X170932411Y-86439868D01*
X170902956Y-86451278D01*
X170870186Y-86468795D01*
X170812838Y-86486191D01*
X170762045Y-86505869D01*
X170725368Y-86512725D01*
X170684356Y-86525166D01*
X170630371Y-86530483D01*
X170582450Y-86539441D01*
X170539419Y-86539441D01*
X170491100Y-86544200D01*
X170442781Y-86539441D01*
X170399750Y-86539441D01*
X170351828Y-86530482D01*
X170297844Y-86525166D01*
X170256832Y-86512725D01*
X170220154Y-86505869D01*
X170169356Y-86486189D01*
X170112014Y-86468795D01*
X170079246Y-86451280D01*
X170049788Y-86439868D01*
X169998606Y-86408177D01*
X169940752Y-86377254D01*
X169916443Y-86357304D01*
X169894452Y-86343688D01*
X169845720Y-86299263D01*
X169790640Y-86254060D01*
X169774317Y-86234171D01*
X169759435Y-86220604D01*
X169716234Y-86163396D01*
X169667446Y-86103948D01*
X169658010Y-86086295D01*
X169649329Y-86074799D01*
X169614783Y-86005422D01*
X169575905Y-85932686D01*
X169571759Y-85919019D01*
X169567892Y-85911253D01*
X169545045Y-85830956D01*
X169519534Y-85746856D01*
X169518695Y-85738347D01*
X169517893Y-85735525D01*
X169509543Y-85645420D01*
X169500500Y-85553600D01*
X169509542Y-85461787D01*
X169517893Y-85371674D01*
X169518696Y-85368851D01*
X169519534Y-85360344D01*
X169545040Y-85276258D01*
X169567892Y-85195946D01*
X169571760Y-85188177D01*
X169575905Y-85174514D01*
X169614776Y-85101791D01*
X169649329Y-85032400D01*
X169658012Y-85020901D01*
X169667446Y-85003252D01*
X169716224Y-84943815D01*
X169759435Y-84886595D01*
X169774321Y-84873024D01*
X169790640Y-84853140D01*
X169845709Y-84807945D01*
X169894452Y-84763511D01*
X169916448Y-84749891D01*
X169940752Y-84729946D01*
X169998594Y-84699028D01*
X170049788Y-84667331D01*
X170079252Y-84655916D01*
X170112014Y-84638405D01*
X170169344Y-84621013D01*
X170220154Y-84601330D01*
X170256839Y-84594472D01*
X170297844Y-84582034D01*
X170351825Y-84576717D01*
X170399750Y-84567759D01*
X170442781Y-84567759D01*
X170491100Y-84563000D01*
X170539419Y-84567759D01*
G37*
G36*
X146814198Y-80632566D02*
G01*
X146874453Y-80632566D01*
X146940299Y-80642490D01*
X147009373Y-80647927D01*
X147065047Y-80661293D01*
X147118402Y-80669335D01*
X147188121Y-80690840D01*
X147261287Y-80708406D01*
X147308595Y-80728001D01*
X147354152Y-80742054D01*
X147425669Y-80776495D01*
X147500638Y-80807548D01*
X147539122Y-80831131D01*
X147576422Y-80849094D01*
X147647371Y-80897466D01*
X147721533Y-80942913D01*
X147751227Y-80968274D01*
X147780262Y-80988070D01*
X147848056Y-81050974D01*
X147918533Y-81111167D01*
X147939934Y-81136225D01*
X147961111Y-81155874D01*
X148023025Y-81233511D01*
X148086787Y-81308167D01*
X148100809Y-81331049D01*
X148114930Y-81348756D01*
X148168187Y-81440999D01*
X148222152Y-81529062D01*
X148230077Y-81548197D01*
X148238285Y-81562412D01*
X148280138Y-81669054D01*
X148321294Y-81768413D01*
X148324697Y-81782591D01*
X148328414Y-81792060D01*
X148356257Y-81914046D01*
X148381773Y-82020327D01*
X148382434Y-82028733D01*
X148383314Y-82032586D01*
X148394783Y-82185631D01*
X148402100Y-82278600D01*
X148394782Y-82371575D01*
X148383314Y-82524613D01*
X148382434Y-82528465D01*
X148381773Y-82536873D01*
X148356252Y-82643173D01*
X148328414Y-82765139D01*
X148324698Y-82774605D01*
X148321294Y-82788787D01*
X148280131Y-82888163D01*
X148238285Y-82994787D01*
X148230079Y-83008999D01*
X148222152Y-83028138D01*
X148168177Y-83116216D01*
X148114930Y-83208443D01*
X148100812Y-83226146D01*
X148086787Y-83249033D01*
X148023013Y-83323702D01*
X147961111Y-83401325D01*
X147939938Y-83420969D01*
X147918533Y-83446033D01*
X147848042Y-83506237D01*
X147780262Y-83569129D01*
X147751233Y-83588920D01*
X147721533Y-83614287D01*
X147647357Y-83659742D01*
X147576422Y-83708105D01*
X147539130Y-83726063D01*
X147500638Y-83749652D01*
X147425654Y-83780710D01*
X147354152Y-83815145D01*
X147308604Y-83829194D01*
X147261287Y-83848794D01*
X147188107Y-83866362D01*
X147118402Y-83887864D01*
X147065055Y-83895904D01*
X147009373Y-83909273D01*
X146940295Y-83914709D01*
X146874453Y-83924634D01*
X146814198Y-83924634D01*
X146751100Y-83929600D01*
X146688002Y-83924634D01*
X146627747Y-83924634D01*
X146561903Y-83914709D01*
X146492827Y-83909273D01*
X146437145Y-83895905D01*
X146383797Y-83887864D01*
X146314088Y-83866361D01*
X146240913Y-83848794D01*
X146193598Y-83829195D01*
X146148047Y-83815145D01*
X146076538Y-83780707D01*
X146001562Y-83749652D01*
X145963072Y-83726065D01*
X145925775Y-83708104D01*
X145854826Y-83659731D01*
X145780667Y-83614287D01*
X145750973Y-83588926D01*
X145721939Y-83569131D01*
X145654143Y-83506225D01*
X145583667Y-83446033D01*
X145562264Y-83420974D01*
X145541088Y-83401325D01*
X145479171Y-83323684D01*
X145415413Y-83249033D01*
X145401391Y-83226151D01*
X145387269Y-83208443D01*
X145334005Y-83116188D01*
X145280048Y-83028138D01*
X145272123Y-83009005D01*
X145263914Y-82994787D01*
X145222049Y-82888117D01*
X145180906Y-82788787D01*
X145177502Y-82774612D01*
X145173785Y-82765139D01*
X145145927Y-82643088D01*
X145120427Y-82536873D01*
X145119765Y-82528471D01*
X145118885Y-82524613D01*
X145107396Y-82371310D01*
X145100100Y-82278600D01*
X145107396Y-82185897D01*
X145118885Y-82032586D01*
X145119765Y-82028726D01*
X145120427Y-82020327D01*
X145145922Y-81914130D01*
X145173785Y-81792060D01*
X145177503Y-81782584D01*
X145180906Y-81768413D01*
X145222042Y-81669100D01*
X145263914Y-81562412D01*
X145272124Y-81548190D01*
X145280048Y-81529062D01*
X145333995Y-81441027D01*
X145387269Y-81348756D01*
X145401393Y-81331043D01*
X145415413Y-81308167D01*
X145479159Y-81233529D01*
X145541088Y-81155874D01*
X145562269Y-81136220D01*
X145583667Y-81111167D01*
X145654129Y-81050986D01*
X145721939Y-80988068D01*
X145750979Y-80968268D01*
X145780667Y-80942913D01*
X145854811Y-80897476D01*
X145925775Y-80849095D01*
X145963080Y-80831129D01*
X146001562Y-80807548D01*
X146076523Y-80776498D01*
X146148047Y-80742054D01*
X146193607Y-80728000D01*
X146240913Y-80708406D01*
X146314073Y-80690841D01*
X146383797Y-80669335D01*
X146437154Y-80661292D01*
X146492827Y-80647927D01*
X146561899Y-80642490D01*
X146627747Y-80632566D01*
X146688002Y-80632566D01*
X146751100Y-80627600D01*
X146814198Y-80632566D01*
G37*
G36*
X170689198Y-80632566D02*
G01*
X170749453Y-80632566D01*
X170815299Y-80642490D01*
X170884373Y-80647927D01*
X170940047Y-80661293D01*
X170993402Y-80669335D01*
X171063121Y-80690840D01*
X171136287Y-80708406D01*
X171183595Y-80728001D01*
X171229152Y-80742054D01*
X171300669Y-80776495D01*
X171375638Y-80807548D01*
X171414122Y-80831131D01*
X171451422Y-80849094D01*
X171522371Y-80897466D01*
X171596533Y-80942913D01*
X171626227Y-80968274D01*
X171655262Y-80988070D01*
X171723056Y-81050974D01*
X171793533Y-81111167D01*
X171814934Y-81136225D01*
X171836111Y-81155874D01*
X171898025Y-81233511D01*
X171961787Y-81308167D01*
X171975809Y-81331049D01*
X171989930Y-81348756D01*
X172043187Y-81440999D01*
X172097152Y-81529062D01*
X172105077Y-81548197D01*
X172113285Y-81562412D01*
X172155138Y-81669054D01*
X172196294Y-81768413D01*
X172199697Y-81782591D01*
X172203414Y-81792060D01*
X172231257Y-81914046D01*
X172256773Y-82020327D01*
X172257434Y-82028733D01*
X172258314Y-82032586D01*
X172269783Y-82185631D01*
X172277100Y-82278600D01*
X172269782Y-82371575D01*
X172258314Y-82524613D01*
X172257434Y-82528465D01*
X172256773Y-82536873D01*
X172231252Y-82643173D01*
X172203414Y-82765139D01*
X172199698Y-82774605D01*
X172196294Y-82788787D01*
X172155131Y-82888163D01*
X172113285Y-82994787D01*
X172105079Y-83008999D01*
X172097152Y-83028138D01*
X172043177Y-83116216D01*
X171989930Y-83208443D01*
X171975812Y-83226146D01*
X171961787Y-83249033D01*
X171898013Y-83323702D01*
X171836111Y-83401325D01*
X171814938Y-83420969D01*
X171793533Y-83446033D01*
X171723042Y-83506237D01*
X171655262Y-83569129D01*
X171626233Y-83588920D01*
X171596533Y-83614287D01*
X171522357Y-83659742D01*
X171451422Y-83708105D01*
X171414130Y-83726063D01*
X171375638Y-83749652D01*
X171300654Y-83780710D01*
X171229152Y-83815145D01*
X171183604Y-83829194D01*
X171136287Y-83848794D01*
X171063107Y-83866362D01*
X170993402Y-83887864D01*
X170940055Y-83895904D01*
X170884373Y-83909273D01*
X170815295Y-83914709D01*
X170749453Y-83924634D01*
X170689198Y-83924634D01*
X170626100Y-83929600D01*
X170563002Y-83924634D01*
X170502747Y-83924634D01*
X170436903Y-83914709D01*
X170367827Y-83909273D01*
X170312145Y-83895905D01*
X170258797Y-83887864D01*
X170189088Y-83866361D01*
X170115913Y-83848794D01*
X170068598Y-83829195D01*
X170023047Y-83815145D01*
X169951538Y-83780707D01*
X169876562Y-83749652D01*
X169838072Y-83726065D01*
X169800775Y-83708104D01*
X169729826Y-83659731D01*
X169655667Y-83614287D01*
X169625973Y-83588926D01*
X169596939Y-83569131D01*
X169529143Y-83506225D01*
X169458667Y-83446033D01*
X169437264Y-83420974D01*
X169416088Y-83401325D01*
X169354171Y-83323684D01*
X169290413Y-83249033D01*
X169276391Y-83226151D01*
X169262269Y-83208443D01*
X169209005Y-83116188D01*
X169155048Y-83028138D01*
X169147123Y-83009005D01*
X169138914Y-82994787D01*
X169097049Y-82888117D01*
X169055906Y-82788787D01*
X169052502Y-82774612D01*
X169048785Y-82765139D01*
X169020927Y-82643088D01*
X168995427Y-82536873D01*
X168994765Y-82528471D01*
X168993885Y-82524613D01*
X168982396Y-82371310D01*
X168975100Y-82278600D01*
X168982396Y-82185897D01*
X168993885Y-82032586D01*
X168994765Y-82028726D01*
X168995427Y-82020327D01*
X169020922Y-81914130D01*
X169048785Y-81792060D01*
X169052503Y-81782584D01*
X169055906Y-81768413D01*
X169097042Y-81669100D01*
X169138914Y-81562412D01*
X169147124Y-81548190D01*
X169155048Y-81529062D01*
X169208995Y-81441027D01*
X169262269Y-81348756D01*
X169276393Y-81331043D01*
X169290413Y-81308167D01*
X169354159Y-81233529D01*
X169416088Y-81155874D01*
X169437269Y-81136220D01*
X169458667Y-81111167D01*
X169529129Y-81050986D01*
X169596939Y-80988068D01*
X169625979Y-80968268D01*
X169655667Y-80942913D01*
X169729811Y-80897476D01*
X169800775Y-80849095D01*
X169838080Y-80831129D01*
X169876562Y-80807548D01*
X169951523Y-80776498D01*
X170023047Y-80742054D01*
X170068607Y-80728000D01*
X170115913Y-80708406D01*
X170189073Y-80690841D01*
X170258797Y-80669335D01*
X170312154Y-80661292D01*
X170367827Y-80647927D01*
X170436899Y-80642490D01*
X170502747Y-80632566D01*
X170563002Y-80632566D01*
X170626100Y-80627600D01*
X170689198Y-80632566D01*
G37*
M02*
