M48
; DRILL file {KiCad 7.0.7} date Sat Mar 22 12:59:12 2025
; FORMAT={-:-/ absolute / inch / decimal}
; #@! TF.CreationDate,2025-03-22T12:59:12+10:30
; #@! TF.GenerationSoftware,Kicad,Pcbnew,7.0.7
; #@! TF.FileFunction,MixedPlating,1,2
FMAT,2
INCH
; #@! TA.AperFunction,Plated,PTH,ViaDrill
T1C0.0130
; #@! TA.AperFunction,Plated,PTH,ViaDrill
T2C0.0140
; #@! TA.AperFunction,Plated,PTH,ComponentDrill
T3C0.0394
; #@! TA.AperFunction,Plated,PTH,ComponentDrill
T4C0.0400
; #@! TA.AperFunction,NonPlated,NPTH,ComponentDrill
T5C0.0669
; #@! TA.AperFunction,NonPlated,NPTH,ComponentDrill
T6C0.1260
%
G90
G05
T1
X6.1622Y-3.9533
X6.1872Y-3.8833
X6.2922Y-3.8583
X6.3172Y-3.9383
X6.3372Y-3.8133
X6.3522Y-4.0183
X6.3622Y-3.7633
X6.4572Y-4.1833
T2
X6.4312Y-4.3593
T3
X5.9184Y-4.9683
X6.0561Y-4.9683
X6.1934Y-4.9683
X6.3311Y-4.9683
T4
X6.7022Y-3.4683
X6.7022Y-3.6683
X6.7022Y-3.8683
X6.7022Y-4.0683
X6.7022Y-4.2683
X6.7022Y-4.4683
X6.7072Y-4.6683
X6.7072Y-4.8683
X6.7122Y-3.3683
X6.7122Y-3.5683
X6.7122Y-3.7683
X6.7122Y-3.9683
X6.7122Y-4.1683
X6.7122Y-4.3683
X6.7172Y-4.5683
X6.7172Y-4.7683
T5
X5.0Y-3.395
X5.0Y-3.885
X5.0Y-4.38
X5.0Y-4.875
X5.2756Y-3.395
X5.2756Y-3.885
X5.2756Y-4.38
X5.2756Y-4.875
T6
X5.7776Y-3.2393
X5.7776Y-5.01
X6.7176Y-3.2393
X6.7176Y-5.01
T0
M30
