G04 #@! TF.GenerationSoftware,KiCad,Pcbnew,7.0.7*
G04 #@! TF.CreationDate,2025-03-22T12:59:07+10:30*
G04 #@! TF.ProjectId,ATM90E36_Breakout,41544d39-3045-4333-965f-427265616b6f,rev?*
G04 #@! TF.SameCoordinates,Original*
G04 #@! TF.FileFunction,Copper,L2,Bot*
G04 #@! TF.FilePolarity,Positive*
%FSLAX46Y46*%
G04 Gerber Fmt 4.6, Leading zero omitted, Abs format (unit mm)*
G04 Created by KiCad (PCBNEW 7.0.7) date 2025-03-22 12:59:07*
%MOMM*%
%LPD*%
G01*
G04 APERTURE LIST*
G04 #@! TA.AperFunction,ComponentPad*
%ADD10R,1.850000X1.850000*%
G04 #@! TD*
G04 #@! TA.AperFunction,ComponentPad*
%ADD11C,1.850000*%
G04 #@! TD*
G04 #@! TA.AperFunction,ComponentPad*
%ADD12C,1.879600*%
G04 #@! TD*
G04 #@! TA.AperFunction,ComponentPad*
%ADD13R,1.879600X1.879600*%
G04 #@! TD*
G04 #@! TA.AperFunction,SMDPad,CuDef*
%ADD14R,1.600200X1.168400*%
G04 #@! TD*
G04 #@! TA.AperFunction,ViaPad*
%ADD15C,0.660400*%
G04 #@! TD*
G04 #@! TA.AperFunction,ViaPad*
%ADD16C,0.635000*%
G04 #@! TD*
G04 #@! TA.AperFunction,Conductor*
%ADD17C,0.304800*%
G04 #@! TD*
G04 #@! TA.AperFunction,Conductor*
%ADD18C,0.152400*%
G04 #@! TD*
G04 APERTURE END LIST*
D10*
X150326100Y-126193600D03*
D11*
X153826100Y-126193600D03*
D10*
X157311100Y-126193600D03*
D11*
X160811100Y-126193600D03*
D12*
X170491100Y-100793600D03*
X170237100Y-103333600D03*
X170491100Y-105873600D03*
X170237100Y-108413600D03*
X170491100Y-110953600D03*
X170237100Y-113493600D03*
X170491100Y-85553600D03*
X170237100Y-88093600D03*
X170491100Y-90633600D03*
X170237100Y-93173600D03*
X170491100Y-95713600D03*
X170237100Y-98253600D03*
D13*
X170618100Y-116033600D03*
D12*
X170364100Y-118573600D03*
X170618100Y-121113600D03*
X170364100Y-123653600D03*
D14*
X165411100Y-102317600D03*
X165411100Y-100793600D03*
X165411100Y-99269600D03*
X165411100Y-113747600D03*
X165411100Y-112223600D03*
X165411100Y-110699600D03*
X165411100Y-108032600D03*
X165411100Y-106508600D03*
X165411100Y-104984600D03*
D15*
X163353700Y-110725000D03*
D16*
X164014100Y-106254600D03*
X161347100Y-102063600D03*
X160458100Y-100031600D03*
X160966100Y-96856600D03*
X157156100Y-98634600D03*
X159823100Y-97999600D03*
X156521100Y-100412600D03*
X161601100Y-95586600D03*
D17*
X163353700Y-110725000D02*
X165411100Y-110725000D01*
X165487300Y-99142600D02*
X165411100Y-99269600D01*
X164268100Y-100057000D02*
X164268100Y-103028800D01*
X170211700Y-98304400D02*
X170237100Y-98253600D01*
X164268100Y-103028800D02*
X165411100Y-104171800D01*
X165411100Y-99295000D02*
X165411100Y-99269600D01*
X165411100Y-104171800D02*
X165411100Y-104984600D01*
X165030100Y-99295000D02*
X164268100Y-100057000D01*
X169373500Y-99142600D02*
X165487300Y-99142600D01*
X165411100Y-99295000D02*
X165030100Y-99295000D01*
X165411100Y-110725000D02*
X165411100Y-110699600D01*
X170211700Y-98304400D02*
X169373500Y-99142600D01*
X165487300Y-107905600D02*
X166249300Y-107905600D01*
X165030100Y-113696800D02*
X165411100Y-113696800D01*
X170897500Y-102190600D02*
X170745100Y-102038200D01*
X165411100Y-108058000D02*
X165030100Y-108058000D01*
X165411100Y-113696800D02*
X165411100Y-113747600D01*
X170745100Y-102038200D02*
X169754500Y-102038200D01*
X169525900Y-104629000D02*
X170745100Y-104629000D01*
X171735700Y-86798200D02*
X171735700Y-101352400D01*
X169754500Y-102038200D02*
X169525900Y-102266800D01*
X171507100Y-102800200D02*
X170897500Y-102190600D01*
X165411100Y-108058000D02*
X165411100Y-108032600D01*
X171735700Y-101352400D02*
X170897500Y-102190600D01*
X165487300Y-107905600D02*
X165411100Y-108032600D01*
X170491100Y-85553600D02*
X171735700Y-86798200D01*
X162667900Y-111334600D02*
X165030100Y-113696800D01*
X162667900Y-110420200D02*
X162667900Y-111334600D01*
X165030100Y-108058000D02*
X162667900Y-110420200D01*
X170745100Y-104629000D02*
X171507100Y-103867000D01*
X165411100Y-102266800D02*
X165411100Y-102317600D01*
X166249300Y-107905600D02*
X169525900Y-104629000D01*
X169525900Y-102266800D02*
X165411100Y-102266800D01*
X171507100Y-103867000D02*
X171507100Y-102800200D01*
D18*
X170491100Y-100793600D02*
X165411100Y-100793600D01*
X161347100Y-103587600D02*
X161347100Y-102063600D01*
X164014100Y-106254600D02*
X161347100Y-103587600D01*
X170618100Y-121113600D02*
X169475100Y-121113600D01*
X169475100Y-121113600D02*
X155886100Y-107524600D01*
X160077100Y-97364600D02*
X160458100Y-97745600D01*
X160458100Y-97745600D02*
X160458100Y-100031600D01*
X155886100Y-107524600D02*
X155886100Y-99015600D01*
X155886100Y-99015600D02*
X157537100Y-97364600D01*
X157537100Y-97364600D02*
X160077100Y-97364600D01*
X171888100Y-117303600D02*
X171888100Y-121621600D01*
X170110100Y-122383600D02*
X155505100Y-107778600D01*
X160077100Y-94951600D02*
X160966100Y-95840600D01*
X155505100Y-107778600D02*
X155505100Y-98888600D01*
X155505100Y-98888600D02*
X159442100Y-94951600D01*
X160966100Y-95840600D02*
X160966100Y-96856600D01*
X159442100Y-94951600D02*
X160077100Y-94951600D01*
X170618100Y-116033600D02*
X171888100Y-117303600D01*
X171888100Y-121621600D02*
X171126100Y-122383600D01*
X171126100Y-122383600D02*
X170110100Y-122383600D01*
X170237100Y-113493600D02*
X168713100Y-115017600D01*
X164395100Y-115017600D02*
X157156100Y-107778600D01*
X168713100Y-115017600D02*
X164395100Y-115017600D01*
X157156100Y-107778600D02*
X157156100Y-98634600D01*
X164522100Y-114636600D02*
X159823100Y-109937600D01*
X159823100Y-109937600D02*
X159823100Y-97999600D01*
X170491100Y-110953600D02*
X166808100Y-114636600D01*
X166808100Y-114636600D02*
X164522100Y-114636600D01*
X168967100Y-115398600D02*
X164268100Y-115398600D01*
X170745100Y-114763600D02*
X169602100Y-114763600D01*
X164268100Y-115398600D02*
X156521100Y-107651600D01*
X156521100Y-107651600D02*
X156521100Y-100412600D01*
X169602100Y-114763600D02*
X168967100Y-115398600D01*
X171761100Y-113747600D02*
X170745100Y-114763600D01*
X171761100Y-109937600D02*
X171761100Y-113747600D01*
X170237100Y-108413600D02*
X171761100Y-109937600D01*
X169068700Y-108820000D02*
X165715900Y-112172800D01*
X169068700Y-107296000D02*
X169068700Y-108820000D01*
X165411100Y-112172800D02*
X165411100Y-112223600D01*
X170491100Y-105873600D02*
X169068700Y-107296000D01*
X165715900Y-112172800D02*
X165411100Y-112172800D01*
X165411100Y-106508600D02*
X165157100Y-106508600D01*
X165411100Y-106508600D02*
X166173100Y-106508600D01*
X166173100Y-106508600D02*
X169348100Y-103333600D01*
X164268100Y-105619600D02*
X164268100Y-104095600D01*
X164268100Y-104095600D02*
X161601100Y-101428600D01*
X165157100Y-106508600D02*
X164268100Y-105619600D01*
X169348100Y-103333600D02*
X170237100Y-103333600D01*
X161601100Y-101428600D02*
X161601100Y-95586600D01*
G04 #@! TA.AperFunction,Conductor*
G36*
X169753739Y-104951893D02*
G01*
X169779459Y-104996442D01*
X169770526Y-105047100D01*
X169756063Y-105065073D01*
X169680125Y-105134299D01*
X169680122Y-105134302D01*
X169558085Y-105295906D01*
X169467826Y-105477172D01*
X169467821Y-105477185D01*
X169412404Y-105671952D01*
X169393719Y-105873597D01*
X169393719Y-105873602D01*
X169412404Y-106075247D01*
X169467821Y-106270014D01*
X169467826Y-106270027D01*
X169544380Y-106423770D01*
X169550177Y-106474882D01*
X169530238Y-106510463D01*
X168911636Y-107129066D01*
X168910209Y-107130420D01*
X168879214Y-107158329D01*
X168879212Y-107158333D01*
X168869146Y-107180939D01*
X168863521Y-107191300D01*
X168850038Y-107212065D01*
X168848686Y-107220599D01*
X168843114Y-107239409D01*
X168839600Y-107247303D01*
X168839600Y-107272053D01*
X168838674Y-107283818D01*
X168834803Y-107308256D01*
X168834803Y-107308257D01*
X168837037Y-107316594D01*
X168839600Y-107336059D01*
X168839600Y-108693955D01*
X168822007Y-108742293D01*
X168817574Y-108747129D01*
X166680026Y-110884677D01*
X166633406Y-110906417D01*
X166583719Y-110893103D01*
X166573678Y-110884677D01*
X166566001Y-110877000D01*
X164256200Y-110877000D01*
X164256200Y-111317480D01*
X164266248Y-111386437D01*
X164318255Y-111492819D01*
X164401979Y-111576543D01*
X164415926Y-111583361D01*
X164451626Y-111620396D01*
X164458100Y-111650921D01*
X164458100Y-112511493D01*
X164440507Y-112559831D01*
X164395958Y-112585551D01*
X164345300Y-112576618D01*
X164329726Y-112564667D01*
X162995226Y-111230167D01*
X162973486Y-111183547D01*
X162973200Y-111176993D01*
X162973200Y-110577806D01*
X162990793Y-110529468D01*
X162995215Y-110524643D01*
X162997658Y-110522200D01*
X164256200Y-110522200D01*
X165233700Y-110522200D01*
X165233700Y-109760600D01*
X165588500Y-109760600D01*
X165588500Y-110522200D01*
X166566000Y-110522200D01*
X166566000Y-110081729D01*
X166565999Y-110081719D01*
X166555951Y-110012762D01*
X166503944Y-109906380D01*
X166420219Y-109822655D01*
X166313836Y-109770648D01*
X166313837Y-109770648D01*
X166244880Y-109760600D01*
X165588500Y-109760600D01*
X165233700Y-109760600D01*
X164577319Y-109760600D01*
X164508362Y-109770648D01*
X164401980Y-109822655D01*
X164318255Y-109906380D01*
X164266248Y-110012762D01*
X164256200Y-110081719D01*
X164256200Y-110522200D01*
X162997658Y-110522200D01*
X164728133Y-108791724D01*
X164774753Y-108769985D01*
X164781307Y-108769699D01*
X166226256Y-108769699D01*
X166270858Y-108760828D01*
X166321434Y-108727034D01*
X166355228Y-108676458D01*
X166364100Y-108631857D01*
X166364099Y-108237646D01*
X166381692Y-108189310D01*
X166408927Y-108168853D01*
X166424825Y-108161834D01*
X166433968Y-108152689D01*
X166447548Y-108141933D01*
X166458542Y-108135127D01*
X166478595Y-108108571D01*
X166482000Y-108104657D01*
X169630332Y-104956326D01*
X169676953Y-104934586D01*
X169683507Y-104934300D01*
X169705401Y-104934300D01*
X169753739Y-104951893D01*
G37*
G04 #@! TD.AperFunction*
G04 #@! TA.AperFunction,Conductor*
G36*
X170962231Y-80029169D02*
G01*
X171093875Y-80037131D01*
X171261932Y-80047297D01*
X171266417Y-80047842D01*
X171560638Y-80101760D01*
X171565018Y-80102839D01*
X171850582Y-80191825D01*
X171854828Y-80193436D01*
X172127568Y-80316186D01*
X172131592Y-80318298D01*
X172387554Y-80473032D01*
X172391283Y-80475605D01*
X172626738Y-80660072D01*
X172630125Y-80663073D01*
X172841625Y-80874573D01*
X172844628Y-80877963D01*
X173029092Y-81113413D01*
X173031667Y-81117145D01*
X173186401Y-81373107D01*
X173188513Y-81377131D01*
X173311263Y-81649871D01*
X173312875Y-81654120D01*
X173401856Y-81939668D01*
X173402942Y-81944072D01*
X173433933Y-82113186D01*
X173456855Y-82238268D01*
X173457403Y-82242779D01*
X173475531Y-82542468D01*
X173475600Y-82544739D01*
X173475600Y-127462459D01*
X173475531Y-127464730D01*
X173457403Y-127764420D01*
X173456855Y-127768931D01*
X173418309Y-127979275D01*
X173402944Y-128063118D01*
X173401856Y-128067531D01*
X173312875Y-128353079D01*
X173311263Y-128357328D01*
X173188513Y-128630068D01*
X173186401Y-128634092D01*
X173031667Y-128890054D01*
X173029086Y-128893795D01*
X172844632Y-129129232D01*
X172841618Y-129132634D01*
X172630134Y-129344118D01*
X172626732Y-129347132D01*
X172391295Y-129531586D01*
X172387554Y-129534167D01*
X172131592Y-129688901D01*
X172127568Y-129691013D01*
X171854828Y-129813763D01*
X171850579Y-129815375D01*
X171565031Y-129904356D01*
X171560623Y-129905442D01*
X171355479Y-129943036D01*
X171266431Y-129959355D01*
X171261920Y-129959903D01*
X170962231Y-129978031D01*
X170959960Y-129978100D01*
X126042240Y-129978100D01*
X126039969Y-129978031D01*
X125740279Y-129959903D01*
X125735768Y-129959355D01*
X125441572Y-129905442D01*
X125437168Y-129904356D01*
X125151620Y-129815375D01*
X125147371Y-129813763D01*
X124874631Y-129691013D01*
X124870607Y-129688901D01*
X124614645Y-129534167D01*
X124610913Y-129531592D01*
X124375463Y-129347128D01*
X124372073Y-129344125D01*
X124160573Y-129132625D01*
X124157572Y-129129238D01*
X123973105Y-128893783D01*
X123970532Y-128890054D01*
X123815798Y-128634092D01*
X123813686Y-128630068D01*
X123690936Y-128357328D01*
X123689324Y-128353079D01*
X123600339Y-128067518D01*
X123599260Y-128063138D01*
X123545342Y-127768917D01*
X123544797Y-127764432D01*
X123534283Y-127590618D01*
X123526669Y-127464730D01*
X123526600Y-127462459D01*
X123526600Y-127321365D01*
X144896888Y-127321365D01*
X144926514Y-127590622D01*
X144995026Y-127852684D01*
X144995028Y-127852689D01*
X145100969Y-128101988D01*
X145100971Y-128101992D01*
X145242083Y-128333212D01*
X145242084Y-128333213D01*
X145415351Y-128541416D01*
X145415355Y-128541420D01*
X145617098Y-128722182D01*
X145843010Y-128871644D01*
X146088276Y-128986620D01*
X146347669Y-129064660D01*
X146615661Y-129104100D01*
X146615665Y-129104100D01*
X146818735Y-129104100D01*
X147021247Y-129089278D01*
X147021249Y-129089277D01*
X147021256Y-129089277D01*
X147285653Y-129030380D01*
X147538658Y-128933614D01*
X147774877Y-128801041D01*
X147989277Y-128635488D01*
X148177286Y-128440481D01*
X148334899Y-128220179D01*
X148458756Y-127979275D01*
X148487843Y-127894014D01*
X148546216Y-127722912D01*
X148546216Y-127722909D01*
X148546218Y-127722905D01*
X148595419Y-127456533D01*
X148605312Y-127185835D01*
X148599571Y-127133655D01*
X149248200Y-127133655D01*
X149248201Y-127133657D01*
X149257072Y-127178259D01*
X149290864Y-127228832D01*
X149290865Y-127228832D01*
X149290866Y-127228834D01*
X149341442Y-127262628D01*
X149386043Y-127271500D01*
X151266156Y-127271499D01*
X151310758Y-127262628D01*
X151361334Y-127228834D01*
X151395128Y-127178258D01*
X151404000Y-127133657D01*
X151404000Y-126193602D01*
X152743582Y-126193602D01*
X152762014Y-126392511D01*
X152762015Y-126392520D01*
X152816679Y-126584642D01*
X152816683Y-126584653D01*
X152905726Y-126763474D01*
X153026106Y-126922884D01*
X153026109Y-126922887D01*
X153173734Y-127057466D01*
X153173736Y-127057467D01*
X153173737Y-127057468D01*
X153343580Y-127162630D01*
X153529855Y-127234794D01*
X153726218Y-127271500D01*
X153726223Y-127271500D01*
X153925977Y-127271500D01*
X153925982Y-127271500D01*
X154122345Y-127234794D01*
X154308620Y-127162630D01*
X154355416Y-127133655D01*
X156233200Y-127133655D01*
X156233201Y-127133657D01*
X156242072Y-127178259D01*
X156275864Y-127228832D01*
X156275865Y-127228832D01*
X156275866Y-127228834D01*
X156326442Y-127262628D01*
X156371043Y-127271500D01*
X158251156Y-127271499D01*
X158295758Y-127262628D01*
X158346334Y-127228834D01*
X158380128Y-127178258D01*
X158389000Y-127133657D01*
X158388999Y-126193599D01*
X159526411Y-126193599D01*
X159545927Y-126416679D01*
X159603887Y-126632989D01*
X159603888Y-126632993D01*
X159698525Y-126835942D01*
X159788861Y-126964955D01*
X160285138Y-126468678D01*
X160331759Y-126446938D01*
X160381446Y-126460252D01*
X160401575Y-126481196D01*
X160429337Y-126524396D01*
X160429339Y-126524398D01*
X160530012Y-126611630D01*
X160555022Y-126656580D01*
X160545288Y-126707091D01*
X160533941Y-126721637D01*
X160039742Y-127215836D01*
X160039743Y-127215837D01*
X160168753Y-127306172D01*
X160168757Y-127306175D01*
X160371706Y-127400811D01*
X160371710Y-127400812D01*
X160588020Y-127458772D01*
X160811100Y-127478288D01*
X161034179Y-127458772D01*
X161250489Y-127400812D01*
X161250493Y-127400811D01*
X161420867Y-127321365D01*
X168771888Y-127321365D01*
X168801514Y-127590622D01*
X168870026Y-127852684D01*
X168870028Y-127852689D01*
X168975969Y-128101988D01*
X168975971Y-128101992D01*
X169117083Y-128333212D01*
X169117084Y-128333213D01*
X169290351Y-128541416D01*
X169290355Y-128541420D01*
X169492098Y-128722182D01*
X169718010Y-128871644D01*
X169963276Y-128986620D01*
X170222669Y-129064660D01*
X170490661Y-129104100D01*
X170490665Y-129104100D01*
X170693735Y-129104100D01*
X170896247Y-129089278D01*
X170896249Y-129089277D01*
X170896256Y-129089277D01*
X171160653Y-129030380D01*
X171413658Y-128933614D01*
X171649877Y-128801041D01*
X171864277Y-128635488D01*
X172052286Y-128440481D01*
X172209899Y-128220179D01*
X172333756Y-127979275D01*
X172362843Y-127894014D01*
X172421216Y-127722912D01*
X172421216Y-127722909D01*
X172421218Y-127722905D01*
X172470419Y-127456533D01*
X172480312Y-127185835D01*
X172450686Y-126916582D01*
X172410658Y-126763474D01*
X172382173Y-126654515D01*
X172382171Y-126654510D01*
X172369771Y-126625331D01*
X172276230Y-126405210D01*
X172135118Y-126173990D01*
X172135115Y-126173986D01*
X171961848Y-125965783D01*
X171961844Y-125965779D01*
X171856866Y-125871719D01*
X171760102Y-125785018D01*
X171579540Y-125665559D01*
X171534189Y-125635555D01*
X171288922Y-125520579D01*
X171141151Y-125476121D01*
X171029531Y-125442540D01*
X170862247Y-125417921D01*
X170761540Y-125403100D01*
X170761539Y-125403100D01*
X170558469Y-125403100D01*
X170558465Y-125403100D01*
X170355952Y-125417921D01*
X170091542Y-125476821D01*
X169838539Y-125573587D01*
X169602326Y-125706156D01*
X169387927Y-125871708D01*
X169387915Y-125871719D01*
X169199918Y-126066714D01*
X169199910Y-126066724D01*
X169042301Y-126287020D01*
X169042300Y-126287022D01*
X168918441Y-126527930D01*
X168830983Y-126784287D01*
X168830981Y-126784297D01*
X168781781Y-127050664D01*
X168771888Y-127321361D01*
X168771888Y-127321365D01*
X161420867Y-127321365D01*
X161453442Y-127306175D01*
X161453447Y-127306172D01*
X161582455Y-127215837D01*
X161582456Y-127215836D01*
X161088257Y-126721638D01*
X161066517Y-126675018D01*
X161079831Y-126625331D01*
X161092181Y-126611636D01*
X161192861Y-126524398D01*
X161220625Y-126481194D01*
X161261557Y-126450045D01*
X161312938Y-126452492D01*
X161337060Y-126468679D01*
X161833336Y-126964956D01*
X161833337Y-126964955D01*
X161923674Y-126835942D01*
X161923675Y-126835942D01*
X162018311Y-126632993D01*
X162018312Y-126632989D01*
X162076272Y-126416679D01*
X162095788Y-126193600D01*
X162076272Y-125970520D01*
X162018312Y-125754210D01*
X162018311Y-125754206D01*
X161923675Y-125551259D01*
X161923674Y-125551258D01*
X161833337Y-125422243D01*
X161833336Y-125422242D01*
X161337059Y-125918520D01*
X161290439Y-125940260D01*
X161240752Y-125926946D01*
X161220624Y-125906003D01*
X161192861Y-125862802D01*
X161123334Y-125802557D01*
X161092186Y-125775567D01*
X161067176Y-125730616D01*
X161076910Y-125680106D01*
X161088257Y-125665559D01*
X161582455Y-125171361D01*
X161453442Y-125081025D01*
X161453442Y-125081024D01*
X161250493Y-124986388D01*
X161250489Y-124986387D01*
X161034179Y-124928427D01*
X160811099Y-124908911D01*
X160588020Y-124928427D01*
X160371710Y-124986387D01*
X160371706Y-124986388D01*
X160168759Y-125081024D01*
X160168755Y-125081027D01*
X160039743Y-125171361D01*
X160039742Y-125171362D01*
X160533942Y-125665561D01*
X160555682Y-125712181D01*
X160542368Y-125761868D01*
X160530013Y-125775568D01*
X160429341Y-125862799D01*
X160429339Y-125862801D01*
X160401575Y-125906003D01*
X160360640Y-125937155D01*
X160309259Y-125934707D01*
X160285139Y-125918520D01*
X159788862Y-125422242D01*
X159788861Y-125422243D01*
X159698527Y-125551255D01*
X159698524Y-125551259D01*
X159603888Y-125754206D01*
X159603887Y-125754210D01*
X159545927Y-125970520D01*
X159526411Y-126193599D01*
X158388999Y-126193599D01*
X158388999Y-125253544D01*
X158380128Y-125208942D01*
X158346334Y-125158366D01*
X158295758Y-125124572D01*
X158295756Y-125124571D01*
X158251157Y-125115700D01*
X156371044Y-125115700D01*
X156371042Y-125115701D01*
X156326440Y-125124572D01*
X156275867Y-125158364D01*
X156242072Y-125208942D01*
X156242071Y-125208943D01*
X156233200Y-125253542D01*
X156233200Y-127133655D01*
X154355416Y-127133655D01*
X154478463Y-127057468D01*
X154626090Y-126922888D01*
X154746475Y-126763472D01*
X154835518Y-126584651D01*
X154890186Y-126392512D01*
X154908618Y-126193600D01*
X154906800Y-126173986D01*
X154896861Y-126066724D01*
X154890186Y-125994688D01*
X154890184Y-125994682D01*
X154890184Y-125994679D01*
X154835520Y-125802557D01*
X154835518Y-125802549D01*
X154746475Y-125623728D01*
X154746473Y-125623725D01*
X154626093Y-125464315D01*
X154626090Y-125464312D01*
X154478465Y-125329733D01*
X154308624Y-125224572D01*
X154308621Y-125224571D01*
X154308620Y-125224570D01*
X154122345Y-125152406D01*
X154122347Y-125152406D01*
X154066241Y-125141918D01*
X153925982Y-125115700D01*
X153726218Y-125115700D01*
X153595309Y-125140170D01*
X153529853Y-125152406D01*
X153343575Y-125224572D01*
X153173734Y-125329733D01*
X153026109Y-125464312D01*
X153026106Y-125464315D01*
X152905726Y-125623725D01*
X152816683Y-125802546D01*
X152816679Y-125802557D01*
X152762015Y-125994679D01*
X152762014Y-125994688D01*
X152743582Y-126193597D01*
X152743582Y-126193602D01*
X151404000Y-126193602D01*
X151403999Y-125253544D01*
X151395128Y-125208942D01*
X151361334Y-125158366D01*
X151310758Y-125124572D01*
X151310756Y-125124571D01*
X151266157Y-125115700D01*
X149386044Y-125115700D01*
X149386042Y-125115701D01*
X149341440Y-125124572D01*
X149290867Y-125158364D01*
X149257072Y-125208942D01*
X149257071Y-125208943D01*
X149248200Y-125253542D01*
X149248200Y-127133655D01*
X148599571Y-127133655D01*
X148575686Y-126916582D01*
X148535658Y-126763474D01*
X148507173Y-126654515D01*
X148507171Y-126654510D01*
X148494771Y-126625331D01*
X148401230Y-126405210D01*
X148260118Y-126173990D01*
X148260115Y-126173986D01*
X148086848Y-125965783D01*
X148086844Y-125965779D01*
X147981866Y-125871719D01*
X147885102Y-125785018D01*
X147704540Y-125665559D01*
X147659189Y-125635555D01*
X147413922Y-125520579D01*
X147266151Y-125476121D01*
X147154531Y-125442540D01*
X146987247Y-125417921D01*
X146886540Y-125403100D01*
X146886539Y-125403100D01*
X146683469Y-125403100D01*
X146683465Y-125403100D01*
X146480952Y-125417921D01*
X146216542Y-125476821D01*
X145963539Y-125573587D01*
X145727326Y-125706156D01*
X145512927Y-125871708D01*
X145512915Y-125871719D01*
X145324918Y-126066714D01*
X145324910Y-126066724D01*
X145167301Y-126287020D01*
X145167300Y-126287022D01*
X145043441Y-126527930D01*
X144955983Y-126784287D01*
X144955981Y-126784297D01*
X144906781Y-127050664D01*
X144896888Y-127321361D01*
X144896888Y-127321365D01*
X123526600Y-127321365D01*
X123526600Y-123772399D01*
X125895746Y-123772399D01*
X125905746Y-123982330D01*
X125905747Y-123982340D01*
X125955294Y-124186572D01*
X125955295Y-124186576D01*
X126042600Y-124377745D01*
X126042607Y-124377758D01*
X126164511Y-124548948D01*
X126164514Y-124548952D01*
X126316622Y-124693986D01*
X126316624Y-124693987D01*
X126316626Y-124693989D01*
X126493426Y-124807612D01*
X126493428Y-124807613D01*
X126688537Y-124885723D01*
X126688539Y-124885723D01*
X126688543Y-124885725D01*
X126894915Y-124925500D01*
X126894920Y-124925500D01*
X127052432Y-124925500D01*
X127052435Y-124925499D01*
X127209209Y-124910529D01*
X127209210Y-124910528D01*
X127209218Y-124910528D01*
X127410875Y-124851316D01*
X127597682Y-124755011D01*
X127762886Y-124625092D01*
X127900519Y-124466256D01*
X128005604Y-124284244D01*
X128074344Y-124085633D01*
X128104254Y-123877602D01*
X128099243Y-123772399D01*
X132895746Y-123772399D01*
X132905746Y-123982330D01*
X132905747Y-123982340D01*
X132955294Y-124186572D01*
X132955295Y-124186576D01*
X133042600Y-124377745D01*
X133042607Y-124377758D01*
X133164511Y-124548948D01*
X133164514Y-124548952D01*
X133316622Y-124693986D01*
X133316624Y-124693987D01*
X133316626Y-124693989D01*
X133493426Y-124807612D01*
X133493428Y-124807613D01*
X133688537Y-124885723D01*
X133688539Y-124885723D01*
X133688543Y-124885725D01*
X133894915Y-124925500D01*
X133894920Y-124925500D01*
X134052432Y-124925500D01*
X134052435Y-124925499D01*
X134209209Y-124910529D01*
X134209210Y-124910528D01*
X134209218Y-124910528D01*
X134410875Y-124851316D01*
X134597682Y-124755011D01*
X134762886Y-124625092D01*
X134900519Y-124466256D01*
X135005604Y-124284244D01*
X135074344Y-124085633D01*
X135104254Y-123877602D01*
X135094254Y-123667670D01*
X135094252Y-123667663D01*
X135094252Y-123667659D01*
X135044705Y-123463427D01*
X135044704Y-123463423D01*
X134957399Y-123272254D01*
X134957396Y-123272247D01*
X134946670Y-123257185D01*
X134835488Y-123101051D01*
X134835486Y-123101048D01*
X134683378Y-122956014D01*
X134683375Y-122956012D01*
X134683373Y-122956010D01*
X134506573Y-122842387D01*
X134506571Y-122842386D01*
X134311462Y-122764276D01*
X134311457Y-122764275D01*
X134105089Y-122724500D01*
X134105085Y-122724500D01*
X133947575Y-122724500D01*
X133947564Y-122724500D01*
X133790790Y-122739470D01*
X133790781Y-122739472D01*
X133589127Y-122798682D01*
X133402319Y-122894988D01*
X133237116Y-123024905D01*
X133099481Y-123183744D01*
X133099479Y-123183746D01*
X132994397Y-123365753D01*
X132925656Y-123564365D01*
X132925656Y-123564367D01*
X132895746Y-123772398D01*
X132895746Y-123772399D01*
X128099243Y-123772399D01*
X128094254Y-123667670D01*
X128094252Y-123667663D01*
X128094252Y-123667659D01*
X128044705Y-123463427D01*
X128044704Y-123463423D01*
X127957399Y-123272254D01*
X127957396Y-123272247D01*
X127946670Y-123257185D01*
X127835488Y-123101051D01*
X127835486Y-123101048D01*
X127683378Y-122956014D01*
X127683375Y-122956012D01*
X127683373Y-122956010D01*
X127506573Y-122842387D01*
X127506571Y-122842386D01*
X127311462Y-122764276D01*
X127311457Y-122764275D01*
X127105089Y-122724500D01*
X127105085Y-122724500D01*
X126947575Y-122724500D01*
X126947564Y-122724500D01*
X126790790Y-122739470D01*
X126790781Y-122739472D01*
X126589127Y-122798682D01*
X126402319Y-122894988D01*
X126237116Y-123024905D01*
X126099481Y-123183744D01*
X126099479Y-123183746D01*
X125994397Y-123365753D01*
X125925656Y-123564365D01*
X125925656Y-123564367D01*
X125895746Y-123772398D01*
X125895746Y-123772399D01*
X123526600Y-123772399D01*
X123526600Y-111199399D01*
X125895746Y-111199399D01*
X125905746Y-111409330D01*
X125905747Y-111409340D01*
X125955294Y-111613572D01*
X125955295Y-111613576D01*
X126042600Y-111804745D01*
X126042607Y-111804758D01*
X126136016Y-111935932D01*
X126164514Y-111975952D01*
X126316622Y-112120986D01*
X126316624Y-112120987D01*
X126316626Y-112120989D01*
X126493426Y-112234612D01*
X126493428Y-112234613D01*
X126688537Y-112312723D01*
X126688539Y-112312723D01*
X126688543Y-112312725D01*
X126894915Y-112352500D01*
X126894920Y-112352500D01*
X127052432Y-112352500D01*
X127052435Y-112352499D01*
X127209209Y-112337529D01*
X127209210Y-112337528D01*
X127209218Y-112337528D01*
X127410875Y-112278316D01*
X127597682Y-112182011D01*
X127762886Y-112052092D01*
X127900519Y-111893256D01*
X128005604Y-111711244D01*
X128074344Y-111512633D01*
X128104254Y-111304602D01*
X128099243Y-111199399D01*
X132895746Y-111199399D01*
X132905746Y-111409330D01*
X132905747Y-111409340D01*
X132955294Y-111613572D01*
X132955295Y-111613576D01*
X133042600Y-111804745D01*
X133042607Y-111804758D01*
X133136016Y-111935932D01*
X133164514Y-111975952D01*
X133316622Y-112120986D01*
X133316624Y-112120987D01*
X133316626Y-112120989D01*
X133493426Y-112234612D01*
X133493428Y-112234613D01*
X133688537Y-112312723D01*
X133688539Y-112312723D01*
X133688543Y-112312725D01*
X133894915Y-112352500D01*
X133894920Y-112352500D01*
X134052432Y-112352500D01*
X134052435Y-112352499D01*
X134209209Y-112337529D01*
X134209210Y-112337528D01*
X134209218Y-112337528D01*
X134410875Y-112278316D01*
X134597682Y-112182011D01*
X134762886Y-112052092D01*
X134900519Y-111893256D01*
X135005604Y-111711244D01*
X135074344Y-111512633D01*
X135104254Y-111304602D01*
X135094254Y-111094670D01*
X135094252Y-111094663D01*
X135094252Y-111094659D01*
X135044705Y-110890427D01*
X135044704Y-110890423D01*
X134957399Y-110699254D01*
X134957396Y-110699247D01*
X134835486Y-110528048D01*
X134683378Y-110383014D01*
X134683375Y-110383012D01*
X134683373Y-110383010D01*
X134506573Y-110269387D01*
X134506571Y-110269386D01*
X134311462Y-110191276D01*
X134311457Y-110191275D01*
X134105089Y-110151500D01*
X134105085Y-110151500D01*
X133947575Y-110151500D01*
X133947564Y-110151500D01*
X133790790Y-110166470D01*
X133790781Y-110166472D01*
X133589127Y-110225682D01*
X133402319Y-110321988D01*
X133237116Y-110451905D01*
X133099481Y-110610744D01*
X133099479Y-110610746D01*
X132994397Y-110792753D01*
X132925656Y-110991365D01*
X132925656Y-110991367D01*
X132895746Y-111199398D01*
X132895746Y-111199399D01*
X128099243Y-111199399D01*
X128094254Y-111094670D01*
X128094252Y-111094663D01*
X128094252Y-111094659D01*
X128044705Y-110890427D01*
X128044704Y-110890423D01*
X127957399Y-110699254D01*
X127957396Y-110699247D01*
X127835486Y-110528048D01*
X127683378Y-110383014D01*
X127683375Y-110383012D01*
X127683373Y-110383010D01*
X127506573Y-110269387D01*
X127506571Y-110269386D01*
X127311462Y-110191276D01*
X127311457Y-110191275D01*
X127105089Y-110151500D01*
X127105085Y-110151500D01*
X126947575Y-110151500D01*
X126947564Y-110151500D01*
X126790790Y-110166470D01*
X126790781Y-110166472D01*
X126589127Y-110225682D01*
X126402319Y-110321988D01*
X126237116Y-110451905D01*
X126099481Y-110610744D01*
X126099479Y-110610746D01*
X125994397Y-110792753D01*
X125925656Y-110991365D01*
X125925656Y-110991367D01*
X125895746Y-111199398D01*
X125895746Y-111199399D01*
X123526600Y-111199399D01*
X123526600Y-98626399D01*
X125895746Y-98626399D01*
X125905746Y-98836330D01*
X125905747Y-98836340D01*
X125955294Y-99040572D01*
X125955295Y-99040576D01*
X126042600Y-99231745D01*
X126042607Y-99231758D01*
X126147486Y-99379040D01*
X126164514Y-99402952D01*
X126316622Y-99547986D01*
X126316624Y-99547987D01*
X126316626Y-99547989D01*
X126493426Y-99661612D01*
X126493428Y-99661613D01*
X126688537Y-99739723D01*
X126688539Y-99739723D01*
X126688543Y-99739725D01*
X126894915Y-99779500D01*
X126894920Y-99779500D01*
X127052432Y-99779500D01*
X127052435Y-99779499D01*
X127209209Y-99764529D01*
X127209210Y-99764528D01*
X127209218Y-99764528D01*
X127410875Y-99705316D01*
X127597682Y-99609011D01*
X127762886Y-99479092D01*
X127900519Y-99320256D01*
X128005604Y-99138244D01*
X128074344Y-98939633D01*
X128104254Y-98731602D01*
X128099243Y-98626399D01*
X132895746Y-98626399D01*
X132905746Y-98836330D01*
X132905747Y-98836340D01*
X132955294Y-99040572D01*
X132955295Y-99040576D01*
X133042600Y-99231745D01*
X133042607Y-99231758D01*
X133147486Y-99379040D01*
X133164514Y-99402952D01*
X133316622Y-99547986D01*
X133316624Y-99547987D01*
X133316626Y-99547989D01*
X133493426Y-99661612D01*
X133493428Y-99661613D01*
X133688537Y-99739723D01*
X133688539Y-99739723D01*
X133688543Y-99739725D01*
X133894915Y-99779500D01*
X133894920Y-99779500D01*
X134052432Y-99779500D01*
X134052435Y-99779499D01*
X134209209Y-99764529D01*
X134209210Y-99764528D01*
X134209218Y-99764528D01*
X134410875Y-99705316D01*
X134597682Y-99609011D01*
X134762886Y-99479092D01*
X134900519Y-99320256D01*
X135005604Y-99138244D01*
X135074344Y-98939633D01*
X135079919Y-98900857D01*
X155271203Y-98900857D01*
X155273437Y-98909194D01*
X155276000Y-98928659D01*
X155276000Y-107771624D01*
X155275948Y-107773592D01*
X155273765Y-107815238D01*
X155282633Y-107838340D01*
X155285983Y-107849650D01*
X155291130Y-107873863D01*
X155291131Y-107873865D01*
X155296208Y-107880853D01*
X155305573Y-107898101D01*
X155308669Y-107906166D01*
X155326164Y-107923661D01*
X155333826Y-107932631D01*
X155348376Y-107952656D01*
X155348378Y-107952658D01*
X155355859Y-107956977D01*
X155371430Y-107968926D01*
X169936647Y-122534144D01*
X169958387Y-122580764D01*
X169945073Y-122630451D01*
X169910640Y-122657439D01*
X169874956Y-122671263D01*
X169874953Y-122671265D01*
X169702777Y-122777872D01*
X169553125Y-122914299D01*
X169553122Y-122914302D01*
X169431085Y-123075906D01*
X169340826Y-123257172D01*
X169340821Y-123257185D01*
X169285404Y-123451952D01*
X169266719Y-123653597D01*
X169266719Y-123653602D01*
X169285404Y-123855247D01*
X169340821Y-124050014D01*
X169340826Y-124050027D01*
X169431085Y-124231293D01*
X169553122Y-124392897D01*
X169553125Y-124392900D01*
X169702777Y-124529327D01*
X169702779Y-124529328D01*
X169702780Y-124529329D01*
X169874955Y-124635935D01*
X170063787Y-124709089D01*
X170262846Y-124746300D01*
X170262850Y-124746300D01*
X170465350Y-124746300D01*
X170465354Y-124746300D01*
X170664413Y-124709089D01*
X170853245Y-124635935D01*
X171025420Y-124529329D01*
X171175074Y-124392901D01*
X171297112Y-124231297D01*
X171387377Y-124050020D01*
X171442796Y-123855243D01*
X171461481Y-123653600D01*
X171442796Y-123451957D01*
X171387377Y-123257180D01*
X171350811Y-123183746D01*
X171297114Y-123075906D01*
X171175077Y-122914302D01*
X171175074Y-122914299D01*
X171025422Y-122777872D01*
X170983373Y-122751836D01*
X170951537Y-122711431D01*
X170953122Y-122660016D01*
X170987385Y-122621648D01*
X171022961Y-122612700D01*
X171119125Y-122612700D01*
X171121093Y-122612752D01*
X171162739Y-122614934D01*
X171185838Y-122606066D01*
X171197157Y-122602714D01*
X171199288Y-122602261D01*
X171221365Y-122597569D01*
X171228350Y-122592493D01*
X171245599Y-122583127D01*
X171253664Y-122580032D01*
X171271170Y-122562525D01*
X171280129Y-122554872D01*
X171300158Y-122540322D01*
X171304476Y-122532840D01*
X171316423Y-122517271D01*
X172045199Y-121788496D01*
X172046565Y-121787199D01*
X172077586Y-121759270D01*
X172087655Y-121736653D01*
X172093277Y-121726298D01*
X172106762Y-121705536D01*
X172108113Y-121697000D01*
X172113688Y-121678182D01*
X172117200Y-121670297D01*
X172117200Y-121645546D01*
X172118126Y-121633781D01*
X172121997Y-121609341D01*
X172121519Y-121607559D01*
X172119762Y-121600997D01*
X172117200Y-121581537D01*
X172117200Y-117310573D01*
X172117252Y-117308605D01*
X172119434Y-117266960D01*
X172110567Y-117243861D01*
X172107216Y-117232547D01*
X172102069Y-117208337D01*
X172102069Y-117208335D01*
X172096990Y-117201344D01*
X172087624Y-117184091D01*
X172084532Y-117176037D01*
X172084530Y-117176033D01*
X172067032Y-117158535D01*
X172059368Y-117149563D01*
X172044821Y-117129540D01*
X172037342Y-117125223D01*
X172021771Y-117113275D01*
X171732824Y-116824328D01*
X171711085Y-116777708D01*
X171710799Y-116771154D01*
X171710799Y-115078744D01*
X171701928Y-115034142D01*
X171668134Y-114983566D01*
X171617558Y-114949772D01*
X171617556Y-114949771D01*
X171572957Y-114940900D01*
X171073343Y-114940900D01*
X171025005Y-114923307D01*
X170999285Y-114878758D01*
X171008218Y-114828100D01*
X171020169Y-114812526D01*
X171421460Y-114411235D01*
X171918199Y-113914496D01*
X171919565Y-113913199D01*
X171950586Y-113885270D01*
X171960656Y-113862650D01*
X171966274Y-113852302D01*
X171979761Y-113831536D01*
X171981111Y-113823007D01*
X171986685Y-113804190D01*
X171990200Y-113796297D01*
X171990200Y-113771546D01*
X171991126Y-113759780D01*
X171993024Y-113747797D01*
X171994997Y-113735342D01*
X171994519Y-113733560D01*
X171992762Y-113726998D01*
X171990200Y-113707538D01*
X171990200Y-109944573D01*
X171990252Y-109942605D01*
X171992434Y-109900960D01*
X171983567Y-109877861D01*
X171980216Y-109866547D01*
X171975070Y-109842340D01*
X171975069Y-109842335D01*
X171969992Y-109835347D01*
X171960624Y-109818091D01*
X171957532Y-109810035D01*
X171957531Y-109810033D01*
X171940032Y-109792534D01*
X171932369Y-109783563D01*
X171917822Y-109763542D01*
X171912726Y-109760600D01*
X171910341Y-109759223D01*
X171894771Y-109747274D01*
X171197960Y-109050463D01*
X171176220Y-109003843D01*
X171183817Y-108963773D01*
X171260377Y-108810020D01*
X171315796Y-108615243D01*
X171334481Y-108413600D01*
X171315796Y-108211957D01*
X171311893Y-108198240D01*
X171260378Y-108017185D01*
X171260377Y-108017180D01*
X171257526Y-108011455D01*
X171170114Y-107835906D01*
X171048077Y-107674302D01*
X171048074Y-107674299D01*
X170898422Y-107537872D01*
X170726249Y-107431267D01*
X170726246Y-107431266D01*
X170726245Y-107431265D01*
X170537413Y-107358111D01*
X170338354Y-107320900D01*
X170135846Y-107320900D01*
X169976598Y-107350668D01*
X169936786Y-107358111D01*
X169747950Y-107431267D01*
X169575777Y-107537872D01*
X169423662Y-107676545D01*
X169376088Y-107696109D01*
X169327068Y-107680515D01*
X169299541Y-107637060D01*
X169297800Y-107620972D01*
X169297800Y-107422043D01*
X169315393Y-107373705D01*
X169319815Y-107368880D01*
X169855343Y-106833352D01*
X169901961Y-106811613D01*
X169948101Y-106822590D01*
X170001955Y-106855935D01*
X170190787Y-106929089D01*
X170389846Y-106966300D01*
X170389850Y-106966300D01*
X170592350Y-106966300D01*
X170592354Y-106966300D01*
X170791413Y-106929089D01*
X170980245Y-106855935D01*
X171152420Y-106749329D01*
X171302074Y-106612901D01*
X171302373Y-106612506D01*
X171340499Y-106562017D01*
X171424112Y-106451297D01*
X171514377Y-106270020D01*
X171569796Y-106075243D01*
X171588481Y-105873600D01*
X171569796Y-105671957D01*
X171567451Y-105663716D01*
X171514378Y-105477185D01*
X171514377Y-105477180D01*
X171511526Y-105471455D01*
X171424114Y-105295906D01*
X171302077Y-105134302D01*
X171302074Y-105134299D01*
X171152422Y-104997872D01*
X171020416Y-104916137D01*
X170988581Y-104875732D01*
X170990165Y-104824317D01*
X171006828Y-104799029D01*
X171679089Y-104126768D01*
X171689100Y-104119568D01*
X171688711Y-104119053D01*
X171694266Y-104114857D01*
X171694271Y-104114855D01*
X171727405Y-104078507D01*
X171728557Y-104077300D01*
X171742983Y-104062876D01*
X171745524Y-104059165D01*
X171748745Y-104055098D01*
X171771167Y-104030504D01*
X171775838Y-104018443D01*
X171783920Y-104003114D01*
X171791224Y-103992453D01*
X171798842Y-103960058D01*
X171800378Y-103955098D01*
X171812400Y-103924070D01*
X171812400Y-103911141D01*
X171814398Y-103893922D01*
X171817357Y-103881343D01*
X171812761Y-103848394D01*
X171812400Y-103843193D01*
X171812400Y-102862268D01*
X171814385Y-102850098D01*
X171813748Y-102850009D01*
X171814710Y-102843112D01*
X171812440Y-102794003D01*
X171812400Y-102792267D01*
X171812400Y-102771916D01*
X171812400Y-102771911D01*
X171812184Y-102770759D01*
X171811576Y-102767498D01*
X171810976Y-102762324D01*
X171810322Y-102748200D01*
X171809439Y-102729092D01*
X171804217Y-102717265D01*
X171799090Y-102700710D01*
X171796715Y-102688003D01*
X171779201Y-102659718D01*
X171776776Y-102655119D01*
X171763335Y-102624675D01*
X171754189Y-102615529D01*
X171743429Y-102601944D01*
X171736629Y-102590961D01*
X171736628Y-102590960D01*
X171736627Y-102590958D01*
X171727515Y-102584077D01*
X171710080Y-102570910D01*
X171706148Y-102567488D01*
X171382433Y-102243773D01*
X171360693Y-102197153D01*
X171374007Y-102147466D01*
X171382433Y-102137425D01*
X171633558Y-101886300D01*
X171907689Y-101612168D01*
X171917700Y-101604968D01*
X171917311Y-101604453D01*
X171922866Y-101600257D01*
X171922871Y-101600255D01*
X171956005Y-101563907D01*
X171957157Y-101562700D01*
X171971583Y-101548276D01*
X171974124Y-101544565D01*
X171977345Y-101540498D01*
X171999767Y-101515904D01*
X172004438Y-101503843D01*
X172012520Y-101488514D01*
X172019824Y-101477853D01*
X172027441Y-101445461D01*
X172028980Y-101440494D01*
X172041000Y-101409470D01*
X172041000Y-101396541D01*
X172042998Y-101379323D01*
X172045957Y-101366744D01*
X172041361Y-101333796D01*
X172041000Y-101328595D01*
X172041000Y-86860268D01*
X172042985Y-86848098D01*
X172042348Y-86848009D01*
X172043310Y-86841112D01*
X172041040Y-86792013D01*
X172041000Y-86790276D01*
X172041000Y-86769915D01*
X172041000Y-86769911D01*
X172040173Y-86765489D01*
X172039574Y-86760320D01*
X172038038Y-86727091D01*
X172032818Y-86715269D01*
X172027690Y-86698713D01*
X172025315Y-86686003D01*
X172007798Y-86657713D01*
X172005370Y-86653107D01*
X171991934Y-86622675D01*
X171982791Y-86613532D01*
X171972033Y-86599951D01*
X171965227Y-86588958D01*
X171965225Y-86588956D01*
X171951998Y-86578968D01*
X171938671Y-86568904D01*
X171934744Y-86565485D01*
X171487782Y-86118523D01*
X171466042Y-86071903D01*
X171473639Y-86031831D01*
X171514377Y-85950020D01*
X171564530Y-85773753D01*
X171569795Y-85755247D01*
X171569795Y-85755246D01*
X171569796Y-85755243D01*
X171588481Y-85553600D01*
X171569796Y-85351957D01*
X171555863Y-85302989D01*
X171528462Y-85206684D01*
X171514377Y-85157180D01*
X171502088Y-85132500D01*
X171424114Y-84975906D01*
X171302077Y-84814302D01*
X171302074Y-84814299D01*
X171152422Y-84677872D01*
X170980249Y-84571267D01*
X170980246Y-84571266D01*
X170980245Y-84571265D01*
X170791413Y-84498111D01*
X170592354Y-84460900D01*
X170389846Y-84460900D01*
X170230598Y-84490668D01*
X170190786Y-84498111D01*
X170001950Y-84571267D01*
X169829777Y-84677872D01*
X169680125Y-84814299D01*
X169680122Y-84814302D01*
X169558085Y-84975906D01*
X169467826Y-85157172D01*
X169467821Y-85157185D01*
X169412404Y-85351952D01*
X169393719Y-85553597D01*
X169393719Y-85553602D01*
X169412404Y-85755247D01*
X169467821Y-85950014D01*
X169467826Y-85950027D01*
X169558085Y-86131293D01*
X169680122Y-86292897D01*
X169680125Y-86292900D01*
X169829777Y-86429327D01*
X169829779Y-86429328D01*
X169829780Y-86429329D01*
X170001955Y-86535935D01*
X170190787Y-86609089D01*
X170389846Y-86646300D01*
X170389850Y-86646300D01*
X170592350Y-86646300D01*
X170592354Y-86646300D01*
X170791413Y-86609089D01*
X170978833Y-86536481D01*
X171030260Y-86535426D01*
X171059171Y-86553430D01*
X171408374Y-86902633D01*
X171430114Y-86949253D01*
X171430400Y-86955807D01*
X171430400Y-87755656D01*
X171412807Y-87803994D01*
X171368258Y-87829714D01*
X171317600Y-87820781D01*
X171284535Y-87781376D01*
X171282871Y-87776236D01*
X171260378Y-87697185D01*
X171260377Y-87697180D01*
X171257526Y-87691455D01*
X171170114Y-87515906D01*
X171048077Y-87354302D01*
X171048074Y-87354299D01*
X170898422Y-87217872D01*
X170726249Y-87111267D01*
X170726246Y-87111266D01*
X170726245Y-87111265D01*
X170537413Y-87038111D01*
X170338354Y-87000900D01*
X170135846Y-87000900D01*
X169976598Y-87030668D01*
X169936786Y-87038111D01*
X169747950Y-87111267D01*
X169575777Y-87217872D01*
X169426125Y-87354299D01*
X169426122Y-87354302D01*
X169304085Y-87515906D01*
X169213826Y-87697172D01*
X169213821Y-87697185D01*
X169158404Y-87891952D01*
X169139719Y-88093597D01*
X169139719Y-88093602D01*
X169158404Y-88295247D01*
X169213821Y-88490014D01*
X169213826Y-88490027D01*
X169304085Y-88671293D01*
X169426122Y-88832897D01*
X169426125Y-88832900D01*
X169575777Y-88969327D01*
X169575779Y-88969328D01*
X169575780Y-88969329D01*
X169747955Y-89075935D01*
X169936787Y-89149089D01*
X170135846Y-89186300D01*
X170135850Y-89186300D01*
X170338350Y-89186300D01*
X170338354Y-89186300D01*
X170537413Y-89149089D01*
X170726245Y-89075935D01*
X170898420Y-88969329D01*
X171048074Y-88832901D01*
X171170112Y-88671297D01*
X171260377Y-88490020D01*
X171282870Y-88410963D01*
X171313021Y-88369286D01*
X171362907Y-88356739D01*
X171409187Y-88379194D01*
X171430206Y-88426143D01*
X171430400Y-88431543D01*
X171430400Y-89840972D01*
X171412807Y-89889310D01*
X171368258Y-89915030D01*
X171317600Y-89906097D01*
X171304538Y-89896545D01*
X171152422Y-89757872D01*
X170980249Y-89651267D01*
X170980246Y-89651266D01*
X170980245Y-89651265D01*
X170791413Y-89578111D01*
X170592354Y-89540900D01*
X170389846Y-89540900D01*
X170230598Y-89570668D01*
X170190786Y-89578111D01*
X170001950Y-89651267D01*
X169829777Y-89757872D01*
X169680125Y-89894299D01*
X169680122Y-89894302D01*
X169558085Y-90055906D01*
X169467826Y-90237172D01*
X169467821Y-90237185D01*
X169412404Y-90431952D01*
X169393719Y-90633597D01*
X169393719Y-90633602D01*
X169412404Y-90835247D01*
X169467821Y-91030014D01*
X169467826Y-91030027D01*
X169558085Y-91211293D01*
X169680122Y-91372897D01*
X169680125Y-91372900D01*
X169829777Y-91509327D01*
X169829779Y-91509328D01*
X169829780Y-91509329D01*
X170001955Y-91615935D01*
X170190787Y-91689089D01*
X170389846Y-91726300D01*
X170389850Y-91726300D01*
X170592350Y-91726300D01*
X170592354Y-91726300D01*
X170791413Y-91689089D01*
X170980245Y-91615935D01*
X171152420Y-91509329D01*
X171302074Y-91372901D01*
X171302075Y-91372898D01*
X171304538Y-91370654D01*
X171352112Y-91351090D01*
X171401131Y-91366684D01*
X171428659Y-91410139D01*
X171430400Y-91426227D01*
X171430400Y-92835656D01*
X171412807Y-92883994D01*
X171368258Y-92909714D01*
X171317600Y-92900781D01*
X171284535Y-92861376D01*
X171282871Y-92856236D01*
X171260378Y-92777185D01*
X171260377Y-92777180D01*
X171257526Y-92771455D01*
X171170114Y-92595906D01*
X171048077Y-92434302D01*
X171048074Y-92434299D01*
X170898422Y-92297872D01*
X170726249Y-92191267D01*
X170726246Y-92191266D01*
X170726245Y-92191265D01*
X170537413Y-92118111D01*
X170338354Y-92080900D01*
X170135846Y-92080900D01*
X169976598Y-92110668D01*
X169936786Y-92118111D01*
X169747950Y-92191267D01*
X169575777Y-92297872D01*
X169426125Y-92434299D01*
X169426122Y-92434302D01*
X169304085Y-92595906D01*
X169213826Y-92777172D01*
X169213821Y-92777185D01*
X169158404Y-92971952D01*
X169139719Y-93173597D01*
X169139719Y-93173602D01*
X169158404Y-93375247D01*
X169213821Y-93570014D01*
X169213826Y-93570027D01*
X169304085Y-93751293D01*
X169426122Y-93912897D01*
X169426125Y-93912900D01*
X169575777Y-94049327D01*
X169575779Y-94049328D01*
X169575780Y-94049329D01*
X169747955Y-94155935D01*
X169936787Y-94229089D01*
X170135846Y-94266300D01*
X170135850Y-94266300D01*
X170338350Y-94266300D01*
X170338354Y-94266300D01*
X170537413Y-94229089D01*
X170726245Y-94155935D01*
X170898420Y-94049329D01*
X171048074Y-93912901D01*
X171170112Y-93751297D01*
X171260377Y-93570020D01*
X171282870Y-93490963D01*
X171313021Y-93449286D01*
X171362907Y-93436739D01*
X171409187Y-93459194D01*
X171430206Y-93506143D01*
X171430400Y-93511543D01*
X171430400Y-94920972D01*
X171412807Y-94969310D01*
X171368258Y-94995030D01*
X171317600Y-94986097D01*
X171304538Y-94976545D01*
X171152422Y-94837872D01*
X170980249Y-94731267D01*
X170980246Y-94731266D01*
X170980245Y-94731265D01*
X170791413Y-94658111D01*
X170592354Y-94620900D01*
X170389846Y-94620900D01*
X170230598Y-94650668D01*
X170190786Y-94658111D01*
X170031193Y-94719938D01*
X170001984Y-94731254D01*
X170001950Y-94731267D01*
X169829777Y-94837872D01*
X169680125Y-94974299D01*
X169680122Y-94974302D01*
X169558085Y-95135906D01*
X169467826Y-95317172D01*
X169467821Y-95317185D01*
X169412404Y-95511952D01*
X169393719Y-95713597D01*
X169393719Y-95713602D01*
X169412404Y-95915247D01*
X169467821Y-96110014D01*
X169467826Y-96110027D01*
X169558085Y-96291293D01*
X169680122Y-96452897D01*
X169680125Y-96452900D01*
X169829777Y-96589327D01*
X169829779Y-96589328D01*
X169829780Y-96589329D01*
X170001955Y-96695935D01*
X170190787Y-96769089D01*
X170389846Y-96806300D01*
X170389850Y-96806300D01*
X170592350Y-96806300D01*
X170592354Y-96806300D01*
X170791413Y-96769089D01*
X170980245Y-96695935D01*
X171152420Y-96589329D01*
X171302074Y-96452901D01*
X171302075Y-96452898D01*
X171304538Y-96450654D01*
X171352112Y-96431090D01*
X171401131Y-96446684D01*
X171428659Y-96490139D01*
X171430400Y-96506227D01*
X171430400Y-97462240D01*
X171412807Y-97510578D01*
X171368258Y-97536298D01*
X171317600Y-97527365D01*
X171293600Y-97505373D01*
X171269963Y-97471617D01*
X171269962Y-97471616D01*
X170768848Y-97972731D01*
X170722228Y-97994471D01*
X170672541Y-97981157D01*
X170652415Y-97960217D01*
X170624969Y-97917510D01*
X170523855Y-97829893D01*
X170498847Y-97784944D01*
X170508582Y-97734434D01*
X170519928Y-97719888D01*
X171019081Y-97220735D01*
X170886870Y-97128159D01*
X170886870Y-97128158D01*
X170681574Y-97032428D01*
X170681570Y-97032427D01*
X170462759Y-96973797D01*
X170237100Y-96954055D01*
X170011440Y-96973797D01*
X169792629Y-97032427D01*
X169792625Y-97032428D01*
X169587333Y-97128157D01*
X169455117Y-97220735D01*
X169455116Y-97220736D01*
X169954270Y-97719889D01*
X169976010Y-97766509D01*
X169962696Y-97816196D01*
X169950342Y-97829895D01*
X169849231Y-97917510D01*
X169849230Y-97917511D01*
X169821785Y-97960215D01*
X169780851Y-97991366D01*
X169729469Y-97988917D01*
X169705350Y-97972731D01*
X169204236Y-97471616D01*
X169204235Y-97471617D01*
X169111657Y-97603833D01*
X169015928Y-97809125D01*
X169015927Y-97809129D01*
X168957297Y-98027940D01*
X168937555Y-98253599D01*
X168957297Y-98479259D01*
X169015927Y-98698070D01*
X169015928Y-98698074D01*
X169111659Y-98903370D01*
X169204235Y-99035581D01*
X169705349Y-98534467D01*
X169751970Y-98512727D01*
X169801657Y-98526041D01*
X169821786Y-98546985D01*
X169849231Y-98589690D01*
X169950342Y-98677304D01*
X169975351Y-98722253D01*
X169965616Y-98772764D01*
X169954270Y-98787309D01*
X169455116Y-99286462D01*
X169455117Y-99286463D01*
X169587329Y-99379040D01*
X169587329Y-99379041D01*
X169792625Y-99474771D01*
X169792629Y-99474772D01*
X170011440Y-99533402D01*
X170237100Y-99553144D01*
X170462759Y-99533402D01*
X170681570Y-99474772D01*
X170681574Y-99474771D01*
X170886867Y-99379042D01*
X171019082Y-99286462D01*
X170519929Y-98787310D01*
X170498189Y-98740690D01*
X170511503Y-98691003D01*
X170523854Y-98677307D01*
X170624969Y-98589690D01*
X170652413Y-98546986D01*
X170693345Y-98515834D01*
X170744727Y-98518280D01*
X170768849Y-98534468D01*
X171269962Y-99035582D01*
X171269962Y-99035581D01*
X171293600Y-99001825D01*
X171335737Y-98972320D01*
X171386981Y-98976804D01*
X171423355Y-99013178D01*
X171430400Y-99044958D01*
X171430400Y-100000972D01*
X171412807Y-100049310D01*
X171368258Y-100075030D01*
X171317600Y-100066097D01*
X171304538Y-100056545D01*
X171152422Y-99917872D01*
X170980249Y-99811267D01*
X170980246Y-99811266D01*
X170980245Y-99811265D01*
X170791413Y-99738111D01*
X170592354Y-99700900D01*
X170389846Y-99700900D01*
X170230598Y-99730668D01*
X170190786Y-99738111D01*
X170001950Y-99811267D01*
X169829777Y-99917872D01*
X169680125Y-100054299D01*
X169680122Y-100054302D01*
X169558085Y-100215906D01*
X169467823Y-100397178D01*
X169467820Y-100397184D01*
X169435757Y-100509879D01*
X169405607Y-100551557D01*
X169363428Y-100564500D01*
X166439299Y-100564500D01*
X166390961Y-100546907D01*
X166365241Y-100502358D01*
X166364099Y-100489300D01*
X166364099Y-100220922D01*
X166381692Y-100172584D01*
X166406274Y-100153362D01*
X166420218Y-100146545D01*
X166503944Y-100062819D01*
X166555951Y-99956437D01*
X166565999Y-99887480D01*
X166566000Y-99887470D01*
X166566000Y-99447000D01*
X164256200Y-99447000D01*
X164256200Y-99887480D01*
X164266248Y-99956437D01*
X164318255Y-100062819D01*
X164401979Y-100146543D01*
X164415926Y-100153361D01*
X164451626Y-100190396D01*
X164458100Y-100220921D01*
X164458100Y-101392855D01*
X164458101Y-101392857D01*
X164466972Y-101437459D01*
X164500764Y-101488033D01*
X164508306Y-101493072D01*
X164538723Y-101534554D01*
X164535360Y-101585884D01*
X164508312Y-101618122D01*
X164500767Y-101623163D01*
X164466972Y-101673742D01*
X164466971Y-101673743D01*
X164458100Y-101718342D01*
X164458100Y-102916855D01*
X164458101Y-102916857D01*
X164466972Y-102961459D01*
X164500764Y-103012032D01*
X164500765Y-103012032D01*
X164500766Y-103012034D01*
X164551342Y-103045828D01*
X164595943Y-103054700D01*
X166226256Y-103054699D01*
X166270858Y-103045828D01*
X166321434Y-103012034D01*
X166355228Y-102961458D01*
X166364100Y-102916857D01*
X166364100Y-102647299D01*
X166381693Y-102598962D01*
X166426242Y-102573242D01*
X166439300Y-102572100D01*
X169291867Y-102572100D01*
X169340205Y-102589693D01*
X169365925Y-102634242D01*
X169356992Y-102684900D01*
X169351878Y-102692618D01*
X169304085Y-102755906D01*
X169213826Y-102937172D01*
X169213821Y-102937185D01*
X169158405Y-103131950D01*
X169158404Y-103131955D01*
X169154031Y-103179142D01*
X169132326Y-103225376D01*
X166693986Y-105663716D01*
X166647366Y-105685456D01*
X166597679Y-105672142D01*
X166568174Y-105630005D01*
X166565809Y-105605102D01*
X166566000Y-105602468D01*
X166566000Y-105162000D01*
X165308900Y-105162000D01*
X165260562Y-105144407D01*
X165234842Y-105099858D01*
X165233700Y-105086800D01*
X165233700Y-104045600D01*
X165588500Y-104045600D01*
X165588500Y-104807200D01*
X166566000Y-104807200D01*
X166566000Y-104366729D01*
X166565999Y-104366719D01*
X166555951Y-104297762D01*
X166503944Y-104191380D01*
X166420219Y-104107655D01*
X166313836Y-104055648D01*
X166313837Y-104055648D01*
X166244880Y-104045600D01*
X165588500Y-104045600D01*
X165233700Y-104045600D01*
X164577323Y-104045600D01*
X164563164Y-104047663D01*
X164512796Y-104037220D01*
X164483626Y-104003833D01*
X164482069Y-104000335D01*
X164476992Y-103993347D01*
X164467625Y-103976095D01*
X164464532Y-103968036D01*
X164464531Y-103968035D01*
X164464529Y-103968032D01*
X164447032Y-103950535D01*
X164439368Y-103941563D01*
X164424821Y-103921540D01*
X164417342Y-103917223D01*
X164401768Y-103905272D01*
X161852226Y-101355729D01*
X161830486Y-101309109D01*
X161830200Y-101302555D01*
X161830200Y-99092200D01*
X164256200Y-99092200D01*
X165233700Y-99092200D01*
X165233700Y-98330600D01*
X165588500Y-98330600D01*
X165588500Y-99092200D01*
X166566000Y-99092200D01*
X166566000Y-98651729D01*
X166565999Y-98651719D01*
X166555951Y-98582762D01*
X166503944Y-98476380D01*
X166420219Y-98392655D01*
X166313836Y-98340648D01*
X166313837Y-98340648D01*
X166244880Y-98330600D01*
X165588500Y-98330600D01*
X165233700Y-98330600D01*
X164577319Y-98330600D01*
X164508362Y-98340648D01*
X164401980Y-98392655D01*
X164318255Y-98476380D01*
X164266248Y-98582762D01*
X164256200Y-98651719D01*
X164256200Y-99092200D01*
X161830200Y-99092200D01*
X161830200Y-96039593D01*
X161847793Y-95991255D01*
X161864743Y-95976331D01*
X161912314Y-95945760D01*
X162000895Y-95843533D01*
X162057087Y-95720490D01*
X162076337Y-95586600D01*
X162057087Y-95452710D01*
X162057085Y-95452705D01*
X162057085Y-95452704D01*
X162000896Y-95329669D01*
X162000895Y-95329668D01*
X162000895Y-95329667D01*
X161912314Y-95227440D01*
X161798521Y-95154309D01*
X161798520Y-95154308D01*
X161798519Y-95154308D01*
X161668735Y-95116200D01*
X161668733Y-95116200D01*
X161533467Y-95116200D01*
X161533464Y-95116200D01*
X161403680Y-95154308D01*
X161289886Y-95227440D01*
X161201303Y-95329669D01*
X161145114Y-95452704D01*
X161145114Y-95452706D01*
X161145113Y-95452708D01*
X161145113Y-95452710D01*
X161136595Y-95511957D01*
X161135959Y-95516381D01*
X161111665Y-95561723D01*
X161063910Y-95580841D01*
X161015038Y-95564790D01*
X161008350Y-95558853D01*
X160630197Y-95180700D01*
X160244014Y-94794517D01*
X160242678Y-94793109D01*
X160224275Y-94772671D01*
X160214770Y-94762114D01*
X160214769Y-94762113D01*
X160192158Y-94752045D01*
X160181792Y-94746417D01*
X160161036Y-94732939D01*
X160161033Y-94732938D01*
X160152501Y-94731586D01*
X160133687Y-94726012D01*
X160125798Y-94722500D01*
X160125797Y-94722500D01*
X160101046Y-94722500D01*
X160089283Y-94721574D01*
X160073989Y-94719151D01*
X160064843Y-94717703D01*
X160064841Y-94717703D01*
X160056500Y-94719938D01*
X160037039Y-94722500D01*
X159449084Y-94722500D01*
X159447116Y-94722448D01*
X159405462Y-94720265D01*
X159382354Y-94729135D01*
X159371046Y-94732484D01*
X159346836Y-94737630D01*
X159346834Y-94737631D01*
X159339848Y-94742707D01*
X159322602Y-94752071D01*
X159314539Y-94755166D01*
X159314534Y-94755169D01*
X159297031Y-94772671D01*
X159288065Y-94780329D01*
X159268042Y-94794877D01*
X159268040Y-94794880D01*
X159263722Y-94802359D01*
X159251773Y-94817929D01*
X155348036Y-98721666D01*
X155346609Y-98723020D01*
X155315614Y-98750929D01*
X155315612Y-98750933D01*
X155305546Y-98773539D01*
X155299921Y-98783900D01*
X155286438Y-98804665D01*
X155285086Y-98813199D01*
X155279514Y-98832009D01*
X155276000Y-98839903D01*
X155276000Y-98864653D01*
X155275074Y-98876418D01*
X155271203Y-98900856D01*
X155271203Y-98900857D01*
X135079919Y-98900857D01*
X135104254Y-98731602D01*
X135094254Y-98521670D01*
X135094252Y-98521663D01*
X135094252Y-98521659D01*
X135044705Y-98317427D01*
X135044704Y-98317423D01*
X134960704Y-98133490D01*
X134957396Y-98126247D01*
X134835486Y-97955048D01*
X134683378Y-97810014D01*
X134683375Y-97810012D01*
X134683373Y-97810010D01*
X134506573Y-97696387D01*
X134506571Y-97696386D01*
X134311462Y-97618276D01*
X134311457Y-97618275D01*
X134105089Y-97578500D01*
X134105085Y-97578500D01*
X133947575Y-97578500D01*
X133947564Y-97578500D01*
X133790790Y-97593470D01*
X133790781Y-97593472D01*
X133589127Y-97652682D01*
X133402319Y-97748988D01*
X133237116Y-97878905D01*
X133099481Y-98037744D01*
X133099479Y-98037746D01*
X132994397Y-98219753D01*
X132925656Y-98418365D01*
X132923689Y-98432049D01*
X132895746Y-98626398D01*
X132895746Y-98626399D01*
X128099243Y-98626399D01*
X128094254Y-98521670D01*
X128094252Y-98521663D01*
X128094252Y-98521659D01*
X128044705Y-98317427D01*
X128044704Y-98317423D01*
X127960704Y-98133490D01*
X127957396Y-98126247D01*
X127835486Y-97955048D01*
X127683378Y-97810014D01*
X127683375Y-97810012D01*
X127683373Y-97810010D01*
X127506573Y-97696387D01*
X127506571Y-97696386D01*
X127311462Y-97618276D01*
X127311457Y-97618275D01*
X127105089Y-97578500D01*
X127105085Y-97578500D01*
X126947575Y-97578500D01*
X126947564Y-97578500D01*
X126790790Y-97593470D01*
X126790781Y-97593472D01*
X126589127Y-97652682D01*
X126402319Y-97748988D01*
X126237116Y-97878905D01*
X126099481Y-98037744D01*
X126099479Y-98037746D01*
X125994397Y-98219753D01*
X125925656Y-98418365D01*
X125923689Y-98432049D01*
X125895746Y-98626398D01*
X125895746Y-98626399D01*
X123526600Y-98626399D01*
X123526600Y-86180399D01*
X125895746Y-86180399D01*
X125905746Y-86390330D01*
X125905747Y-86390340D01*
X125955294Y-86594572D01*
X125955295Y-86594576D01*
X126042600Y-86785745D01*
X126042607Y-86785758D01*
X126164511Y-86956948D01*
X126164514Y-86956952D01*
X126316622Y-87101986D01*
X126316624Y-87101987D01*
X126316626Y-87101989D01*
X126493426Y-87215612D01*
X126493428Y-87215613D01*
X126688537Y-87293723D01*
X126688539Y-87293723D01*
X126688543Y-87293725D01*
X126894915Y-87333500D01*
X126894920Y-87333500D01*
X127052432Y-87333500D01*
X127052435Y-87333499D01*
X127209209Y-87318529D01*
X127209210Y-87318528D01*
X127209218Y-87318528D01*
X127410875Y-87259316D01*
X127597682Y-87163011D01*
X127762886Y-87033092D01*
X127900519Y-86874256D01*
X128005604Y-86692244D01*
X128074344Y-86493633D01*
X128104254Y-86285602D01*
X128099243Y-86180399D01*
X132895746Y-86180399D01*
X132905746Y-86390330D01*
X132905747Y-86390340D01*
X132955294Y-86594572D01*
X132955295Y-86594576D01*
X133042600Y-86785745D01*
X133042607Y-86785758D01*
X133164511Y-86956948D01*
X133164514Y-86956952D01*
X133316622Y-87101986D01*
X133316624Y-87101987D01*
X133316626Y-87101989D01*
X133493426Y-87215612D01*
X133493428Y-87215613D01*
X133688537Y-87293723D01*
X133688539Y-87293723D01*
X133688543Y-87293725D01*
X133894915Y-87333500D01*
X133894920Y-87333500D01*
X134052432Y-87333500D01*
X134052435Y-87333499D01*
X134209209Y-87318529D01*
X134209210Y-87318528D01*
X134209218Y-87318528D01*
X134410875Y-87259316D01*
X134597682Y-87163011D01*
X134762886Y-87033092D01*
X134900519Y-86874256D01*
X135005604Y-86692244D01*
X135074344Y-86493633D01*
X135104254Y-86285602D01*
X135094254Y-86075670D01*
X135094252Y-86075663D01*
X135094252Y-86075659D01*
X135044705Y-85871427D01*
X135044704Y-85871423D01*
X134957399Y-85680254D01*
X134957396Y-85680247D01*
X134835486Y-85509048D01*
X134683378Y-85364014D01*
X134683375Y-85364012D01*
X134683373Y-85364010D01*
X134506573Y-85250387D01*
X134506571Y-85250386D01*
X134311462Y-85172276D01*
X134311457Y-85172275D01*
X134105089Y-85132500D01*
X134105085Y-85132500D01*
X133947575Y-85132500D01*
X133947564Y-85132500D01*
X133790790Y-85147470D01*
X133790781Y-85147472D01*
X133589127Y-85206682D01*
X133402319Y-85302988D01*
X133237116Y-85432905D01*
X133099481Y-85591744D01*
X133099479Y-85591746D01*
X132994397Y-85773753D01*
X132925656Y-85972365D01*
X132925656Y-85972367D01*
X132895746Y-86180398D01*
X132895746Y-86180399D01*
X128099243Y-86180399D01*
X128094254Y-86075670D01*
X128094252Y-86075663D01*
X128094252Y-86075659D01*
X128044705Y-85871427D01*
X128044704Y-85871423D01*
X127957399Y-85680254D01*
X127957396Y-85680247D01*
X127835486Y-85509048D01*
X127683378Y-85364014D01*
X127683375Y-85364012D01*
X127683373Y-85364010D01*
X127506573Y-85250387D01*
X127506571Y-85250386D01*
X127311462Y-85172276D01*
X127311457Y-85172275D01*
X127105089Y-85132500D01*
X127105085Y-85132500D01*
X126947575Y-85132500D01*
X126947564Y-85132500D01*
X126790790Y-85147470D01*
X126790781Y-85147472D01*
X126589127Y-85206682D01*
X126402319Y-85302988D01*
X126237116Y-85432905D01*
X126099481Y-85591744D01*
X126099479Y-85591746D01*
X125994397Y-85773753D01*
X125925656Y-85972365D01*
X125925656Y-85972367D01*
X125895746Y-86180398D01*
X125895746Y-86180399D01*
X123526600Y-86180399D01*
X123526600Y-82544740D01*
X123526669Y-82542469D01*
X123538531Y-82346365D01*
X144896888Y-82346365D01*
X144926514Y-82615622D01*
X144995026Y-82877684D01*
X144995028Y-82877689D01*
X145100969Y-83126988D01*
X145100971Y-83126992D01*
X145242083Y-83358212D01*
X145242084Y-83358213D01*
X145415351Y-83566416D01*
X145415355Y-83566420D01*
X145617098Y-83747182D01*
X145843010Y-83896644D01*
X146088276Y-84011620D01*
X146347669Y-84089660D01*
X146615661Y-84129100D01*
X146615665Y-84129100D01*
X146818735Y-84129100D01*
X147021247Y-84114278D01*
X147021249Y-84114277D01*
X147021256Y-84114277D01*
X147285653Y-84055380D01*
X147538658Y-83958614D01*
X147774877Y-83826041D01*
X147989277Y-83660488D01*
X148177286Y-83465481D01*
X148334899Y-83245179D01*
X148458756Y-83004275D01*
X148468193Y-82976611D01*
X148546216Y-82747912D01*
X148546216Y-82747909D01*
X148546218Y-82747905D01*
X148595419Y-82481533D01*
X148600359Y-82346365D01*
X168771888Y-82346365D01*
X168801514Y-82615622D01*
X168870026Y-82877684D01*
X168870028Y-82877689D01*
X168975969Y-83126988D01*
X168975971Y-83126992D01*
X169117083Y-83358212D01*
X169117084Y-83358213D01*
X169290351Y-83566416D01*
X169290355Y-83566420D01*
X169492098Y-83747182D01*
X169718010Y-83896644D01*
X169963276Y-84011620D01*
X170222669Y-84089660D01*
X170490661Y-84129100D01*
X170490665Y-84129100D01*
X170693735Y-84129100D01*
X170896247Y-84114278D01*
X170896249Y-84114277D01*
X170896256Y-84114277D01*
X171160653Y-84055380D01*
X171413658Y-83958614D01*
X171649877Y-83826041D01*
X171864277Y-83660488D01*
X172052286Y-83465481D01*
X172209899Y-83245179D01*
X172333756Y-83004275D01*
X172343193Y-82976611D01*
X172421216Y-82747912D01*
X172421216Y-82747909D01*
X172421218Y-82747905D01*
X172470419Y-82481533D01*
X172480312Y-82210835D01*
X172450686Y-81941582D01*
X172382172Y-81679512D01*
X172276230Y-81430210D01*
X172135118Y-81198990D01*
X172135115Y-81198986D01*
X171961848Y-80990783D01*
X171961844Y-80990779D01*
X171856866Y-80896719D01*
X171760102Y-80810018D01*
X171535572Y-80661470D01*
X171534189Y-80660555D01*
X171288922Y-80545579D01*
X171056364Y-80475613D01*
X171029531Y-80467540D01*
X170862247Y-80442921D01*
X170761540Y-80428100D01*
X170761539Y-80428100D01*
X170558469Y-80428100D01*
X170558465Y-80428100D01*
X170355952Y-80442921D01*
X170091542Y-80501821D01*
X169838539Y-80598587D01*
X169602326Y-80731156D01*
X169387927Y-80896708D01*
X169387915Y-80896719D01*
X169199918Y-81091714D01*
X169199910Y-81091724D01*
X169042301Y-81312020D01*
X169042300Y-81312022D01*
X168918441Y-81552930D01*
X168830983Y-81809287D01*
X168830981Y-81809297D01*
X168781781Y-82075664D01*
X168771888Y-82346361D01*
X168771888Y-82346365D01*
X148600359Y-82346365D01*
X148605312Y-82210835D01*
X148575686Y-81941582D01*
X148507172Y-81679512D01*
X148401230Y-81430210D01*
X148260118Y-81198990D01*
X148260115Y-81198986D01*
X148086848Y-80990783D01*
X148086844Y-80990779D01*
X147981866Y-80896719D01*
X147885102Y-80810018D01*
X147660572Y-80661470D01*
X147659189Y-80660555D01*
X147413922Y-80545579D01*
X147181364Y-80475613D01*
X147154531Y-80467540D01*
X146987247Y-80442921D01*
X146886540Y-80428100D01*
X146886539Y-80428100D01*
X146683469Y-80428100D01*
X146683465Y-80428100D01*
X146480952Y-80442921D01*
X146216542Y-80501821D01*
X145963539Y-80598587D01*
X145727326Y-80731156D01*
X145512927Y-80896708D01*
X145512915Y-80896719D01*
X145324918Y-81091714D01*
X145324910Y-81091724D01*
X145167301Y-81312020D01*
X145167300Y-81312022D01*
X145043441Y-81552930D01*
X144955983Y-81809287D01*
X144955981Y-81809297D01*
X144906781Y-82075664D01*
X144896888Y-82346361D01*
X144896888Y-82346365D01*
X123538531Y-82346365D01*
X123538531Y-82346361D01*
X123544797Y-82242765D01*
X123545341Y-82238284D01*
X123599260Y-81944057D01*
X123600338Y-81939685D01*
X123689327Y-81654111D01*
X123690936Y-81649871D01*
X123789797Y-81430210D01*
X123813687Y-81377128D01*
X123815798Y-81373107D01*
X123970532Y-81117145D01*
X123973099Y-81113423D01*
X124157579Y-80877953D01*
X124160565Y-80874582D01*
X124372082Y-80663065D01*
X124375453Y-80660079D01*
X124610923Y-80475599D01*
X124614645Y-80473032D01*
X124870607Y-80318298D01*
X124874631Y-80316186D01*
X124922423Y-80294677D01*
X125147369Y-80193436D01*
X125151611Y-80191827D01*
X125437185Y-80102838D01*
X125441557Y-80101760D01*
X125735784Y-80047841D01*
X125740265Y-80047297D01*
X125914041Y-80036785D01*
X126039969Y-80029169D01*
X126042240Y-80029100D01*
X126049385Y-80029100D01*
X170952815Y-80029100D01*
X170959960Y-80029100D01*
X170962231Y-80029169D01*
G37*
G04 #@! TD.AperFunction*
M02*
