G04 #@! TF.GenerationSoftware,KiCad,Pcbnew,(5.1.5)-3*
G04 #@! TF.CreationDate,2020-01-08T22:52:15+11:00*
G04 #@! TF.ProjectId,ATM90E36_Breakout,41544d39-3045-4333-965f-427265616b6f,rev?*
G04 #@! TF.SameCoordinates,Original*
G04 #@! TF.FileFunction,Soldermask,Top*
G04 #@! TF.FilePolarity,Negative*
%FSLAX46Y46*%
G04 Gerber Fmt 4.6, Leading zero omitted, Abs format (unit mm)*
G04 Created by KiCad (PCBNEW (5.1.5)-3) date 2020-01-08 22:52:15*
%MOMM*%
%LPD*%
G04 APERTURE LIST*
%ADD10C,0.100000*%
G04 APERTURE END LIST*
D10*
G36*
X155857100Y-105628600D02*
G01*
X155857100Y-105053600D01*
X156182100Y-104728600D01*
X156857100Y-104728600D01*
X156857100Y-105628600D01*
X155857100Y-105628600D01*
G37*
G36*
X154382100Y-105653600D02*
G01*
X155432100Y-105653600D01*
X155432100Y-104703600D01*
X154382100Y-104703600D01*
X154382100Y-105653600D01*
G37*
G36*
X155832100Y-104503600D02*
G01*
X156882100Y-104503600D01*
X156882100Y-103553600D01*
X155832100Y-103553600D01*
X155832100Y-104503600D01*
G37*
G36*
X154382100Y-104503600D02*
G01*
X155432100Y-104503600D01*
X155432100Y-103553600D01*
X154382100Y-103553600D01*
X154382100Y-104503600D01*
G37*
G36*
X136751000Y-128976000D02*
G01*
X133849000Y-128976000D01*
X133849000Y-126074000D01*
X136751000Y-126074000D01*
X136751000Y-128976000D01*
G37*
G36*
X127051000Y-128976000D02*
G01*
X124749000Y-128976000D01*
X124749000Y-126074000D01*
X127051000Y-126074000D01*
X127051000Y-128976000D01*
G37*
G36*
X171001356Y-125644898D02*
G01*
X171107679Y-125666047D01*
X171408142Y-125790503D01*
X171678551Y-125971185D01*
X171908515Y-126201149D01*
X172089197Y-126471558D01*
X172213653Y-126772021D01*
X172277100Y-127090991D01*
X172277100Y-127416209D01*
X172213653Y-127735179D01*
X172089197Y-128035642D01*
X171908515Y-128306051D01*
X171678551Y-128536015D01*
X171408142Y-128716697D01*
X171107679Y-128841153D01*
X171001356Y-128862302D01*
X170788711Y-128904600D01*
X170463489Y-128904600D01*
X170250844Y-128862302D01*
X170144521Y-128841153D01*
X169844058Y-128716697D01*
X169573649Y-128536015D01*
X169343685Y-128306051D01*
X169163003Y-128035642D01*
X169038547Y-127735179D01*
X168975100Y-127416209D01*
X168975100Y-127090991D01*
X169038547Y-126772021D01*
X169163003Y-126471558D01*
X169343685Y-126201149D01*
X169573649Y-125971185D01*
X169844058Y-125790503D01*
X170144521Y-125666047D01*
X170250844Y-125644898D01*
X170463489Y-125602600D01*
X170788711Y-125602600D01*
X171001356Y-125644898D01*
G37*
G36*
X147126356Y-125644898D02*
G01*
X147232679Y-125666047D01*
X147533142Y-125790503D01*
X147803551Y-125971185D01*
X148033515Y-126201149D01*
X148214197Y-126471558D01*
X148338653Y-126772021D01*
X148402100Y-127090991D01*
X148402100Y-127416209D01*
X148338653Y-127735179D01*
X148214197Y-128035642D01*
X148033515Y-128306051D01*
X147803551Y-128536015D01*
X147533142Y-128716697D01*
X147232679Y-128841153D01*
X147126356Y-128862302D01*
X146913711Y-128904600D01*
X146588489Y-128904600D01*
X146375844Y-128862302D01*
X146269521Y-128841153D01*
X145969058Y-128716697D01*
X145698649Y-128536015D01*
X145468685Y-128306051D01*
X145288003Y-128035642D01*
X145163547Y-127735179D01*
X145100100Y-127416209D01*
X145100100Y-127090991D01*
X145163547Y-126772021D01*
X145288003Y-126471558D01*
X145468685Y-126201149D01*
X145698649Y-125971185D01*
X145969058Y-125790503D01*
X146269521Y-125666047D01*
X146375844Y-125644898D01*
X146588489Y-125602600D01*
X146913711Y-125602600D01*
X147126356Y-125644898D01*
G37*
G36*
X166731900Y-128784400D02*
G01*
X165360300Y-128784400D01*
X165360300Y-126142800D01*
X166731900Y-126142800D01*
X166731900Y-128784400D01*
G37*
G36*
X168636900Y-128784400D02*
G01*
X167265300Y-128784400D01*
X167265300Y-126142800D01*
X168636900Y-126142800D01*
X168636900Y-128784400D01*
G37*
G36*
X164826900Y-128784400D02*
G01*
X163455300Y-128784400D01*
X163455300Y-126142800D01*
X164826900Y-126142800D01*
X164826900Y-128784400D01*
G37*
G36*
X141411900Y-128064400D02*
G01*
X140310300Y-128064400D01*
X140310300Y-126862800D01*
X141411900Y-126862800D01*
X141411900Y-128064400D01*
G37*
G36*
X139711900Y-128064400D02*
G01*
X138610300Y-128064400D01*
X138610300Y-126862800D01*
X139711900Y-126862800D01*
X139711900Y-128064400D01*
G37*
G36*
X151301900Y-127169400D02*
G01*
X149350300Y-127169400D01*
X149350300Y-125217800D01*
X151301900Y-125217800D01*
X151301900Y-127169400D01*
G37*
G36*
X158286900Y-127169400D02*
G01*
X156335300Y-127169400D01*
X156335300Y-125217800D01*
X158286900Y-125217800D01*
X158286900Y-127169400D01*
G37*
G36*
X154110729Y-125255299D02*
G01*
X154288313Y-125328857D01*
X154288314Y-125328858D01*
X154448136Y-125435647D01*
X154584053Y-125571564D01*
X154584054Y-125571566D01*
X154690843Y-125731387D01*
X154764401Y-125908971D01*
X154801900Y-126097491D01*
X154801900Y-126289709D01*
X154764401Y-126478229D01*
X154690843Y-126655813D01*
X154690842Y-126655814D01*
X154584053Y-126815636D01*
X154448136Y-126951553D01*
X154367682Y-127005310D01*
X154288313Y-127058343D01*
X154110729Y-127131901D01*
X153922209Y-127169400D01*
X153729991Y-127169400D01*
X153541471Y-127131901D01*
X153363887Y-127058343D01*
X153284518Y-127005310D01*
X153204064Y-126951553D01*
X153068147Y-126815636D01*
X152961358Y-126655814D01*
X152961357Y-126655813D01*
X152887799Y-126478229D01*
X152850300Y-126289709D01*
X152850300Y-126097491D01*
X152887799Y-125908971D01*
X152961357Y-125731387D01*
X153068146Y-125571566D01*
X153068147Y-125571564D01*
X153204064Y-125435647D01*
X153363886Y-125328858D01*
X153363887Y-125328857D01*
X153541471Y-125255299D01*
X153729991Y-125217800D01*
X153922209Y-125217800D01*
X154110729Y-125255299D01*
G37*
G36*
X161095729Y-125255299D02*
G01*
X161273313Y-125328857D01*
X161273314Y-125328858D01*
X161433136Y-125435647D01*
X161569053Y-125571564D01*
X161569054Y-125571566D01*
X161675843Y-125731387D01*
X161749401Y-125908971D01*
X161786900Y-126097491D01*
X161786900Y-126289709D01*
X161749401Y-126478229D01*
X161675843Y-126655813D01*
X161675842Y-126655814D01*
X161569053Y-126815636D01*
X161433136Y-126951553D01*
X161352682Y-127005310D01*
X161273313Y-127058343D01*
X161095729Y-127131901D01*
X160907209Y-127169400D01*
X160714991Y-127169400D01*
X160526471Y-127131901D01*
X160348887Y-127058343D01*
X160269518Y-127005310D01*
X160189064Y-126951553D01*
X160053147Y-126815636D01*
X159946358Y-126655814D01*
X159946357Y-126655813D01*
X159872799Y-126478229D01*
X159835300Y-126289709D01*
X159835300Y-126097491D01*
X159872799Y-125908971D01*
X159946357Y-125731387D01*
X160053146Y-125571566D01*
X160053147Y-125571564D01*
X160189064Y-125435647D01*
X160348886Y-125328858D01*
X160348887Y-125328857D01*
X160526471Y-125255299D01*
X160714991Y-125217800D01*
X160907209Y-125217800D01*
X161095729Y-125255299D01*
G37*
G36*
X143355900Y-126882400D02*
G01*
X142254300Y-126882400D01*
X142254300Y-125680800D01*
X143355900Y-125680800D01*
X143355900Y-126882400D01*
G37*
G36*
X141411900Y-125524400D02*
G01*
X140310300Y-125524400D01*
X140310300Y-124322800D01*
X141411900Y-124322800D01*
X141411900Y-125524400D01*
G37*
G36*
X139711900Y-125524400D02*
G01*
X138610300Y-125524400D01*
X138610300Y-124322800D01*
X139711900Y-124322800D01*
X139711900Y-125524400D01*
G37*
G36*
X143355900Y-125182400D02*
G01*
X142254300Y-125182400D01*
X142254300Y-123980800D01*
X143355900Y-123980800D01*
X143355900Y-125182400D01*
G37*
G36*
X134113512Y-122928927D02*
G01*
X134262812Y-122958624D01*
X134426784Y-123026544D01*
X134574354Y-123125147D01*
X134699853Y-123250646D01*
X134798456Y-123398216D01*
X134866376Y-123562188D01*
X134901000Y-123736259D01*
X134901000Y-123913741D01*
X134866376Y-124087812D01*
X134798456Y-124251784D01*
X134699853Y-124399354D01*
X134574354Y-124524853D01*
X134426784Y-124623456D01*
X134262812Y-124691376D01*
X134113512Y-124721073D01*
X134088742Y-124726000D01*
X133911258Y-124726000D01*
X133886488Y-124721073D01*
X133737188Y-124691376D01*
X133573216Y-124623456D01*
X133425646Y-124524853D01*
X133300147Y-124399354D01*
X133201544Y-124251784D01*
X133133624Y-124087812D01*
X133099000Y-123913741D01*
X133099000Y-123736259D01*
X133133624Y-123562188D01*
X133201544Y-123398216D01*
X133300147Y-123250646D01*
X133425646Y-123125147D01*
X133573216Y-123026544D01*
X133737188Y-122958624D01*
X133886488Y-122928927D01*
X133911258Y-122924000D01*
X134088742Y-122924000D01*
X134113512Y-122928927D01*
G37*
G36*
X127113512Y-122928927D02*
G01*
X127262812Y-122958624D01*
X127426784Y-123026544D01*
X127574354Y-123125147D01*
X127699853Y-123250646D01*
X127798456Y-123398216D01*
X127866376Y-123562188D01*
X127901000Y-123736259D01*
X127901000Y-123913741D01*
X127866376Y-124087812D01*
X127798456Y-124251784D01*
X127699853Y-124399354D01*
X127574354Y-124524853D01*
X127426784Y-124623456D01*
X127262812Y-124691376D01*
X127113512Y-124721073D01*
X127088742Y-124726000D01*
X126911258Y-124726000D01*
X126886488Y-124721073D01*
X126737188Y-124691376D01*
X126573216Y-124623456D01*
X126425646Y-124524853D01*
X126300147Y-124399354D01*
X126201544Y-124251784D01*
X126133624Y-124087812D01*
X126099000Y-123913741D01*
X126099000Y-123736259D01*
X126133624Y-123562188D01*
X126201544Y-123398216D01*
X126300147Y-123250646D01*
X126425646Y-123125147D01*
X126573216Y-123026544D01*
X126737188Y-122958624D01*
X126886488Y-122928927D01*
X126911258Y-122924000D01*
X127088742Y-122924000D01*
X127113512Y-122928927D01*
G37*
G36*
X170557356Y-122682034D02*
G01*
X170653047Y-122701068D01*
X170833325Y-122775742D01*
X170995571Y-122884151D01*
X171133549Y-123022129D01*
X171241958Y-123184375D01*
X171316632Y-123364653D01*
X171354700Y-123556034D01*
X171354700Y-123751166D01*
X171316632Y-123942547D01*
X171241958Y-124122825D01*
X171133549Y-124285071D01*
X170995571Y-124423049D01*
X170833325Y-124531458D01*
X170653047Y-124606132D01*
X170565953Y-124623456D01*
X170461667Y-124644200D01*
X170266533Y-124644200D01*
X170162247Y-124623456D01*
X170075153Y-124606132D01*
X169894875Y-124531458D01*
X169732629Y-124423049D01*
X169594651Y-124285071D01*
X169486242Y-124122825D01*
X169411568Y-123942547D01*
X169373500Y-123751166D01*
X169373500Y-123556034D01*
X169411568Y-123364653D01*
X169486242Y-123184375D01*
X169594651Y-123022129D01*
X169732629Y-122884151D01*
X169894875Y-122775742D01*
X170075153Y-122701068D01*
X170170844Y-122682034D01*
X170266533Y-122663000D01*
X170461667Y-122663000D01*
X170557356Y-122682034D01*
G37*
G36*
X141411900Y-122984400D02*
G01*
X140310300Y-122984400D01*
X140310300Y-121782800D01*
X141411900Y-121782800D01*
X141411900Y-122984400D01*
G37*
G36*
X139711900Y-122984400D02*
G01*
X138610300Y-122984400D01*
X138610300Y-121782800D01*
X139711900Y-121782800D01*
X139711900Y-122984400D01*
G37*
G36*
X170811356Y-120142034D02*
G01*
X170907047Y-120161068D01*
X171087325Y-120235742D01*
X171249571Y-120344151D01*
X171387549Y-120482129D01*
X171495958Y-120644375D01*
X171570632Y-120824653D01*
X171608700Y-121016034D01*
X171608700Y-121211166D01*
X171570632Y-121402547D01*
X171495958Y-121582825D01*
X171387549Y-121745071D01*
X171249571Y-121883049D01*
X171087325Y-121991458D01*
X170907047Y-122066132D01*
X170811356Y-122085166D01*
X170715667Y-122104200D01*
X170520533Y-122104200D01*
X170424844Y-122085166D01*
X170329153Y-122066132D01*
X170148875Y-121991458D01*
X169986629Y-121883049D01*
X169848651Y-121745071D01*
X169740242Y-121582825D01*
X169665568Y-121402547D01*
X169627500Y-121211166D01*
X169627500Y-121016034D01*
X169665568Y-120824653D01*
X169740242Y-120644375D01*
X169848651Y-120482129D01*
X169986629Y-120344151D01*
X170148875Y-120235742D01*
X170329153Y-120161068D01*
X170424844Y-120142034D01*
X170520533Y-120123000D01*
X170715667Y-120123000D01*
X170811356Y-120142034D01*
G37*
G36*
X143355900Y-121929400D02*
G01*
X142254300Y-121929400D01*
X142254300Y-120727800D01*
X143355900Y-120727800D01*
X143355900Y-121929400D01*
G37*
G36*
X158010900Y-121879400D02*
G01*
X156809300Y-121879400D01*
X156809300Y-120777800D01*
X158010900Y-120777800D01*
X158010900Y-121879400D01*
G37*
G36*
X153946900Y-121879400D02*
G01*
X152745300Y-121879400D01*
X152745300Y-120777800D01*
X153946900Y-120777800D01*
X153946900Y-121879400D01*
G37*
G36*
X149882900Y-121879400D02*
G01*
X148681300Y-121879400D01*
X148681300Y-120777800D01*
X149882900Y-120777800D01*
X149882900Y-121879400D01*
G37*
G36*
X129051000Y-121576000D02*
G01*
X126749000Y-121576000D01*
X126749000Y-118674000D01*
X129051000Y-118674000D01*
X129051000Y-121576000D01*
G37*
G36*
X141411900Y-120444400D02*
G01*
X140310300Y-120444400D01*
X140310300Y-119242800D01*
X141411900Y-119242800D01*
X141411900Y-120444400D01*
G37*
G36*
X139711900Y-120444400D02*
G01*
X138610300Y-120444400D01*
X138610300Y-119242800D01*
X139711900Y-119242800D01*
X139711900Y-120444400D01*
G37*
G36*
X143355900Y-120229400D02*
G01*
X142254300Y-120229400D01*
X142254300Y-119027800D01*
X143355900Y-119027800D01*
X143355900Y-120229400D01*
G37*
G36*
X153946900Y-120179400D02*
G01*
X152745300Y-120179400D01*
X152745300Y-119077800D01*
X153946900Y-119077800D01*
X153946900Y-120179400D01*
G37*
G36*
X149882900Y-120179400D02*
G01*
X148681300Y-120179400D01*
X148681300Y-119077800D01*
X149882900Y-119077800D01*
X149882900Y-120179400D01*
G37*
G36*
X158010900Y-120179400D02*
G01*
X156809300Y-120179400D01*
X156809300Y-119077800D01*
X158010900Y-119077800D01*
X158010900Y-120179400D01*
G37*
G36*
X170557356Y-117602034D02*
G01*
X170653047Y-117621068D01*
X170833325Y-117695742D01*
X170995571Y-117804151D01*
X171133549Y-117942129D01*
X171241958Y-118104375D01*
X171316632Y-118284653D01*
X171354700Y-118476034D01*
X171354700Y-118671166D01*
X171316632Y-118862547D01*
X171241958Y-119042825D01*
X171133549Y-119205071D01*
X170995571Y-119343049D01*
X170833325Y-119451458D01*
X170653047Y-119526132D01*
X170557356Y-119545166D01*
X170461667Y-119564200D01*
X170266533Y-119564200D01*
X170170844Y-119545166D01*
X170075153Y-119526132D01*
X169894875Y-119451458D01*
X169732629Y-119343049D01*
X169594651Y-119205071D01*
X169486242Y-119042825D01*
X169411568Y-118862547D01*
X169373500Y-118671166D01*
X169373500Y-118476034D01*
X169411568Y-118284653D01*
X169486242Y-118104375D01*
X169594651Y-117942129D01*
X169732629Y-117804151D01*
X169894875Y-117695742D01*
X170075153Y-117621068D01*
X170170844Y-117602034D01*
X170266533Y-117583000D01*
X170461667Y-117583000D01*
X170557356Y-117602034D01*
G37*
G36*
X150174900Y-118158400D02*
G01*
X149073300Y-118158400D01*
X149073300Y-116956800D01*
X150174900Y-116956800D01*
X150174900Y-118158400D01*
G37*
G36*
X148474900Y-118158400D02*
G01*
X147373300Y-118158400D01*
X147373300Y-116956800D01*
X148474900Y-116956800D01*
X148474900Y-118158400D01*
G37*
G36*
X156475900Y-118031400D02*
G01*
X155374300Y-118031400D01*
X155374300Y-116829800D01*
X156475900Y-116829800D01*
X156475900Y-118031400D01*
G37*
G36*
X158175900Y-118031400D02*
G01*
X157074300Y-118031400D01*
X157074300Y-116829800D01*
X158175900Y-116829800D01*
X158175900Y-118031400D01*
G37*
G36*
X154238900Y-118031400D02*
G01*
X153137300Y-118031400D01*
X153137300Y-116829800D01*
X154238900Y-116829800D01*
X154238900Y-118031400D01*
G37*
G36*
X152538900Y-118031400D02*
G01*
X151437300Y-118031400D01*
X151437300Y-116829800D01*
X152538900Y-116829800D01*
X152538900Y-118031400D01*
G37*
G36*
X171608700Y-117024200D02*
G01*
X169627500Y-117024200D01*
X169627500Y-115043000D01*
X171608700Y-115043000D01*
X171608700Y-117024200D01*
G37*
G36*
X127051000Y-116403000D02*
G01*
X124749000Y-116403000D01*
X124749000Y-113501000D01*
X127051000Y-113501000D01*
X127051000Y-116403000D01*
G37*
G36*
X136751000Y-116403000D02*
G01*
X133849000Y-116403000D01*
X133849000Y-113501000D01*
X136751000Y-113501000D01*
X136751000Y-116403000D01*
G37*
G36*
X150224900Y-115949400D02*
G01*
X149023300Y-115949400D01*
X149023300Y-114847800D01*
X150224900Y-114847800D01*
X150224900Y-115949400D01*
G37*
G36*
X148524900Y-115949400D02*
G01*
X147323300Y-115949400D01*
X147323300Y-114847800D01*
X148524900Y-114847800D01*
X148524900Y-115949400D01*
G37*
G36*
X158225900Y-115822400D02*
G01*
X157024300Y-115822400D01*
X157024300Y-114720800D01*
X158225900Y-114720800D01*
X158225900Y-115822400D01*
G37*
G36*
X156525900Y-115822400D02*
G01*
X155324300Y-115822400D01*
X155324300Y-114720800D01*
X156525900Y-114720800D01*
X156525900Y-115822400D01*
G37*
G36*
X154288900Y-115822400D02*
G01*
X153087300Y-115822400D01*
X153087300Y-114720800D01*
X154288900Y-114720800D01*
X154288900Y-115822400D01*
G37*
G36*
X152588900Y-115822400D02*
G01*
X151387300Y-115822400D01*
X151387300Y-114720800D01*
X152588900Y-114720800D01*
X152588900Y-115822400D01*
G37*
G36*
X139711900Y-115364400D02*
G01*
X138610300Y-115364400D01*
X138610300Y-114162800D01*
X139711900Y-114162800D01*
X139711900Y-115364400D01*
G37*
G36*
X141411900Y-115364400D02*
G01*
X140310300Y-115364400D01*
X140310300Y-114162800D01*
X141411900Y-114162800D01*
X141411900Y-115364400D01*
G37*
G36*
X170526047Y-112541068D02*
G01*
X170706325Y-112615742D01*
X170868571Y-112724151D01*
X171006549Y-112862129D01*
X171114958Y-113024375D01*
X171189632Y-113204653D01*
X171227700Y-113396034D01*
X171227700Y-113591166D01*
X171189632Y-113782547D01*
X171114958Y-113962825D01*
X171006549Y-114125071D01*
X170868571Y-114263049D01*
X170706325Y-114371458D01*
X170526047Y-114446132D01*
X170334667Y-114484200D01*
X170139533Y-114484200D01*
X169948153Y-114446132D01*
X169767875Y-114371458D01*
X169605629Y-114263049D01*
X169467651Y-114125071D01*
X169359242Y-113962825D01*
X169284568Y-113782547D01*
X169246500Y-113591166D01*
X169246500Y-113396034D01*
X169284568Y-113204653D01*
X169359242Y-113024375D01*
X169467651Y-112862129D01*
X169605629Y-112724151D01*
X169767875Y-112615742D01*
X169948153Y-112541068D01*
X170139533Y-112503000D01*
X170334667Y-112503000D01*
X170526047Y-112541068D01*
G37*
G36*
X143355900Y-114436400D02*
G01*
X142254300Y-114436400D01*
X142254300Y-113234800D01*
X143355900Y-113234800D01*
X143355900Y-114436400D01*
G37*
G36*
X141411900Y-112824400D02*
G01*
X140310300Y-112824400D01*
X140310300Y-111622800D01*
X141411900Y-111622800D01*
X141411900Y-112824400D01*
G37*
G36*
X139711900Y-112824400D02*
G01*
X138610300Y-112824400D01*
X138610300Y-111622800D01*
X139711900Y-111622800D01*
X139711900Y-112824400D01*
G37*
G36*
X143355900Y-112736400D02*
G01*
X142254300Y-112736400D01*
X142254300Y-111534800D01*
X143355900Y-111534800D01*
X143355900Y-112736400D01*
G37*
G36*
X127113512Y-110355927D02*
G01*
X127262812Y-110385624D01*
X127426784Y-110453544D01*
X127574354Y-110552147D01*
X127699853Y-110677646D01*
X127798456Y-110825216D01*
X127866376Y-110989188D01*
X127901000Y-111163259D01*
X127901000Y-111340741D01*
X127866376Y-111514812D01*
X127798456Y-111678784D01*
X127699853Y-111826354D01*
X127574354Y-111951853D01*
X127426784Y-112050456D01*
X127262812Y-112118376D01*
X127113512Y-112148073D01*
X127088742Y-112153000D01*
X126911258Y-112153000D01*
X126886488Y-112148073D01*
X126737188Y-112118376D01*
X126573216Y-112050456D01*
X126425646Y-111951853D01*
X126300147Y-111826354D01*
X126201544Y-111678784D01*
X126133624Y-111514812D01*
X126099000Y-111340741D01*
X126099000Y-111163259D01*
X126133624Y-110989188D01*
X126201544Y-110825216D01*
X126300147Y-110677646D01*
X126425646Y-110552147D01*
X126573216Y-110453544D01*
X126737188Y-110385624D01*
X126886488Y-110355927D01*
X126911258Y-110351000D01*
X127088742Y-110351000D01*
X127113512Y-110355927D01*
G37*
G36*
X134113512Y-110355927D02*
G01*
X134262812Y-110385624D01*
X134426784Y-110453544D01*
X134574354Y-110552147D01*
X134699853Y-110677646D01*
X134798456Y-110825216D01*
X134866376Y-110989188D01*
X134901000Y-111163259D01*
X134901000Y-111340741D01*
X134866376Y-111514812D01*
X134798456Y-111678784D01*
X134699853Y-111826354D01*
X134574354Y-111951853D01*
X134426784Y-112050456D01*
X134262812Y-112118376D01*
X134113512Y-112148073D01*
X134088742Y-112153000D01*
X133911258Y-112153000D01*
X133886488Y-112148073D01*
X133737188Y-112118376D01*
X133573216Y-112050456D01*
X133425646Y-111951853D01*
X133300147Y-111826354D01*
X133201544Y-111678784D01*
X133133624Y-111514812D01*
X133099000Y-111340741D01*
X133099000Y-111163259D01*
X133133624Y-110989188D01*
X133201544Y-110825216D01*
X133300147Y-110677646D01*
X133425646Y-110552147D01*
X133573216Y-110453544D01*
X133737188Y-110385624D01*
X133886488Y-110355927D01*
X133911258Y-110351000D01*
X134088742Y-110351000D01*
X134113512Y-110355927D01*
G37*
G36*
X158225900Y-112012400D02*
G01*
X157024300Y-112012400D01*
X157024300Y-110910800D01*
X158225900Y-110910800D01*
X158225900Y-112012400D01*
G37*
G36*
X162035900Y-112012400D02*
G01*
X160834300Y-112012400D01*
X160834300Y-110910800D01*
X162035900Y-110910800D01*
X162035900Y-112012400D01*
G37*
G36*
X154415900Y-112012400D02*
G01*
X153214300Y-112012400D01*
X153214300Y-110910800D01*
X154415900Y-110910800D01*
X154415900Y-112012400D01*
G37*
G36*
X152715900Y-112012400D02*
G01*
X151514300Y-112012400D01*
X151514300Y-110910800D01*
X152715900Y-110910800D01*
X152715900Y-112012400D01*
G37*
G36*
X156525900Y-112012400D02*
G01*
X155324300Y-112012400D01*
X155324300Y-110910800D01*
X156525900Y-110910800D01*
X156525900Y-112012400D01*
G37*
G36*
X160335900Y-112012400D02*
G01*
X159134300Y-112012400D01*
X159134300Y-110910800D01*
X160335900Y-110910800D01*
X160335900Y-112012400D01*
G37*
G36*
X170780047Y-110001068D02*
G01*
X170960325Y-110075742D01*
X171122571Y-110184151D01*
X171260549Y-110322129D01*
X171368958Y-110484375D01*
X171443632Y-110664653D01*
X171481700Y-110856034D01*
X171481700Y-111051166D01*
X171443632Y-111242547D01*
X171368958Y-111422825D01*
X171260549Y-111585071D01*
X171122571Y-111723049D01*
X170960325Y-111831458D01*
X170780047Y-111906132D01*
X170588667Y-111944200D01*
X170393533Y-111944200D01*
X170202153Y-111906132D01*
X170021875Y-111831458D01*
X169859629Y-111723049D01*
X169721651Y-111585071D01*
X169613242Y-111422825D01*
X169538568Y-111242547D01*
X169500500Y-111051166D01*
X169500500Y-110856034D01*
X169538568Y-110664653D01*
X169613242Y-110484375D01*
X169721651Y-110322129D01*
X169859629Y-110184151D01*
X170021875Y-110075742D01*
X170202153Y-110001068D01*
X170393533Y-109963000D01*
X170588667Y-109963000D01*
X170780047Y-110001068D01*
G37*
G36*
X139711900Y-110284400D02*
G01*
X138610300Y-110284400D01*
X138610300Y-109082800D01*
X139711900Y-109082800D01*
X139711900Y-110284400D01*
G37*
G36*
X141411900Y-110284400D02*
G01*
X140310300Y-110284400D01*
X140310300Y-109082800D01*
X141411900Y-109082800D01*
X141411900Y-110284400D01*
G37*
G36*
X152665900Y-109903400D02*
G01*
X151564300Y-109903400D01*
X151564300Y-108701800D01*
X152665900Y-108701800D01*
X152665900Y-109903400D01*
G37*
G36*
X154365900Y-109903400D02*
G01*
X153264300Y-109903400D01*
X153264300Y-108701800D01*
X154365900Y-108701800D01*
X154365900Y-109903400D01*
G37*
G36*
X156475900Y-109903400D02*
G01*
X155374300Y-109903400D01*
X155374300Y-108701800D01*
X156475900Y-108701800D01*
X156475900Y-109903400D01*
G37*
G36*
X158175900Y-109903400D02*
G01*
X157074300Y-109903400D01*
X157074300Y-108701800D01*
X158175900Y-108701800D01*
X158175900Y-109903400D01*
G37*
G36*
X160285900Y-109903400D02*
G01*
X159184300Y-109903400D01*
X159184300Y-108701800D01*
X160285900Y-108701800D01*
X160285900Y-109903400D01*
G37*
G36*
X161985900Y-109903400D02*
G01*
X160884300Y-109903400D01*
X160884300Y-108701800D01*
X161985900Y-108701800D01*
X161985900Y-109903400D01*
G37*
G36*
X170526047Y-107461068D02*
G01*
X170706325Y-107535742D01*
X170868571Y-107644151D01*
X171006549Y-107782129D01*
X171114958Y-107944375D01*
X171189632Y-108124653D01*
X171227700Y-108316034D01*
X171227700Y-108511166D01*
X171189632Y-108702547D01*
X171114958Y-108882825D01*
X171006549Y-109045071D01*
X170868571Y-109183049D01*
X170706325Y-109291458D01*
X170526047Y-109366132D01*
X170334667Y-109404200D01*
X170139533Y-109404200D01*
X169948153Y-109366132D01*
X169767875Y-109291458D01*
X169605629Y-109183049D01*
X169467651Y-109045071D01*
X169359242Y-108882825D01*
X169284568Y-108702547D01*
X169246500Y-108511166D01*
X169246500Y-108316034D01*
X169284568Y-108124653D01*
X169359242Y-107944375D01*
X169467651Y-107782129D01*
X169605629Y-107644151D01*
X169767875Y-107535742D01*
X169948153Y-107461068D01*
X170139533Y-107423000D01*
X170334667Y-107423000D01*
X170526047Y-107461068D01*
G37*
G36*
X143355900Y-109229400D02*
G01*
X142254300Y-109229400D01*
X142254300Y-108027800D01*
X143355900Y-108027800D01*
X143355900Y-109229400D01*
G37*
G36*
X129051000Y-109003000D02*
G01*
X126749000Y-109003000D01*
X126749000Y-106101000D01*
X129051000Y-106101000D01*
X129051000Y-109003000D01*
G37*
G36*
X141411900Y-107744400D02*
G01*
X140310300Y-107744400D01*
X140310300Y-106542800D01*
X141411900Y-106542800D01*
X141411900Y-107744400D01*
G37*
G36*
X139711900Y-107744400D02*
G01*
X138610300Y-107744400D01*
X138610300Y-106542800D01*
X139711900Y-106542800D01*
X139711900Y-107744400D01*
G37*
G36*
X143355900Y-107529400D02*
G01*
X142254300Y-107529400D01*
X142254300Y-106327800D01*
X143355900Y-106327800D01*
X143355900Y-107529400D01*
G37*
G36*
X148116900Y-107436400D02*
G01*
X146715300Y-107436400D01*
X146715300Y-105834800D01*
X148116900Y-105834800D01*
X148116900Y-107436400D01*
G37*
G36*
X149816900Y-107436400D02*
G01*
X148415300Y-107436400D01*
X148415300Y-105834800D01*
X149816900Y-105834800D01*
X149816900Y-107436400D01*
G37*
G36*
X170676142Y-104900400D02*
G01*
X170780047Y-104921068D01*
X170960325Y-104995742D01*
X171122571Y-105104151D01*
X171260549Y-105242129D01*
X171368958Y-105404375D01*
X171368959Y-105404377D01*
X171390830Y-105457178D01*
X171443632Y-105584653D01*
X171481700Y-105776034D01*
X171481700Y-105971166D01*
X171443632Y-106162547D01*
X171368958Y-106342825D01*
X171260549Y-106505071D01*
X171122571Y-106643049D01*
X170960325Y-106751458D01*
X170780047Y-106826132D01*
X170588667Y-106864200D01*
X170393533Y-106864200D01*
X170202153Y-106826132D01*
X170021875Y-106751458D01*
X169859629Y-106643049D01*
X169721651Y-106505071D01*
X169613242Y-106342825D01*
X169538568Y-106162547D01*
X169500500Y-105971166D01*
X169500500Y-105776034D01*
X169538568Y-105584653D01*
X169591370Y-105457178D01*
X169613241Y-105404377D01*
X169613242Y-105404375D01*
X169721651Y-105242129D01*
X169859629Y-105104151D01*
X170021875Y-104995742D01*
X170202153Y-104921068D01*
X170306058Y-104900400D01*
X170393533Y-104883000D01*
X170588667Y-104883000D01*
X170676142Y-104900400D01*
G37*
G36*
X155432900Y-105654400D02*
G01*
X154381300Y-105654400D01*
X154381300Y-103552800D01*
X155432900Y-103552800D01*
X155432900Y-105654400D01*
G37*
G36*
X156882900Y-105654400D02*
G01*
X155831300Y-105654400D01*
X155831300Y-103552800D01*
X156882900Y-103552800D01*
X156882900Y-105654400D01*
G37*
G36*
X165861900Y-105423400D02*
G01*
X161531300Y-105423400D01*
X161531300Y-104521800D01*
X165861900Y-104521800D01*
X165861900Y-105423400D01*
G37*
G36*
X148270900Y-104900400D02*
G01*
X147069300Y-104900400D01*
X147069300Y-103798800D01*
X148270900Y-103798800D01*
X148270900Y-104900400D01*
G37*
G36*
X149970900Y-104900400D02*
G01*
X148769300Y-104900400D01*
X148769300Y-103798800D01*
X149970900Y-103798800D01*
X149970900Y-104900400D01*
G37*
G36*
X170526047Y-102381068D02*
G01*
X170706325Y-102455742D01*
X170868571Y-102564151D01*
X171006549Y-102702129D01*
X171114958Y-102864375D01*
X171189632Y-103044653D01*
X171227700Y-103236034D01*
X171227700Y-103431166D01*
X171189632Y-103622547D01*
X171114958Y-103802825D01*
X171006549Y-103965071D01*
X170868571Y-104103049D01*
X170706325Y-104211458D01*
X170526047Y-104286132D01*
X170430356Y-104305166D01*
X170334667Y-104324200D01*
X170139533Y-104324200D01*
X169948153Y-104286132D01*
X169767875Y-104211458D01*
X169605629Y-104103049D01*
X169467651Y-103965071D01*
X169359242Y-103802825D01*
X169284568Y-103622547D01*
X169246500Y-103431166D01*
X169246500Y-103236034D01*
X169284568Y-103044653D01*
X169359242Y-102864375D01*
X169467651Y-102702129D01*
X169605629Y-102564151D01*
X169767875Y-102455742D01*
X169948153Y-102381068D01*
X170043844Y-102362034D01*
X170139533Y-102343000D01*
X170334667Y-102343000D01*
X170526047Y-102381068D01*
G37*
G36*
X139711900Y-103934400D02*
G01*
X138610300Y-103934400D01*
X138610300Y-102732800D01*
X139711900Y-102732800D01*
X139711900Y-103934400D01*
G37*
G36*
X141411900Y-103934400D02*
G01*
X140310300Y-103934400D01*
X140310300Y-102732800D01*
X141411900Y-102732800D01*
X141411900Y-103934400D01*
G37*
G36*
X165861900Y-103923400D02*
G01*
X161531300Y-103923400D01*
X161531300Y-103021800D01*
X165861900Y-103021800D01*
X165861900Y-103923400D01*
G37*
G36*
X127051000Y-103830000D02*
G01*
X124749000Y-103830000D01*
X124749000Y-100928000D01*
X127051000Y-100928000D01*
X127051000Y-103830000D01*
G37*
G36*
X136751000Y-103830000D02*
G01*
X133849000Y-103830000D01*
X133849000Y-100928000D01*
X136751000Y-100928000D01*
X136751000Y-103830000D01*
G37*
G36*
X143355900Y-103514400D02*
G01*
X142254300Y-103514400D01*
X142254300Y-102312800D01*
X143355900Y-102312800D01*
X143355900Y-103514400D01*
G37*
G36*
X157182000Y-102483700D02*
G01*
X151250200Y-102483700D01*
X151250200Y-100883500D01*
X157182000Y-100883500D01*
X157182000Y-102483700D01*
G37*
G36*
X143355900Y-101814400D02*
G01*
X142254300Y-101814400D01*
X142254300Y-100612800D01*
X143355900Y-100612800D01*
X143355900Y-101814400D01*
G37*
G36*
X170780047Y-99841068D02*
G01*
X170960325Y-99915742D01*
X171122571Y-100024151D01*
X171260549Y-100162129D01*
X171368958Y-100324375D01*
X171443632Y-100504653D01*
X171481700Y-100696034D01*
X171481700Y-100891166D01*
X171443632Y-101082547D01*
X171368958Y-101262825D01*
X171260549Y-101425071D01*
X171122571Y-101563049D01*
X170960325Y-101671458D01*
X170780047Y-101746132D01*
X170684356Y-101765166D01*
X170588667Y-101784200D01*
X170393533Y-101784200D01*
X170202153Y-101746132D01*
X170021875Y-101671458D01*
X169859629Y-101563049D01*
X169721651Y-101425071D01*
X169613242Y-101262825D01*
X169538568Y-101082547D01*
X169500500Y-100891166D01*
X169500500Y-100696034D01*
X169538568Y-100504653D01*
X169613242Y-100324375D01*
X169721651Y-100162129D01*
X169859629Y-100024151D01*
X170021875Y-99915742D01*
X170202153Y-99841068D01*
X170393533Y-99803000D01*
X170588667Y-99803000D01*
X170780047Y-99841068D01*
G37*
G36*
X162825900Y-101605400D02*
G01*
X161724300Y-101605400D01*
X161724300Y-98203800D01*
X162825900Y-98203800D01*
X162825900Y-101605400D01*
G37*
G36*
X164525900Y-101605400D02*
G01*
X163424300Y-101605400D01*
X163424300Y-98203800D01*
X164525900Y-98203800D01*
X164525900Y-101605400D01*
G37*
G36*
X141411900Y-101394400D02*
G01*
X140310300Y-101394400D01*
X140310300Y-100192800D01*
X141411900Y-100192800D01*
X141411900Y-101394400D01*
G37*
G36*
X139711900Y-101394400D02*
G01*
X138610300Y-101394400D01*
X138610300Y-100192800D01*
X139711900Y-100192800D01*
X139711900Y-101394400D01*
G37*
G36*
X150716200Y-100349500D02*
G01*
X149116000Y-100349500D01*
X149116000Y-94417700D01*
X150716200Y-94417700D01*
X150716200Y-100349500D01*
G37*
G36*
X159316200Y-100349500D02*
G01*
X157716000Y-100349500D01*
X157716000Y-94417700D01*
X159316200Y-94417700D01*
X159316200Y-100349500D01*
G37*
G36*
X127113512Y-97782927D02*
G01*
X127262812Y-97812624D01*
X127426784Y-97880544D01*
X127574354Y-97979147D01*
X127699853Y-98104646D01*
X127798456Y-98252216D01*
X127866376Y-98416188D01*
X127901000Y-98590259D01*
X127901000Y-98767741D01*
X127866376Y-98941812D01*
X127798456Y-99105784D01*
X127699853Y-99253354D01*
X127574354Y-99378853D01*
X127426784Y-99477456D01*
X127262812Y-99545376D01*
X127113512Y-99575073D01*
X127088742Y-99580000D01*
X126911258Y-99580000D01*
X126886488Y-99575073D01*
X126737188Y-99545376D01*
X126573216Y-99477456D01*
X126425646Y-99378853D01*
X126300147Y-99253354D01*
X126201544Y-99105784D01*
X126133624Y-98941812D01*
X126099000Y-98767741D01*
X126099000Y-98590259D01*
X126133624Y-98416188D01*
X126201544Y-98252216D01*
X126300147Y-98104646D01*
X126425646Y-97979147D01*
X126573216Y-97880544D01*
X126737188Y-97812624D01*
X126886488Y-97782927D01*
X126911258Y-97778000D01*
X127088742Y-97778000D01*
X127113512Y-97782927D01*
G37*
G36*
X134113512Y-97782927D02*
G01*
X134262812Y-97812624D01*
X134426784Y-97880544D01*
X134574354Y-97979147D01*
X134699853Y-98104646D01*
X134798456Y-98252216D01*
X134866376Y-98416188D01*
X134901000Y-98590259D01*
X134901000Y-98767741D01*
X134866376Y-98941812D01*
X134798456Y-99105784D01*
X134699853Y-99253354D01*
X134574354Y-99378853D01*
X134426784Y-99477456D01*
X134262812Y-99545376D01*
X134113512Y-99575073D01*
X134088742Y-99580000D01*
X133911258Y-99580000D01*
X133886488Y-99575073D01*
X133737188Y-99545376D01*
X133573216Y-99477456D01*
X133425646Y-99378853D01*
X133300147Y-99253354D01*
X133201544Y-99105784D01*
X133133624Y-98941812D01*
X133099000Y-98767741D01*
X133099000Y-98590259D01*
X133133624Y-98416188D01*
X133201544Y-98252216D01*
X133300147Y-98104646D01*
X133425646Y-97979147D01*
X133573216Y-97880544D01*
X133737188Y-97812624D01*
X133886488Y-97782927D01*
X133911258Y-97778000D01*
X134088742Y-97778000D01*
X134113512Y-97782927D01*
G37*
G36*
X170526047Y-97301068D02*
G01*
X170706325Y-97375742D01*
X170868571Y-97484151D01*
X171006549Y-97622129D01*
X171114958Y-97784375D01*
X171189632Y-97964653D01*
X171227700Y-98156034D01*
X171227700Y-98351166D01*
X171189632Y-98542547D01*
X171114958Y-98722825D01*
X171006549Y-98885071D01*
X170868571Y-99023049D01*
X170706325Y-99131458D01*
X170526047Y-99206132D01*
X170430356Y-99225166D01*
X170334667Y-99244200D01*
X170139533Y-99244200D01*
X169948153Y-99206132D01*
X169767875Y-99131458D01*
X169605629Y-99023049D01*
X169467651Y-98885071D01*
X169359242Y-98722825D01*
X169284568Y-98542547D01*
X169246500Y-98351166D01*
X169246500Y-98156034D01*
X169284568Y-97964653D01*
X169359242Y-97784375D01*
X169467651Y-97622129D01*
X169605629Y-97484151D01*
X169767875Y-97375742D01*
X169948153Y-97301068D01*
X170043844Y-97282034D01*
X170139533Y-97263000D01*
X170334667Y-97263000D01*
X170526047Y-97301068D01*
G37*
G36*
X139711900Y-98854400D02*
G01*
X138610300Y-98854400D01*
X138610300Y-97652800D01*
X139711900Y-97652800D01*
X139711900Y-98854400D01*
G37*
G36*
X141411900Y-98854400D02*
G01*
X140310300Y-98854400D01*
X140310300Y-97652800D01*
X141411900Y-97652800D01*
X141411900Y-98854400D01*
G37*
G36*
X143355900Y-97799400D02*
G01*
X142254300Y-97799400D01*
X142254300Y-96597800D01*
X143355900Y-96597800D01*
X143355900Y-97799400D01*
G37*
G36*
X170684356Y-94742034D02*
G01*
X170780047Y-94761068D01*
X170960325Y-94835742D01*
X171122571Y-94944151D01*
X171260549Y-95082129D01*
X171368958Y-95244375D01*
X171443632Y-95424653D01*
X171481700Y-95616034D01*
X171481700Y-95811166D01*
X171443632Y-96002547D01*
X171368958Y-96182825D01*
X171260549Y-96345071D01*
X171122571Y-96483049D01*
X170960325Y-96591458D01*
X170780047Y-96666132D01*
X170684356Y-96685166D01*
X170588667Y-96704200D01*
X170393533Y-96704200D01*
X170202153Y-96666132D01*
X170021875Y-96591458D01*
X169859629Y-96483049D01*
X169721651Y-96345071D01*
X169613242Y-96182825D01*
X169538568Y-96002547D01*
X169500500Y-95811166D01*
X169500500Y-95616034D01*
X169538568Y-95424653D01*
X169613242Y-95244375D01*
X169721651Y-95082129D01*
X169859629Y-94944151D01*
X170021875Y-94835742D01*
X170202153Y-94761068D01*
X170297844Y-94742034D01*
X170393533Y-94723000D01*
X170588667Y-94723000D01*
X170684356Y-94742034D01*
G37*
G36*
X129051000Y-96430000D02*
G01*
X126749000Y-96430000D01*
X126749000Y-93528000D01*
X129051000Y-93528000D01*
X129051000Y-96430000D01*
G37*
G36*
X141411900Y-96314400D02*
G01*
X140310300Y-96314400D01*
X140310300Y-95112800D01*
X141411900Y-95112800D01*
X141411900Y-96314400D01*
G37*
G36*
X139711900Y-96314400D02*
G01*
X138610300Y-96314400D01*
X138610300Y-95112800D01*
X139711900Y-95112800D01*
X139711900Y-96314400D01*
G37*
G36*
X143355900Y-96099400D02*
G01*
X142254300Y-96099400D01*
X142254300Y-94897800D01*
X143355900Y-94897800D01*
X143355900Y-96099400D01*
G37*
G36*
X147927900Y-95132400D02*
G01*
X146826300Y-95132400D01*
X146826300Y-93930800D01*
X147927900Y-93930800D01*
X147927900Y-95132400D01*
G37*
G36*
X170430356Y-92202034D02*
G01*
X170526047Y-92221068D01*
X170653522Y-92273870D01*
X170676771Y-92283500D01*
X170706325Y-92295742D01*
X170868571Y-92404151D01*
X171006549Y-92542129D01*
X171114958Y-92704375D01*
X171189632Y-92884653D01*
X171227700Y-93076034D01*
X171227700Y-93271166D01*
X171189632Y-93462547D01*
X171114958Y-93642825D01*
X171006549Y-93805071D01*
X170868571Y-93943049D01*
X170706325Y-94051458D01*
X170526047Y-94126132D01*
X170430356Y-94145166D01*
X170334667Y-94164200D01*
X170139533Y-94164200D01*
X170043844Y-94145166D01*
X169948153Y-94126132D01*
X169767875Y-94051458D01*
X169605629Y-93943049D01*
X169467651Y-93805071D01*
X169359242Y-93642825D01*
X169284568Y-93462547D01*
X169246500Y-93271166D01*
X169246500Y-93076034D01*
X169284568Y-92884653D01*
X169359242Y-92704375D01*
X169467651Y-92542129D01*
X169605629Y-92404151D01*
X169767875Y-92295742D01*
X169797430Y-92283500D01*
X169820678Y-92273870D01*
X169948153Y-92221068D01*
X170043844Y-92202034D01*
X170139533Y-92183000D01*
X170334667Y-92183000D01*
X170430356Y-92202034D01*
G37*
G36*
X157182000Y-93883700D02*
G01*
X151250200Y-93883700D01*
X151250200Y-92283500D01*
X157182000Y-92283500D01*
X157182000Y-93883700D01*
G37*
G36*
X147927900Y-93432400D02*
G01*
X146826300Y-93432400D01*
X146826300Y-92230800D01*
X147927900Y-92230800D01*
X147927900Y-93432400D01*
G37*
G36*
X165541900Y-92969400D02*
G01*
X164440300Y-92969400D01*
X164440300Y-89567800D01*
X165541900Y-89567800D01*
X165541900Y-92969400D01*
G37*
G36*
X163841900Y-92969400D02*
G01*
X162740300Y-92969400D01*
X162740300Y-89567800D01*
X163841900Y-89567800D01*
X163841900Y-92969400D01*
G37*
G36*
X170780047Y-89681068D02*
G01*
X170960325Y-89755742D01*
X171122571Y-89864151D01*
X171260549Y-90002129D01*
X171368958Y-90164375D01*
X171443632Y-90344653D01*
X171481700Y-90536034D01*
X171481700Y-90731166D01*
X171443632Y-90922547D01*
X171368958Y-91102825D01*
X171260549Y-91265071D01*
X171122571Y-91403049D01*
X170960325Y-91511458D01*
X170780047Y-91586132D01*
X170684356Y-91605166D01*
X170588667Y-91624200D01*
X170393533Y-91624200D01*
X170202153Y-91586132D01*
X170021875Y-91511458D01*
X169859629Y-91403049D01*
X169721651Y-91265071D01*
X169613242Y-91102825D01*
X169538568Y-90922547D01*
X169500500Y-90731166D01*
X169500500Y-90536034D01*
X169538568Y-90344653D01*
X169613242Y-90164375D01*
X169721651Y-90002129D01*
X169859629Y-89864151D01*
X170021875Y-89755742D01*
X170202153Y-89681068D01*
X170393533Y-89643000D01*
X170588667Y-89643000D01*
X170780047Y-89681068D01*
G37*
G36*
X127051000Y-91384000D02*
G01*
X124749000Y-91384000D01*
X124749000Y-88482000D01*
X127051000Y-88482000D01*
X127051000Y-91384000D01*
G37*
G36*
X136751000Y-91384000D02*
G01*
X133849000Y-91384000D01*
X133849000Y-88482000D01*
X136751000Y-88482000D01*
X136751000Y-91384000D01*
G37*
G36*
X139711900Y-91234400D02*
G01*
X138610300Y-91234400D01*
X138610300Y-90032800D01*
X139711900Y-90032800D01*
X139711900Y-91234400D01*
G37*
G36*
X141411900Y-91234400D02*
G01*
X140310300Y-91234400D01*
X140310300Y-90032800D01*
X141411900Y-90032800D01*
X141411900Y-91234400D01*
G37*
G36*
X149921900Y-91184400D02*
G01*
X148720300Y-91184400D01*
X148720300Y-90082800D01*
X149921900Y-90082800D01*
X149921900Y-91184400D01*
G37*
G36*
X151621900Y-91184400D02*
G01*
X150420300Y-91184400D01*
X150420300Y-90082800D01*
X151621900Y-90082800D01*
X151621900Y-91184400D01*
G37*
G36*
X143355900Y-90814400D02*
G01*
X142254300Y-90814400D01*
X142254300Y-89612800D01*
X143355900Y-89612800D01*
X143355900Y-90814400D01*
G37*
G36*
X154796900Y-89914400D02*
G01*
X153595300Y-89914400D01*
X153595300Y-88812800D01*
X154796900Y-88812800D01*
X154796900Y-89914400D01*
G37*
G36*
X153096900Y-89914400D02*
G01*
X151895300Y-89914400D01*
X151895300Y-88812800D01*
X153096900Y-88812800D01*
X153096900Y-89914400D01*
G37*
G36*
X156271900Y-89914400D02*
G01*
X155070300Y-89914400D01*
X155070300Y-88812800D01*
X156271900Y-88812800D01*
X156271900Y-89914400D01*
G37*
G36*
X157971900Y-89914400D02*
G01*
X156770300Y-89914400D01*
X156770300Y-88812800D01*
X157971900Y-88812800D01*
X157971900Y-89914400D01*
G37*
G36*
X143355900Y-89114400D02*
G01*
X142254300Y-89114400D01*
X142254300Y-87912800D01*
X143355900Y-87912800D01*
X143355900Y-89114400D01*
G37*
G36*
X170526047Y-87141068D02*
G01*
X170706325Y-87215742D01*
X170868571Y-87324151D01*
X171006549Y-87462129D01*
X171114958Y-87624375D01*
X171114959Y-87624377D01*
X171136830Y-87677178D01*
X171189632Y-87804653D01*
X171227700Y-87996034D01*
X171227700Y-88191166D01*
X171189632Y-88382547D01*
X171114958Y-88562825D01*
X171006549Y-88725071D01*
X170868571Y-88863049D01*
X170706325Y-88971458D01*
X170526047Y-89046132D01*
X170334667Y-89084200D01*
X170139533Y-89084200D01*
X169948153Y-89046132D01*
X169767875Y-88971458D01*
X169605629Y-88863049D01*
X169467651Y-88725071D01*
X169359242Y-88562825D01*
X169284568Y-88382547D01*
X169246500Y-88191166D01*
X169246500Y-87996034D01*
X169284568Y-87804653D01*
X169337370Y-87677178D01*
X169359241Y-87624377D01*
X169359242Y-87624375D01*
X169467651Y-87462129D01*
X169605629Y-87324151D01*
X169767875Y-87215742D01*
X169948153Y-87141068D01*
X170139533Y-87103000D01*
X170334667Y-87103000D01*
X170526047Y-87141068D01*
G37*
G36*
X141411900Y-88694400D02*
G01*
X140310300Y-88694400D01*
X140310300Y-87492800D01*
X141411900Y-87492800D01*
X141411900Y-88694400D01*
G37*
G36*
X139711900Y-88694400D02*
G01*
X138610300Y-88694400D01*
X138610300Y-87492800D01*
X139711900Y-87492800D01*
X139711900Y-88694400D01*
G37*
G36*
X152561900Y-87624400D02*
G01*
X151160300Y-87624400D01*
X151160300Y-86022800D01*
X152561900Y-86022800D01*
X152561900Y-87624400D01*
G37*
G36*
X154261900Y-87624400D02*
G01*
X152860300Y-87624400D01*
X152860300Y-86022800D01*
X154261900Y-86022800D01*
X154261900Y-87624400D01*
G37*
G36*
X156221900Y-87424400D02*
G01*
X155120300Y-87424400D01*
X155120300Y-86222800D01*
X156221900Y-86222800D01*
X156221900Y-87424400D01*
G37*
G36*
X157921900Y-87424400D02*
G01*
X156820300Y-87424400D01*
X156820300Y-86222800D01*
X157921900Y-86222800D01*
X157921900Y-87424400D01*
G37*
G36*
X134113512Y-85336927D02*
G01*
X134262812Y-85366624D01*
X134426784Y-85434544D01*
X134574354Y-85533147D01*
X134699853Y-85658646D01*
X134798456Y-85806216D01*
X134866376Y-85970188D01*
X134901000Y-86144259D01*
X134901000Y-86321741D01*
X134866376Y-86495812D01*
X134798456Y-86659784D01*
X134699853Y-86807354D01*
X134574354Y-86932853D01*
X134426784Y-87031456D01*
X134262812Y-87099376D01*
X134113512Y-87129073D01*
X134088742Y-87134000D01*
X133911258Y-87134000D01*
X133886488Y-87129073D01*
X133737188Y-87099376D01*
X133573216Y-87031456D01*
X133425646Y-86932853D01*
X133300147Y-86807354D01*
X133201544Y-86659784D01*
X133133624Y-86495812D01*
X133099000Y-86321741D01*
X133099000Y-86144259D01*
X133133624Y-85970188D01*
X133201544Y-85806216D01*
X133300147Y-85658646D01*
X133425646Y-85533147D01*
X133573216Y-85434544D01*
X133737188Y-85366624D01*
X133886488Y-85336927D01*
X133911258Y-85332000D01*
X134088742Y-85332000D01*
X134113512Y-85336927D01*
G37*
G36*
X127113512Y-85336927D02*
G01*
X127262812Y-85366624D01*
X127426784Y-85434544D01*
X127574354Y-85533147D01*
X127699853Y-85658646D01*
X127798456Y-85806216D01*
X127866376Y-85970188D01*
X127901000Y-86144259D01*
X127901000Y-86321741D01*
X127866376Y-86495812D01*
X127798456Y-86659784D01*
X127699853Y-86807354D01*
X127574354Y-86932853D01*
X127426784Y-87031456D01*
X127262812Y-87099376D01*
X127113512Y-87129073D01*
X127088742Y-87134000D01*
X126911258Y-87134000D01*
X126886488Y-87129073D01*
X126737188Y-87099376D01*
X126573216Y-87031456D01*
X126425646Y-86932853D01*
X126300147Y-86807354D01*
X126201544Y-86659784D01*
X126133624Y-86495812D01*
X126099000Y-86321741D01*
X126099000Y-86144259D01*
X126133624Y-85970188D01*
X126201544Y-85806216D01*
X126300147Y-85658646D01*
X126425646Y-85533147D01*
X126573216Y-85434544D01*
X126737188Y-85366624D01*
X126886488Y-85336927D01*
X126911258Y-85332000D01*
X127088742Y-85332000D01*
X127113512Y-85336927D01*
G37*
G36*
X170780047Y-84601068D02*
G01*
X170960325Y-84675742D01*
X171122571Y-84784151D01*
X171260549Y-84922129D01*
X171368958Y-85084375D01*
X171368959Y-85084377D01*
X171443632Y-85264654D01*
X171481700Y-85456033D01*
X171481700Y-85651167D01*
X171443632Y-85842546D01*
X171368969Y-86022800D01*
X171368958Y-86022825D01*
X171260549Y-86185071D01*
X171122571Y-86323049D01*
X170960325Y-86431458D01*
X170780047Y-86506132D01*
X170684356Y-86525166D01*
X170588667Y-86544200D01*
X170393533Y-86544200D01*
X170202153Y-86506132D01*
X170021875Y-86431458D01*
X169859629Y-86323049D01*
X169721651Y-86185071D01*
X169613242Y-86022825D01*
X169613232Y-86022800D01*
X169538568Y-85842546D01*
X169500500Y-85651167D01*
X169500500Y-85456033D01*
X169538568Y-85264654D01*
X169613241Y-85084377D01*
X169613242Y-85084375D01*
X169721651Y-84922129D01*
X169859629Y-84784151D01*
X170021875Y-84675742D01*
X170202153Y-84601068D01*
X170393533Y-84563000D01*
X170588667Y-84563000D01*
X170780047Y-84601068D01*
G37*
G36*
X141411900Y-86154400D02*
G01*
X140310300Y-86154400D01*
X140310300Y-84952800D01*
X141411900Y-84952800D01*
X141411900Y-86154400D01*
G37*
G36*
X139711900Y-86154400D02*
G01*
X138610300Y-86154400D01*
X138610300Y-84952800D01*
X139711900Y-84952800D01*
X139711900Y-86154400D01*
G37*
G36*
X143355900Y-85099400D02*
G01*
X142254300Y-85099400D01*
X142254300Y-83897800D01*
X143355900Y-83897800D01*
X143355900Y-85099400D01*
G37*
G36*
X129051000Y-83984000D02*
G01*
X126749000Y-83984000D01*
X126749000Y-81082000D01*
X129051000Y-81082000D01*
X129051000Y-83984000D01*
G37*
G36*
X147126356Y-80669898D02*
G01*
X147232679Y-80691047D01*
X147533142Y-80815503D01*
X147803551Y-80996185D01*
X148033515Y-81226149D01*
X148214197Y-81496558D01*
X148338653Y-81797021D01*
X148402100Y-82115991D01*
X148402100Y-82441209D01*
X148338653Y-82760179D01*
X148214197Y-83060642D01*
X148033515Y-83331051D01*
X147803551Y-83561015D01*
X147533142Y-83741697D01*
X147232679Y-83866153D01*
X147126356Y-83887302D01*
X146913711Y-83929600D01*
X146588489Y-83929600D01*
X146375844Y-83887302D01*
X146269521Y-83866153D01*
X145969058Y-83741697D01*
X145698649Y-83561015D01*
X145468685Y-83331051D01*
X145288003Y-83060642D01*
X145163547Y-82760179D01*
X145100100Y-82441209D01*
X145100100Y-82115991D01*
X145163547Y-81797021D01*
X145288003Y-81496558D01*
X145468685Y-81226149D01*
X145698649Y-80996185D01*
X145969058Y-80815503D01*
X146269521Y-80691047D01*
X146375844Y-80669898D01*
X146588489Y-80627600D01*
X146913711Y-80627600D01*
X147126356Y-80669898D01*
G37*
G36*
X171001356Y-80669898D02*
G01*
X171107679Y-80691047D01*
X171408142Y-80815503D01*
X171678551Y-80996185D01*
X171908515Y-81226149D01*
X172089197Y-81496558D01*
X172213653Y-81797021D01*
X172277100Y-82115991D01*
X172277100Y-82441209D01*
X172213653Y-82760179D01*
X172089197Y-83060642D01*
X171908515Y-83331051D01*
X171678551Y-83561015D01*
X171408142Y-83741697D01*
X171107679Y-83866153D01*
X171001356Y-83887302D01*
X170788711Y-83929600D01*
X170463489Y-83929600D01*
X170250844Y-83887302D01*
X170144521Y-83866153D01*
X169844058Y-83741697D01*
X169573649Y-83561015D01*
X169343685Y-83331051D01*
X169163003Y-83060642D01*
X169038547Y-82760179D01*
X168975100Y-82441209D01*
X168975100Y-82115991D01*
X169038547Y-81797021D01*
X169163003Y-81496558D01*
X169343685Y-81226149D01*
X169573649Y-80996185D01*
X169844058Y-80815503D01*
X170144521Y-80691047D01*
X170250844Y-80669898D01*
X170463489Y-80627600D01*
X170788711Y-80627600D01*
X171001356Y-80669898D01*
G37*
G36*
X139711900Y-83614400D02*
G01*
X138610300Y-83614400D01*
X138610300Y-82412800D01*
X139711900Y-82412800D01*
X139711900Y-83614400D01*
G37*
G36*
X141411900Y-83614400D02*
G01*
X140310300Y-83614400D01*
X140310300Y-82412800D01*
X141411900Y-82412800D01*
X141411900Y-83614400D01*
G37*
G36*
X143355900Y-83399400D02*
G01*
X142254300Y-83399400D01*
X142254300Y-82197800D01*
X143355900Y-82197800D01*
X143355900Y-83399400D01*
G37*
M02*
